<svg width="601" height="223" viewBox="0 0 601 223" fill="none" xmlns="http://www.w3.org/2000/svg">
<g filter="url(#filter0_di_4510_3133)">
<path fill-rule="evenodd" clip-rule="evenodd" d="M12.731 104.208L18.4232 111.133C19.0519 111.898 20.1732 112.015 20.9276 111.395L25.0256 108.027L102.439 202.208C103.697 203.737 105.939 203.972 107.448 202.732L174.382 147.715C175.89 146.475 176.094 144.229 174.837 142.699L97.4232 48.5184L100.155 46.2728C100.91 45.6527 101.011 44.5299 100.383 43.765L94.6906 36.8399C94.0618 36.075 92.9406 35.9576 92.1861 36.5777L68.2813 56.2268L62.2172 48.8492C61.1651 47.5693 59.2746 47.3846 57.9947 48.4366L30.529 71.0125C29.249 72.0646 29.0643 73.9551 30.1164 75.2351L36.1804 82.6126L12.9586 101.7C12.2041 102.32 12.1023 103.443 12.731 104.208ZM58.174 55.2515C58.6007 54.9008 59.2309 54.9624 59.5815 55.389L63.5003 60.1566L40.9614 78.6828L37.0427 73.9153C36.692 73.4886 36.7535 72.8584 37.1802 72.5077L58.174 55.2515Z" fill="#EE36B0"/>
<path d="M25.0239 108.03L97.4207 48.5225L98.8454 50.2559L26.4487 109.764L25.0239 108.03Z" fill="#EE36B0"/>
<path d="M31.0645 115.393L103.48 55.8692L106.615 59.6825L34.1989 119.206L31.0645 115.393Z" fill="#EE36B0"/>
<path d="M51.3015 116.786C52.929 115.448 55.3329 115.683 56.6705 117.311L110.906 183.314C112.244 184.941 112.009 187.344 110.382 188.682C108.754 190.02 106.35 189.785 105.012 188.157L50.7765 122.154C49.4392 120.527 49.6742 118.123 51.3015 116.786Z" fill="#EE36B0"/>
<path d="M71.444 100.229C73.0716 98.8912 75.4755 99.1263 76.8131 100.754L131.049 166.757C132.386 168.384 132.151 170.788 130.524 172.125C128.897 173.463 126.493 173.228 125.155 171.6L70.9191 105.597C69.5818 103.97 69.8168 101.567 71.444 100.229Z" fill="#EE36B0"/>
<path d="M91.239 83.9585C92.8665 82.6207 95.2704 82.8558 96.608 84.4836L150.844 150.487C152.181 152.114 151.946 154.517 150.319 155.855C148.691 157.193 146.288 156.957 144.95 155.33L90.714 89.3268C89.3767 87.6994 89.6117 85.296 91.239 83.9585Z" fill="#EE36B0"/>
<path d="M61.199 108.651C62.7308 107.392 64.9933 107.613 66.2522 109.145L120.774 175.494C122.032 177.026 121.811 179.288 120.28 180.547C118.748 181.806 116.485 181.585 115.226 180.053L60.7049 113.703C59.4463 112.172 59.6675 109.91 61.199 108.651Z" fill="#EE36B0"/>
<path d="M81.3411 92.0943C82.8729 90.8352 85.1354 91.0565 86.3942 92.5885L140.916 158.938C142.174 160.469 141.953 162.731 140.422 163.99C138.89 165.249 136.627 165.028 135.368 163.496L80.847 97.1468C79.5884 95.6151 79.8096 93.3532 81.3411 92.0943Z" fill="#EE36B0"/>
<path d="M101.31 75.6803C102.746 74.4999 104.867 74.7073 106.047 76.1436L160.854 142.839C162.034 144.275 161.827 146.396 160.391 147.576C158.955 148.756 156.834 148.549 155.654 147.112L100.847 80.4171C99.6667 78.9811 99.874 76.8605 101.31 75.6803Z" fill="#EE36B0"/>
</g>
<g filter="url(#filter1_di_4510_3133)">
<path fill-rule="evenodd" clip-rule="evenodd" d="M588.064 103.412L582.372 110.337C581.743 111.102 580.622 111.219 579.867 110.599L575.769 107.231L498.356 201.412C497.098 202.942 494.856 203.176 493.347 201.936L426.413 146.919C424.905 145.679 424.701 143.433 425.958 141.903L503.372 47.7225L500.64 45.4769C499.885 44.8568 499.783 43.734 500.412 42.9691L506.104 36.044C506.733 35.2791 507.854 35.1617 508.609 35.7818L532.514 55.4309L538.578 48.0534C539.63 46.7734 541.52 46.5887 542.8 47.6407L570.266 70.2166C571.546 71.2687 571.731 73.1592 570.679 74.4392L564.614 81.8167L587.836 100.904C588.591 101.524 588.693 102.647 588.064 103.412ZM542.621 54.4556C542.194 54.1049 541.564 54.1665 541.213 54.5931L537.295 59.3607L559.834 77.8869L563.752 73.1194C564.103 72.6927 564.041 72.0625 563.615 71.7119L542.621 54.4556Z" fill="#EE36B0"/>
<path d="M575.771 107.236L503.374 47.7286L501.949 49.4619L574.346 108.97L575.771 107.236Z" fill="#EE36B0"/>
<path d="M569.73 114.597L497.314 55.0733L494.18 58.8866L566.596 118.41L569.73 114.597Z" fill="#EE36B0"/>
<path d="M549.493 115.992C547.866 114.654 545.462 114.889 544.124 116.517L489.888 182.52C488.551 184.147 488.786 186.55 490.413 187.888C492.041 189.226 494.445 188.991 495.782 187.363L550.018 121.36C551.356 119.733 551.121 117.329 549.493 115.992Z" fill="#EE36B0"/>
<path d="M529.351 99.4341C527.723 98.0963 525.319 98.3314 523.982 99.9591L469.746 165.962C468.409 167.59 468.644 169.993 470.271 171.33C471.898 172.668 474.302 172.433 475.64 170.805L529.876 104.802C531.213 103.175 530.978 100.772 529.351 99.4341Z" fill="#EE36B0"/>
<path d="M509.555 83.1636C507.928 81.8258 505.524 82.0609 504.186 83.6886L449.95 149.692C448.613 151.319 448.848 153.722 450.475 155.06C452.103 156.398 454.507 156.163 455.844 154.535L510.08 88.5318C511.418 86.9044 511.183 84.5011 509.555 83.1636Z" fill="#EE36B0"/>
<path d="M539.596 107.856C538.064 106.597 535.802 106.818 534.543 108.35L480.021 174.699C478.763 176.231 478.984 178.493 480.515 179.752C482.047 181.011 484.31 180.79 485.569 179.258L540.09 112.909C541.349 111.377 541.127 109.115 539.596 107.856Z" fill="#EE36B0"/>
<path d="M519.453 91.3004C517.922 90.0413 515.659 90.2625 514.4 91.7945L459.879 158.144C458.62 159.675 458.841 161.937 460.373 163.196C461.905 164.455 464.167 164.234 465.426 162.702L519.947 96.3529C521.206 94.8212 520.985 92.5592 519.453 91.3004Z" fill="#EE36B0"/>
<path d="M499.485 74.8854C498.049 73.705 495.927 73.9124 494.747 75.3486L439.94 142.044C438.76 143.48 438.968 145.601 440.403 146.781C441.84 147.961 443.961 147.754 445.141 146.318L499.948 79.6221C501.128 78.1862 500.92 76.0656 499.485 74.8854Z" fill="#EE36B0"/>
</g>
<g opacity="0.46" filter="url(#filter2_di_4510_3133)">
<path fill-rule="evenodd" clip-rule="evenodd" d="M482.016 126.736C491.926 150.661 497.027 176.305 497.027 202.202H398.426C397.911 199.11 398.49 197.401 398.973 195.98C399.353 194.859 399.672 193.918 399.347 192.618C398.61 189.669 396.399 189.301 391.975 190.406C388.136 191.366 386.796 190.938 383.376 189.844C382.856 189.677 382.287 189.495 381.655 189.301C379.338 188.588 377.797 189.167 376.031 189.831C374.145 190.541 372.002 191.346 368.385 190.775C364.481 190.159 362.983 188.626 361.399 187.007C360.142 185.722 358.832 184.382 356.221 183.403C350.323 181.191 346.269 174.925 339.265 160.918C334.107 150.601 337.748 146.483 340.466 143.41C341.438 142.31 342.292 141.345 342.583 140.277C343.045 138.583 342.928 136.89 342.796 134.982C342.613 132.321 342.401 129.243 343.689 125.164C345.027 120.925 347.987 118.981 350.686 117.209C352.447 116.053 354.097 114.969 355.115 113.369C355.424 112.883 355.712 112.403 355.994 111.933C358.061 108.484 359.773 105.628 366.911 105.628C372.611 105.628 376.126 108.907 378.351 110.983C379.291 111.86 380.001 112.522 380.549 112.632C380.756 112.673 380.972 112.724 381.201 112.777C383.013 113.202 385.634 113.816 390.87 111.526C396.153 109.214 399.661 113.115 401.13 114.747C401.301 114.937 401.444 115.097 401.559 115.212C402.665 116.318 410.774 119.635 415.197 117.055C417.817 115.526 420.437 116.714 423.134 117.936C424.99 118.777 426.882 119.635 428.836 119.635C433.627 119.635 433.627 113.369 429.941 111.157C427.995 109.989 428.001 108.822 428.007 107.817C428.012 106.918 428.016 106.15 426.624 105.628C425.248 105.112 423.472 105.399 421.594 105.701C419.445 106.047 417.164 106.415 415.197 105.628C412.248 104.449 412.617 103.048 413.723 100.836C415.197 94.5701 404.876 90.8841 404.876 98.6247C404.876 100.099 404.876 103.416 400.453 104.154C396.915 104.743 396.767 100.713 397.136 98.6247C394.357 98.6247 394.002 96.0272 393.698 93.7994C393.558 92.777 393.429 91.8324 393.081 91.2527C391.975 89.4097 389.395 86.0922 387.184 86.0922C384.972 86.0922 388.289 92.3585 391.238 94.2015C394.187 96.0445 393.818 99.3619 391.238 98.6247C390.005 98.2723 389.361 99.52 388.743 100.717C388.069 102.025 387.425 103.273 386.078 102.311C384.752 101.364 385.178 99.3461 385.555 97.5582C385.913 95.8667 386.226 94.3807 384.972 94.2015C383.317 93.9651 381.511 91.4542 379.747 89.003C378.761 87.6324 377.788 86.2804 376.863 85.355C374.605 83.0974 373.476 83.944 371.501 85.4256C371.219 85.6373 370.919 85.8619 370.597 86.0922C369.658 86.7626 369.158 87.7256 368.654 88.6974C367.772 90.3972 366.877 92.1239 363.593 92.3585C360.722 92.5636 359.904 95.0514 359.109 97.472C358.476 99.4014 357.856 101.288 356.221 101.942C354.136 102.776 352.404 101.959 350.426 101.025C348.908 100.308 347.244 99.5219 345.163 99.3619C341.185 99.0559 341.272 97.48 341.416 94.8449C341.445 94.3056 341.477 93.7219 341.477 93.0957C341.477 91.695 340.892 90.6137 340.348 89.609C339.46 87.9698 338.683 86.5346 340.74 84.2492C342.939 81.806 345.947 81.4681 348.37 81.1959C349.603 81.0575 350.684 80.9361 351.429 80.5632C353.641 79.4574 353.272 76.8772 351.429 73.9284C349.586 70.9796 349.586 67.2936 354.747 67.6622C358.875 67.9571 361.136 66.5564 361.75 65.8192C365.866 61.3606 367.109 61.3697 370.232 61.3925C370.465 61.3942 370.709 61.396 370.965 61.396C373.331 61.396 373.599 60.4601 373.994 59.0855C374.342 57.872 374.789 56.3166 376.863 54.7612C379.315 52.922 381.541 53.3487 383.791 53.7801C385.6 54.1268 387.424 54.4766 389.395 53.6553C393.576 51.9133 397.098 52.8058 399.962 53.5314C400.128 53.5734 400.292 53.6149 400.453 53.6553C402.665 54.2082 403.218 53.1024 404.134 51.271C404.439 50.6605 404.784 49.9693 405.245 49.2321C406.184 47.7296 407.315 46.9927 408.393 46.2899C409.43 45.6134 410.42 44.9686 411.143 43.7031C412.617 41.1229 408.931 39.6485 408.194 41.4915C407.457 43.3345 405.982 45.9147 403.402 45.5461C402.301 45.3889 401.67 44.2924 401.108 43.3157C400.352 42.003 399.721 40.9065 398.242 42.5973C397.13 43.8672 396.976 44.8637 396.837 45.7634C396.653 46.9528 396.495 47.973 394.187 49.2321C392.14 50.3486 390.845 49.5864 389.258 48.6526C387.701 47.7366 385.863 46.6555 382.76 47.0205C376.494 47.7577 373.545 45.9147 372.808 43.3345C372.149 41.0276 372.963 40.194 374.654 38.4626C374.854 38.2575 375.067 38.0397 375.291 37.8055C376.201 36.8538 376.327 35.9703 376.478 34.9201C376.678 33.5299 376.919 31.8474 379.074 29.3277C382.101 25.7891 383.522 24.1673 383.854 23.7987C404.413 33.482 423.165 46.6567 439.268 62.759C457.58 81.0709 472.105 102.81 482.016 126.736ZM345.532 10.3699C330.593 6.81051 315.254 5 299.825 5C289.307 5 278.831 5.84145 268.494 7.50483C266.774 9.49583 264.366 13.9939 268.494 16.058C270.866 17.2441 272.771 17.4176 274.173 17.5453C275.82 17.6954 276.773 17.7822 276.972 19.3754C277.212 21.2944 276.359 22.7451 275.124 24.8449C274.462 25.9718 273.69 27.2856 272.917 28.9591C270.706 33.7509 268.863 42.2287 275.866 43.7031C279.769 44.5248 282.07 42.5987 284.298 40.7324C286.069 39.2501 287.794 37.8055 290.242 37.8055C294.374 37.8055 298.094 35.5409 300.479 34.0889C301.286 33.598 301.94 33.1999 302.405 33.0137C302.872 32.8271 303.22 32.6642 303.582 32.495C304.65 31.9955 305.834 31.4415 310.515 30.0649C312.248 29.5549 313.644 29.3272 314.841 29.1318C317.97 28.6209 319.746 28.3311 322.678 23.7987C326.733 17.5324 328.207 16.7952 331.156 16.4266C331.618 16.3689 332.007 16.3293 332.344 16.295C334.159 16.1102 334.451 16.0805 336.317 14.215C337.26 13.272 338.538 13.1424 339.922 13.0019C341.785 12.813 343.84 12.6045 345.532 10.3699ZM257.805 9.52896C252.469 10.6925 247.181 12.0779 241.955 13.6824C242.569 14.8429 244.093 17.385 245.272 18.2696C245.335 18.3169 245.397 18.3628 245.457 18.4075C246.803 19.4096 247.358 19.8228 244.535 21.5871C244.073 21.8755 243.684 22.1098 243.347 22.3125C241.532 23.405 241.24 23.5807 239.375 26.3789C238.524 27.6553 237.618 28.4952 236.889 29.1714C235.723 30.2528 235.008 30.9158 235.689 32.2765C236.23 33.3597 238.01 33.0281 239.944 32.6677C241.96 32.2922 244.144 31.8853 245.272 33.0137C245.707 33.4482 246.155 33.9823 246.627 34.5433C248.555 36.8379 250.861 39.5826 254.119 37.8055C256.206 36.6668 255.46 35.0396 254.698 33.3766C253.979 31.8096 253.246 30.2108 254.856 28.9591C256.16 27.9445 257.465 27.4998 258.478 27.1545C260.041 26.6216 260.911 26.3252 260.016 24.5359C259.346 23.1958 258.372 22.5409 257.439 21.9138C256.318 21.1609 255.258 20.4481 254.856 18.6382C254.533 17.1845 255.201 16.4084 255.991 15.4901C257.004 14.3127 258.219 12.9016 257.805 9.52896ZM216.153 23.6312C195.454 33.3298 176.578 46.5637 160.383 62.759C142.071 81.0709 127.545 102.81 117.635 126.736C115.888 130.953 114.29 135.224 112.844 139.539C106.085 159.709 102.624 180.869 102.624 202.202H129.531L210.255 202.202C208.289 199.13 204.284 192.765 203.989 191.881C203.62 190.775 199.566 188.563 192.194 185.246C188.732 183.688 186.49 183.593 184.551 183.511C182.36 183.419 180.556 183.342 177.818 181.191C174.636 178.691 172.294 179.134 169.93 179.582C168.46 179.861 166.981 180.141 165.286 179.717C160.863 178.611 160.383 177.505 162.337 171.976C163.688 168.155 162.238 168.031 159.911 167.832C158.872 167.744 157.657 167.64 156.439 167.184C154.392 166.419 154.669 165.455 155.048 164.137C155.399 162.917 155.837 161.393 154.596 159.444C153.128 157.136 151.421 157.455 149.475 157.819C148.001 158.094 146.391 158.395 144.644 157.601C142.36 156.562 141.947 155.524 141.561 154.552C141.262 153.798 140.979 153.084 139.852 152.44C137.898 151.324 135.944 148.516 134.15 145.938C133.575 145.112 133.017 144.31 132.48 143.594C130.813 141.371 131.45 139.567 132.496 136.604C132.838 135.636 133.223 134.544 133.586 133.273C134.505 130.056 134.135 128.309 133.815 126.801C133.622 125.89 133.447 125.066 133.586 124.058C133.955 121.38 136.166 118.898 139.852 118.898C143.538 118.898 145.013 118.898 148.699 117.055C152.385 115.212 156.439 115.212 160.383 118.898C162.299 120.689 161.769 123.612 161.227 126.61C160.653 129.779 160.063 133.032 162.337 135.116C166.76 139.171 168.235 129.956 168.603 126.736C168.972 123.516 170.815 119.635 173.764 117.055C175.668 115.389 177.879 114.03 180.398 112.482C181.78 111.633 183.255 110.727 184.822 109.683C188.179 107.445 188.139 106.268 188.085 104.703C188.068 104.206 188.05 103.67 188.139 103.048C188.321 101.776 190.203 101.042 192.066 100.315C193.983 99.5672 195.88 98.8275 195.88 97.5189C195.88 94.9387 199.934 91.2527 202.514 90.1469C205.095 89.0411 208.781 82.7748 210.255 79.826C211.109 78.1177 212.953 78.6361 215.07 79.2313C216.607 79.6635 218.288 80.1362 219.839 79.826C222.794 79.235 221.958 78.1702 220.751 76.6315C220.452 76.2509 220.131 75.8414 219.839 75.4028C218.364 73.1912 219.839 71.7168 223.511 71.7168C225.07 71.7168 226.172 72.3815 227.205 73.0053C228.606 73.8503 229.882 74.6202 232.003 73.5598C235.689 71.7168 241.586 71.7168 245.272 71.7168C248.958 71.7168 248.958 68.768 247.484 65.4506C246.009 62.1332 247.852 60.2902 251.17 58.4472C253.766 57.005 252.299 55.3372 250.479 53.267C249.973 52.6916 249.439 52.0851 248.958 51.4437C247.82 49.9259 248.439 48.8963 249.007 47.9529C249.542 47.0635 250.031 46.2507 248.958 45.1775C247.963 44.1819 247.714 42.8876 247.473 41.6307C247.178 40.0955 246.894 38.6162 245.272 37.8055C243.581 36.9601 242.254 37.2054 240.665 37.499C239.483 37.7175 238.156 37.9627 236.426 37.8055C233.416 37.5319 232.031 39.0858 230.764 40.5079C230.324 41.0019 229.897 41.48 229.422 41.8601C227.83 43.1336 223.764 44.4071 221.972 44.9681C221.69 45.0566 221.464 45.1273 221.313 45.1775C220.428 45.4724 217.504 49.4779 216.153 51.4437C215.415 52.0581 213.425 53.5079 211.361 54.3925C210.3 54.847 209.676 56.3413 209.078 57.7724C208.22 59.8232 207.417 61.7443 205.463 60.2902C203.953 59.1662 203.589 57.6905 203.223 56.2077C202.784 54.4332 202.344 52.6485 199.934 51.4437C195.511 49.2321 195.142 47.0205 195.88 42.9659C196.34 40.4357 203.116 37.1877 208.773 34.4761C212.181 32.8425 215.183 31.4035 216.153 30.4335C218.217 28.3693 217.013 25.0385 216.153 23.6312ZM231.248 80.6902C231.147 79.6151 230.867 76.6317 238.637 77.983C247.115 79.4574 241.586 84.6178 236.794 82.7748C234.233 81.7895 233.356 81.6471 232.814 81.5589C232.342 81.4821 232.123 81.4465 231.265 80.9318C231.265 80.8703 231.258 80.7882 231.248 80.6902Z" fill="#EE36B0"/>
</g>
<defs>
<filter id="filter0_di_4510_3133" x="0" y="29.8623" width="188.298" height="192.301" filterUnits="userSpaceOnUse" color-interpolation-filters="sRGB">
<feFlood flood-opacity="0" result="BackgroundImageFix"/>
<feColorMatrix in="SourceAlpha" type="matrix" values="0 0 0 0 0 0 0 0 0 0 0 0 0 0 0 0 0 0 127 0" result="hardAlpha"/>
<feOffset dy="6"/>
<feGaussianBlur stdDeviation="6"/>
<feComposite in2="hardAlpha" operator="out"/>
<feColorMatrix type="matrix" values="0 0 0 0 0 0 0 0 0 0 0 0 0 0 0 0 0 0 0.15 0"/>
<feBlend mode="normal" in2="BackgroundImageFix" result="effect1_dropShadow_4510_3133"/>
<feBlend mode="normal" in="SourceGraphic" in2="effect1_dropShadow_4510_3133" result="shape"/>
<feColorMatrix in="SourceAlpha" type="matrix" values="0 0 0 0 0 0 0 0 0 0 0 0 0 0 0 0 0 0 127 0" result="hardAlpha"/>
<feOffset dy="6"/>
<feGaussianBlur stdDeviation="3"/>
<feComposite in2="hardAlpha" operator="arithmetic" k2="-1" k3="1"/>
<feColorMatrix type="matrix" values="0 0 0 0 1 0 0 0 0 1 0 0 0 0 1 0 0 0 0.3 0"/>
<feBlend mode="normal" in2="shape" result="effect2_innerShadow_4510_3133"/>
</filter>
<filter id="filter1_di_4510_3133" x="412.497" y="29.0664" width="188.298" height="192.301" filterUnits="userSpaceOnUse" color-interpolation-filters="sRGB">
<feFlood flood-opacity="0" result="BackgroundImageFix"/>
<feColorMatrix in="SourceAlpha" type="matrix" values="0 0 0 0 0 0 0 0 0 0 0 0 0 0 0 0 0 0 127 0" result="hardAlpha"/>
<feOffset dy="6"/>
<feGaussianBlur stdDeviation="6"/>
<feComposite in2="hardAlpha" operator="out"/>
<feColorMatrix type="matrix" values="0 0 0 0 0 0 0 0 0 0 0 0 0 0 0 0 0 0 0.15 0"/>
<feBlend mode="normal" in2="BackgroundImageFix" result="effect1_dropShadow_4510_3133"/>
<feBlend mode="normal" in="SourceGraphic" in2="effect1_dropShadow_4510_3133" result="shape"/>
<feColorMatrix in="SourceAlpha" type="matrix" values="0 0 0 0 0 0 0 0 0 0 0 0 0 0 0 0 0 0 127 0" result="hardAlpha"/>
<feOffset dy="6"/>
<feGaussianBlur stdDeviation="3"/>
<feComposite in2="hardAlpha" operator="arithmetic" k2="-1" k3="1"/>
<feColorMatrix type="matrix" values="0 0 0 0 1 0 0 0 0 1 0 0 0 0 1 0 0 0 0.3 0"/>
<feBlend mode="normal" in2="shape" result="effect2_innerShadow_4510_3133"/>
</filter>
<filter id="filter2_di_4510_3133" x="93.6235" y="0" width="412.403" height="215.201" filterUnits="userSpaceOnUse" color-interpolation-filters="sRGB">
<feFlood flood-opacity="0" result="BackgroundImageFix"/>
<feColorMatrix in="SourceAlpha" type="matrix" values="0 0 0 0 0 0 0 0 0 0 0 0 0 0 0 0 0 0 127 0" result="hardAlpha"/>
<feOffset dy="4"/>
<feGaussianBlur stdDeviation="4.5"/>
<feComposite in2="hardAlpha" operator="out"/>
<feColorMatrix type="matrix" values="0 0 0 0 0 0 0 0 0 0 0 0 0 0 0 0 0 0 0.35 0"/>
<feBlend mode="normal" in2="BackgroundImageFix" result="effect1_dropShadow_4510_3133"/>
<feBlend mode="normal" in="SourceGraphic" in2="effect1_dropShadow_4510_3133" result="shape"/>
<feColorMatrix in="SourceAlpha" type="matrix" values="0 0 0 0 0 0 0 0 0 0 0 0 0 0 0 0 0 0 127 0" result="hardAlpha"/>
<feOffset dy="5"/>
<feGaussianBlur stdDeviation="4"/>
<feComposite in2="hardAlpha" operator="arithmetic" k2="-1" k3="1"/>
<feColorMatrix type="matrix" values="0 0 0 0 1 0 0 0 0 1 0 0 0 0 1 0 0 0 0.95 0"/>
<feBlend mode="normal" in2="shape" result="effect2_innerShadow_4510_3133"/>
</filter>
</defs>
</svg>
