<svg width="820" height="300" viewBox="0 0 820 300" fill="none" xmlns="http://www.w3.org/2000/svg">
<rect y="211" width="748" height="89" rx="2" fill="#B1B1B1"/>
<path d="M594.727 212H0L83.3268 1.26458C83.6286 0.501381 84.366 0 85.1867 0H674.096C675.497 0 676.464 1.40378 675.965 2.71301L596.595 210.713C596.3 211.488 595.556 212 594.727 212Z" fill="#B1B1B1"/>
<ellipse cx="729" cy="119.75" rx="91" ry="91.5" fill="#B1B1B1"/>
<path d="M686 169.25V129.25H726" stroke="#F3F3F3" stroke-width="12"/>
<path d="M773.516 123.193C773.516 129.185 772.392 135.118 770.207 140.654C768.022 146.189 764.82 151.219 760.783 155.456C756.746 159.692 751.954 163.053 746.679 165.346C741.405 167.639 735.752 168.819 730.043 168.819C724.334 168.819 718.681 167.639 713.406 165.346C708.132 163.053 703.339 159.692 699.302 155.456C695.266 151.219 692.063 146.189 689.879 140.654C687.694 135.118 686.569 129.185 686.569 123.193H699.752C699.752 127.368 700.536 131.502 702.058 135.359C703.58 139.216 705.811 142.72 708.624 145.672C711.437 148.624 714.776 150.966 718.451 152.564C722.126 154.161 726.065 154.983 730.043 154.983C734.021 154.983 737.96 154.161 741.635 152.564C745.31 150.966 748.649 148.624 751.462 145.672C754.274 142.72 756.505 139.216 758.028 135.359C759.55 131.502 760.333 127.368 760.333 123.193H773.516Z" fill="#F3F3F3"/>
<mask id="path-6-inside-1_4655_3259" fill="white">
<ellipse cx="17.4132" cy="3.99997" rx="17.4132" ry="3.99997" transform="matrix(-0.866232 -0.499641 0.51838 -0.855151 720.599 115.252)"/>
</mask>
<ellipse cx="17.4132" cy="3.99997" rx="17.4132" ry="3.99997" transform="matrix(-0.866232 -0.499641 0.51838 -0.855151 720.599 115.252)" fill="#F3F3F3"/>
<path d="M692.504 94.4312L707.334 102.985C704.683 107.358 700.79 109.283 698.399 110.043C696.143 110.761 694.387 110.749 693.776 110.731C692.531 110.692 692.155 110.466 693.059 110.744C694.597 111.217 697.398 112.395 700.787 114.351L709.662 99.711L718.536 85.0712C713.595 82.2214 708.39 79.8154 703.718 78.3776C701.517 77.7004 698.486 76.9366 695.218 76.8363C693.595 76.7865 690.987 76.863 688.059 77.7938C684.995 78.7676 680.612 81.0317 677.675 85.8776L692.504 94.4312ZM709.662 99.711L700.787 114.351C704.177 116.306 706.585 118.132 707.751 119.218C708.437 119.857 708.052 119.645 707.418 118.599C707.106 118.086 706.251 116.591 705.808 114.317C705.338 111.906 705.191 107.652 707.843 103.278L722.672 111.832L737.502 120.385C740.439 115.54 740.361 110.702 739.76 107.615C739.185 104.664 737.996 102.397 737.17 101.034C735.505 98.2892 733.358 96.0665 731.689 94.5117C728.146 91.2109 723.477 87.9211 718.536 85.0712L709.662 99.711ZM722.672 111.832L707.843 103.278C710.494 98.9046 714.386 96.9799 716.778 96.2197C719.034 95.5025 720.789 95.5137 721.401 95.5325C722.646 95.5707 723.021 95.7974 722.117 95.5192C720.58 95.0461 717.779 93.8676 714.389 91.9124L705.515 106.552L696.64 121.192C701.581 124.042 706.787 126.448 711.459 127.885C713.66 128.563 716.691 129.326 719.959 129.427C721.581 129.477 724.19 129.4 727.118 128.469C730.181 127.496 734.564 125.231 737.502 120.385L722.672 111.832ZM705.515 106.552L714.389 91.9124C710.999 89.9572 708.591 88.1311 707.425 87.045C706.74 86.4063 707.124 86.6178 707.759 87.6637C708.07 88.1772 708.926 89.6723 709.369 91.9463C709.839 94.3569 709.985 98.6112 707.334 102.985L692.504 94.4312L677.675 85.8776C674.737 90.7235 674.816 95.5606 675.417 98.6483C675.992 101.6 677.18 103.866 678.007 105.229C679.671 107.974 681.818 110.197 683.487 111.751C687.03 115.052 691.7 118.342 696.64 121.192L705.515 106.552Z" fill="#F3F3F3" mask="url(#path-6-inside-1_4655_3259)"/>
<mask id="path-8-inside-2_4655_3259" fill="white">
<ellipse cx="17.2213" cy="4.95361" rx="17.2213" ry="4.95361" transform="matrix(-0.552245 -0.833682 0.845976 -0.533221 723.634 107.188)"/>
</mask>
<ellipse cx="17.2213" cy="4.95361" rx="17.2213" ry="4.95361" transform="matrix(-0.552245 -0.833682 0.845976 -0.533221 723.634 107.188)" fill="#F3F3F3"/>
<path d="M708.804 75.8329L718.258 90.1051C714.955 92.1873 711.576 92.6307 709.15 92.5135C706.884 92.404 705.262 91.816 704.524 91.5073C703.125 90.9229 702.684 90.4064 703.248 90.8884C704.192 91.6952 706.023 93.658 708.023 96.6771L722.505 87.5486L736.988 78.4202C733.735 73.5101 729.873 68.8857 725.858 65.4522C723.942 63.814 721.206 61.7642 717.842 60.3587C715.126 59.2242 707.233 56.5922 699.35 61.5607L708.804 75.8329ZM722.505 87.5486L708.023 96.6771C710.022 99.6962 711.105 102.131 711.471 103.302C711.69 104.001 711.388 103.397 711.416 101.913C711.432 101.129 711.548 99.4454 712.377 97.385C713.264 95.18 715.067 92.3571 718.371 90.2749L727.825 104.547L737.279 118.819C745.162 113.851 745.945 105.75 746.001 102.868C746.07 99.2991 745.278 96.0237 744.534 93.6469C742.975 88.6652 740.24 83.3303 736.988 78.4202L722.505 87.5486ZM727.825 104.547L718.371 90.2749C721.674 88.1927 725.053 87.7493 727.479 87.8665C729.745 87.976 731.367 88.564 732.106 88.8727C733.504 89.4571 733.945 89.9736 733.381 89.4916C732.438 88.6849 730.606 86.722 728.607 83.7029L714.124 92.8314L699.641 101.96C702.894 106.87 706.756 111.494 710.771 114.928C712.687 116.566 715.423 118.616 718.787 120.021C721.503 121.156 729.396 123.788 737.279 118.819L727.825 104.547ZM714.124 92.8314L728.607 83.7029C726.607 80.6838 725.525 78.2489 725.158 77.0783C724.939 76.379 725.241 76.9827 725.213 78.4669C725.197 79.2509 725.081 80.9346 724.252 82.995C723.365 85.2 721.562 88.0229 718.258 90.1051L708.804 75.8329L699.35 61.5607C691.467 66.5293 690.684 74.6303 690.628 77.5117C690.559 81.0809 691.351 84.3563 692.095 86.7332C693.654 91.7148 696.389 97.0497 699.641 101.96L714.124 92.8314Z" fill="#F3F3F3" mask="url(#path-8-inside-2_4655_3259)"/>
<mask id="path-10-inside-3_4655_3259" fill="white">
<ellipse cx="17.0935" cy="6.50881" rx="17.0935" ry="6.50881" transform="matrix(0.00400214 -0.999992 0.999993 0.00380812 730.314 100.913)"/>
</mask>
<ellipse cx="17.0935" cy="6.50881" rx="17.0935" ry="6.50881" transform="matrix(0.00400214 -0.999992 0.999993 0.00380812 730.314 100.913)" fill="#F3F3F3"/>
<path d="M736.959 66.7506L736.891 83.8699C731.239 83.8484 727.839 80.7633 726.718 79.5091C725.594 78.2505 725.365 77.3982 725.519 77.8057C725.78 78.5014 726.293 80.6182 726.28 83.8036L743.4 83.8688L760.519 83.934C760.544 77.6789 759.634 71.2435 757.565 65.7436C756.553 63.0533 754.931 59.6924 752.256 56.6979C749.586 53.7079 744.477 49.6596 737.028 49.6313L736.959 66.7506ZM743.4 83.8688L726.28 83.8036C726.268 86.9889 725.738 89.1018 725.471 89.7955C725.314 90.2018 725.55 89.3513 726.684 88.1013C727.814 86.8557 731.24 83.7965 736.891 83.818L736.822 100.937L736.754 118.057C744.203 118.085 749.344 114.076 752.039 111.106C754.737 108.132 756.386 104.784 757.419 102.101C759.532 96.6173 760.494 90.189 760.519 83.934L743.4 83.8688ZM736.822 100.937L736.891 83.818C742.542 83.8396 745.943 86.9247 747.063 88.1789C748.187 89.4375 748.417 90.2898 748.263 89.8823C748.002 89.1866 747.489 87.0698 747.501 83.8844L730.382 83.8192L713.263 83.754C713.238 90.0091 714.148 96.4445 716.217 101.944C717.229 104.635 718.851 107.996 721.525 110.99C724.196 113.98 729.305 118.028 736.754 118.057L736.822 100.937ZM730.382 83.8192L747.501 83.8844C747.514 80.699 748.044 78.5862 748.311 77.8925C748.468 77.4862 748.232 78.3367 747.098 79.5867C745.967 80.8323 742.542 83.8915 736.891 83.8699L736.959 66.7506L737.028 49.6313C729.579 49.6029 724.438 53.6121 721.743 56.5817C719.045 59.5558 717.396 62.9042 716.362 65.5867C714.249 71.0707 713.288 77.4989 713.263 83.754L730.382 83.8192Z" fill="#F3F3F3" mask="url(#path-10-inside-3_4655_3259)"/>
<mask id="path-12-inside-4_4655_3259" fill="white">
<ellipse cx="17.2038" cy="7.19884" rx="17.2038" ry="7.19884" transform="matrix(0.513326 -0.858193 0.869095 0.494645 741.711 100.566)"/>
</mask>
<ellipse cx="17.2038" cy="7.19884" rx="17.2038" ry="7.19884" transform="matrix(0.513326 -0.858193 0.869095 0.494645 741.711 100.566)" fill="#F3F3F3"/>
<path d="M765.63 74.5985L756.842 89.2903C752.546 86.8452 751.05 83.1566 750.613 81.4576C750.198 79.8427 750.397 78.9659 750.35 79.3002C750.267 79.8913 749.741 81.8402 748.177 84.4554L763.055 92.9235L777.933 101.392C781.247 95.8527 783.736 89.6225 784.585 83.5812C785.004 80.5993 785.147 76.7931 784.129 72.8319C783.088 68.7867 780.441 63.335 774.418 59.9066L765.63 74.5985ZM763.055 92.9235L748.177 84.4554C746.612 87.0706 745.132 88.476 744.645 88.8374C744.37 89.0418 745.055 88.442 746.7 87.9999C748.431 87.5349 752.459 86.9899 756.755 89.435L747.967 104.127L739.18 118.819C745.203 122.247 751.371 121.812 755.493 120.705C759.53 119.621 762.856 117.626 765.311 115.803C770.285 112.11 774.62 106.93 777.933 101.392L763.055 92.9235ZM747.967 104.127L756.755 89.435C761.051 91.88 762.547 95.5687 762.984 97.2677C763.399 98.8826 763.201 99.7593 763.248 99.4251C763.331 98.8339 763.856 96.885 765.421 94.2698L750.542 85.8018L735.664 77.3337C732.351 82.8725 729.861 89.1028 729.012 95.144C728.594 98.126 728.45 101.932 729.469 105.893C730.509 109.939 733.156 115.39 739.18 118.819L747.967 104.127ZM750.542 85.8018L765.421 94.2698C766.985 91.6546 768.465 90.2492 768.952 89.8878C769.227 89.6835 768.542 90.2833 766.897 90.7253C765.166 91.1903 761.138 91.7353 756.842 89.2903L765.63 74.5985L774.418 59.9066C768.394 56.4783 762.226 56.9128 758.104 58.02C754.068 59.1042 750.741 61.0989 748.286 62.9219C743.312 66.6153 738.977 71.7948 735.664 77.3337L750.542 85.8018Z" fill="#F3F3F3" mask="url(#path-12-inside-4_4655_3259)"/>
<mask id="path-14-inside-5_4655_3259" fill="white">
<ellipse cx="17.4224" cy="7.74578" rx="17.4224" ry="7.74578" transform="matrix(0.878308 -0.478095 0.496559 0.868003 753.74 106.224)"/>
</mask>
<ellipse cx="17.4224" cy="7.74578" rx="17.4224" ry="7.74578" transform="matrix(0.878308 -0.478095 0.496559 0.868003 753.74 106.224)" fill="#F3F3F3"/>
<path d="M788.19 96.2883L773.154 104.473C770.92 100.568 771.295 96.9508 771.732 95.2475C772.139 93.661 772.729 92.9969 772.552 93.2289C772.227 93.6557 770.858 95.0527 768.234 96.4815L776.734 111.341L785.235 126.201C791.062 123.03 796.483 118.757 800.304 113.735C802.201 111.243 804.203 107.911 805.238 103.872C806.303 99.7174 806.523 93.8654 803.227 88.1036L788.19 96.2883ZM776.734 111.341L768.234 96.4815C765.609 97.9103 763.671 98.3131 763.128 98.3586C762.833 98.3834 763.722 98.2422 765.32 98.7377C767.035 99.2697 770.388 100.858 772.622 104.763L757.586 112.947L742.55 121.132C745.846 126.894 751.067 129.784 755.251 131.082C759.318 132.343 763.277 132.431 766.447 132.165C772.834 131.629 779.409 129.373 785.235 126.201L776.734 111.341ZM757.586 112.947L772.622 104.763C774.856 108.668 774.481 112.285 774.045 113.988C773.638 115.575 773.048 116.239 773.224 116.007C773.549 115.58 774.918 114.183 777.543 112.754L769.042 97.8946L760.541 83.0348C754.715 86.2063 749.293 90.4791 745.472 95.5004C743.575 97.9924 741.573 101.325 740.538 105.363C739.473 109.518 739.254 115.37 742.55 121.132L757.586 112.947ZM769.042 97.8946L777.543 112.754C780.168 111.326 782.105 110.923 782.648 110.877C782.943 110.852 782.054 110.994 780.456 110.498C778.741 109.966 775.388 108.378 773.154 104.473L788.19 96.2883L803.227 88.1036C799.931 82.3418 794.71 79.4513 790.525 78.1536C786.459 76.8924 782.5 76.8046 779.33 77.0705C772.942 77.6063 766.368 79.8633 760.541 83.0348L769.042 97.8946Z" fill="#F3F3F3" mask="url(#path-14-inside-5_4655_3259)"/>
<path fill-rule="evenodd" clip-rule="evenodd" d="M400.358 163.34L386.769 197H334L405.615 10L488 10L450.308 197H397.847L410.146 163.34H400.358ZM419.601 127.518H410.146L435.415 71.0867L419.601 127.518Z" fill="#F3F3F3"/>
<path d="M322.876 197L394.882 9.93135L340.609 9.93115L313.217 81.1487H302.457L330.341 9.93115H276.126L204.121 197H258.394L289.023 116.223H300.385L268.603 197H322.876Z" fill="#F3F3F3"/>
<path fill-rule="evenodd" clip-rule="evenodd" d="M137.87 197L208 10H91.7859L20 197H137.87ZM85.2098 162.093H99.8043L144.659 44.2833H130.064L85.2098 162.093Z" fill="#F3F3F3"/>
<path d="M563.413 92.2648H617.278L648.763 9.93115H529.984L459 197H577.779L607.884 117.906H554.019L537.531 162.28H523.169L567.308 45.1001H581.67L563.413 92.2648Z" fill="#F3F3F3"/>
</svg>
