<svg width="737" height="439" viewBox="0 0 737 439" fill="none" xmlns="http://www.w3.org/2000/svg">
<g filter="url(#filter0_di_4644_3141)">
<path d="M436.892 188.843L516.561 282.315C518.711 284.837 522.498 285.139 525.02 282.99L655.763 171.553C664.169 164.388 665.176 151.765 658.011 143.359L648.642 132.367L664.138 119.159L668.565 124.353C669.998 126.035 672.523 126.236 674.204 124.803L691.728 109.867C693.409 108.434 693.611 105.909 692.178 104.228L678.814 88.5483L692.834 76.5987L697.878 82.5175C700.028 85.0394 703.815 85.3413 706.337 83.1918L709.748 80.2841C712.27 78.1346 712.572 74.3476 710.423 71.8256L667.134 21.0373C665.848 19.5289 664.144 18.4365 662.236 17.8989L642.991 12.476C641.089 11.94 639.644 14.1942 640.926 15.6984L669.215 48.8878L655.195 60.8375L641.193 44.4093C639.76 42.728 637.235 42.5267 635.554 43.9597L618.029 58.8961C616.348 60.3291 616.147 62.8537 617.58 64.535L622.645 70.4781L607.15 83.6856L596.504 71.1961C589.339 62.7896 576.716 61.7832 568.309 68.9483L437.566 180.385C435.045 182.534 434.743 186.321 436.892 188.843Z" fill="#02973B"/>
</g>
<g filter="url(#filter1_di_4644_3141)">
<path fill-rule="evenodd" clip-rule="evenodd" d="M231.3 36.1355L241.165 54.3452C242.254 56.3566 241.529 58.8583 239.546 59.933L228.77 65.7707L362.934 313.422C365.113 317.445 363.664 322.449 359.696 324.598L183.692 419.948C179.724 422.097 174.741 420.578 172.562 416.556L38.3977 168.904L31.2138 172.796C29.2301 173.87 26.7386 173.111 25.6489 171.1L15.7839 152.89C14.6942 150.879 15.4191 148.377 17.4028 147.302L80.2616 113.249L67.8796 90.393C67.0904 88.9362 67.6316 87.1154 69.0884 86.3262L148.223 43.4554C149.68 42.6662 151.501 43.2073 152.29 44.6642L164.672 67.5199L225.735 34.4395C227.718 33.3648 230.21 34.1241 231.3 36.1355ZM85.8206 91.394C85.335 91.6571 85.1546 92.264 85.4177 92.7496L92.8333 106.438L152.1 74.3306L144.684 60.6421C144.421 60.1565 143.814 59.9761 143.329 60.2392L85.8206 91.394Z" fill="#02973B"/>
<path d="M228.779 65.772L38.4094 168.904L40.8786 173.462L231.248 70.3298L228.779 65.772Z" fill="#02973B"/>
<path d="M239.275 85.1061L48.855 188.265L54.2872 198.292L244.707 95.1333L239.275 85.1061Z" fill="#02973B"/>
<g filter="url(#filter2_i_4644_3141)">
<path d="M224.643 129.627C220.364 131.945 218.774 137.295 221.093 141.574L315.131 315.096C317.45 319.375 322.798 320.964 327.077 318.646C331.356 316.327 332.946 310.978 330.627 306.699L236.589 133.177C234.27 128.898 228.922 127.309 224.643 129.627Z" fill="#008633"/>
</g>
<g filter="url(#filter3_i_4644_3141)">
<path d="M171.677 158.321C167.397 160.639 165.807 165.988 168.127 170.268L262.165 343.79C264.483 348.069 269.831 349.658 274.11 347.34C278.39 345.021 279.979 339.672 277.66 335.393L183.622 161.87C181.303 157.592 175.955 156.003 171.677 158.321Z" fill="#008633"/>
</g>
<g filter="url(#filter4_i_4644_3141)">
<path d="M119.625 186.521C115.346 188.839 113.756 194.188 116.075 198.468L210.113 371.99C212.432 376.268 217.78 377.858 222.059 375.54C226.338 373.221 227.928 367.872 225.609 363.592L131.571 190.07C129.252 185.792 123.904 184.203 119.625 186.521Z" fill="#008633"/>
</g>
<g filter="url(#filter5_i_4644_3141)">
<path d="M198.618 143.725C194.59 145.907 193.094 150.941 195.277 154.969L289.807 329.403C291.99 333.43 297.023 334.926 301.05 332.744C305.078 330.562 306.574 325.528 304.391 321.5L209.861 147.065C207.679 143.039 202.645 141.543 198.618 143.725Z" fill="#008633"/>
</g>
<g filter="url(#filter6_i_4644_3141)">
<path d="M145.652 172.42C141.624 174.602 140.128 179.637 142.311 183.665L236.841 358.099C239.023 362.126 244.057 363.622 248.084 361.44C252.112 359.258 253.608 354.224 251.425 350.196L156.895 175.761C154.712 171.734 149.679 170.239 145.652 172.42Z" fill="#008633"/>
</g>
<g filter="url(#filter7_i_4644_3141)">
<path d="M93.1438 200.865C89.3676 202.911 87.9651 207.631 90.0113 211.406L185.034 386.753C187.08 390.529 191.799 391.931 195.574 389.886C199.35 387.84 200.753 383.12 198.707 379.344L103.684 203.997C101.638 200.222 96.9192 198.82 93.1438 200.865Z" fill="#008633"/>
</g>
</g>
<g filter="url(#filter8_di_4644_3141)">
<path d="M366.929 211.235L373.917 217.467C374.849 218.298 376.305 218.082 376.955 217.017L381.348 209.822L387.625 211.355C388.471 211.562 389.353 211.197 389.807 210.454L397.508 197.841L400.634 199.749C401.576 200.324 402.807 200.027 403.383 199.084L411.328 186.07C411.904 185.127 411.606 183.896 410.663 183.32L407.538 181.412L435.612 135.428C436.066 134.685 435.987 133.734 435.416 133.076L431.184 128.193L436.204 119.972C436.854 118.906 436.381 117.512 435.216 117.063L426.48 113.695C425.578 113.348 424.557 113.694 424.053 114.519L421.162 119.256L326.33 74.7655C323.56 73.4658 320.255 74.4592 318.661 77.0709L285.712 131.039C284.118 133.651 284.744 137.044 287.166 138.914L370.072 202.937L366.554 208.7C366.05 209.525 366.208 210.592 366.929 211.235Z" fill="#02973B"/>
</g>
<defs>
<filter id="filter0_di_4644_3141" x="423.458" y="6.39551" width="300.398" height="296.028" filterUnits="userSpaceOnUse" color-interpolation-filters="sRGB">
<feFlood flood-opacity="0" result="BackgroundImageFix"/>
<feColorMatrix in="SourceAlpha" type="matrix" values="0 0 0 0 0 0 0 0 0 0 0 0 0 0 0 0 0 0 127 0" result="hardAlpha"/>
<feOffset dy="6"/>
<feGaussianBlur stdDeviation="6"/>
<feComposite in2="hardAlpha" operator="out"/>
<feColorMatrix type="matrix" values="0 0 0 0 0 0 0 0 0 0 0 0 0 0 0 0 0 0 0.15 0"/>
<feBlend mode="normal" in2="BackgroundImageFix" result="effect1_dropShadow_4644_3141"/>
<feBlend mode="normal" in="SourceGraphic" in2="effect1_dropShadow_4644_3141" result="shape"/>
<feColorMatrix in="SourceAlpha" type="matrix" values="0 0 0 0 0 0 0 0 0 0 0 0 0 0 0 0 0 0 127 0" result="hardAlpha"/>
<feOffset dy="6"/>
<feGaussianBlur stdDeviation="3"/>
<feComposite in2="hardAlpha" operator="arithmetic" k2="-1" k3="1"/>
<feColorMatrix type="matrix" values="0 0 0 0 0.279249 0 0 0 0 0.767628 0 0 0 0 0.465092 0 0 0 1 0"/>
<feBlend mode="normal" in2="shape" result="effect2_innerShadow_4644_3141"/>
</filter>
<filter id="filter1_di_4644_3141" x="3.27686" y="27.9512" width="372.671" height="410.973" filterUnits="userSpaceOnUse" color-interpolation-filters="sRGB">
<feFlood flood-opacity="0" result="BackgroundImageFix"/>
<feColorMatrix in="SourceAlpha" type="matrix" values="0 0 0 0 0 0 0 0 0 0 0 0 0 0 0 0 0 0 127 0" result="hardAlpha"/>
<feOffset dy="6"/>
<feGaussianBlur stdDeviation="6"/>
<feComposite in2="hardAlpha" operator="out"/>
<feColorMatrix type="matrix" values="0 0 0 0 0 0 0 0 0 0 0 0 0 0 0 0 0 0 0.15 0"/>
<feBlend mode="normal" in2="BackgroundImageFix" result="effect1_dropShadow_4644_3141"/>
<feBlend mode="normal" in="SourceGraphic" in2="effect1_dropShadow_4644_3141" result="shape"/>
<feColorMatrix in="SourceAlpha" type="matrix" values="0 0 0 0 0 0 0 0 0 0 0 0 0 0 0 0 0 0 127 0" result="hardAlpha"/>
<feOffset dy="6"/>
<feGaussianBlur stdDeviation="3"/>
<feComposite in2="hardAlpha" operator="arithmetic" k2="-1" k3="1"/>
<feColorMatrix type="matrix" values="0 0 0 0 0.279249 0 0 0 0 0.767628 0 0 0 0 0.465092 0 0 0 1 0"/>
<feBlend mode="normal" in2="shape" result="effect2_innerShadow_4644_3141"/>
</filter>
<filter id="filter2_i_4644_3141" x="220.027" y="128.562" width="111.666" height="195.15" filterUnits="userSpaceOnUse" color-interpolation-filters="sRGB">
<feFlood flood-opacity="0" result="BackgroundImageFix"/>
<feBlend mode="normal" in="SourceGraphic" in2="BackgroundImageFix" result="shape"/>
<feColorMatrix in="SourceAlpha" type="matrix" values="0 0 0 0 0 0 0 0 0 0 0 0 0 0 0 0 0 0 127 0" result="hardAlpha"/>
<feOffset dy="4"/>
<feGaussianBlur stdDeviation="2"/>
<feComposite in2="hardAlpha" operator="arithmetic" k2="-1" k3="1"/>
<feColorMatrix type="matrix" values="0 0 0 0 0.591346 0 0 0 0 0.591346 0 0 0 0 0.591346 0 0 0 0.25 0"/>
<feBlend mode="normal" in2="shape" result="effect1_innerShadow_4644_3141"/>
</filter>
<filter id="filter3_i_4644_3141" x="167.061" y="157.255" width="111.666" height="195.15" filterUnits="userSpaceOnUse" color-interpolation-filters="sRGB">
<feFlood flood-opacity="0" result="BackgroundImageFix"/>
<feBlend mode="normal" in="SourceGraphic" in2="BackgroundImageFix" result="shape"/>
<feColorMatrix in="SourceAlpha" type="matrix" values="0 0 0 0 0 0 0 0 0 0 0 0 0 0 0 0 0 0 127 0" result="hardAlpha"/>
<feOffset dy="4"/>
<feGaussianBlur stdDeviation="2"/>
<feComposite in2="hardAlpha" operator="arithmetic" k2="-1" k3="1"/>
<feColorMatrix type="matrix" values="0 0 0 0 0.591346 0 0 0 0 0.591346 0 0 0 0 0.591346 0 0 0 0.25 0"/>
<feBlend mode="normal" in2="shape" result="effect1_innerShadow_4644_3141"/>
</filter>
<filter id="filter4_i_4644_3141" x="115.009" y="185.455" width="111.666" height="195.15" filterUnits="userSpaceOnUse" color-interpolation-filters="sRGB">
<feFlood flood-opacity="0" result="BackgroundImageFix"/>
<feBlend mode="normal" in="SourceGraphic" in2="BackgroundImageFix" result="shape"/>
<feColorMatrix in="SourceAlpha" type="matrix" values="0 0 0 0 0 0 0 0 0 0 0 0 0 0 0 0 0 0 127 0" result="hardAlpha"/>
<feOffset dy="4"/>
<feGaussianBlur stdDeviation="2"/>
<feComposite in2="hardAlpha" operator="arithmetic" k2="-1" k3="1"/>
<feColorMatrix type="matrix" values="0 0 0 0 0.591346 0 0 0 0 0.591346 0 0 0 0 0.591346 0 0 0 0.25 0"/>
<feBlend mode="normal" in2="shape" result="effect1_innerShadow_4644_3141"/>
</filter>
<filter id="filter5_i_4644_3141" x="194.273" y="142.722" width="111.122" height="195.025" filterUnits="userSpaceOnUse" color-interpolation-filters="sRGB">
<feFlood flood-opacity="0" result="BackgroundImageFix"/>
<feBlend mode="normal" in="SourceGraphic" in2="BackgroundImageFix" result="shape"/>
<feColorMatrix in="SourceAlpha" type="matrix" values="0 0 0 0 0 0 0 0 0 0 0 0 0 0 0 0 0 0 127 0" result="hardAlpha"/>
<feOffset dy="4"/>
<feGaussianBlur stdDeviation="2"/>
<feComposite in2="hardAlpha" operator="arithmetic" k2="-1" k3="1"/>
<feColorMatrix type="matrix" values="0 0 0 0 0.591346 0 0 0 0 0.591346 0 0 0 0 0.591346 0 0 0 0.25 0"/>
<feBlend mode="normal" in2="shape" result="effect1_innerShadow_4644_3141"/>
</filter>
<filter id="filter6_i_4644_3141" x="141.307" y="171.417" width="111.122" height="195.025" filterUnits="userSpaceOnUse" color-interpolation-filters="sRGB">
<feFlood flood-opacity="0" result="BackgroundImageFix"/>
<feBlend mode="normal" in="SourceGraphic" in2="BackgroundImageFix" result="shape"/>
<feColorMatrix in="SourceAlpha" type="matrix" values="0 0 0 0 0 0 0 0 0 0 0 0 0 0 0 0 0 0 127 0" result="hardAlpha"/>
<feOffset dy="4"/>
<feGaussianBlur stdDeviation="2"/>
<feComposite in2="hardAlpha" operator="arithmetic" k2="-1" k3="1"/>
<feColorMatrix type="matrix" values="0 0 0 0 0.591346 0 0 0 0 0.591346 0 0 0 0 0.591346 0 0 0 0.25 0"/>
<feBlend mode="normal" in2="shape" result="effect1_innerShadow_4644_3141"/>
</filter>
<filter id="filter7_i_4644_3141" x="89.0703" y="199.925" width="110.577" height="194.901" filterUnits="userSpaceOnUse" color-interpolation-filters="sRGB">
<feFlood flood-opacity="0" result="BackgroundImageFix"/>
<feBlend mode="normal" in="SourceGraphic" in2="BackgroundImageFix" result="shape"/>
<feColorMatrix in="SourceAlpha" type="matrix" values="0 0 0 0 0 0 0 0 0 0 0 0 0 0 0 0 0 0 127 0" result="hardAlpha"/>
<feOffset dy="4"/>
<feGaussianBlur stdDeviation="2"/>
<feComposite in2="hardAlpha" operator="arithmetic" k2="-1" k3="1"/>
<feColorMatrix type="matrix" values="0 0 0 0 0.591346 0 0 0 0 0.591346 0 0 0 0 0.591346 0 0 0 0.25 0"/>
<feBlend mode="normal" in2="shape" result="effect1_innerShadow_4644_3141"/>
</filter>
<filter id="filter8_di_4644_3141" x="272.833" y="68.1968" width="175.665" height="167.778" filterUnits="userSpaceOnUse" color-interpolation-filters="sRGB">
<feFlood flood-opacity="0" result="BackgroundImageFix"/>
<feColorMatrix in="SourceAlpha" type="matrix" values="0 0 0 0 0 0 0 0 0 0 0 0 0 0 0 0 0 0 127 0" result="hardAlpha"/>
<feOffset dy="6"/>
<feGaussianBlur stdDeviation="6"/>
<feComposite in2="hardAlpha" operator="out"/>
<feColorMatrix type="matrix" values="0 0 0 0 0 0 0 0 0 0 0 0 0 0 0 0 0 0 0.15 0"/>
<feBlend mode="normal" in2="BackgroundImageFix" result="effect1_dropShadow_4644_3141"/>
<feBlend mode="normal" in="SourceGraphic" in2="effect1_dropShadow_4644_3141" result="shape"/>
<feColorMatrix in="SourceAlpha" type="matrix" values="0 0 0 0 0 0 0 0 0 0 0 0 0 0 0 0 0 0 127 0" result="hardAlpha"/>
<feOffset dy="6"/>
<feGaussianBlur stdDeviation="3"/>
<feComposite in2="hardAlpha" operator="arithmetic" k2="-1" k3="1"/>
<feColorMatrix type="matrix" values="0 0 0 0 0.279249 0 0 0 0 0.767628 0 0 0 0 0.465092 0 0 0 1 0"/>
<feBlend mode="normal" in2="shape" result="effect2_innerShadow_4644_3141"/>
</filter>
</defs>
</svg>
