<svg width="950" height="496" viewBox="0 0 950 496" fill="none" xmlns="http://www.w3.org/2000/svg">
<g filter="url(#filter0_ii_4667_3253)">
<path fill-rule="evenodd" clip-rule="evenodd" d="M0 147.282V166.209C0 168.3 1.67147 169.994 3.73333 169.994H14.9333V427.395C14.9333 431.577 18.2763 434.966 22.4 434.966H205.333C209.457 434.966 212.8 431.577 212.8 427.395V169.994H220.267C222.329 169.994 224 168.3 224 166.209V147.282C224 145.192 222.329 143.497 220.267 143.497H154.933V119.809C154.933 118.258 153.676 117 152.124 117H70.0092C68.4577 117 67.2 118.258 67.2 119.809V143.497H3.73333C1.67147 143.497 0 145.192 0 147.282ZM140.93 128.356C141.447 128.356 141.867 128.775 141.867 129.292V143.497H80.2667V129.292C80.2667 128.775 80.6859 128.356 81.203 128.356H140.93Z" fill="#D4D4D4"/>
<g filter="url(#filter1_i_4667_3253)">
<path d="M46.0466 219.508C50.4948 219.508 54.1005 223.115 54.0999 227.563L54.0733 407.931C54.0727 412.378 50.4673 415.983 46.02 415.983C41.5718 415.983 37.966 412.377 37.9667 407.928L37.9932 227.56C37.9939 223.113 41.5993 219.508 46.0466 219.508Z" fill="#D4D4D4"/>
</g>
<g filter="url(#filter2_i_4667_3253)">
<path d="M101.098 219.508C105.547 219.508 109.152 223.115 109.152 227.563L109.125 407.931C109.124 412.378 105.519 415.983 101.072 415.983C96.6236 415.983 93.0178 412.377 93.0184 407.928L93.045 227.56C93.0457 223.113 96.6511 219.508 101.098 219.508Z" fill="#D4D4D4"/>
</g>
<g filter="url(#filter3_i_4667_3253)">
<path d="M155.199 219.508C159.648 219.508 163.253 223.115 163.253 227.563L163.226 407.931C163.225 412.378 159.62 415.983 155.173 415.983C150.725 415.983 147.119 412.377 147.12 407.928L147.146 227.56C147.147 223.113 150.752 219.508 155.199 219.508Z" fill="#D4D4D4"/>
</g>
<g filter="url(#filter4_i_4667_3253)">
<path d="M73.0966 219.508C77.2831 219.508 80.6768 222.902 80.6762 227.089L80.6511 408.404C80.6505 412.59 77.2571 415.983 73.0715 415.983C68.8849 415.983 65.4913 412.589 65.4919 408.402L65.517 227.087C65.5176 222.901 68.9109 219.508 73.0966 219.508Z" fill="#D4D4D4"/>
</g>
<g filter="url(#filter5_i_4667_3253)">
<path d="M128.148 219.508C132.334 219.508 135.728 222.902 135.727 227.089L135.702 408.404C135.702 412.59 132.308 415.983 128.123 415.983C123.936 415.983 120.543 412.589 120.543 408.402L120.568 227.087C120.569 222.901 123.962 219.508 128.148 219.508Z" fill="#D4D4D4"/>
</g>
<g filter="url(#filter6_i_4667_3253)">
<path d="M182.723 219.508C186.648 219.508 189.83 222.69 189.829 226.615L189.805 408.878C189.805 412.802 186.624 415.983 182.7 415.983C178.775 415.983 175.593 412.801 175.594 408.876L175.617 226.613C175.618 222.689 178.799 219.508 182.723 219.508Z" fill="#D4D4D4"/>
</g>
</g>
<g filter="url(#filter7_ii_4667_3253)">
<path fill-rule="evenodd" clip-rule="evenodd" d="M381.734 425.446C387.553 431.329 397.039 431.38 402.922 425.561L504.293 325.287C510.175 319.468 510.227 309.982 504.408 304.1L370.942 169.173C369.208 167.42 366.534 167.003 364.349 168.144L268.739 218.039L263.096 212.335C262.369 211.599 261.183 211.593 260.448 212.32L230.101 242.338C229.542 242.892 229.388 243.736 229.716 244.451L252.946 295.087C253.037 295.286 253.163 295.468 253.317 295.623L381.734 425.446ZM365.066 186.527C364.497 185.951 363.622 185.807 362.898 186.169L281.103 227.046C279.963 227.615 279.712 229.132 280.608 230.038L298.788 248.416C299.321 248.955 300.127 249.12 300.829 248.832L387.813 213.201C389.047 212.696 389.372 211.099 388.435 210.151L365.066 186.527Z" fill="#D4D4D4"/>
</g>
<g filter="url(#filter8_ii_4667_3253)">
<path d="M642.176 350.275C654.215 397.22 682.275 360.626 694.8 336.462C704.596 362.009 726.68 347.519 734.352 334.102C753.647 365.32 789.834 339.668 786.417 308.712C801.813 313.36 812.613 298.79 803.04 283.676C805.498 287.556 826.133 299.639 842.717 286.59C852.943 278.543 849.478 261.031 842.216 252.723L892.911 228C892.911 228 933.158 352.262 805.735 414.402C678.313 476.542 583.261 379.006 583.261 379.006L642.176 350.275ZM753 376.122C750.045 376.986 750.54 387.572 751.403 390.528C752.267 393.483 755.362 395.179 758.317 394.315C761.272 393.451 762.968 390.356 762.105 387.401C761.241 384.446 755.956 375.259 753 376.122ZM819.116 350.237C816.963 348.036 807.977 342.417 805.776 344.57C803.575 346.722 808.992 355.831 811.145 358.032C813.297 360.233 816.827 360.273 819.028 358.12C821.229 355.968 821.268 352.438 819.116 350.237ZM717.934 380.03C714.855 380.02 712.325 390.312 712.315 393.391C712.306 396.47 714.793 398.973 717.872 398.983C720.951 398.993 723.454 396.506 723.464 393.427C723.474 390.348 721.012 380.04 717.934 380.03ZM832.203 333.689C829.772 331.799 820.106 327.45 818.217 329.881C816.329 332.312 822.931 340.603 825.361 342.492C827.793 344.381 831.295 343.942 833.184 341.511C835.073 339.08 834.634 335.578 832.203 333.689ZM702.574 378.38C699.765 377.121 693.275 385.501 692.016 388.31C690.757 391.12 692.013 394.418 694.823 395.677C697.632 396.936 700.93 395.679 702.189 392.87C703.448 390.06 705.384 379.64 702.574 378.38ZM841.047 315.827C838.182 314.698 827.686 313.244 826.556 316.107C825.427 318.972 834.095 325.071 836.959 326.2C839.823 327.328 843.06 325.922 844.189 323.057C845.318 320.193 843.911 316.956 841.047 315.827Z" fill="#D4D4D4"/>
</g>
<g filter="url(#filter9_ii_4667_3253)">
<path fill-rule="evenodd" clip-rule="evenodd" d="M690.237 152.77L675.754 105.879C675.449 104.891 674.399 104.334 673.42 104.668C655.798 110.686 645.8 122.926 639.755 138.391C639.513 139.011 638.967 139.464 638.312 139.576L500.653 163.138C499.539 163.329 498.846 164.456 499.18 165.537L500.731 170.56C501.037 171.548 500.483 172.597 499.495 172.902L490.469 175.69C487.504 176.605 485.843 179.751 486.759 182.716L524.449 304.745C525.364 307.709 528.51 309.37 531.475 308.455L540.501 305.667C541.489 305.362 542.538 305.915 542.843 306.904L544.372 311.855C544.713 312.96 545.965 313.495 546.999 312.977L569.662 301.641C570.108 301.418 570.634 301.385 571.108 301.544C647.114 326.985 705.63 309.551 727.099 297.878C727.869 297.459 728.203 296.564 727.945 295.727L708.346 232.272L712.509 230.189C713.329 229.779 713.731 228.837 713.461 227.962L709.373 214.727C716.686 212.469 720.783 204.709 718.525 197.397L707.568 161.922C705.309 154.609 697.55 150.512 690.237 152.77ZM704.645 293.34C704.958 294.351 704.36 295.424 703.336 295.694C651.563 309.348 608.583 301.649 590.417 294.531C588.965 293.962 588.937 292 590.332 291.302L686.828 243.035C687.862 242.518 689.113 243.052 689.455 244.157L704.645 293.34Z" fill="#D4D4D4"/>
</g>
<g filter="url(#filter10_ii_4667_3253)">
<path d="M842.568 153.603C821.445 134.397 788.752 135.95 769.545 157.072C757.24 170.604 751.916 187.487 755.827 203.463C757.287 209.423 756.842 215.958 753.011 220.752L741.43 235.245C734.961 243.341 735.894 255.07 743.561 262.042C751.408 269.177 763.501 268.796 770.883 261.181L783.323 248.346C787.574 243.961 794.011 242.767 800.041 243.732C816.6 246.38 833.71 240.182 846.037 226.625C865.243 205.502 863.69 172.81 842.568 153.603Z" fill="#D4D4D4"/>
</g>
<g filter="url(#filter11_ii_4667_3253)">
<rect width="50.0774" height="8.077" rx="4.0385" transform="matrix(-0.739866 -0.672755 -0.672755 0.739866 779.586 258.885)" fill="#D4D4D4"/>
</g>
<g filter="url(#filter12_ii_4667_3253)">
<rect width="50.0774" height="8.077" rx="4.0385" transform="matrix(-0.739866 -0.672755 -0.672755 0.739866 785.02 252.909)" fill="#D4D4D4"/>
</g>
<g filter="url(#filter13_ii_4667_3253)">
<rect width="50.0774" height="8.077" rx="4.0385" transform="matrix(-0.739866 -0.672755 -0.672755 0.739866 790.455 246.934)" fill="#D4D4D4"/>
</g>
<g filter="url(#filter14_ii_4667_3253)">
<path d="M435.049 148.806C442.815 160.063 450.012 188.424 428.789 192.672C396.954 199.044 375.882 158.091 366.501 142.751C357.121 127.41 347.433 124.538 334.565 125.152C322.992 125.703 273.23 133.776 250.933 137.71L215 78.9487C257.762 68.8057 323.374 59.24 336.56 56.9974C344.951 55.5702 365.994 53.5494 387.49 81.8523C403.79 103.315 412.614 116.447 414.989 120.33C410.823 122.173 406.028 125.81 411.503 131.943C415.626 136.561 424.479 138.497 425.924 138.345C425.949 138.341 425.974 138.338 425.999 138.334C425.976 138.339 425.952 138.342 425.924 138.345C418.614 139.434 404.818 144.801 411.901 152.071C418.692 159.041 431.196 151.162 435.049 148.806Z" fill="#D4D4D4"/>
</g>
<g filter="url(#filter15_ii_4667_3253)">
<path d="M547.92 428.339L545.91 433.979C545.517 435.081 544.222 435.557 543.209 434.972L538.272 432.122L535.001 435.089C534.398 435.636 533.511 435.731 532.806 435.324L523.664 430.045L522.535 432C522.018 432.895 520.873 433.202 519.977 432.685L510.983 427.493C510.088 426.975 509.781 425.83 510.298 424.934L511.426 422.98L477.426 403.35C476.721 402.943 476.36 402.128 476.532 401.332L477.466 397.016L471.764 393.724C470.751 393.139 470.516 391.779 471.274 390.888L475.154 386.327C475.74 385.639 476.734 385.467 477.517 385.919L480.754 387.788L525.341 327.119C527.037 324.812 530.197 324.149 532.677 325.581L571.001 347.707C573.481 349.139 574.488 352.207 573.337 354.83L543.089 423.777L547.092 426.088C547.875 426.54 548.223 427.487 547.92 428.339Z" fill="#D4D4D4"/>
</g>
<g filter="url(#filter16_ii_4667_3253)">
<path d="M308.575 405.467C324.144 399.591 320.732 380.278 311.759 372.62C311.261 377.701 309.884 384.949 303.895 390.378C298.886 394.918 296.204 399.563 297.675 405.368C293.703 408.03 290.643 411.218 289.629 419.304C288.771 426.152 285.628 431.859 282.497 433.767C303.225 435.825 313.576 415.787 308.575 405.467Z" fill="#D4D4D4"/>
<path d="M285.129 380.782C266.18 374.797 264.727 359.093 267.386 348.24L258.267 364.034C261.567 370.894 262.689 376.497 258.406 382.696C254.123 388.894 247.697 390.139 243.248 390.048C244.87 396.414 242.053 400.535 240.308 403.089C240.063 403.448 239.838 403.776 239.651 404.075C247.892 399.701 258.898 396.606 271.719 404.009C285.773 412.122 284.855 426.871 282.497 433.767C285.628 431.859 288.771 426.152 289.629 419.304C290.643 411.218 293.703 408.03 297.675 405.368C296.204 399.563 298.886 394.918 303.895 390.378C309.884 384.949 311.261 377.701 311.759 372.62C310.778 377.835 304.079 386.767 285.129 380.782Z" fill="#D4D4D4"/>
<path d="M241.806 375.589C228.943 383.028 227.323 400.674 232.52 408.629C234.894 406.909 237.232 405.359 239.651 404.075C239.838 403.776 240.063 403.448 240.308 403.089C242.053 400.535 244.87 396.414 243.248 390.048C247.697 390.139 254.123 388.894 258.406 382.696C262.689 376.497 261.567 370.894 258.267 364.034L267.386 348.24C254.622 347.065 245.823 358.088 245.025 370.015L230.036 360.123L222.628 364.517L241.806 375.589Z" fill="#D4D4D4"/>
</g>
<g filter="url(#filter17_ii_4667_3253)">
<path d="M827.599 60.1277L832.075 122.692C832.209 124.577 830.791 126.214 828.906 126.349L742.021 132.564C734.262 133.119 727.521 127.279 726.966 119.52C726.955 119.365 726.82 119.248 726.665 119.259L716.998 119.951C716.763 119.967 716.585 120.172 716.602 120.408L716.869 124.132C716.919 124.839 716.387 125.453 715.68 125.503L707.865 126.062C707.158 126.113 706.544 125.581 706.494 124.874L702.965 75.5422C702.914 74.8354 703.446 74.2215 704.153 74.1709L711.968 73.6118C712.675 73.5613 713.289 74.0932 713.339 74.8L713.627 78.8259C713.644 79.0615 713.849 79.2388 714.085 79.2219L723.752 78.5304C723.907 78.5193 724.024 78.3845 724.012 78.2293C723.457 70.47 729.298 63.7298 737.057 63.1748L823.942 56.9592C825.827 56.8243 827.464 58.2429 827.599 60.1277Z" fill="#D4D4D4"/>
</g>
<g filter="url(#filter18_ii_4667_3253)">
<path d="M578.628 59.3915L595.292 116.241C596.164 119.218 594.458 122.34 591.481 123.213L514.928 145.652C505.385 148.449 495.382 142.981 492.585 133.438L482.371 136.432L482.909 138.268C483.491 140.253 482.353 142.334 480.368 142.916L471.993 145.371C470.008 145.953 467.927 144.816 467.345 142.83L464.781 134.083L455.539 136.792L456.353 139.569C457.023 141.852 455.714 144.246 453.431 144.915C451.148 145.584 448.754 144.276 448.085 141.993L438.955 110.847C438.433 109.066 438.452 107.17 439.01 105.399L440.955 99.2248C441.511 97.4596 444.018 97.4847 444.538 99.2607L450.185 118.526L459.427 115.818L456.718 106.577C456.136 104.591 457.274 102.511 459.259 101.929L467.634 99.4735C469.619 98.8917 471.7 100.029 472.282 102.014L472.965 104.344L483.179 101.35L483.093 101.056C480.184 91.1305 485.871 80.7258 495.797 77.8165L571.656 55.5804C574.634 54.7076 577.755 56.4139 578.628 59.3915Z" fill="#D4D4D4"/>
</g>
<defs>
<filter id="filter0_ii_4667_3253" x="-3.74556" y="113.254" width="227.746" height="327.33" filterUnits="userSpaceOnUse" color-interpolation-filters="sRGB">
<feFlood flood-opacity="0" result="BackgroundImageFix"/>
<feBlend mode="normal" in="SourceGraphic" in2="BackgroundImageFix" result="shape"/>
<feColorMatrix in="SourceAlpha" type="matrix" values="0 0 0 0 0 0 0 0 0 0 0 0 0 0 0 0 0 0 127 0" result="hardAlpha"/>
<feOffset dx="-3.74556" dy="-3.74556"/>
<feGaussianBlur stdDeviation="2.80917"/>
<feComposite in2="hardAlpha" operator="arithmetic" k2="-1" k3="1"/>
<feColorMatrix type="matrix" values="0 0 0 0 0 0 0 0 0 0 0 0 0 0 0 0 0 0 0.2 0"/>
<feBlend mode="normal" in2="shape" result="effect1_innerShadow_4667_3253"/>
<feColorMatrix in="SourceAlpha" type="matrix" values="0 0 0 0 0 0 0 0 0 0 0 0 0 0 0 0 0 0 127 0" result="hardAlpha"/>
<feOffset dy="5.61833"/>
<feGaussianBlur stdDeviation="2.80917"/>
<feComposite in2="hardAlpha" operator="arithmetic" k2="-1" k3="1"/>
<feColorMatrix type="matrix" values="0 0 0 0 1 0 0 0 0 1 0 0 0 0 1 0 0 0 0.8 0"/>
<feBlend mode="normal" in2="effect1_innerShadow_4667_3253" result="effect2_innerShadow_4667_3253"/>
</filter>
<filter id="filter1_i_4667_3253" x="37.9668" y="219.508" width="16.1333" height="200.22" filterUnits="userSpaceOnUse" color-interpolation-filters="sRGB">
<feFlood flood-opacity="0" result="BackgroundImageFix"/>
<feBlend mode="normal" in="SourceGraphic" in2="BackgroundImageFix" result="shape"/>
<feColorMatrix in="SourceAlpha" type="matrix" values="0 0 0 0 0 0 0 0 0 0 0 0 0 0 0 0 0 0 127 0" result="hardAlpha"/>
<feOffset dy="3.74556"/>
<feGaussianBlur stdDeviation="1.87278"/>
<feComposite in2="hardAlpha" operator="arithmetic" k2="-1" k3="1"/>
<feColorMatrix type="matrix" values="0 0 0 0 0.591346 0 0 0 0 0.591346 0 0 0 0 0.591346 0 0 0 0.25 0"/>
<feBlend mode="normal" in2="shape" result="effect1_innerShadow_4667_3253"/>
</filter>
<filter id="filter2_i_4667_3253" x="93.0186" y="219.508" width="16.1333" height="200.22" filterUnits="userSpaceOnUse" color-interpolation-filters="sRGB">
<feFlood flood-opacity="0" result="BackgroundImageFix"/>
<feBlend mode="normal" in="SourceGraphic" in2="BackgroundImageFix" result="shape"/>
<feColorMatrix in="SourceAlpha" type="matrix" values="0 0 0 0 0 0 0 0 0 0 0 0 0 0 0 0 0 0 127 0" result="hardAlpha"/>
<feOffset dy="3.74556"/>
<feGaussianBlur stdDeviation="1.87278"/>
<feComposite in2="hardAlpha" operator="arithmetic" k2="-1" k3="1"/>
<feColorMatrix type="matrix" values="0 0 0 0 0.591346 0 0 0 0 0.591346 0 0 0 0 0.591346 0 0 0 0.25 0"/>
<feBlend mode="normal" in2="shape" result="effect1_innerShadow_4667_3253"/>
</filter>
<filter id="filter3_i_4667_3253" x="147.12" y="219.508" width="16.1333" height="200.22" filterUnits="userSpaceOnUse" color-interpolation-filters="sRGB">
<feFlood flood-opacity="0" result="BackgroundImageFix"/>
<feBlend mode="normal" in="SourceGraphic" in2="BackgroundImageFix" result="shape"/>
<feColorMatrix in="SourceAlpha" type="matrix" values="0 0 0 0 0 0 0 0 0 0 0 0 0 0 0 0 0 0 127 0" result="hardAlpha"/>
<feOffset dy="3.74556"/>
<feGaussianBlur stdDeviation="1.87278"/>
<feComposite in2="hardAlpha" operator="arithmetic" k2="-1" k3="1"/>
<feColorMatrix type="matrix" values="0 0 0 0 0.591346 0 0 0 0 0.591346 0 0 0 0 0.591346 0 0 0 0.25 0"/>
<feBlend mode="normal" in2="shape" result="effect1_innerShadow_4667_3253"/>
</filter>
<filter id="filter4_i_4667_3253" x="65.4917" y="219.508" width="15.1846" height="200.22" filterUnits="userSpaceOnUse" color-interpolation-filters="sRGB">
<feFlood flood-opacity="0" result="BackgroundImageFix"/>
<feBlend mode="normal" in="SourceGraphic" in2="BackgroundImageFix" result="shape"/>
<feColorMatrix in="SourceAlpha" type="matrix" values="0 0 0 0 0 0 0 0 0 0 0 0 0 0 0 0 0 0 127 0" result="hardAlpha"/>
<feOffset dy="3.74556"/>
<feGaussianBlur stdDeviation="1.87278"/>
<feComposite in2="hardAlpha" operator="arithmetic" k2="-1" k3="1"/>
<feColorMatrix type="matrix" values="0 0 0 0 0.591346 0 0 0 0 0.591346 0 0 0 0 0.591346 0 0 0 0.25 0"/>
<feBlend mode="normal" in2="shape" result="effect1_innerShadow_4667_3253"/>
</filter>
<filter id="filter5_i_4667_3253" x="120.543" y="219.508" width="15.1846" height="200.22" filterUnits="userSpaceOnUse" color-interpolation-filters="sRGB">
<feFlood flood-opacity="0" result="BackgroundImageFix"/>
<feBlend mode="normal" in="SourceGraphic" in2="BackgroundImageFix" result="shape"/>
<feColorMatrix in="SourceAlpha" type="matrix" values="0 0 0 0 0 0 0 0 0 0 0 0 0 0 0 0 0 0 127 0" result="hardAlpha"/>
<feOffset dy="3.74556"/>
<feGaussianBlur stdDeviation="1.87278"/>
<feComposite in2="hardAlpha" operator="arithmetic" k2="-1" k3="1"/>
<feColorMatrix type="matrix" values="0 0 0 0 0.591346 0 0 0 0 0.591346 0 0 0 0 0.591346 0 0 0 0.25 0"/>
<feBlend mode="normal" in2="shape" result="effect1_innerShadow_4667_3253"/>
</filter>
<filter id="filter6_i_4667_3253" x="175.594" y="219.508" width="14.2354" height="200.22" filterUnits="userSpaceOnUse" color-interpolation-filters="sRGB">
<feFlood flood-opacity="0" result="BackgroundImageFix"/>
<feBlend mode="normal" in="SourceGraphic" in2="BackgroundImageFix" result="shape"/>
<feColorMatrix in="SourceAlpha" type="matrix" values="0 0 0 0 0 0 0 0 0 0 0 0 0 0 0 0 0 0 127 0" result="hardAlpha"/>
<feOffset dy="3.74556"/>
<feGaussianBlur stdDeviation="1.87278"/>
<feComposite in2="hardAlpha" operator="arithmetic" k2="-1" k3="1"/>
<feColorMatrix type="matrix" values="0 0 0 0 0.591346 0 0 0 0 0.591346 0 0 0 0 0.591346 0 0 0 0.25 0"/>
<feBlend mode="normal" in2="shape" result="effect1_innerShadow_4667_3253"/>
</filter>
<filter id="filter7_ii_4667_3253" x="225.8" y="163.76" width="282.939" height="271.75" filterUnits="userSpaceOnUse" color-interpolation-filters="sRGB">
<feFlood flood-opacity="0" result="BackgroundImageFix"/>
<feBlend mode="normal" in="SourceGraphic" in2="BackgroundImageFix" result="shape"/>
<feColorMatrix in="SourceAlpha" type="matrix" values="0 0 0 0 0 0 0 0 0 0 0 0 0 0 0 0 0 0 127 0" result="hardAlpha"/>
<feOffset dx="-3.74556" dy="-3.74556"/>
<feGaussianBlur stdDeviation="2.80917"/>
<feComposite in2="hardAlpha" operator="arithmetic" k2="-1" k3="1"/>
<feColorMatrix type="matrix" values="0 0 0 0 0 0 0 0 0 0 0 0 0 0 0 0 0 0 0.2 0"/>
<feBlend mode="normal" in2="shape" result="effect1_innerShadow_4667_3253"/>
<feColorMatrix in="SourceAlpha" type="matrix" values="0 0 0 0 0 0 0 0 0 0 0 0 0 0 0 0 0 0 127 0" result="hardAlpha"/>
<feOffset dy="5.61833"/>
<feGaussianBlur stdDeviation="2.80917"/>
<feComposite in2="hardAlpha" operator="arithmetic" k2="-1" k3="1"/>
<feColorMatrix type="matrix" values="0 0 0 0 1 0 0 0 0 1 0 0 0 0 1 0 0 0 0.8 0"/>
<feBlend mode="normal" in2="effect1_innerShadow_4667_3253" result="effect2_innerShadow_4667_3253"/>
</filter>
<filter id="filter8_ii_4667_3253" x="579.515" y="224.254" width="319.428" height="216.471" filterUnits="userSpaceOnUse" color-interpolation-filters="sRGB">
<feFlood flood-opacity="0" result="BackgroundImageFix"/>
<feBlend mode="normal" in="SourceGraphic" in2="BackgroundImageFix" result="shape"/>
<feColorMatrix in="SourceAlpha" type="matrix" values="0 0 0 0 0 0 0 0 0 0 0 0 0 0 0 0 0 0 127 0" result="hardAlpha"/>
<feOffset dx="-3.74556" dy="-3.74556"/>
<feGaussianBlur stdDeviation="2.80917"/>
<feComposite in2="hardAlpha" operator="arithmetic" k2="-1" k3="1"/>
<feColorMatrix type="matrix" values="0 0 0 0 0 0 0 0 0 0 0 0 0 0 0 0 0 0 0.2 0"/>
<feBlend mode="normal" in2="shape" result="effect1_innerShadow_4667_3253"/>
<feColorMatrix in="SourceAlpha" type="matrix" values="0 0 0 0 0 0 0 0 0 0 0 0 0 0 0 0 0 0 127 0" result="hardAlpha"/>
<feOffset dy="5.61833"/>
<feGaussianBlur stdDeviation="2.80917"/>
<feComposite in2="hardAlpha" operator="arithmetic" k2="-1" k3="1"/>
<feColorMatrix type="matrix" values="0 0 0 0 1 0 0 0 0 1 0 0 0 0 1 0 0 0 0.8 0"/>
<feBlend mode="normal" in2="effect1_innerShadow_4667_3253" result="effect2_innerShadow_4667_3253"/>
</filter>
<filter id="filter9_ii_4667_3253" x="482.761" y="100.826" width="245.269" height="219.435" filterUnits="userSpaceOnUse" color-interpolation-filters="sRGB">
<feFlood flood-opacity="0" result="BackgroundImageFix"/>
<feBlend mode="normal" in="SourceGraphic" in2="BackgroundImageFix" result="shape"/>
<feColorMatrix in="SourceAlpha" type="matrix" values="0 0 0 0 0 0 0 0 0 0 0 0 0 0 0 0 0 0 127 0" result="hardAlpha"/>
<feOffset dx="-3.74556" dy="-3.74556"/>
<feGaussianBlur stdDeviation="2.80917"/>
<feComposite in2="hardAlpha" operator="arithmetic" k2="-1" k3="1"/>
<feColorMatrix type="matrix" values="0 0 0 0 0 0 0 0 0 0 0 0 0 0 0 0 0 0 0.2 0"/>
<feBlend mode="normal" in2="shape" result="effect1_innerShadow_4667_3253"/>
<feColorMatrix in="SourceAlpha" type="matrix" values="0 0 0 0 0 0 0 0 0 0 0 0 0 0 0 0 0 0 127 0" result="hardAlpha"/>
<feOffset dy="5.61833"/>
<feGaussianBlur stdDeviation="2.80917"/>
<feComposite in2="hardAlpha" operator="arithmetic" k2="-1" k3="1"/>
<feColorMatrix type="matrix" values="0 0 0 0 1 0 0 0 0 1 0 0 0 0 1 0 0 0 0.8 0"/>
<feBlend mode="normal" in2="effect1_innerShadow_4667_3253" result="effect2_innerShadow_4667_3253"/>
</filter>
<filter id="filter10_ii_4667_3253" x="733.387" y="136.41" width="126.097" height="136.36" filterUnits="userSpaceOnUse" color-interpolation-filters="sRGB">
<feFlood flood-opacity="0" result="BackgroundImageFix"/>
<feBlend mode="normal" in="SourceGraphic" in2="BackgroundImageFix" result="shape"/>
<feColorMatrix in="SourceAlpha" type="matrix" values="0 0 0 0 0 0 0 0 0 0 0 0 0 0 0 0 0 0 127 0" result="hardAlpha"/>
<feOffset dy="5.61833"/>
<feGaussianBlur stdDeviation="2.80917"/>
<feComposite in2="hardAlpha" operator="arithmetic" k2="-1" k3="1"/>
<feColorMatrix type="matrix" values="0 0 0 0 1 0 0 0 0 1 0 0 0 0 1 0 0 0 0.8 0"/>
<feBlend mode="normal" in2="shape" result="effect1_innerShadow_4667_3253"/>
<feColorMatrix in="SourceAlpha" type="matrix" values="0 0 0 0 0 0 0 0 0 0 0 0 0 0 0 0 0 0 127 0" result="hardAlpha"/>
<feOffset dx="-3.74556" dy="-3.74556"/>
<feGaussianBlur stdDeviation="2.80917"/>
<feComposite in2="hardAlpha" operator="arithmetic" k2="-1" k3="1"/>
<feColorMatrix type="matrix" values="0 0 0 0 0 0 0 0 0 0 0 0 0 0 0 0 0 0 0.2 0"/>
<feBlend mode="normal" in2="effect1_innerShadow_4667_3253" result="effect2_innerShadow_4667_3253"/>
</filter>
<filter id="filter11_ii_4667_3253" x="738.768" y="224.989" width="39.1514" height="40.0786" filterUnits="userSpaceOnUse" color-interpolation-filters="sRGB">
<feFlood flood-opacity="0" result="BackgroundImageFix"/>
<feBlend mode="normal" in="SourceGraphic" in2="BackgroundImageFix" result="shape"/>
<feColorMatrix in="SourceAlpha" type="matrix" values="0 0 0 0 0 0 0 0 0 0 0 0 0 0 0 0 0 0 127 0" result="hardAlpha"/>
<feOffset dy="-1.87278"/>
<feGaussianBlur stdDeviation="0.936389"/>
<feComposite in2="hardAlpha" operator="arithmetic" k2="-1" k3="1"/>
<feColorMatrix type="matrix" values="0 0 0 0 0.56891 0 0 0 0 0.56891 0 0 0 0 0.56891 0 0 0 0.25 0"/>
<feBlend mode="normal" in2="shape" result="effect1_innerShadow_4667_3253"/>
<feColorMatrix in="SourceAlpha" type="matrix" values="0 0 0 0 0 0 0 0 0 0 0 0 0 0 0 0 0 0 127 0" result="hardAlpha"/>
<feOffset dy="1.87278"/>
<feGaussianBlur stdDeviation="0.936389"/>
<feComposite in2="hardAlpha" operator="arithmetic" k2="-1" k3="1"/>
<feColorMatrix type="matrix" values="0 0 0 0 1 0 0 0 0 1 0 0 0 0 1 0 0 0 0.8 0"/>
<feBlend mode="normal" in2="effect1_innerShadow_4667_3253" result="effect2_innerShadow_4667_3253"/>
</filter>
<filter id="filter12_ii_4667_3253" x="744.202" y="219.013" width="39.1514" height="40.0786" filterUnits="userSpaceOnUse" color-interpolation-filters="sRGB">
<feFlood flood-opacity="0" result="BackgroundImageFix"/>
<feBlend mode="normal" in="SourceGraphic" in2="BackgroundImageFix" result="shape"/>
<feColorMatrix in="SourceAlpha" type="matrix" values="0 0 0 0 0 0 0 0 0 0 0 0 0 0 0 0 0 0 127 0" result="hardAlpha"/>
<feOffset dy="-1.87278"/>
<feGaussianBlur stdDeviation="0.936389"/>
<feComposite in2="hardAlpha" operator="arithmetic" k2="-1" k3="1"/>
<feColorMatrix type="matrix" values="0 0 0 0 0.56891 0 0 0 0 0.56891 0 0 0 0 0.56891 0 0 0 0.25 0"/>
<feBlend mode="normal" in2="shape" result="effect1_innerShadow_4667_3253"/>
<feColorMatrix in="SourceAlpha" type="matrix" values="0 0 0 0 0 0 0 0 0 0 0 0 0 0 0 0 0 0 127 0" result="hardAlpha"/>
<feOffset dy="1.87278"/>
<feGaussianBlur stdDeviation="0.936389"/>
<feComposite in2="hardAlpha" operator="arithmetic" k2="-1" k3="1"/>
<feColorMatrix type="matrix" values="0 0 0 0 1 0 0 0 0 1 0 0 0 0 1 0 0 0 0.8 0"/>
<feBlend mode="normal" in2="effect1_innerShadow_4667_3253" result="effect2_innerShadow_4667_3253"/>
</filter>
<filter id="filter13_ii_4667_3253" x="749.637" y="213.037" width="39.1514" height="40.0786" filterUnits="userSpaceOnUse" color-interpolation-filters="sRGB">
<feFlood flood-opacity="0" result="BackgroundImageFix"/>
<feBlend mode="normal" in="SourceGraphic" in2="BackgroundImageFix" result="shape"/>
<feColorMatrix in="SourceAlpha" type="matrix" values="0 0 0 0 0 0 0 0 0 0 0 0 0 0 0 0 0 0 127 0" result="hardAlpha"/>
<feOffset dy="-1.87278"/>
<feGaussianBlur stdDeviation="0.936389"/>
<feComposite in2="hardAlpha" operator="arithmetic" k2="-1" k3="1"/>
<feColorMatrix type="matrix" values="0 0 0 0 0.56891 0 0 0 0 0.56891 0 0 0 0 0.56891 0 0 0 0.25 0"/>
<feBlend mode="normal" in2="shape" result="effect1_innerShadow_4667_3253"/>
<feColorMatrix in="SourceAlpha" type="matrix" values="0 0 0 0 0 0 0 0 0 0 0 0 0 0 0 0 0 0 127 0" result="hardAlpha"/>
<feOffset dy="1.87278"/>
<feGaussianBlur stdDeviation="0.936389"/>
<feComposite in2="hardAlpha" operator="arithmetic" k2="-1" k3="1"/>
<feColorMatrix type="matrix" values="0 0 0 0 1 0 0 0 0 1 0 0 0 0 1 0 0 0 0.8 0"/>
<feBlend mode="normal" in2="effect1_innerShadow_4667_3253" result="effect2_innerShadow_4667_3253"/>
</filter>
<filter id="filter14_ii_4667_3253" x="211.254" y="52.5484" width="231.538" height="146.41" filterUnits="userSpaceOnUse" color-interpolation-filters="sRGB">
<feFlood flood-opacity="0" result="BackgroundImageFix"/>
<feBlend mode="normal" in="SourceGraphic" in2="BackgroundImageFix" result="shape"/>
<feColorMatrix in="SourceAlpha" type="matrix" values="0 0 0 0 0 0 0 0 0 0 0 0 0 0 0 0 0 0 127 0" result="hardAlpha"/>
<feOffset dx="-3.74556" dy="-3.74556"/>
<feGaussianBlur stdDeviation="2.80917"/>
<feComposite in2="hardAlpha" operator="arithmetic" k2="-1" k3="1"/>
<feColorMatrix type="matrix" values="0 0 0 0 0 0 0 0 0 0 0 0 0 0 0 0 0 0 0.2 0"/>
<feBlend mode="normal" in2="shape" result="effect1_innerShadow_4667_3253"/>
<feColorMatrix in="SourceAlpha" type="matrix" values="0 0 0 0 0 0 0 0 0 0 0 0 0 0 0 0 0 0 127 0" result="hardAlpha"/>
<feOffset dy="5.61833"/>
<feGaussianBlur stdDeviation="5.61833"/>
<feComposite in2="hardAlpha" operator="arithmetic" k2="-1" k3="1"/>
<feColorMatrix type="matrix" values="0 0 0 0 1 0 0 0 0 1 0 0 0 0 1 0 0 0 0.8 0"/>
<feBlend mode="normal" in2="effect1_innerShadow_4667_3253" result="effect2_innerShadow_4667_3253"/>
</filter>
<filter id="filter15_ii_4667_3253" x="467.082" y="321.082" width="106.729" height="120.111" filterUnits="userSpaceOnUse" color-interpolation-filters="sRGB">
<feFlood flood-opacity="0" result="BackgroundImageFix"/>
<feBlend mode="normal" in="SourceGraphic" in2="BackgroundImageFix" result="shape"/>
<feColorMatrix in="SourceAlpha" type="matrix" values="0 0 0 0 0 0 0 0 0 0 0 0 0 0 0 0 0 0 127 0" result="hardAlpha"/>
<feOffset dx="-3.74556" dy="-3.74556"/>
<feGaussianBlur stdDeviation="2.80917"/>
<feComposite in2="hardAlpha" operator="arithmetic" k2="-1" k3="1"/>
<feColorMatrix type="matrix" values="0 0 0 0 0 0 0 0 0 0 0 0 0 0 0 0 0 0 0.2 0"/>
<feBlend mode="normal" in2="shape" result="effect1_innerShadow_4667_3253"/>
<feColorMatrix in="SourceAlpha" type="matrix" values="0 0 0 0 0 0 0 0 0 0 0 0 0 0 0 0 0 0 127 0" result="hardAlpha"/>
<feOffset dy="5.61833"/>
<feGaussianBlur stdDeviation="2.80917"/>
<feComposite in2="hardAlpha" operator="arithmetic" k2="-1" k3="1"/>
<feColorMatrix type="matrix" values="0 0 0 0 1 0 0 0 0 1 0 0 0 0 1 0 0 0 0.8 0"/>
<feBlend mode="normal" in2="effect1_innerShadow_4667_3253" result="effect2_innerShadow_4667_3253"/>
</filter>
<filter id="filter16_ii_4667_3253" x="218.883" y="344.408" width="100.488" height="95.1246" filterUnits="userSpaceOnUse" color-interpolation-filters="sRGB">
<feFlood flood-opacity="0" result="BackgroundImageFix"/>
<feBlend mode="normal" in="SourceGraphic" in2="BackgroundImageFix" result="shape"/>
<feColorMatrix in="SourceAlpha" type="matrix" values="0 0 0 0 0 0 0 0 0 0 0 0 0 0 0 0 0 0 127 0" result="hardAlpha"/>
<feOffset dx="-3.74556" dy="-3.74556"/>
<feGaussianBlur stdDeviation="2.80917"/>
<feComposite in2="hardAlpha" operator="arithmetic" k2="-1" k3="1"/>
<feColorMatrix type="matrix" values="0 0 0 0 0 0 0 0 0 0 0 0 0 0 0 0 0 0 0.2 0"/>
<feBlend mode="normal" in2="shape" result="effect1_innerShadow_4667_3253"/>
<feColorMatrix in="SourceAlpha" type="matrix" values="0 0 0 0 0 0 0 0 0 0 0 0 0 0 0 0 0 0 127 0" result="hardAlpha"/>
<feOffset dy="5.61833"/>
<feGaussianBlur stdDeviation="2.80917"/>
<feComposite in2="hardAlpha" operator="arithmetic" k2="-1" k3="1"/>
<feColorMatrix type="matrix" values="0 0 0 0 1 0 0 0 0 1 0 0 0 0 1 0 0 0 0.8 0"/>
<feBlend mode="normal" in2="effect1_innerShadow_4667_3253" result="effect2_innerShadow_4667_3253"/>
</filter>
<filter id="filter17_ii_4667_3253" x="699.216" y="53.2046" width="132.868" height="85.0143" filterUnits="userSpaceOnUse" color-interpolation-filters="sRGB">
<feFlood flood-opacity="0" result="BackgroundImageFix"/>
<feBlend mode="normal" in="SourceGraphic" in2="BackgroundImageFix" result="shape"/>
<feColorMatrix in="SourceAlpha" type="matrix" values="0 0 0 0 0 0 0 0 0 0 0 0 0 0 0 0 0 0 127 0" result="hardAlpha"/>
<feOffset dx="-3.74556" dy="-3.74556"/>
<feGaussianBlur stdDeviation="2.80917"/>
<feComposite in2="hardAlpha" operator="arithmetic" k2="-1" k3="1"/>
<feColorMatrix type="matrix" values="0 0 0 0 0 0 0 0 0 0 0 0 0 0 0 0 0 0 0.2 0"/>
<feBlend mode="normal" in2="shape" result="effect1_innerShadow_4667_3253"/>
<feColorMatrix in="SourceAlpha" type="matrix" values="0 0 0 0 0 0 0 0 0 0 0 0 0 0 0 0 0 0 127 0" result="hardAlpha"/>
<feOffset dy="5.61833"/>
<feGaussianBlur stdDeviation="2.80917"/>
<feComposite in2="hardAlpha" operator="arithmetic" k2="-1" k3="1"/>
<feColorMatrix type="matrix" values="0 0 0 0 1 0 0 0 0 1 0 0 0 0 1 0 0 0 0.8 0"/>
<feBlend mode="normal" in2="effect1_innerShadow_4667_3253" result="effect2_innerShadow_4667_3253"/>
</filter>
<filter id="filter18_ii_4667_3253" x="434.832" y="51.6065" width="160.688" height="100.396" filterUnits="userSpaceOnUse" color-interpolation-filters="sRGB">
<feFlood flood-opacity="0" result="BackgroundImageFix"/>
<feBlend mode="normal" in="SourceGraphic" in2="BackgroundImageFix" result="shape"/>
<feColorMatrix in="SourceAlpha" type="matrix" values="0 0 0 0 0 0 0 0 0 0 0 0 0 0 0 0 0 0 127 0" result="hardAlpha"/>
<feOffset dx="-3.74556" dy="-3.74556"/>
<feGaussianBlur stdDeviation="2.80917"/>
<feComposite in2="hardAlpha" operator="arithmetic" k2="-1" k3="1"/>
<feColorMatrix type="matrix" values="0 0 0 0 0 0 0 0 0 0 0 0 0 0 0 0 0 0 0.2 0"/>
<feBlend mode="normal" in2="shape" result="effect1_innerShadow_4667_3253"/>
<feColorMatrix in="SourceAlpha" type="matrix" values="0 0 0 0 0 0 0 0 0 0 0 0 0 0 0 0 0 0 127 0" result="hardAlpha"/>
<feOffset dy="5.61833"/>
<feGaussianBlur stdDeviation="2.80917"/>
<feComposite in2="hardAlpha" operator="arithmetic" k2="-1" k3="1"/>
<feColorMatrix type="matrix" values="0 0 0 0 1 0 0 0 0 1 0 0 0 0 1 0 0 0 0.8 0"/>
<feBlend mode="normal" in2="effect1_innerShadow_4667_3253" result="effect2_innerShadow_4667_3253"/>
</filter>
</defs>
</svg>
