<svg width="363" height="256" viewBox="0 0 363 256" fill="none" xmlns="http://www.w3.org/2000/svg">
<g filter="url(#filter0_i_4613_3138)">
<rect width="363" height="256" rx="16" fill="#F2F53A"/>
</g>
<g filter="url(#filter1_ii_4613_3138)">
<path d="M182.789 15.0078C214.345 15.3621 242.782 28.7081 263 49.9492C282.209 70.1305 294 97.4386 294 127.5C294 157.561 282.209 184.869 263 205.051L262.033 206.054C241.888 226.704 213.866 239.634 182.822 239.991C182.549 239.997 182.274 240 182 240C181.936 240 181.872 239.997 181.808 239.997C181.705 239.997 181.603 240 181.5 240C149.931 240 121.398 226.997 100.967 206.054L100 205.051C80.7908 184.869 69 157.561 69 127.5C69 97.4386 80.7908 70.1305 100 49.9492C120.493 28.4192 149.43 15 181.5 15C181.603 15 181.706 15.0017 181.81 15.002C181.873 15.0016 181.937 15 182 15C182.263 15 182.526 15.0022 182.789 15.0078ZM185.5 231.782C197.905 230.255 210.329 220.623 220.302 203.094C223.38 197.683 226.141 191.639 228.519 185.068C216.892 179.386 202.389 174.723 185.5 174.077V231.782ZM177.5 174.077C161.02 174.707 146.813 179.165 135.333 184.659C137.743 191.389 140.557 197.571 143.698 203.094C153.403 220.152 165.429 229.732 177.5 231.643V174.077ZM128.178 188.395C126.702 189.231 125.285 190.074 123.928 190.92C117.288 195.057 112.108 199.191 108.556 202.328C120.935 214.399 136.29 223.416 153.416 228.182C143.109 219.122 134.387 205.317 128.178 188.395ZM235.646 188.866C229.545 205.313 221.064 218.781 211.061 227.759C227.593 222.893 242.421 214.051 254.443 202.328C250.891 199.191 245.712 195.057 239.072 190.92C237.97 190.233 236.827 189.548 235.646 188.866ZM77.0752 131.5C78.0112 156.391 87.6468 179.043 103.041 196.525C106.873 193.124 112.483 188.625 119.697 184.13C121.554 182.973 123.519 181.817 125.588 180.678C121.084 165.945 118.393 149.245 118.04 131.5H77.0752ZM245.96 131.5C245.603 149.436 242.857 166.304 238.266 181.152C240.023 182.138 241.704 183.133 243.303 184.13C250.516 188.625 256.126 193.124 259.958 196.525C275.352 179.042 284.989 156.391 285.925 131.5H245.96ZM185.5 166.071C203.352 166.705 218.7 171.511 231.043 177.407C235.127 163.724 237.613 148.154 237.958 131.5H185.5V166.071ZM126.042 131.5C126.383 147.985 128.822 163.408 132.833 176.99C145.023 171.285 160.069 166.69 177.5 166.071V131.5H126.042ZM132.859 77.918C128.833 91.5222 126.384 106.978 126.042 123.5H177.5V88.9258C160.141 88.2987 145.082 83.6596 132.859 77.918ZM259.928 58.4395C256.058 61.8432 250.385 66.3601 243.108 70.874C241.558 71.8358 239.932 72.7959 238.235 73.748C242.846 88.6203 245.603 105.524 245.96 123.5H285.925C284.988 98.5924 275.34 75.9271 259.928 58.4395ZM231.016 77.499C218.639 83.4313 203.276 88.2836 185.5 88.9258V123.5H237.958C237.613 106.808 235.117 91.2046 231.016 77.499ZM103.071 58.4395C87.6592 75.927 78.0118 98.5926 77.0752 123.5H118.04C118.394 105.715 121.096 88.9803 125.618 74.2236C123.611 73.1172 121.7 71.996 119.892 70.874C112.615 66.3599 106.941 61.8433 103.071 58.4395ZM177.5 23.3564C165.429 25.2667 153.403 34.8475 143.698 51.9062C140.571 57.404 137.768 63.5557 135.365 70.25C146.887 75.7829 161.106 80.2808 177.5 80.9199V23.3564ZM185.5 80.9199C202.3 80.2649 216.816 75.5585 228.485 69.8379C226.116 63.3031 223.365 57.291 220.302 51.9062C210.329 34.3765 197.905 24.7444 185.5 23.2168V80.9199ZM153.417 26.8164C136.306 31.5776 120.965 40.584 108.591 52.6377C112.185 55.7802 117.42 59.9273 124.108 64.0762C125.422 64.891 126.791 65.7036 128.213 66.5098C134.42 49.63 143.129 35.8588 153.417 26.8164ZM211.059 27.2393C221.044 36.1995 229.513 49.6329 235.611 66.0371C236.739 65.3857 237.834 64.7323 238.892 64.0762C245.579 59.9275 250.814 55.7801 254.408 52.6377C242.391 40.9318 227.575 32.1 211.059 27.2393Z" fill="#F2F53A"/>
</g>
<defs>
<filter id="filter0_i_4613_3138" x="0" y="0" width="363" height="260" filterUnits="userSpaceOnUse" color-interpolation-filters="sRGB">
<feFlood flood-opacity="0" result="BackgroundImageFix"/>
<feBlend mode="normal" in="SourceGraphic" in2="BackgroundImageFix" result="shape"/>
<feColorMatrix in="SourceAlpha" type="matrix" values="0 0 0 0 0 0 0 0 0 0 0 0 0 0 0 0 0 0 127 0" result="hardAlpha"/>
<feOffset dy="4"/>
<feGaussianBlur stdDeviation="2"/>
<feComposite in2="hardAlpha" operator="arithmetic" k2="-1" k3="1"/>
<feColorMatrix type="matrix" values="0 0 0 0 0 0 0 0 0 0 0 0 0 0 0 0 0 0 0.25 0"/>
<feBlend mode="normal" in2="shape" result="effect1_innerShadow_4613_3138"/>
</filter>
<filter id="filter1_ii_4613_3138" x="69" y="15" width="225" height="228" filterUnits="userSpaceOnUse" color-interpolation-filters="sRGB">
<feFlood flood-opacity="0" result="BackgroundImageFix"/>
<feBlend mode="normal" in="SourceGraphic" in2="BackgroundImageFix" result="shape"/>
<feColorMatrix in="SourceAlpha" type="matrix" values="0 0 0 0 0 0 0 0 0 0 0 0 0 0 0 0 0 0 127 0" result="hardAlpha"/>
<feOffset dy="1"/>
<feGaussianBlur stdDeviation="2.5"/>
<feComposite in2="hardAlpha" operator="arithmetic" k2="-1" k3="1"/>
<feColorMatrix type="matrix" values="0 0 0 0 0 0 0 0 0 0 0 0 0 0 0 0 0 0 0.35 0"/>
<feBlend mode="normal" in2="shape" result="effect1_innerShadow_4613_3138"/>
<feColorMatrix in="SourceAlpha" type="matrix" values="0 0 0 0 0 0 0 0 0 0 0 0 0 0 0 0 0 0 127 0" result="hardAlpha"/>
<feOffset dy="3"/>
<feGaussianBlur stdDeviation="1.5"/>
<feComposite in2="hardAlpha" operator="arithmetic" k2="-1" k3="1"/>
<feColorMatrix type="matrix" values="0 0 0 0 0.998397 0 0 0 0 0.998397 0 0 0 0 0.998397 0 0 0 0.8 0"/>
<feBlend mode="normal" in2="effect1_innerShadow_4613_3138" result="effect2_innerShadow_4613_3138"/>
</filter>
</defs>
</svg>
