<svg width="744" height="253" viewBox="0 0 744 253" fill="none" xmlns="http://www.w3.org/2000/svg">
<path d="M55.5 75.357H8.69335C4.49439 75.357 1.59411 71.1549 3.08344 67.2289L24.1569 11.6778C25.0705 9.26963 27.3779 7.6771 29.9536 7.6771H706.25C716.583 -6.78941 742.852 -0.072567 743.965 21.626C745.025 42.2918 721.749 53.1413 707.283 38.6753L641.153 200.984H645.486C648.8 200.984 651.486 203.67 651.486 206.984V246.648C651.486 249.962 648.8 252.648 645.486 252.648H89.9203C86.6066 252.648 83.9203 249.962 83.9203 246.648V206.667H16.0645C11.8961 206.667 8.99785 202.521 10.4295 198.606L55.5 75.357Z" fill="#02973B"/>
<path d="M717.318 29.0038L717.358 14.9274L722.637 14.9423C723.718 14.9453 724.625 15.1358 725.357 15.5136C726.093 15.8914 726.649 16.4199 727.023 17.0991C727.401 17.7738 727.589 18.5602 727.586 19.4583C727.584 20.361 727.389 21.144 727.002 21.8073C726.62 22.4661 726.057 22.9754 725.314 23.3353C724.571 23.6906 723.658 23.8667 722.577 23.8637L718.817 23.8531L718.823 21.7361L722.239 21.7458C722.872 21.7475 723.39 21.6619 723.793 21.489C724.197 21.3114 724.496 21.0533 724.689 20.7148C724.887 20.3717 724.987 19.9504 724.988 19.4509C724.99 18.9515 724.892 18.5251 724.696 18.1717C724.5 17.8137 724.201 17.5425 723.798 17.3581C723.396 17.1691 722.876 17.0737 722.239 17.0719L719.902 17.0653L719.868 29.011L717.318 29.0038ZM724.608 22.646L728.075 29.0342L725.229 29.0262L721.824 22.6381L724.608 22.646Z" fill="#ECECEC"/>
<circle cx="722.266" cy="22.3994" r="11.3994" stroke="#ECECEC" stroke-width="2"/>
<path fill-rule="evenodd" clip-rule="evenodd" d="M342.618 162.5L330 194H281L347.5 19L424 19L389 194H340.287L351.707 162.5H342.618ZM360.487 128.977H351.707L375.171 76.1667L360.487 128.977Z" fill="#ECECEC"/>
<path d="M538 194H620L634.177 155.115H596.94L608.24 123.056H646.133L660.534 83.4666H623.006L632.171 58.3886H670.502L685.432 19H604L538 194Z" fill="#ECECEC"/>
<path d="M507.082 96.0218H557.165L586.44 19H476L410 194H520.44L548.431 120.009H498.348L483.017 161.52H469.664L510.704 51.9H524.057L507.082 96.0218Z" fill="#ECECEC"/>
<path d="M35.5 19L20.4048 59.3056H76.4048L28.0002 194H78.5002L124.405 59.3056H180.491L194.5 19H35.5Z" fill="#ECECEC"/>
<path fill-rule="evenodd" clip-rule="evenodd" d="M216.959 19L151 194H200.67L229.23 117.996H238.034C239.359 117.996 240.27 119.329 239.789 120.563L211.188 194H260.826L287.978 123.957C291.484 114.911 284.81 105.166 275.109 105.166L286.964 100.612C294.474 97.7262 300.398 91.7755 303.25 84.2522L313.479 57.2687C320.486 38.7825 306.829 19 287.059 19H216.959ZM253.189 52.2427L240.789 85.1195H251.881C252.667 85.1195 253.371 84.6311 253.646 83.8945L264.511 54.785C264.971 53.554 264.06 52.2427 262.746 52.2427H253.189Z" fill="#ECECEC"/>
</svg>
