<svg width="931" height="466" viewBox="0 0 931 466" fill="none" xmlns="http://www.w3.org/2000/svg">
<g filter="url(#filter0_ii_4613_3137)">
<path fill-rule="evenodd" clip-rule="evenodd" d="M641.621 450.989L660.461 450.989C662.542 450.989 664.229 449.325 664.229 447.273L664.229 436.124L920.451 436.124C924.613 436.124 927.987 432.796 927.987 428.691L927.987 246.596C927.987 242.491 924.613 239.163 920.451 239.163L664.229 239.163L664.229 231.731C664.229 229.678 662.542 228.015 660.461 228.015L641.621 228.015C639.54 228.015 637.853 229.678 637.853 231.731L637.853 296.765L614.477 296.765C612.82 296.765 611.477 298.108 611.477 299.765L611.477 381.097C611.477 382.753 612.82 384.097 614.477 384.097L637.853 384.097L637.853 447.273C637.853 449.325 639.54 450.989 641.621 450.989ZM622.781 310.772C622.781 310.219 623.229 309.772 623.781 309.772L637.853 309.772L637.853 371.09L623.781 371.09C623.229 371.09 622.781 370.642 622.781 370.09L622.781 310.772Z" fill="#D4D4D4"/>
<g filter="url(#filter1_i_4613_3137)">
<path d="M713.516 405.153C713.516 400.725 717.106 397.136 721.534 397.136L901.076 397.163C905.503 397.164 909.091 400.752 909.091 405.179C909.091 409.607 905.501 413.196 901.073 413.196L721.531 413.169C717.104 413.169 713.516 409.58 713.516 405.153Z" fill="#D4D4D4"/>
</g>
<g filter="url(#filter2_i_4613_3137)">
<path d="M713.516 350.354C713.516 345.926 717.106 342.336 721.534 342.337L901.076 342.364C905.503 342.364 909.091 345.953 909.091 350.38C909.091 354.808 905.501 358.397 901.073 358.396L721.531 358.37C717.104 358.369 713.516 354.78 713.516 350.354Z" fill="#D4D4D4"/>
</g>
<g filter="url(#filter3_i_4613_3137)">
<path d="M713.516 296.5C713.516 292.072 717.106 288.483 721.534 288.484L901.076 288.51C905.503 288.511 909.091 292.1 909.091 296.526C909.091 300.954 905.501 304.544 901.073 304.543L721.531 304.516C717.104 304.516 713.516 300.927 713.516 296.5Z" fill="#D4D4D4"/>
</g>
<g filter="url(#filter4_i_4613_3137)">
<path d="M713.516 378.227C713.516 374.059 716.895 370.681 721.062 370.682L901.547 370.707C905.714 370.707 909.091 374.085 909.091 378.252C909.091 382.419 905.712 385.797 901.545 385.797L721.06 385.771C716.893 385.771 713.516 382.393 713.516 378.227Z" fill="#D4D4D4"/>
</g>
<g filter="url(#filter5_i_4613_3137)">
<path d="M713.516 323.427C713.516 319.26 716.895 315.882 721.062 315.882L901.547 315.907C905.714 315.908 909.091 319.286 909.091 323.452C909.091 327.62 905.712 330.998 901.545 330.997L721.06 330.972C716.893 330.972 713.516 327.594 713.516 323.427Z" fill="#D4D4D4"/>
</g>
<g filter="url(#filter6_i_4613_3137)">
<path d="M713.516 269.103C713.516 265.196 716.684 262.029 720.59 262.029L902.018 262.053C905.925 262.053 909.091 265.22 909.091 269.126C909.091 273.033 905.924 276.2 902.017 276.199L720.589 276.176C716.682 276.175 713.516 273.009 713.516 269.103Z" fill="#D4D4D4"/>
</g>
</g>
<g filter="url(#filter7_ii_4613_3137)">
<path d="M388.437 226.26L380.388 219.56C379.562 218.872 378.335 218.985 377.648 219.811L371.465 227.238C371.111 227.664 370.954 228.22 371.036 228.768L371.264 230.309L369.95 230.254C369.344 230.228 368.761 230.487 368.373 230.953L337.416 268.144C334.034 272.206 332.451 277.47 333.03 282.723L335.781 307.682C336.107 310.636 338.605 312.871 341.577 312.866C344.47 312.861 346.92 310.732 347.329 307.868L350.813 283.488C350.928 282.682 351.265 281.924 351.786 281.298C353.338 279.433 356.109 279.18 357.974 280.732L358.819 281.436C360.814 283.096 363.777 282.825 365.438 280.83L376.833 290.316C380.331 293.839 385.825 297.8 389.329 304.997C391.331 309.11 412.756 355.07 443.27 379.247C465.924 397.195 505.586 430.635 526.388 448.342C528.865 450.45 532.574 450.122 534.654 447.622L585.165 386.941C587.227 384.463 586.89 380.783 584.413 378.72L509.487 316.354C502.008 310.129 486.815 306.654 458.63 310.097C452.965 309.661 455.939 301.743 452.022 298.482C448.105 295.221 439.543 299.713 434.558 295.563C431.353 292.895 432.99 288.755 429.429 285.791C425.868 282.827 416.895 286.364 413.334 283.4C409.773 280.436 412.012 275.573 409.163 273.202C406.314 270.831 396.519 272.46 390.964 273.339L379.568 263.854L380.396 262.86C382.857 259.903 381.835 255.416 378.337 253.817L373.186 251.462C372.02 250.929 371.68 249.433 372.5 248.448L379.334 240.238C379.766 239.719 379.898 239.013 379.683 238.373L379.19 236.906L380.657 237.147C381.338 237.259 382.027 237.002 382.468 236.472L388.688 229C389.375 228.174 389.263 226.948 388.437 226.26Z" fill="#D4D4D4"/>
</g>
<g filter="url(#filter8_ii_4613_3137)">
<path d="M166.987 443.848L166.987 348.094C166.987 344.287 170.292 341.322 174.076 341.734L299.352 355.374C343.1 312.139 384.604 367.165 390.212 376.991L390.212 373.228C390.212 372.051 391.167 371.096 392.345 371.096L407.15 371.096C408.328 371.096 409.283 372.051 409.283 373.228L409.283 383.542L421.061 385.507L421.061 383.298C421.061 382.709 421.538 382.232 422.127 382.232L423.921 382.232C424.509 382.232 424.987 382.709 424.987 383.298L424.987 406.059C424.987 406.647 424.509 407.125 423.921 407.125L422.127 407.125C421.538 407.125 421.061 406.647 421.061 406.059L421.061 403.849L409.282 405.815L409.282 416.129C409.282 417.306 408.328 418.261 407.15 418.261L392.345 418.261C391.167 418.261 390.212 417.306 390.212 416.129L390.212 414.331C375.069 435.73 335.696 470.012 299.352 435.948L174.107 450.204C170.312 450.636 166.987 447.668 166.987 443.848Z" fill="#D4D4D4"/>
</g>
<g filter="url(#filter9_ii_4613_3137)">
<path d="M859.671 224.695L925.939 161.364C928.335 159.075 928.421 155.277 926.131 152.881L839.484 62.2149C831.852 54.2294 819.192 53.9424 811.207 61.5739L806.52 66.0534L795.751 54.7852L798.877 51.7981C800.474 50.2718 800.531 47.7398 799.005 46.1427L788.122 34.7557C786.596 33.1586 784.064 33.1012 782.467 34.6275L771.683 44.9335L761.94 34.7384L765.261 31.5649C767.656 29.2754 767.742 25.4774 765.453 23.0817L765.026 22.6352C762.737 20.2396 758.939 20.1535 756.543 22.4429L720.949 56.4593C719.521 57.8239 718.529 59.5807 718.099 61.5082L715.24 74.2998C714.809 76.2308 717.144 77.5488 718.574 76.1818L741.699 54.0815L751.443 64.2766L740.112 75.1055C738.514 76.6318 738.457 79.1638 739.983 80.7609L750.866 92.1479C752.392 93.745 754.924 93.8024 756.521 92.2761L760.194 88.7663L770.962 100.035L765.181 105.56C757.196 113.191 756.909 125.851 764.54 133.837L851.188 224.503C853.477 226.899 857.275 226.985 859.671 224.695Z" fill="#D4D4D4"/>
</g>
<g filter="url(#filter10_ii_4613_3137)">
<path d="M555.273 321.054C562.942 339.929 586.394 334.763 595.449 323.333C589.235 322.974 580.348 321.64 573.533 314.538C567.832 308.597 562.079 305.528 555.044 307.63C551.669 302.872 547.681 299.264 537.783 298.42C529.402 297.706 522.338 294.121 519.909 290.361C518.064 315.984 542.843 327.726 555.273 321.054Z" fill="#D4D4D4"/>
<path d="M584.637 290.955C591.332 267.326 610.444 264.752 623.77 267.483L604.208 257.045C595.944 261.451 589.144 263.113 581.445 258.149C573.745 253.186 572.02 245.336 571.988 239.854C564.274 242.169 559.155 238.908 555.984 236.887C555.538 236.602 555.13 236.343 554.759 236.126C560.361 246.055 564.489 259.45 555.87 275.605C546.422 293.313 528.399 292.92 519.909 290.361C522.338 294.121 529.402 297.706 537.783 298.42C547.681 299.264 551.669 302.872 555.044 307.63C562.079 305.528 567.832 308.597 573.533 314.538C580.348 321.64 589.235 322.974 595.449 323.333C589.056 322.385 577.943 314.583 584.637 290.955Z" fill="#D4D4D4"/>
<path d="M589.582 237.357C580.094 221.891 558.513 220.78 548.974 227.575C551.15 230.411 553.116 233.213 554.759 236.126C555.13 236.343 555.538 236.602 555.984 236.887C559.155 238.908 564.274 242.169 571.988 239.854C572.02 245.336 573.745 253.186 581.445 258.149C589.144 263.113 595.944 261.451 604.208 257.045L623.77 267.483C624.795 251.71 611.063 241.427 596.486 241.041L608.074 222.093L602.475 213.192L589.582 237.357Z" fill="#D4D4D4"/>
</g>
<g filter="url(#filter11_ii_4613_3137)">
<path d="M242.284 234.098L243.219 227.957C243.407 226.723 244.668 225.96 245.848 226.367L251.441 228.295L254.197 224.605C254.718 223.908 255.629 223.627 256.451 223.91L266.862 227.499L267.622 225.293C267.982 224.248 269.121 223.694 270.165 224.053L280.358 227.567C281.403 227.927 281.957 229.065 281.597 230.109L280.837 232.315L319.635 245.687C320.457 245.97 321.002 246.753 320.983 247.623L320.879 252.227L327.346 254.456C328.527 254.863 329.05 256.24 328.437 257.328L325.39 262.742C324.916 263.583 323.909 263.966 322.996 263.651L319.332 262.389L285.596 333.725C284.289 336.49 281.109 337.829 278.217 336.832L234.664 321.821C231.771 320.825 230.092 317.811 230.766 314.827L248.147 237.854L243.609 236.29C242.696 235.976 242.138 235.053 242.284 234.098Z" fill="#D4D4D4"/>
</g>
<g filter="url(#filter12_ii_4613_3137)">
<path d="M120.715 316.041C133.866 304.478 146.046 312.943 150.705 321.32C159.659 337.419 154.045 352.298 154.045 352.298C153.119 353.691 102.248 431.543 91.7938 443.156C80.3414 455.878 68.0403 451.904 64.4841 449.541C60.3662 445.451 59.1489 435.282 59.055 430.708C51.9424 425.983 41.3149 414.974 36.8902 410.061C54.5463 401.492 42.627 383.422 38.8689 380.079C35.8624 377.405 34.434 373.467 34.0956 371.833C28.7301 369.621 28.4175 365.804 28.9319 364.173C31.0774 354.771 47.4912 353.384 55.43 353.865C57.0574 346.538 62.4755 347.65 63.9671 350.283L69.27 348.731C69.7278 343.165 74.9311 341.497 77.9105 346.014L82.1307 344.539C82.4665 338.891 87.7048 338.988 89.1959 341.62C94.223 337.912 107.565 327.604 120.715 316.041Z" fill="#D4D4D4"/>
</g>
<defs>
<filter id="filter0_ii_4613_3137" x="607.477" y="224.015" width="320.51" height="232.974" filterUnits="userSpaceOnUse" color-interpolation-filters="sRGB">
<feFlood flood-opacity="0" result="BackgroundImageFix"/>
<feBlend mode="normal" in="SourceGraphic" in2="BackgroundImageFix" result="shape"/>
<feColorMatrix in="SourceAlpha" type="matrix" values="0 0 0 0 0 0 0 0 0 0 0 0 0 0 0 0 0 0 127 0" result="hardAlpha"/>
<feOffset dx="-4" dy="-4"/>
<feGaussianBlur stdDeviation="3"/>
<feComposite in2="hardAlpha" operator="arithmetic" k2="-1" k3="1"/>
<feColorMatrix type="matrix" values="0 0 0 0 0 0 0 0 0 0 0 0 0 0 0 0 0 0 0.2 0"/>
<feBlend mode="normal" in2="shape" result="effect1_innerShadow_4613_3137"/>
<feColorMatrix in="SourceAlpha" type="matrix" values="0 0 0 0 0 0 0 0 0 0 0 0 0 0 0 0 0 0 127 0" result="hardAlpha"/>
<feOffset dy="6"/>
<feGaussianBlur stdDeviation="3"/>
<feComposite in2="hardAlpha" operator="arithmetic" k2="-1" k3="1"/>
<feColorMatrix type="matrix" values="0 0 0 0 1 0 0 0 0 1 0 0 0 0 1 0 0 0 0.8 0"/>
<feBlend mode="normal" in2="effect1_innerShadow_4613_3137" result="effect2_innerShadow_4613_3137"/>
</filter>
<filter id="filter1_i_4613_3137" x="713.516" y="397.136" width="195.575" height="20.0596" filterUnits="userSpaceOnUse" color-interpolation-filters="sRGB">
<feFlood flood-opacity="0" result="BackgroundImageFix"/>
<feBlend mode="normal" in="SourceGraphic" in2="BackgroundImageFix" result="shape"/>
<feColorMatrix in="SourceAlpha" type="matrix" values="0 0 0 0 0 0 0 0 0 0 0 0 0 0 0 0 0 0 127 0" result="hardAlpha"/>
<feOffset dy="4"/>
<feGaussianBlur stdDeviation="2"/>
<feComposite in2="hardAlpha" operator="arithmetic" k2="-1" k3="1"/>
<feColorMatrix type="matrix" values="0 0 0 0 0.591346 0 0 0 0 0.591346 0 0 0 0 0.591346 0 0 0 0.25 0"/>
<feBlend mode="normal" in2="shape" result="effect1_innerShadow_4613_3137"/>
</filter>
<filter id="filter2_i_4613_3137" x="713.516" y="342.337" width="195.575" height="20.0596" filterUnits="userSpaceOnUse" color-interpolation-filters="sRGB">
<feFlood flood-opacity="0" result="BackgroundImageFix"/>
<feBlend mode="normal" in="SourceGraphic" in2="BackgroundImageFix" result="shape"/>
<feColorMatrix in="SourceAlpha" type="matrix" values="0 0 0 0 0 0 0 0 0 0 0 0 0 0 0 0 0 0 127 0" result="hardAlpha"/>
<feOffset dy="4"/>
<feGaussianBlur stdDeviation="2"/>
<feComposite in2="hardAlpha" operator="arithmetic" k2="-1" k3="1"/>
<feColorMatrix type="matrix" values="0 0 0 0 0.591346 0 0 0 0 0.591346 0 0 0 0 0.591346 0 0 0 0.25 0"/>
<feBlend mode="normal" in2="shape" result="effect1_innerShadow_4613_3137"/>
</filter>
<filter id="filter3_i_4613_3137" x="713.516" y="288.483" width="195.575" height="20.0596" filterUnits="userSpaceOnUse" color-interpolation-filters="sRGB">
<feFlood flood-opacity="0" result="BackgroundImageFix"/>
<feBlend mode="normal" in="SourceGraphic" in2="BackgroundImageFix" result="shape"/>
<feColorMatrix in="SourceAlpha" type="matrix" values="0 0 0 0 0 0 0 0 0 0 0 0 0 0 0 0 0 0 127 0" result="hardAlpha"/>
<feOffset dy="4"/>
<feGaussianBlur stdDeviation="2"/>
<feComposite in2="hardAlpha" operator="arithmetic" k2="-1" k3="1"/>
<feColorMatrix type="matrix" values="0 0 0 0 0.591346 0 0 0 0 0.591346 0 0 0 0 0.591346 0 0 0 0.25 0"/>
<feBlend mode="normal" in2="shape" result="effect1_innerShadow_4613_3137"/>
</filter>
<filter id="filter4_i_4613_3137" x="713.516" y="370.682" width="195.575" height="19.1147" filterUnits="userSpaceOnUse" color-interpolation-filters="sRGB">
<feFlood flood-opacity="0" result="BackgroundImageFix"/>
<feBlend mode="normal" in="SourceGraphic" in2="BackgroundImageFix" result="shape"/>
<feColorMatrix in="SourceAlpha" type="matrix" values="0 0 0 0 0 0 0 0 0 0 0 0 0 0 0 0 0 0 127 0" result="hardAlpha"/>
<feOffset dy="4"/>
<feGaussianBlur stdDeviation="2"/>
<feComposite in2="hardAlpha" operator="arithmetic" k2="-1" k3="1"/>
<feColorMatrix type="matrix" values="0 0 0 0 0.591346 0 0 0 0 0.591346 0 0 0 0 0.591346 0 0 0 0.25 0"/>
<feBlend mode="normal" in2="shape" result="effect1_innerShadow_4613_3137"/>
</filter>
<filter id="filter5_i_4613_3137" x="713.516" y="315.882" width="195.575" height="19.1147" filterUnits="userSpaceOnUse" color-interpolation-filters="sRGB">
<feFlood flood-opacity="0" result="BackgroundImageFix"/>
<feBlend mode="normal" in="SourceGraphic" in2="BackgroundImageFix" result="shape"/>
<feColorMatrix in="SourceAlpha" type="matrix" values="0 0 0 0 0 0 0 0 0 0 0 0 0 0 0 0 0 0 127 0" result="hardAlpha"/>
<feOffset dy="4"/>
<feGaussianBlur stdDeviation="2"/>
<feComposite in2="hardAlpha" operator="arithmetic" k2="-1" k3="1"/>
<feColorMatrix type="matrix" values="0 0 0 0 0.591346 0 0 0 0 0.591346 0 0 0 0 0.591346 0 0 0 0.25 0"/>
<feBlend mode="normal" in2="shape" result="effect1_innerShadow_4613_3137"/>
</filter>
<filter id="filter6_i_4613_3137" x="713.516" y="262.029" width="195.575" height="18.1704" filterUnits="userSpaceOnUse" color-interpolation-filters="sRGB">
<feFlood flood-opacity="0" result="BackgroundImageFix"/>
<feBlend mode="normal" in="SourceGraphic" in2="BackgroundImageFix" result="shape"/>
<feColorMatrix in="SourceAlpha" type="matrix" values="0 0 0 0 0 0 0 0 0 0 0 0 0 0 0 0 0 0 127 0" result="hardAlpha"/>
<feOffset dy="4"/>
<feGaussianBlur stdDeviation="2"/>
<feComposite in2="hardAlpha" operator="arithmetic" k2="-1" k3="1"/>
<feColorMatrix type="matrix" values="0 0 0 0 0.591346 0 0 0 0 0.591346 0 0 0 0 0.591346 0 0 0 0.25 0"/>
<feBlend mode="normal" in2="shape" result="effect1_innerShadow_4613_3137"/>
</filter>
<filter id="filter7_ii_4613_3137" x="328.913" y="215.109" width="257.603" height="240.623" filterUnits="userSpaceOnUse" color-interpolation-filters="sRGB">
<feFlood flood-opacity="0" result="BackgroundImageFix"/>
<feBlend mode="normal" in="SourceGraphic" in2="BackgroundImageFix" result="shape"/>
<feColorMatrix in="SourceAlpha" type="matrix" values="0 0 0 0 0 0 0 0 0 0 0 0 0 0 0 0 0 0 127 0" result="hardAlpha"/>
<feOffset dx="-4" dy="-4"/>
<feGaussianBlur stdDeviation="3"/>
<feComposite in2="hardAlpha" operator="arithmetic" k2="-1" k3="1"/>
<feColorMatrix type="matrix" values="0 0 0 0 0 0 0 0 0 0 0 0 0 0 0 0 0 0 0.2 0"/>
<feBlend mode="normal" in2="shape" result="effect1_innerShadow_4613_3137"/>
<feColorMatrix in="SourceAlpha" type="matrix" values="0 0 0 0 0 0 0 0 0 0 0 0 0 0 0 0 0 0 127 0" result="hardAlpha"/>
<feOffset dy="6"/>
<feGaussianBlur stdDeviation="3"/>
<feComposite in2="hardAlpha" operator="arithmetic" k2="-1" k3="1"/>
<feColorMatrix type="matrix" values="0 0 0 0 1 0 0 0 0 1 0 0 0 0 1 0 0 0 0.8 0"/>
<feBlend mode="normal" in2="effect1_innerShadow_4613_3137" result="effect2_innerShadow_4613_3137"/>
</filter>
<filter id="filter8_ii_4613_3137" x="162.987" y="335.015" width="262" height="121.333" filterUnits="userSpaceOnUse" color-interpolation-filters="sRGB">
<feFlood flood-opacity="0" result="BackgroundImageFix"/>
<feBlend mode="normal" in="SourceGraphic" in2="BackgroundImageFix" result="shape"/>
<feColorMatrix in="SourceAlpha" type="matrix" values="0 0 0 0 0 0 0 0 0 0 0 0 0 0 0 0 0 0 127 0" result="hardAlpha"/>
<feOffset dx="-4" dy="-4"/>
<feGaussianBlur stdDeviation="6"/>
<feComposite in2="hardAlpha" operator="arithmetic" k2="-1" k3="1"/>
<feColorMatrix type="matrix" values="0 0 0 0 0 0 0 0 0 0 0 0 0 0 0 0 0 0 0.2 0"/>
<feBlend mode="normal" in2="shape" result="effect1_innerShadow_4613_3137"/>
<feColorMatrix in="SourceAlpha" type="matrix" values="0 0 0 0 0 0 0 0 0 0 0 0 0 0 0 0 0 0 127 0" result="hardAlpha"/>
<feOffset dy="6"/>
<feGaussianBlur stdDeviation="3"/>
<feComposite in2="hardAlpha" operator="arithmetic" k2="-1" k3="1"/>
<feColorMatrix type="matrix" values="0 0 0 0 1 0 0 0 0 1 0 0 0 0 1 0 0 0 0.8 0"/>
<feBlend mode="normal" in2="effect1_innerShadow_4613_3137" result="effect2_innerShadow_4613_3137"/>
</filter>
<filter id="filter9_ii_4613_3137" x="711.188" y="16.7803" width="216.606" height="217.577" filterUnits="userSpaceOnUse" color-interpolation-filters="sRGB">
<feFlood flood-opacity="0" result="BackgroundImageFix"/>
<feBlend mode="normal" in="SourceGraphic" in2="BackgroundImageFix" result="shape"/>
<feColorMatrix in="SourceAlpha" type="matrix" values="0 0 0 0 0 0 0 0 0 0 0 0 0 0 0 0 0 0 127 0" result="hardAlpha"/>
<feOffset dx="-4" dy="-4"/>
<feGaussianBlur stdDeviation="3"/>
<feComposite in2="hardAlpha" operator="arithmetic" k2="-1" k3="1"/>
<feColorMatrix type="matrix" values="0 0 0 0 0 0 0 0 0 0 0 0 0 0 0 0 0 0 0.2 0"/>
<feBlend mode="normal" in2="shape" result="effect1_innerShadow_4613_3137"/>
<feColorMatrix in="SourceAlpha" type="matrix" values="0 0 0 0 0 0 0 0 0 0 0 0 0 0 0 0 0 0 127 0" result="hardAlpha"/>
<feOffset dy="8"/>
<feGaussianBlur stdDeviation="4"/>
<feComposite in2="hardAlpha" operator="arithmetic" k2="-1" k3="1"/>
<feColorMatrix type="matrix" values="0 0 0 0 1 0 0 0 0 1 0 0 0 0 1 0 0 0 0.8 0"/>
<feBlend mode="normal" in2="effect1_innerShadow_4613_3137" result="effect2_innerShadow_4613_3137"/>
</filter>
<filter id="filter10_ii_4613_3137" x="515.811" y="209.192" width="108.013" height="130.391" filterUnits="userSpaceOnUse" color-interpolation-filters="sRGB">
<feFlood flood-opacity="0" result="BackgroundImageFix"/>
<feBlend mode="normal" in="SourceGraphic" in2="BackgroundImageFix" result="shape"/>
<feColorMatrix in="SourceAlpha" type="matrix" values="0 0 0 0 0 0 0 0 0 0 0 0 0 0 0 0 0 0 127 0" result="hardAlpha"/>
<feOffset dx="-4" dy="-4"/>
<feGaussianBlur stdDeviation="3"/>
<feComposite in2="hardAlpha" operator="arithmetic" k2="-1" k3="1"/>
<feColorMatrix type="matrix" values="0 0 0 0 0 0 0 0 0 0 0 0 0 0 0 0 0 0 0.2 0"/>
<feBlend mode="normal" in2="shape" result="effect1_innerShadow_4613_3137"/>
<feColorMatrix in="SourceAlpha" type="matrix" values="0 0 0 0 0 0 0 0 0 0 0 0 0 0 0 0 0 0 127 0" result="hardAlpha"/>
<feOffset dy="6"/>
<feGaussianBlur stdDeviation="3"/>
<feComposite in2="hardAlpha" operator="arithmetic" k2="-1" k3="1"/>
<feColorMatrix type="matrix" values="0 0 0 0 1 0 0 0 0 1 0 0 0 0 1 0 0 0 0.8 0"/>
<feBlend mode="normal" in2="effect1_innerShadow_4613_3137" result="effect2_innerShadow_4613_3137"/>
</filter>
<filter id="filter11_ii_4613_3137" x="226.618" y="219.801" width="102.078" height="123.36" filterUnits="userSpaceOnUse" color-interpolation-filters="sRGB">
<feFlood flood-opacity="0" result="BackgroundImageFix"/>
<feBlend mode="normal" in="SourceGraphic" in2="BackgroundImageFix" result="shape"/>
<feColorMatrix in="SourceAlpha" type="matrix" values="0 0 0 0 0 0 0 0 0 0 0 0 0 0 0 0 0 0 127 0" result="hardAlpha"/>
<feOffset dx="-4" dy="-4"/>
<feGaussianBlur stdDeviation="3"/>
<feComposite in2="hardAlpha" operator="arithmetic" k2="-1" k3="1"/>
<feColorMatrix type="matrix" values="0 0 0 0 0 0 0 0 0 0 0 0 0 0 0 0 0 0 0.2 0"/>
<feBlend mode="normal" in2="shape" result="effect1_innerShadow_4613_3137"/>
<feColorMatrix in="SourceAlpha" type="matrix" values="0 0 0 0 0 0 0 0 0 0 0 0 0 0 0 0 0 0 127 0" result="hardAlpha"/>
<feOffset dy="6"/>
<feGaussianBlur stdDeviation="3"/>
<feComposite in2="hardAlpha" operator="arithmetic" k2="-1" k3="1"/>
<feColorMatrix type="matrix" values="0 0 0 0 1 0 0 0 0 1 0 0 0 0 1 0 0 0 0.8 0"/>
<feBlend mode="normal" in2="effect1_innerShadow_4613_3137" result="effect2_innerShadow_4613_3137"/>
</filter>
<filter id="filter12_ii_4613_3137" x="24.7563" y="306.397" width="131.026" height="151.645" filterUnits="userSpaceOnUse" color-interpolation-filters="sRGB">
<feFlood flood-opacity="0" result="BackgroundImageFix"/>
<feBlend mode="normal" in="SourceGraphic" in2="BackgroundImageFix" result="shape"/>
<feColorMatrix in="SourceAlpha" type="matrix" values="0 0 0 0 0 0 0 0 0 0 0 0 0 0 0 0 0 0 127 0" result="hardAlpha"/>
<feOffset dx="-4" dy="-4"/>
<feGaussianBlur stdDeviation="3"/>
<feComposite in2="hardAlpha" operator="arithmetic" k2="-1" k3="1"/>
<feColorMatrix type="matrix" values="0 0 0 0 0 0 0 0 0 0 0 0 0 0 0 0 0 0 0.2 0"/>
<feBlend mode="normal" in2="shape" result="effect1_innerShadow_4613_3137"/>
<feColorMatrix in="SourceAlpha" type="matrix" values="0 0 0 0 0 0 0 0 0 0 0 0 0 0 0 0 0 0 127 0" result="hardAlpha"/>
<feOffset dy="6"/>
<feGaussianBlur stdDeviation="3"/>
<feComposite in2="hardAlpha" operator="arithmetic" k2="-1" k3="1"/>
<feColorMatrix type="matrix" values="0 0 0 0 1 0 0 0 0 1 0 0 0 0 1 0 0 0 0.8 0"/>
<feBlend mode="normal" in2="effect1_innerShadow_4613_3137" result="effect2_innerShadow_4613_3137"/>
</filter>
</defs>
</svg>
