<svg width="64" height="55" viewBox="0 0 64 55" fill="none" xmlns="http://www.w3.org/2000/svg">
<path d="M57.3734 6.50877C55.9074 5.07936 54.1667 3.94545 52.2508 3.17182C50.335 2.39819 48.2815 2 46.2076 2C44.1338 2 42.0803 2.39819 40.1645 3.17182C38.2486 3.94545 36.5079 5.07936 35.0418 6.50877L31.9992 9.47391L28.9566 6.50877C25.9953 3.62281 21.9788 2.0015 17.7908 2.0015C13.6028 2.0015 9.58638 3.62281 6.62503 6.50877C3.66367 9.39473 2 13.3089 2 17.3903C2 21.4717 3.66367 25.3859 6.62503 28.2718L31.9992 53L57.3734 28.2718C58.8402 26.8431 60.0037 25.1467 60.7976 23.2796C61.5914 21.4125 62 19.4113 62 17.3903C62 15.3693 61.5914 13.3681 60.7976 11.501C60.0037 9.63388 58.8402 7.93751 57.3734 6.50877Z" stroke="#F3F3F3" stroke-width="4" stroke-linecap="round" stroke-linejoin="round"/>
</svg>
