<svg width="258" height="223" viewBox="0 0 258 223" fill="none" xmlns="http://www.w3.org/2000/svg">
<path d="M249.317 130.221C253.869 133.348 255.025 139.573 251.898 144.126L203.49 214.602C200.363 219.154 194.137 220.31 189.585 217.183L8.24283 92.6236C3.69044 89.4967 2.53486 83.2714 5.66178 78.719L54.07 8.24283C57.1969 3.69044 63.4222 2.53487 67.9746 5.66178L249.317 130.221ZM65.7099 8.95891C62.9785 7.08276 59.2433 7.77611 57.3671 10.5075L8.95891 80.9837C7.08277 83.7152 7.77611 87.4503 10.5075 89.3265L191.85 213.886C194.581 215.762 198.316 215.069 200.193 212.337L248.601 141.861C250.477 139.129 249.784 135.394 247.052 133.518L65.7099 8.95891ZM225.209 127.635C223.09 132.539 222.514 135.839 223.202 138.837C223.906 141.902 226.036 145.131 230.491 149.62L231.949 151.09L202.928 193.342L200.896 192.066C195.572 188.722 192.112 187.594 189.184 187.978C186.266 188.362 183.196 190.342 178.908 195.087L177.441 196.71L30.9876 96.1146L31.8142 94.2229C34.1078 88.9709 34.7287 85.7041 34.1319 82.8799C33.526 80.0128 31.5625 77.093 27.3439 72.8043L25.8983 71.3351L54.6169 29.5244L56.3969 30.1085C61.8591 31.9012 65.3049 32.3286 68.2943 31.7692C71.3114 31.2044 74.2114 29.5748 78.4875 26.4398L79.918 25.3905L226.024 125.747L225.209 127.635ZM79.9978 31.5112C76.2461 34.1539 72.9375 35.9862 69.2149 36.6831C65.4443 37.389 61.5256 36.882 56.6329 35.4206L32.3386 70.7899C35.8633 74.5702 38.2083 77.9854 39.0242 81.846C39.8447 85.7287 39.0393 89.6686 37.1937 94.3116L176.698 190.133C180.592 186.123 184.297 183.578 188.532 183.021C192.692 182.474 196.847 183.914 201.499 186.591L225.501 151.647C221.706 147.604 219.246 143.947 218.329 139.957C217.415 135.973 218.116 132.023 219.836 127.562L79.9978 31.5112ZM69.7299 81.0619L62.2082 87.3744L59.7639 85.686L66.5531 78.8668L69.7299 81.0619ZM197.99 142.475C199.11 143.249 199.992 144.129 200.635 145.115C201.298 146.115 201.664 147.24 201.732 148.491C201.815 149.722 201.586 151.098 201.045 152.621C200.519 154.123 199.63 155.78 198.377 157.593L197.152 159.365C195.913 161.157 194.678 162.576 193.445 163.619C192.226 164.643 191.009 165.336 189.795 165.7C188.614 166.058 187.432 166.115 186.248 165.868C185.099 165.616 183.974 165.11 182.874 164.35C181.754 163.576 180.862 162.689 180.199 161.689C179.556 160.703 179.194 159.594 179.111 158.364C179.043 157.113 179.272 155.736 179.799 154.234C180.339 152.712 181.236 151.044 182.488 149.231L183.712 147.46C184.951 145.668 186.18 144.259 187.398 143.235C188.631 142.191 189.838 141.491 191.019 141.133C192.233 140.769 193.415 140.713 194.565 140.966C195.748 141.212 196.89 141.715 197.99 142.475ZM179.954 130.011C181.075 130.785 181.956 131.666 182.599 132.651C183.262 133.651 183.628 134.777 183.697 136.028C183.779 137.259 183.55 138.635 183.009 140.158C182.483 141.66 181.593 143.317 180.341 145.13L179.117 146.901C177.878 148.694 176.642 150.113 175.409 151.157C174.191 152.18 172.973 152.873 171.759 153.237C170.579 153.595 169.397 153.651 168.213 153.405C167.063 153.152 165.939 152.646 164.839 151.886C163.719 151.112 162.827 150.225 162.164 149.225C161.521 148.239 161.158 147.131 161.075 145.901C161.007 144.65 161.236 143.273 161.763 141.771C162.303 140.249 163.199 138.581 164.452 136.768L165.677 134.996C166.916 133.204 168.144 131.796 169.363 130.772C170.595 129.729 171.802 129.028 172.982 128.67C174.197 128.305 175.38 128.25 176.529 128.502C177.713 128.749 178.855 129.251 179.954 130.011ZM161.919 117.548C163.039 118.322 163.921 119.203 164.563 120.188C165.227 121.188 165.592 122.314 165.661 123.565C165.743 124.796 165.514 126.172 164.974 127.695C164.447 129.196 163.558 130.853 162.305 132.666L161.081 134.438C159.842 136.231 158.606 137.648 157.373 138.692C156.155 139.716 154.938 140.41 153.723 140.774C152.543 141.132 151.361 141.188 150.177 140.942C149.028 140.689 147.902 140.183 146.803 139.423C145.683 138.649 144.791 137.762 144.128 136.762C143.485 135.776 143.123 134.667 143.04 133.437C142.972 132.186 143.2 130.809 143.727 129.307C144.267 127.785 145.164 126.117 146.416 124.305L147.641 122.533C148.88 120.741 150.108 119.333 151.327 118.309C152.56 117.265 153.766 116.564 154.947 116.206C156.161 115.842 157.344 115.787 158.493 116.039C159.677 116.286 160.819 116.788 161.919 117.548ZM136.856 100.23C137.977 101.004 138.858 101.884 139.501 102.87C140.164 103.869 140.53 104.995 140.599 106.246C140.681 107.477 140.452 108.854 139.911 110.376C139.385 111.878 138.496 113.535 137.243 115.347L136.019 117.119C134.78 118.912 133.544 120.33 132.311 121.373C131.092 122.397 129.875 123.091 128.661 123.456C127.481 123.814 126.299 123.869 125.115 123.623C123.965 123.37 122.84 122.864 121.74 122.104C120.62 121.33 119.728 120.443 119.065 119.443C118.422 118.457 118.061 117.349 117.978 116.118C117.91 114.867 118.138 113.49 118.665 111.988C119.205 110.466 120.101 108.799 121.354 106.986L122.578 105.214C123.817 103.421 125.046 102.014 126.265 100.99C127.498 99.9466 128.704 99.2451 129.885 98.8871C131.099 98.5229 132.281 98.4673 133.431 98.7199C134.614 98.9662 135.757 99.4695 136.856 100.23ZM118.821 87.7666C119.941 88.5406 120.823 89.4208 121.465 90.4066C122.128 91.4063 122.494 92.5314 122.563 93.782C122.645 95.0126 122.417 96.3897 121.876 97.912C121.35 99.414 120.46 101.071 119.207 102.884L117.983 104.657C116.744 106.449 115.508 107.867 114.275 108.91C113.057 109.934 111.84 110.628 110.625 110.992C109.445 111.35 108.263 111.406 107.079 111.16C105.93 110.907 104.804 110.401 103.705 109.641C102.584 108.867 101.692 107.98 101.029 106.98C100.386 105.994 100.024 104.885 99.9415 103.655C99.8731 102.404 100.102 101.027 100.629 99.5251C101.169 98.0027 102.066 96.3351 103.319 94.5224L104.543 92.7508C105.781 90.9585 107.011 89.5502 108.229 88.5267C109.462 87.483 110.669 86.7822 111.849 86.4242C113.064 86.0599 114.246 86.0034 115.395 86.2561C116.579 86.5025 117.721 87.0066 118.821 87.7666ZM100.785 75.3028C101.905 76.0767 102.787 76.9567 103.429 77.9423C104.093 78.9422 104.458 80.0682 104.527 81.3191C104.609 82.5497 104.381 83.9267 103.84 85.4491C103.314 86.9511 102.424 88.6085 101.172 90.4211L99.9475 92.1928C98.709 93.9851 97.4725 95.4036 96.2396 96.4475C95.0209 97.4708 93.8043 98.1647 92.5897 98.529C91.4094 98.887 90.2269 98.9421 89.043 98.6957C87.8936 98.443 86.7691 97.9369 85.6694 97.177C84.5492 96.4029 83.6572 95.5159 82.994 94.5159C82.3513 93.5301 81.9882 92.4221 81.9057 91.1916C81.8373 89.9406 82.0666 88.564 82.593 87.0621C83.1334 85.5397 84.0302 83.8721 85.2827 82.0595L86.5073 80.287C87.7458 78.4948 88.9749 77.0872 90.1937 76.0637C91.4265 75.02 92.6328 74.3192 93.813 73.9612C95.0277 73.5969 96.21 73.5405 97.3595 73.7931C98.5434 74.0395 99.6856 74.5428 100.785 75.3028ZM73.5968 56.8764L58.8183 78.2609L55.9469 76.2768L68.5295 58.0685L61.9786 58.0105L64.1317 54.8949L70.7246 54.8917L73.5968 56.8764ZM196.174 145.102C195.502 144.638 194.807 144.338 194.088 144.202C193.404 144.06 192.681 144.148 191.921 144.465C191.174 144.761 190.368 145.318 189.503 146.134C188.638 146.951 187.705 148.082 186.706 149.528L185.482 151.3C184.496 152.726 183.775 153.988 183.317 155.086C182.86 156.184 182.617 157.145 182.59 157.969C182.583 158.806 182.759 159.531 183.12 160.141C183.515 160.745 184.039 161.271 184.69 161.722C185.362 162.186 186.041 162.489 186.725 162.631C187.444 162.767 188.177 162.686 188.923 162.39C189.684 162.073 190.497 161.506 191.362 160.69C192.227 159.873 193.159 158.742 194.159 157.296L195.383 155.524C196.368 154.099 197.09 152.836 197.547 151.738C198.005 150.64 198.238 149.673 198.245 148.835C198.273 148.011 198.089 147.297 197.694 146.693C197.333 146.083 196.826 145.553 196.174 145.102ZM178.139 132.639C177.467 132.175 176.771 131.874 176.053 131.738C175.368 131.597 174.646 131.685 173.885 132.002C173.138 132.298 172.332 132.855 171.467 133.671C170.602 134.488 169.67 135.619 168.67 137.065L167.446 138.837C166.461 140.262 165.739 141.525 165.282 142.623C164.824 143.721 164.581 144.682 164.553 145.505C164.546 146.343 164.723 147.066 165.084 147.676C165.479 148.281 166.003 148.808 166.654 149.259C167.327 149.723 168.005 150.027 168.689 150.168C169.408 150.304 170.141 150.223 170.887 149.927C171.648 149.61 172.461 149.043 173.326 148.227C174.191 147.41 175.124 146.279 176.123 144.833L177.347 143.061C178.332 141.635 179.054 140.373 179.512 139.275C179.969 138.177 180.202 137.209 180.209 136.371C180.236 135.548 180.052 134.834 179.657 134.23C179.297 133.62 178.79 133.09 178.139 132.639ZM160.103 120.176C159.431 119.711 158.736 119.411 158.017 119.276C157.333 119.134 156.61 119.221 155.85 119.538C155.103 119.835 154.297 120.391 153.432 121.208C152.567 122.024 151.634 123.156 150.635 124.602L149.411 126.374C148.425 127.799 147.704 129.061 147.246 130.159C146.789 131.257 146.545 132.218 146.518 133.041C146.511 133.879 146.688 134.603 147.048 135.214C147.443 135.818 147.967 136.345 148.619 136.796C149.291 137.26 149.969 137.563 150.653 137.705C151.372 137.84 152.105 137.76 152.851 137.464C153.612 137.147 154.425 136.58 155.29 135.764C156.155 134.947 157.088 133.816 158.087 132.37L159.312 130.598C160.297 129.172 161.018 127.91 161.476 126.812C161.934 125.714 162.166 124.746 162.173 123.909C162.2 123.085 162.017 122.371 161.622 121.767C161.261 121.157 160.755 120.626 160.103 120.176ZM135.041 102.857C134.369 102.392 133.673 102.092 132.955 101.957C132.27 101.815 131.548 101.902 130.788 102.219C130.041 102.516 129.235 103.072 128.37 103.889C127.505 104.705 126.572 105.837 125.573 107.282L124.348 109.055C123.363 110.48 122.641 111.742 122.183 112.84C121.726 113.938 121.483 114.899 121.456 115.723C121.449 116.56 121.625 117.284 121.986 117.895C122.381 118.499 122.904 119.026 123.556 119.476C124.228 119.941 124.906 120.244 125.591 120.386C126.309 120.522 127.043 120.442 127.789 120.145C128.55 119.828 129.362 119.261 130.227 118.445C131.092 117.628 132.025 116.497 133.024 115.051L134.249 113.278C135.234 111.853 135.956 110.591 136.414 109.493C136.871 108.395 137.104 107.427 137.111 106.59C137.138 105.766 136.954 105.052 136.559 104.448C136.199 103.838 135.693 103.307 135.041 102.857ZM117.005 90.3938C116.333 89.9294 115.638 89.6294 114.919 89.4938C114.235 89.3519 113.512 89.4388 112.751 89.7557C112.004 90.0523 111.199 90.6093 110.334 91.4258C109.469 92.2422 108.536 93.3735 107.537 94.8195L106.313 96.592C105.327 98.0176 104.605 99.279 104.148 100.377C103.69 101.475 103.447 102.436 103.42 103.26C103.413 104.097 103.59 104.821 103.95 105.432C104.345 106.036 104.869 106.562 105.52 107.013C106.193 107.477 106.871 107.78 107.555 107.922C108.274 108.058 109.007 107.977 109.753 107.681C110.514 107.364 111.327 106.797 112.192 105.981C113.057 105.164 113.99 104.033 114.989 102.587L116.213 100.815C117.198 99.3896 117.921 98.1275 118.378 97.0295C118.836 95.9317 119.068 94.9635 119.075 94.1259C119.103 93.3024 118.919 92.5883 118.524 91.9843C118.164 91.3741 117.657 90.8441 117.005 90.3938ZM98.9696 77.9309C98.2977 77.4665 97.6023 77.1657 96.8836 77.03C96.1993 76.8881 95.4758 76.9758 94.7151 77.2928C93.9686 77.5894 93.1631 78.1464 92.298 78.9628C91.4329 79.7793 90.5005 80.9106 89.5013 82.3566L88.2765 84.1277C87.2913 85.5534 86.5696 86.816 86.1117 87.914C85.654 89.0119 85.4115 89.9731 85.384 90.7966C85.377 91.6341 85.5543 92.3578 85.9149 92.968C86.31 93.572 86.833 94.0994 87.4847 94.5497C88.1568 95.0142 88.8352 95.3175 89.5196 95.4594C90.2383 95.5949 90.9708 95.5144 91.7173 95.2179C92.478 94.9009 93.2911 94.3343 94.1563 93.5178C95.0214 92.7013 95.9537 91.57 96.953 90.124L98.1775 88.3516C99.1626 86.926 99.8847 85.6645 100.343 84.5666C100.8 83.4686 101.033 82.5006 101.04 81.663C101.067 80.8394 100.883 80.1254 100.488 79.5214C100.128 78.9112 99.6212 78.3812 98.9696 77.9309Z" fill="#FAFAFA"/>
</svg>
