<svg width="151" height="196" viewBox="0 0 151 196" fill="none" xmlns="http://www.w3.org/2000/svg">
<path d="M146.915 26.8421C150.071 28.6645 151.463 32.4952 150.203 35.9197C149.505 37.8193 148.812 39.6959 148.125 41.5494C146.895 44.8677 145.885 48.24 144.862 51.6358C143.86 54.9595 142.841 58.3146 141.615 61.5033C121.822 132.034 75.4739 180.956 62.9694 193.202C60.2633 195.852 56.2371 196.192 53.0785 194.369L4.19237 166.145C1.03787 164.323 -0.678194 160.674 0.253488 157.01C4.57952 139.996 23.7089 74.8936 74.5006 22.6997C78.9649 17.625 83.6651 12.4257 88.6197 7.04682C90.0363 5.50887 91.4737 3.95506 92.9325 2.38631C95.3126 -0.172913 99.1426 -0.738485 102.163 1.00494L146.915 26.8421ZM76.7714 27.5476C27.874 78.571 9.31164 141.675 5.09911 158.242C4.75303 159.603 5.35599 161.043 6.69201 161.814L55.5789 190.039C56.9173 190.811 58.467 190.612 59.4709 189.629C71.6397 177.712 116.585 130.25 136.298 61.9155L76.7714 27.5476ZM102.622 98.0539C104.826 99.0649 105.71 101.77 104.481 103.899L102.165 107.91C96.0011 118.586 84.3275 124.857 72.0232 124.1L64.5563 123.639L55.3521 136.13L51.0355 133.677L57.1264 119.198L53.2351 113.279C46.4881 103.012 46.1072 89.8179 52.2497 79.1787L55.0054 74.4049C56.2895 72.1807 59.2385 71.6413 61.2229 73.2111L61.4115 73.3697L61.8246 73.7427C70.3884 81.6658 73.103 94.1235 68.563 104.914L63.7945 116.245L70.4923 107.158C77.8183 97.2179 90.9125 93.4448 102.405 97.9618L102.622 98.0539ZM130.695 34.8568C130.6 34.802 130.461 34.7721 130.308 34.7993C123.262 36.0556 117.62 36.0735 113.081 33.5022C108.522 30.9189 105.677 26.0676 103.295 19.2099C103.242 19.0579 103.144 18.951 103.048 18.8953L90.9453 11.9082C87.2264 15.9593 83.6562 19.9038 80.2281 23.7693L137.904 57.0685C138.659 54.8682 139.357 52.5742 140.075 50.1939C140.896 47.4696 141.745 44.6373 142.725 41.8035L130.695 34.8568ZM144.415 31.1726L99.663 5.33535C98.6545 4.75311 97.3815 4.94473 96.5938 5.79177C95.8626 6.57812 95.1366 7.3603 94.4163 8.13845L105.548 14.5649C106.727 15.2457 107.588 16.3303 108.018 17.5689C110.301 24.1394 112.632 27.4999 115.546 29.1514C118.482 30.8146 122.615 31.0917 129.431 29.8763C130.699 29.6503 132.039 29.8598 133.194 30.5264L144.462 37.0321C144.809 36.0917 145.16 35.1459 145.51 34.1935C145.928 33.0564 145.468 31.7807 144.415 31.1726Z" fill="#FAFAFA"/>
</svg>
