<svg width="169" height="169" viewBox="0 0 169 169" fill="none" xmlns="http://www.w3.org/2000/svg">
<path d="M84.1025 0C130.551 0 168.205 37.654 168.205 84.1025C168.205 130.551 130.551 168.205 84.1025 168.205C37.654 168.205 0 130.551 0 84.1025C0 37.654 37.654 0 84.1025 0ZM84.1025 4.10254C39.9198 4.10254 4.10254 39.9198 4.10254 84.1025C4.10254 128.285 39.9198 164.103 84.1025 164.103C128.285 164.103 164.103 128.285 164.103 84.1025C164.103 39.9198 128.285 4.10254 84.1025 4.10254ZM84.1016 12.3076C123.753 12.3076 155.896 44.4515 155.896 84.1025C155.896 123.754 123.753 155.897 84.1016 155.897C44.4507 155.897 12.3069 123.753 12.3066 84.1025C12.3069 44.4517 44.4507 12.3078 84.1016 12.3076ZM84.1016 16.4111C46.7165 16.4114 16.4104 46.7174 16.4102 84.1025C16.4104 121.488 46.7165 151.795 84.1016 151.795C121.487 151.795 151.794 121.488 151.794 84.1025C151.794 46.7173 121.487 16.4111 84.1016 16.4111ZM118.795 78.7275C125.87 78.2706 131.751 80.4992 131.93 83.7051C132.109 86.911 126.518 89.8809 119.442 90.3379C112.367 90.7949 106.487 88.5662 106.308 85.3604C106.129 82.1544 111.719 79.1845 118.795 78.7275ZM110.589 64.6143C116.478 60.6005 122.574 59.3222 124.203 61.7588C125.832 64.1958 122.378 69.4255 116.488 73.4395C110.598 77.4534 104.503 78.7319 102.874 76.2949C101.245 73.8579 104.699 68.6281 110.589 64.6143ZM69.54 52.0869C70.9146 51.1618 75.1961 55.21 79.1025 61.1289C83.0086 67.0472 85.0613 72.5946 83.6875 73.5205C82.313 74.4456 78.0315 70.3974 74.125 64.4785C70.219 58.5603 68.1664 53.013 69.54 52.0869ZM97.9639 56.8594C101.09 50.4335 105.539 46.1563 107.901 47.3057C110.263 48.4553 109.644 54.5966 106.519 61.0225C103.393 67.4483 98.9433 71.7255 96.5811 70.5762C94.2188 69.4268 94.8379 63.2854 97.9639 56.8594ZM86.3828 44.5752C88.3858 44.3149 90.7012 49.8373 91.5547 56.9102C92.4082 63.9831 91.4766 69.9284 89.4736 70.1895C87.4706 70.4503 85.1543 64.9277 84.3008 57.8545C83.4472 50.7813 84.3798 44.836 86.3828 44.5752Z" fill="#FAFAFA"/>
</svg>
