<svg width="164" height="179" viewBox="0 0 164 179" fill="none" xmlns="http://www.w3.org/2000/svg">
<path d="M82 0C127.287 0 164 36.7127 164 82C164 127.287 127.287 164 82 164C64.1261 164 47.5889 158.28 34.1162 148.572L41.3535 159.336C42.2778 160.711 41.9128 162.576 40.5381 163.5L19.1113 177.906C17.7364 178.831 15.8717 178.465 14.9473 177.09L0.541016 155.664C-0.383445 154.289 -0.0175468 152.424 1.35742 151.5L21.8438 137.725C8.2873 123.097 0 103.516 0 82C0 36.7127 36.7127 0 82 0ZM19.9463 162.794C19.4131 162.688 18.9295 162.779 18.4971 163.068C18.065 163.357 17.7965 163.769 17.6904 164.302C17.5844 164.835 17.6758 165.318 17.9648 165.751C18.2538 166.183 18.6652 166.453 19.1982 166.559C19.7313 166.665 20.2141 166.573 20.6465 166.284C21.079 165.995 21.349 165.583 21.4551 165.05C21.5609 164.517 21.4694 164.034 21.1807 163.602C20.8916 163.169 20.4795 162.9 19.9463 162.794ZM18.957 160.379L21.7803 160.94L24.1191 149.176L21.2959 148.614L18.957 160.379ZM82 4C38.9218 4 4 38.9218 4 82C4 125.078 38.9218 160 82 160C125.078 160 160 125.078 160 82C160 38.9218 125.078 4 82 4ZM82 12C109.374 12 133.074 27.7125 144.58 50.6016C149.328 60.0469 152 70.7144 152 82C152 96.0435 147.862 109.127 140.739 120.09C128.737 138.561 108.251 151.02 84.7998 151.942C83.796 152.213 82.752 152.271 81.7109 151.998C43.184 151.842 12 120.564 12 82C12 72.917 13.7309 64.2334 16.8828 56.2646C27.1361 30.3423 52.4237 12 82 12ZM68.9629 83.1709C67.2113 82.2145 64.6636 81.603 60.6943 81.9902C51.074 82.9288 46.2735 87.8427 45.3447 93.1572C44.3963 98.5857 47.3034 105.367 55.0742 110.312C56.9909 111.532 58.9701 112.331 61.0234 113.049C63.0085 113.742 65.245 114.414 67.2803 115.307C69.3834 116.23 71.4483 117.454 73.2969 119.389C75.1443 121.323 76.6886 123.876 77.8896 127.346L77.9717 127.581L77.9932 127.829C78.7418 136.564 79.6045 141.885 80.54 144.984C81.0109 146.544 81.4501 147.366 81.7734 147.766C81.903 147.926 81.9879 147.983 82.0146 147.999C82.7208 147.999 83.4242 147.988 84.125 147.966C84.6067 147.787 85.1767 147.478 85.833 146.982C87.327 145.854 88.8974 144.018 90.2051 141.751C92.8711 137.13 94.0455 131.475 92.1758 127.32C90.7926 124.247 89.5784 121.879 88.6035 120.011C87.6588 118.2 86.8512 116.7 86.4004 115.533C85.9627 114.4 85.5748 112.892 86.4365 111.471C86.8291 110.823 87.3836 110.369 87.9238 110.031C88.462 109.695 89.0918 109.409 89.7568 109.143C90.9657 108.659 93.7848 107.481 96.459 105.562C99.1703 103.617 101.435 101.126 102.039 98.1074C102.625 95.1785 101.95 94.3595 101.571 94.0771C100.932 93.6004 99.5752 93.3646 97.1797 93.6309C94.8959 93.8847 92.3072 94.5015 89.583 95.0732C86.9814 95.6193 84.1869 96.1406 81.875 95.9961C79.0743 95.821 77.3102 94.2955 76.041 92.54C75.43 91.6948 74.9023 90.7556 74.4189 89.8711C73.9182 88.9548 73.4616 88.0923 72.9355 87.2383C71.9018 85.5602 70.7214 84.1312 68.9629 83.1709ZM82.8408 16.0068C82.002 16.9017 81.5006 17.5837 81.2285 18.0918C81.0258 18.4704 80.9961 18.6661 80.9932 18.7344C81.0258 18.7811 81.1336 18.9091 81.4395 19.1016C81.9113 19.3984 82.6153 19.7017 83.6045 20.0518C85.4386 20.7007 88.2727 21.4932 90.8916 22.6455C93.5906 23.8331 96.4148 25.5318 98.5693 28.2607C100.168 30.2863 101.113 32.5141 101.089 34.7891C101.064 37.108 100.036 39.2009 98.2168 40.8867C94.954 43.9095 89.087 45.7202 80.9609 45.9688C80.736 51.7284 79.506 56.2047 77.3545 59.5C74.9207 63.2275 71.4295 65.2585 67.4111 65.9697C63.4615 66.6688 59.0478 66.0909 54.5918 64.7598C50.1178 63.4233 45.4752 61.2891 41.0078 58.7363C39.0448 57.6146 37.8168 57.3356 37.1309 57.3496C36.5907 57.3608 36.3792 57.541 36.208 57.8008C35.9608 58.176 35.7613 58.8415 35.7148 59.7969C35.6719 60.6801 35.7687 61.6375 35.9365 62.4824C37.1371 66.065 39.2 71.3755 39.9141 75.9727C40.2762 78.3043 40.3463 80.7385 39.6133 82.8223C38.8275 85.056 37.1632 86.7421 34.5049 87.4355C31.4532 88.2316 28.9397 86.6824 27.0996 84.5801C25.2709 82.4907 23.7556 79.5016 22.4854 76.3408C20.9011 72.3989 19.5841 67.882 18.5098 63.9121C16.8759 69.6585 16 75.7257 16 82C16 116.87 43.0426 145.424 77.2998 147.834C77.0901 147.314 76.8936 146.749 76.71 146.141C75.656 142.649 74.7759 137.048 74.0293 128.429C72.9957 125.523 71.7508 123.562 70.4043 122.152C69.0244 120.708 67.4524 119.751 65.6729 118.97C63.8252 118.159 61.9318 117.604 59.7041 116.825C57.5448 116.071 55.2272 115.152 52.9258 113.688C44.197 108.133 40.104 99.9142 41.4053 92.4678C42.7267 84.9076 49.4264 79.0712 60.3057 78.0098C64.8543 77.566 68.2531 78.2266 70.8799 79.6611C73.4998 81.0919 75.1301 83.1735 76.3418 85.1406C76.9383 86.109 77.4638 87.1024 77.9287 87.9531C78.4111 88.8358 78.8336 89.5757 79.2822 90.1963C80.1322 91.372 80.9262 91.929 82.125 92.0039C83.8131 92.1094 86.089 91.7202 88.7617 91.1592C91.3119 90.6239 94.2026 89.9371 96.7383 89.6553C99.1623 89.3859 101.966 89.3827 103.962 90.8701C106.218 92.5522 106.653 95.4301 105.961 98.8926C105.065 103.374 101.83 106.633 98.791 108.812C95.7154 111.019 92.5343 112.341 91.2432 112.857C90.6584 113.091 90.2836 113.274 90.0439 113.424C90.0037 113.449 89.9707 113.472 89.9434 113.491C89.9669 113.606 90.0171 113.797 90.1309 114.092C90.4769 114.987 91.1304 116.206 92.1504 118.161C93.1403 120.058 94.3951 122.504 95.8242 125.68C98.4542 131.525 96.6287 138.62 93.6699 143.749C92.9172 145.054 92.0654 146.279 91.1494 147.368C109.86 144.774 126.063 134.338 136.333 119.479C135.751 118.866 135.292 118.152 134.932 117.431C134.224 116.017 133.768 114.345 133.472 112.69C132.986 109.982 132.883 107.054 132.943 104.787C125.083 101.003 121.51 92.2047 121.006 85.6533C120.875 83.9565 120.79 82.603 120.532 81.4414C120.283 80.3197 119.92 79.6314 119.412 79.1738C118.909 78.7207 118.012 78.2717 116.246 78.1436C114.461 78.0141 111.947 78.2262 108.405 78.959C104.476 79.772 101.141 79.502 98.4219 78.3486C95.6925 77.1909 93.7434 75.2095 92.4902 72.8877C90.034 68.3365 90.1988 62.4159 92.1875 58.1543C95.0527 52.0145 100.536 49.8607 105.952 50.001C111.261 50.1386 116.717 52.449 120.292 55.4736C121.088 56.1472 122.319 56.5326 124.078 56.5127C125.828 56.4929 127.888 56.0707 130.074 55.3701C133.698 54.2092 137.404 52.3681 140.152 50.7637C129.134 30.2955 107.634 16.3164 82.8408 16.0068ZM105.849 53.999C101.615 53.8893 97.8473 55.4856 95.8125 59.8457C94.3013 63.084 94.2162 67.6636 96.0098 70.9873C96.8816 72.6027 98.1829 73.9029 99.9844 74.667C101.796 75.4354 104.274 75.728 107.595 75.041C111.303 74.2738 114.226 73.9859 116.535 74.1533C118.862 74.3221 120.716 74.9669 122.088 76.2012C123.454 77.4311 124.092 79.0242 124.437 80.5742C124.772 82.0845 124.875 83.7936 124.994 85.3467C125.462 91.4344 128.929 99.0199 135.719 101.634L137.091 102.162L136.996 103.63C136.857 105.771 136.888 109.076 137.409 111.984C137.671 113.442 138.039 114.701 138.509 115.641C138.553 115.73 138.599 115.813 138.644 115.893C144.584 105.987 148 94.3953 148 82C148 72.1226 145.83 62.7573 141.944 54.3486C139.027 56.0345 135.155 57.9429 131.295 59.1797C128.904 59.9457 126.422 60.4867 124.123 60.5127C121.834 60.5386 119.512 60.0526 117.708 58.5264C114.783 56.0512 110.189 54.1116 105.849 53.999ZM77.7393 16.1377C51.9359 17.7819 30.1613 34.2526 20.8477 57.1309C22.1485 61.9825 23.8705 69.06 26.1973 74.8496C27.418 77.8869 28.7315 80.3721 30.1094 81.9463C31.476 83.5077 32.5468 83.8118 33.4951 83.5645C34.8367 83.2145 35.485 82.5038 35.8398 81.4951C36.2475 80.3364 36.2863 78.6819 35.9609 76.5869C35.3076 72.3804 33.4081 67.5494 32.1025 63.6328L32.0654 63.5215L32.042 63.4082C31.8068 62.2793 31.6551 60.931 31.7197 59.6025C31.7827 58.3083 32.0604 56.8242 32.8672 55.5996C33.7502 54.2594 35.1703 53.3894 37.0479 53.3506C38.7797 53.3148 40.7556 53.9856 42.9922 55.2637C47.2748 57.7109 51.6322 59.7017 55.7363 60.9277C59.8584 62.1591 63.6011 62.5812 66.7139 62.0303C69.758 61.4915 72.2356 60.0224 74.0049 57.3125C75.8172 54.5367 77 50.2813 77 44V42H79C87.8527 42 93.1129 40.1619 95.498 37.9521C96.6308 36.9027 97.0786 35.8141 97.0898 34.7471C97.1015 33.6363 96.6409 32.2723 95.4307 30.7393C93.8352 28.7184 91.6593 27.3544 89.2803 26.3076C86.8211 25.2256 84.4989 24.6117 82.2705 23.8232C81.2289 23.4547 80.1746 23.0312 79.3086 22.4863C78.4457 21.9433 77.5263 21.1276 77.1533 19.876C76.772 18.5965 77.0985 17.3321 77.7031 16.2031C77.7148 16.1812 77.7272 16.1596 77.7393 16.1377Z" fill="#FAFAFA"/>
</svg>
