<svg width="52" height="44" viewBox="0 0 52 44" fill="none" xmlns="http://www.w3.org/2000/svg">
<path d="M3.32301 42.0049V24.8335H20.6245" stroke="#535353" stroke-width="6.64566"/>
<path d="M43.221 23.1553C43.221 25.769 42.7062 28.3571 41.706 30.7719C40.7057 33.1867 39.2397 35.3808 37.3915 37.229C35.5433 39.0772 33.3492 40.5432 30.9344 41.5435C28.5196 42.5437 25.9315 43.0585 23.3178 43.0585C20.7041 43.0585 18.1159 42.5437 15.7011 41.5435C13.2864 40.5432 11.0923 39.0772 9.24407 37.229C7.39589 35.3808 5.92982 33.1867 4.92959 30.7719C3.92936 28.3571 3.41455 25.769 3.41455 23.1553H9.45004C9.45004 24.9764 9.80874 26.7797 10.5057 28.4622C11.2026 30.1447 12.2241 31.6735 13.5118 32.9612C14.7995 34.249 16.3283 35.2705 18.0108 35.9674C19.6933 36.6643 21.4966 37.023 23.3178 37.023C25.1389 37.023 26.9422 36.6643 28.6247 35.9674C30.3073 35.2705 31.836 34.249 33.1238 32.9613C34.4115 31.6735 35.433 30.1447 36.1299 28.4622C36.8268 26.7797 37.1855 24.9764 37.1855 23.1553H43.221Z" fill="#535353" stroke="#535353" stroke-width="1.32913"/>
<ellipse cx="16.6187" cy="15.3389" rx="7.20138" ry="1.67415" transform="rotate(-149.404 16.6187 15.3389)" fill="#535353"/>
<ellipse cx="21.0267" cy="9.8875" rx="7.20138" ry="2.0504" transform="rotate(-122.869 21.0267 9.8875)" fill="#535353"/>
<ellipse cx="28.6609" cy="7.21244" rx="7.20138" ry="2.67482" transform="rotate(-89.7763 28.6609 7.21244)" fill="#535353"/>
<ellipse cx="36.8419" cy="9.54185" rx="7.20138" ry="2.97677" transform="rotate(-59.7378 36.8419 9.54185)" fill="#535353"/>
<ellipse cx="43.4541" cy="15.9688" rx="7.20138" ry="3.24368" transform="rotate(-29.1629 43.4541 15.9688)" fill="#535353"/>
</svg>
