<svg width="217" height="197" viewBox="0 0 217 197" fill="none" xmlns="http://www.w3.org/2000/svg">
<path d="M145.417 69.04C155.72 66.8313 168.084 70.0109 181.08 83.6914L182.379 85.0566L181.093 86.4326L181.091 86.4346C181.089 86.4361 181.087 86.4392 181.083 86.4434C181.075 86.4521 181.062 86.4668 181.044 86.4863C181.008 86.5257 180.952 86.5872 180.879 86.6689C180.732 86.8325 180.514 87.0785 180.239 87.4004C179.689 88.0446 178.909 88.9895 178.007 90.1777C176.198 92.5603 173.918 95.8928 171.997 99.7178C168.094 107.49 165.991 116.622 171.151 124.148C176.33 131.701 185.52 133.174 194.038 132.504C198.236 132.173 202.104 131.33 204.932 130.564C206.341 130.183 207.483 129.822 208.269 129.56C208.661 129.428 208.964 129.321 209.166 129.248C209.267 129.212 209.343 129.184 209.392 129.166C209.415 129.157 209.433 129.15 209.443 129.146C209.449 129.144 209.453 129.142 209.455 129.142L210.952 128.563L211.841 129.9C215.489 135.387 218.203 146.348 215.906 157.063C213.601 167.821 206.246 178.309 190.05 182.906C186.614 188.227 179.91 194.328 170.317 196.277C160.226 198.327 147.344 195.706 132.231 183.56L130.351 182.049L132.184 180.481L132.185 180.479C132.186 180.478 132.191 180.476 132.195 180.472C132.205 180.463 132.221 180.449 132.242 180.431C132.285 180.393 132.352 180.335 132.438 180.257C132.614 180.1 132.874 179.863 133.203 179.554C133.861 178.934 134.793 178.022 135.873 176.868C138.04 174.554 140.775 171.295 143.095 167.487C147.783 159.791 150.453 150.464 144.491 141.97C138.473 133.396 128.657 132.159 119.794 133.307C115.403 133.875 111.39 135.018 108.465 136.026C107.007 136.529 105.828 136.995 105.019 137.333C104.614 137.502 104.303 137.639 104.096 137.731C103.992 137.778 103.914 137.814 103.864 137.837C103.84 137.848 103.822 137.857 103.811 137.862C103.805 137.865 103.801 137.866 103.799 137.867L101.673 138.88L101.018 136.618C98.7887 128.924 97.2357 117.048 99.9648 106.44C101.337 101.108 103.812 96.0193 107.903 91.9746C111.844 88.0795 117.182 85.2548 124.204 84.0527C128.264 77.9175 135.694 71.1247 145.417 69.04ZM210.636 136.47C208.226 142.666 204.194 147.004 199.733 149.463C195.561 151.763 190.902 152.451 186.97 151.307C187.19 155.413 186.585 158.815 185.31 161.553C183.662 165.09 180.964 167.364 177.865 168.551C172.946 170.435 167.088 169.573 162.682 167.035C160.967 174.189 156.201 178.582 150.815 181.088C147.101 182.816 143.07 183.666 139.463 183.974C151.755 192.464 161.85 193.915 169.521 192.356C178.234 190.586 184.229 184.855 187.053 180.156L187.469 179.463L188.25 179.254C203.468 175.178 209.954 165.746 211.995 156.226C213.555 148.949 212.518 141.606 210.636 136.47ZM88.2314 0.268555C93.0542 -1.00461 97.8532 2.39879 98.248 7.37109L102.487 60.7627C102.675 63.1238 101.123 65.5507 98.4648 65.8848C90.0708 66.9388 77.9686 64.2071 66.4941 58.6084C65.0646 60.3021 63.7528 62.0346 62.5498 63.7969L85.6064 83.4209C86.4475 84.1368 86.5488 85.3981 85.833 86.2393C85.1171 87.0802 83.8557 87.1816 83.0146 86.4658L60.3789 67.2021C58.5256 70.3234 56.9855 73.5206 55.7178 76.7471L76.5195 94.6787C77.356 95.3998 77.4494 96.6634 76.7285 97.5C76.0073 98.3366 74.7438 98.4301 73.9072 97.709L54.2754 80.7842C52.7935 85.3703 51.8222 89.9771 51.25 94.4736L70.3848 103.833C71.3768 104.318 71.7877 105.516 71.3027 106.508C70.8175 107.5 69.6201 107.911 68.6279 107.426L50.8223 98.7168C50.4861 103.201 50.5239 107.521 50.8154 111.535L65.6465 116.266C66.6985 116.601 67.2788 117.726 66.9434 118.778C66.6077 119.831 65.4829 120.412 64.4307 120.076L51.2393 115.868C51.8398 120.76 52.7857 125.022 53.8027 128.342C60.4711 127.509 67.2816 129.68 72.9199 133.125C79.0491 136.87 84.1178 142.317 86.3154 147.696L87.3984 150.345L84.5381 150.45L56.2354 151.5C54.9103 155.661 53.2479 162.668 51.8506 168.991C51.0805 172.476 50.399 175.713 49.9102 178.078C49.6658 179.261 49.4699 180.226 49.335 180.895C49.2676 181.228 49.2159 181.488 49.1807 181.664C49.1631 181.752 49.1486 181.819 49.1396 181.864C49.1352 181.887 49.1321 181.904 49.1299 181.915C49.1288 181.92 49.1285 181.925 49.1279 181.928C49.1277 181.929 49.1272 181.93 49.127 181.931V181.932C49.1237 181.931 49.0463 181.916 47.165 181.543L49.126 181.933L48.5439 184.867L46.0557 183.208C39.1385 178.596 33.6502 170.031 31.5195 160.904C29.4712 152.13 30.4571 142.479 36.6846 135.144C35.7795 132.7 34.9944 130.272 34.3203 127.862L22.7402 143.219C22.0751 144.1 20.8213 144.276 19.9395 143.611C19.0579 142.946 18.8821 141.692 19.5469 140.811L33.0723 122.876C32.4564 120.078 31.9879 117.31 31.6484 114.581L14.5645 127.434C13.6818 128.098 12.4277 127.921 11.7637 127.038C11.1 126.155 11.2777 124.901 12.1602 124.237L31.1885 109.921C30.9191 106.19 30.8878 102.541 31.0547 98.9922L8.61816 109.079C7.61084 109.532 6.42665 109.082 5.97363 108.075C5.52081 107.068 5.9711 105.884 6.97852 105.431L31.3779 94.4609C31.7123 90.967 32.2325 87.5839 32.8984 84.3301L3.34961 89.7041C2.26291 89.9017 1.22108 89.1804 1.02344 88.0938C0.825935 87.0071 1.54709 85.9662 2.63379 85.7686L33.8643 80.0898C34.6138 77.1039 35.4797 74.2421 36.4277 71.5205L2.07715 72.8535C0.973406 72.8963 0.0438025 72.0364 0.000976562 70.9326C-0.0415517 69.8292 0.818501 68.8995 1.92188 68.8564L37.9414 67.459C39.1608 64.3911 40.474 61.5322 41.8213 58.9092L10.9971 54.0781C9.90612 53.9069 9.16024 52.884 9.33105 51.793C9.50211 50.7018 10.5251 49.9551 11.6162 50.126L43.8467 55.1777C45.6251 52.0817 47.4203 49.3968 49.1104 47.1865C40.7526 39.8664 34.2126 30.5197 32.3809 19.499C31.9567 16.9465 33.6452 14.6806 35.9746 14.0654L88.2314 0.268555ZM175.552 86.8145C168.681 86.7703 164.162 88.9729 161.237 91.7285C157.726 95.0366 156.295 99.3456 156.06 102.229L155.771 105.768L152.894 103.686C149.105 100.944 145.882 100.067 143.279 100.205C140.685 100.343 138.46 101.503 136.67 103.3C134.864 105.113 133.535 107.549 132.821 110.085C132.104 112.634 132.051 115.127 132.612 117.044L133.93 121.538L129.772 119.382C124.388 116.589 119.319 118.422 114.786 122.475C111.705 125.23 109.072 128.867 107.109 132.264C107.127 132.258 107.145 132.251 107.162 132.245C110.254 131.18 114.54 129.954 119.28 129.34C128.681 128.122 140.461 129.265 147.766 139.672C155.126 150.158 151.474 161.421 146.51 169.569C144.003 173.684 141.078 177.162 138.793 179.603C138.652 179.753 138.51 179.899 138.374 180.042C141.77 179.825 145.647 179.081 149.129 177.461C154.289 175.06 158.522 170.798 159.248 163.353L159.633 159.407L162.577 162.06C166.013 165.154 171.922 166.544 176.435 164.815C178.617 163.979 180.498 162.411 181.684 159.864C182.886 157.282 183.442 153.545 182.636 148.31L181.922 143.68L185.759 146.367C188.576 148.34 193.222 148.485 197.802 145.96C201.6 143.866 205.221 139.97 207.262 134.062C206.861 134.18 206.432 134.303 205.977 134.426C202.993 135.234 198.87 136.136 194.353 136.491C185.438 137.193 174.29 135.8 167.852 126.41C161.395 116.993 164.357 106.02 168.423 97.9229C170.486 93.8132 172.915 90.2684 174.82 87.7588C175.073 87.4257 175.319 87.111 175.552 86.8145ZM52.1953 49.7363C50.4446 52.0396 48.5399 54.9325 46.6553 58.3379C44.7496 61.7814 42.871 65.7373 41.1953 70.1211C39.7579 73.8817 38.471 77.9553 37.4443 82.2871C36.4199 86.6096 35.6541 91.1891 35.2568 95.9727C34.8646 100.696 34.832 105.619 35.2607 110.691C35.5972 114.672 36.2179 118.747 37.1748 122.891C37.9688 126.329 38.9943 129.817 40.2803 133.341L40.8477 134.854L41.2988 136.024L40.4404 136.94C34.6482 143.117 33.4798 151.709 35.4141 159.995C37.0827 167.143 41.0061 173.772 45.8428 178.005C45.891 177.77 45.9404 177.524 45.9932 177.269C46.4845 174.891 47.1701 171.636 47.9453 168.128C49.4839 161.165 51.4123 153.038 52.8936 148.883L53.3486 147.605L54.7031 147.556L81.2588 146.569C79.0418 142.956 75.3335 139.286 70.835 136.537C65.2422 133.12 58.7529 131.32 52.8398 132.552L51.1162 132.911L50.541 131.246C49.0117 126.813 47.5778 120.527 46.9355 113.207C46.458 107.764 46.417 101.726 47.1084 95.4287C47.7792 89.3187 49.1407 82.9549 51.4717 76.6514C53.1706 72.0573 55.3836 67.4941 58.2178 63.0879C59.6102 60.9232 61.1534 58.7976 62.8564 56.7246C59.166 54.699 55.5626 52.3633 52.1953 49.7363ZM151.914 123.647C152.834 123.036 154.076 123.286 154.688 124.205L164.924 139.601C165.535 140.52 165.285 141.762 164.365 142.373C163.446 142.984 162.204 142.735 161.593 141.815L151.356 126.42C150.745 125.5 150.995 124.259 151.914 123.647ZM174.478 82.8252C163.686 73.0719 154.005 71.2896 146.255 72.9512C137.462 74.8364 130.631 81.2599 127.101 86.9424L126.611 87.7285L125.695 87.8643C118.977 88.861 114.157 91.4168 110.715 94.8193C107.257 98.2378 105.076 102.623 103.838 107.437C101.885 115.027 102.327 123.492 103.624 130.301C105.757 126.602 108.648 122.595 112.119 119.492C116.488 115.586 122.083 112.887 128.238 114.514C128.2 112.701 128.46 110.818 128.971 109.002C129.843 105.903 131.484 102.839 133.836 100.478C136.204 98.1003 139.326 96.4101 143.067 96.2109C146.041 96.0528 149.251 96.8451 152.623 98.7578C153.466 95.5441 155.272 91.8522 158.493 88.8174C162.075 85.4423 167.269 83.0083 174.478 82.8252ZM94.2617 7.6875C94.0643 5.20138 91.6643 3.5002 89.2529 4.13672L36.9961 17.9316C36.488 18.0658 36.2703 18.5002 36.3271 18.8428C38.0583 29.2584 44.552 38.2656 53.1514 45.377C57.3746 48.8693 62.0776 51.8781 66.9053 54.3447C78.4012 60.2182 90.3239 62.8749 97.9668 61.915C98.1142 61.8964 98.2376 61.8256 98.3379 61.6914C98.4456 61.547 98.5198 61.331 98.5 61.0801L94.2617 7.6875Z" fill="#FAFAFA"/>
</svg>
