<svg width="31" height="39" viewBox="0 0 31 39" fill="none" xmlns="http://www.w3.org/2000/svg">
<path d="M15.5 1C19.0679 1 22.718 1.9602 25.4492 3.99023C28.1443 5.99346 30 9.07357 30 13.5C30 18.9034 26.6782 24.9279 23.0186 29.7041C21.2067 32.0687 19.3513 34.0764 17.8662 35.4854C17.1224 36.1911 16.484 36.7346 16 37.0947C15.7927 37.249 15.6249 37.358 15.5 37.4316C15.3751 37.358 15.2073 37.249 15 37.0947C14.516 36.7346 13.8776 36.1911 13.1338 35.4854C11.6487 34.0764 9.79325 32.0687 7.98145 29.7041C4.32175 24.9279 1 18.9034 1 13.5C1 9.07357 2.85569 5.99346 5.55078 3.99023C8.28197 1.9602 11.9321 1 15.5 1ZM15.5 8C12.4624 8 10 10.4624 10 13.5C10 16.5376 12.4624 19 15.5 19C18.5376 19 21 16.5376 21 13.5C21 10.4624 18.5376 8 15.5 8Z" stroke="#34444E" stroke-width="2"/>
</svg>
