<svg width="146" height="211" viewBox="0 0 146 211" fill="none" xmlns="http://www.w3.org/2000/svg">
<path d="M31.7959 73.5C45.8662 49.3462 89.5289 37.6164 119.659 60.7363C149.789 83.8565 152.363 121.499 132.598 147.258C122.567 160.33 103.3 169.807 85.5645 172.267L84.7119 172.392C75.8984 173.751 67.1853 177.248 61.7666 184.31L47.0078 203.544L46.6572 203.978C43.0565 208.208 36.8183 209.03 32.2451 205.876L31.7939 205.547L31.2812 205.153L29.1201 207.729C26.8796 210.397 22.9353 210.829 20.1709 208.708L3.53613 195.943C0.700162 193.767 0.149164 189.711 2.30176 186.857L4.18555 184.36C-0.368185 180.816 -1.33136 174.35 1.91406 169.646L2.24219 169.194L16.541 150.561C22.1976 143.188 23.1562 133.384 21.9131 124.155L21.7852 123.265C19.2223 106.23 22.698 86.3077 31.7959 73.5ZM5.41602 171.63C3.11314 174.632 3.67923 178.931 6.68066 181.234L34.2285 202.373C37.2303 204.676 41.5305 204.11 43.834 201.108L49.334 193.94L10.916 164.462L5.41602 171.63ZM117.224 63.9092C103.196 53.1453 85.9431 50.4345 70.4365 53.3223C54.8353 56.2278 41.5616 64.6823 35.252 75.5137L35.1621 75.6689L35.0566 75.8164C26.6938 87.5893 23.2937 106.401 25.7412 122.669C27.2423 132.646 26.5032 144.148 19.7139 152.996L13.3516 161.288L51.7695 190.768L58.5928 181.875C65.0957 173.4 75.4143 169.635 85.0156 168.304C101.996 165.949 120.191 156.857 129.425 144.823C147.876 120.777 145.562 85.6542 117.224 63.9092ZM70.001 66.2969C78.1693 63.9902 86.7656 64.7614 92.1982 67.2939C93.199 67.7608 93.6316 68.9502 93.165 69.9512C92.6984 70.9521 91.5088 71.3863 90.5078 70.9199C86.0595 68.8462 78.4646 68.0638 71.0889 70.1465C63.7988 72.2052 56.9246 76.9985 53.5449 85.876C53.1519 86.908 51.997 87.4259 50.9648 87.0332C49.9326 86.6402 49.4137 85.4844 49.8066 84.4521C53.7228 74.1658 61.7472 68.6277 70.001 66.2969ZM106.742 6.23438C107.165 5.21419 108.334 4.73035 109.354 5.15332C110.375 5.57645 110.858 6.74541 110.436 7.76562L98.7842 35.8613C98.361 36.8816 97.1902 37.3665 96.1699 36.9434C95.1501 36.5202 94.6662 35.3501 95.0889 34.3301L106.742 6.23438ZM48.373 3.63184C49.4046 3.23684 50.562 3.75367 50.957 4.78516L61.9834 33.5791C62.3782 34.6104 61.8621 35.7669 60.8311 36.1621C59.7995 36.5571 58.6421 36.0413 58.2471 35.0098L47.2207 6.21484C46.8261 5.18356 47.3419 4.0269 48.373 3.63184ZM78.7412 0C79.8455 0.00015742 80.7411 0.895652 80.7412 2L80.7422 32.0762C80.7422 33.1807 79.8458 34.0761 78.7412 34.0762C77.637 34.0759 76.7424 33.1814 76.7422 32.0771L76.7412 2C76.7413 0.89564 77.6368 0.000152733 78.7412 0Z" fill="#FAFAFA"/>
</svg>
