<svg width="164" height="184" viewBox="0 0 164 184" fill="none" xmlns="http://www.w3.org/2000/svg">
<path d="M21 2H34M147 2H134M34 2H134M34 2V24.8729M134 2V24.8729M134 24.8729H159C160.657 24.8729 162 26.2161 162 27.8729V55.547C162 71.011 149.464 83.547 134 83.547M134 24.8729V83.547M134 83.547V91.3923C134 102.438 125.046 111.392 114 111.392H97M34 24.8729H5C3.34315 24.8729 2 26.2161 2 27.8729V63.547C2 74.5927 10.9543 83.547 22 83.547H34M34 24.8729V83.547M34 83.547C34 98.9255 46.4668 111.392 61.8453 111.392H70M70 111.392V155.149M70 111.392H97M70 155.149H45V182M70 155.149H97M45 182H34M45 182H123M134 182H123M97 111.392V155.149M97 155.149H123V182" stroke="#FAFAFA" stroke-width="4" stroke-linecap="round"/>
<path d="M83.6033 27.817C83.9701 27.0737 85.0299 27.0737 85.3967 27.817L92.6433 42.5001C92.7889 42.7952 93.0705 42.9998 93.3962 43.0471L109.6 45.4016C110.42 45.5208 110.748 46.5288 110.154 47.1073L98.429 58.5365C98.1933 58.7663 98.0858 59.0973 98.1414 59.4217L100.909 75.5599C101.049 76.3768 100.192 76.9998 99.4584 76.6141L84.9653 68.9946C84.674 68.8415 84.326 68.8415 84.0347 68.9946L69.5416 76.6141C68.808 76.9998 67.9505 76.3768 68.0906 75.5599L70.8586 59.4217C70.9142 59.0973 70.8067 58.7663 70.571 58.5365L58.8458 47.1073C58.2523 46.5288 58.5798 45.5208 59.4001 45.4016L75.6038 43.0471C75.9295 42.9998 76.2111 42.7952 76.3567 42.5001L83.6033 27.817Z" fill="#FAFAFA"/>
</svg>
