<svg width="41" height="37" viewBox="0 0 41 37" fill="none" xmlns="http://www.w3.org/2000/svg">
<path d="M19.7552 6.24037C14.352 5.25791 8.59461 9.04043 7.84478 14.6492M21.4562 1.26547C11.6776 -0.296592 4.36658 5.14732 2.43249 14.6963M27.5628 30.6409C18.6587 36.9272 11.1853 36.2583 7.58236 35.3329C6.01941 34.9315 4.78468 33.8384 3.85399 32.5202L1.54972 29.2564C0.594132 27.9028 0.916719 26.0309 2.27024 25.0754L7.2941 21.5285C8.64762 20.5729 10.5195 20.8955 11.4751 22.249L13.9748 25.7895C14.1576 26.0485 14.4524 26.209 14.7692 26.1978C19.6133 26.027 26.0282 21.9645 28.296 16.6476C28.4256 16.3437 28.3779 15.996 28.1874 15.7261L25.7015 12.2051C24.7459 10.8516 25.0685 8.97967 26.422 8.02408L31.2805 4.59399C32.634 3.6384 34.5059 3.96098 35.4615 5.3145L37.6181 8.36916C38.6425 9.82022 39.2813 11.5252 39.0427 13.2853C38.5195 17.1436 36.3285 24.4522 27.5628 30.6409Z" stroke="#34444E" stroke-width="2" stroke-linecap="round"/>
</svg>
