<svg width="163" height="188" viewBox="0 0 163 188" fill="none" xmlns="http://www.w3.org/2000/svg">
<path d="M82.5352 6.19922C87.7668 -0.628192 97.472 -2.00855 104.39 3.01953L104.717 3.26367L156.205 42.7178L156.526 42.9697C163.18 48.3415 164.371 58.0712 159.14 64.8984L145.888 82.1943L145.68 82.458C141.26 87.9329 133.254 88.9137 127.637 84.6094L117.459 76.8105L116.596 77.9385C112.687 83.0389 104.781 83.5592 98.8379 79.1484C94.3206 84.7921 79.2475 103.769 69.9355 117.327C63.6079 126.54 54.376 141.348 54.376 141.348L29.1641 180.272C24.1352 188.036 13.5545 189.865 6.21191 184.239L5.87305 183.973C-1.03596 178.381 -1.99051 168.178 3.76074 161.401L4.04395 161.076L35.0049 126.504C35.0049 126.504 45.4374 115.265 52.6904 106.833L54.0947 105.188C64.7442 92.609 79.0799 72.9847 83.2891 67.1768C78.112 62.53 76.8629 55.2241 80.5957 50.3525L81.459 49.2246L71.6973 41.7451L71.4336 41.5361C66.0459 37.1865 65.0102 29.365 69.0811 23.7637L69.2822 23.4941L82.5352 6.19922ZM48.0244 128.859C46.1047 127.436 43.3384 126.856 39.5723 127.453C39.115 127.95 38.7415 128.356 38.4668 128.653C38.2967 128.837 38.1648 128.979 38.0752 129.076C38.0305 129.124 37.9958 129.162 37.9727 129.187L7.02441 163.744C2.41818 168.888 3.16481 176.865 8.64551 181.064C14.1357 185.271 22.0465 183.904 25.8066 178.099L51.0098 139.188C51.0277 139.159 51.0541 139.115 51.0889 139.06C51.1587 138.948 51.2625 138.783 51.3955 138.57C51.5795 138.276 51.8209 137.891 52.1123 137.427C51.5293 133.06 50.0296 130.346 48.0244 128.859ZM84.7549 71.9688C82.8828 74.5343 80.2551 78.1113 77.2314 82.1553C71.1977 90.225 63.5365 100.225 57.1475 107.772C53.4906 112.092 48.6792 117.463 44.8037 121.732C44.3274 122.257 43.8632 122.764 43.418 123.253C46.0549 123.41 48.4161 124.169 50.4072 125.646C52.6162 127.283 54.1696 129.654 55.1377 132.643C55.5437 132.004 55.9686 131.333 56.4111 130.64C59.5143 125.779 63.4339 119.726 66.6377 115.062C72.2341 106.913 79.8499 96.8808 86.0322 88.9248C89.13 84.9384 91.8807 81.4568 93.8574 78.9717C94.0739 78.6995 94.2831 78.4401 94.4805 78.1924L85.3291 71.1797C85.1465 71.4304 84.9552 71.6943 84.7549 71.9688ZM102.283 6.43848C97.101 2.46788 89.6808 3.44978 85.71 8.63184L72.457 25.9268C69.8462 29.3341 70.0454 34.008 72.6807 37.1738L92.8174 10.8945L151.932 56.1914L131.795 82.4707C135.537 84.192 140.101 83.1681 142.712 79.7607L155.965 62.4658C159.936 57.2838 158.954 49.8636 153.772 45.8926L102.283 6.43848ZM75.7178 39.7861L128.482 80.2178L136.541 69.7012L83.7764 29.2695L75.7178 39.7861ZM86.209 26.0947L138.974 66.5264L146.324 56.9336L93.5596 16.502L86.209 26.0947Z" fill="#FAFAFA"/>
</svg>
