<svg width="44" height="44" viewBox="0 0 44 44" fill="none" xmlns="http://www.w3.org/2000/svg">
<path d="M43.4397 21.7199C43.4397 27.4803 41.1514 33.0049 37.0781 37.0781C33.0049 41.1514 27.4803 43.4397 21.7199 43.4397C15.9594 43.4397 10.4349 41.1514 6.3616 37.0781C2.28834 33.0049 0 27.4803 0 21.7199C0 15.9594 2.28834 10.4349 6.3616 6.3616C10.4349 2.28834 15.9594 0 21.7199 0C27.4803 0 33.0049 2.28834 37.0781 6.3616C41.1514 10.4349 43.4397 15.9594 43.4397 21.7199ZM22.4991 16.0347C20.3868 16.9144 16.1623 18.7334 9.83096 21.4918C8.80469 21.8991 8.26441 22.3009 8.21554 22.6918C8.13409 23.3516 8.96216 23.6122 10.0889 23.9679L10.564 24.1172C11.6717 24.4783 13.165 24.8991 13.9387 24.9154C14.6446 24.9317 15.4293 24.6439 16.2953 24.0466C22.2113 20.0529 25.2656 18.0356 25.4557 17.9922C25.5914 17.9596 25.7815 17.9216 25.9064 18.0356C26.034 18.147 26.0204 18.3614 26.0068 18.4185C25.9254 18.7687 22.6755 21.7877 20.995 23.3516C20.471 23.8403 20.099 24.1851 20.023 24.2638C19.8556 24.4349 19.6854 24.6032 19.5126 24.7688C18.4809 25.7625 17.7098 26.5064 19.5533 27.7227C20.4411 28.3091 21.1524 28.7897 21.8611 29.273C22.6321 29.7997 23.4032 30.3237 24.4023 30.9807C24.6548 31.1436 24.8991 31.3201 25.1353 31.4884C26.034 32.1291 26.8458 32.7047 27.8422 32.6124C28.4232 32.5581 29.0232 32.0151 29.3273 30.3861C30.0467 26.539 31.4612 18.2067 31.787 14.7722C31.8069 14.4867 31.7951 14.1999 31.7517 13.917C31.7262 13.6887 31.6157 13.4784 31.4422 13.3279C31.1952 13.1573 30.9007 13.069 30.6006 13.0754C29.7861 13.0889 28.5291 13.5261 22.4991 16.0347Z" fill="#F3F3F3"/>
</svg>
