<svg width="250" height="216" viewBox="0 0 250 216" fill="none" xmlns="http://www.w3.org/2000/svg">
<path d="M245.413 126.317C249.966 129.444 251.121 135.669 247.994 140.222L199.586 210.698C196.459 215.25 190.234 216.406 185.681 213.279L4.33915 88.7198C-0.213232 85.5929 -1.36881 79.3676 1.75811 74.8152L50.1663 4.33902C53.2933 -0.213368 59.5186 -1.36894 64.071 1.75797L245.413 126.317ZM61.8062 5.0551C59.0748 3.17895 55.3396 3.8723 53.4635 6.60373L5.05524 77.0799C3.17909 79.8113 3.87243 83.5465 6.60387 85.4227L187.946 209.982C190.678 211.858 194.413 211.165 196.289 208.433L244.697 137.957C246.573 135.226 245.88 131.49 243.148 129.614L61.8062 5.0551ZM221.305 123.731C219.186 128.636 218.61 131.935 219.299 134.933C220.002 137.999 222.132 141.227 226.587 145.717L228.046 147.186L199.024 189.438L196.992 188.162C191.668 184.819 188.209 183.69 185.281 184.075C182.362 184.459 179.292 186.438 175.004 191.183L173.537 192.806L27.0839 92.2108L27.9105 90.3191C30.2041 85.0671 30.8251 81.8003 30.2283 78.9761C29.6223 76.109 27.6589 73.1891 23.4403 68.9005L21.9946 67.4313L50.7133 25.6206L52.4932 26.2047C57.9554 27.9974 61.4012 28.4248 64.3906 27.8653C67.4077 27.3005 70.3077 25.671 74.5839 22.536L76.0143 21.4867L222.12 121.843L221.305 123.731ZM76.0941 27.6074C72.3425 30.2501 69.0338 32.0824 65.3112 32.7793C61.5406 33.4851 57.6219 32.9782 52.7292 31.5168L28.435 66.8861C31.9596 70.6664 34.3046 74.0816 35.1205 77.9422C35.941 81.8249 35.1356 85.7647 33.29 90.4077L172.794 186.23C176.688 182.22 180.393 179.674 184.628 179.117C188.789 178.57 192.943 180.01 197.595 182.687L221.597 147.744C217.803 143.7 215.342 140.044 214.426 136.053C213.511 132.07 214.213 128.12 215.932 123.659L76.0941 27.6074ZM65.8262 77.1581L58.3045 83.4706L55.8603 81.7822L62.6495 74.963L65.8262 77.1581ZM194.086 138.571C195.206 139.345 196.088 140.225 196.731 141.211C197.394 142.211 197.76 143.336 197.829 144.587C197.911 145.818 197.682 147.194 197.141 148.717C196.615 150.219 195.726 151.877 194.473 153.689L193.248 155.461C192.01 157.253 190.774 158.672 189.542 159.716C188.323 160.739 187.106 161.432 185.891 161.797C184.711 162.155 183.528 162.211 182.344 161.965C181.195 161.712 180.07 161.206 178.971 160.446C177.851 159.672 176.959 158.785 176.295 157.785C175.653 156.799 175.29 155.69 175.208 154.46C175.139 153.209 175.369 151.832 175.895 150.33C176.435 148.808 177.332 147.14 178.585 145.328L179.809 143.556C181.047 141.764 182.276 140.355 183.495 139.331C184.728 138.288 185.935 137.587 187.115 137.229C188.33 136.865 189.511 136.809 190.661 137.062C191.845 137.308 192.986 137.811 194.086 138.571ZM176.051 126.107C177.171 126.882 178.053 127.762 178.696 128.748C179.359 129.747 179.725 130.873 179.793 132.124C179.875 133.355 179.646 134.731 179.106 136.254C178.579 137.756 177.69 139.413 176.437 141.226L175.213 142.997C173.974 144.79 172.739 146.209 171.506 147.253C170.287 148.276 169.07 148.969 167.855 149.334C166.675 149.692 165.493 149.747 164.309 149.501C163.16 149.248 162.035 148.742 160.936 147.982C159.815 147.208 158.923 146.321 158.26 145.321C157.617 144.335 157.254 143.227 157.172 141.997C157.103 140.746 157.333 139.369 157.859 137.867C158.4 136.345 159.296 134.677 160.548 132.864L161.773 131.092C163.012 129.3 164.24 127.892 165.459 126.868C166.692 125.825 167.898 125.124 169.078 124.766C170.293 124.402 171.476 124.346 172.626 124.598C173.809 124.845 174.951 125.348 176.051 126.107ZM158.015 113.645C159.135 114.419 160.017 115.299 160.66 116.285C161.323 117.285 161.689 118.41 161.757 119.661C161.84 120.892 161.61 122.269 161.07 123.791C160.544 125.293 159.654 126.95 158.402 128.762L157.177 130.534C155.939 132.327 154.703 133.745 153.47 134.788C152.251 135.812 151.034 136.506 149.819 136.871C148.639 137.229 147.457 137.284 146.273 137.038C145.124 136.785 143.999 136.279 142.899 135.519C141.779 134.745 140.887 133.858 140.224 132.858C139.582 131.872 139.219 130.764 139.137 129.533C139.068 128.282 139.297 126.905 139.823 125.403C140.363 123.881 141.26 122.214 142.512 120.401L143.738 118.629C144.976 116.837 146.204 115.429 147.423 114.405C148.656 113.362 149.863 112.66 151.043 112.302C152.258 111.938 153.44 111.883 154.59 112.135C155.774 112.382 156.915 112.885 158.015 113.645ZM132.953 96.3257C134.073 97.0998 134.955 97.9799 135.598 98.9658C136.261 99.9657 136.627 101.092 136.695 102.343C136.777 103.573 136.548 104.95 136.008 106.472C135.481 107.974 134.592 109.631 133.339 111.443L132.115 113.216C130.876 115.008 129.64 116.426 128.408 117.47C127.189 118.493 125.972 119.188 124.757 119.552C123.577 119.91 122.395 119.965 121.211 119.719C120.062 119.466 118.937 118.96 117.837 118.2C116.717 117.426 115.825 116.539 115.161 115.539C114.519 114.553 114.157 113.445 114.074 112.214C114.006 110.963 114.235 109.586 114.761 108.084C115.301 106.562 116.198 104.895 117.45 103.082L118.675 101.31C119.913 99.5177 121.142 98.1101 122.361 97.0866C123.594 96.0427 124.801 95.3413 125.981 94.9833C127.195 94.6191 128.377 94.5635 129.527 94.816C130.711 95.0624 131.853 95.5657 132.953 96.3257ZM114.917 83.8628C116.037 84.6368 116.919 85.517 117.562 86.5028C118.225 87.5025 118.59 88.6276 118.659 89.8782C118.741 91.1088 118.513 92.4859 117.972 94.0082C117.446 95.5102 116.556 97.1676 115.304 98.9803L114.079 100.753C112.841 102.545 111.605 103.963 110.372 105.007C109.153 106.03 107.936 106.724 106.722 107.088C105.542 107.446 104.359 107.502 103.175 107.256C102.026 107.004 100.901 106.497 99.801 105.737C98.6808 104.963 97.7888 104.076 97.1256 103.076C96.4828 102.09 96.1203 100.981 96.0378 99.7507C95.9694 98.4998 96.1987 97.1232 96.7251 95.6212C97.2655 94.0989 98.1623 92.4313 99.4149 90.6186L100.639 88.847C101.877 87.0547 103.107 85.6464 104.326 84.6229C105.559 83.5792 106.765 82.8784 107.945 82.5204C109.16 82.1561 110.342 82.0996 111.492 82.3523C112.676 82.5987 113.817 83.1027 114.917 83.8628ZM96.8818 71.399C98.0017 72.1729 98.883 73.0529 99.5258 74.0385C100.189 75.0384 100.555 76.1644 100.623 77.4153C100.706 78.6459 100.477 80.0229 99.9366 81.5453C99.4103 83.0473 98.5204 84.7047 97.2679 86.5173L96.0439 88.289C94.8053 90.0813 93.5689 91.4998 92.3359 92.5437C91.1172 93.567 89.9006 94.2609 88.686 94.6251C87.5057 94.9832 86.3232 95.0382 85.1393 94.7919C83.9899 94.5392 82.8655 94.0331 81.7657 93.2732C80.6455 92.4991 79.7535 91.6121 79.0903 90.6121C78.4476 89.6263 78.0845 88.5182 78.002 87.2877C77.9336 86.0368 78.163 84.6602 78.6893 83.1583C79.2297 81.6359 80.1265 79.9683 81.3791 78.1557L82.6036 76.3832C83.8421 74.591 85.0712 73.1834 86.29 72.1599C87.5228 71.1162 88.7292 70.4154 89.9093 70.0574C91.124 69.6931 92.3063 69.6367 93.4558 69.8893C94.6397 70.1357 95.7819 70.639 96.8818 71.399ZM69.6931 52.9726L54.9146 74.3571L52.0432 72.373L64.6258 54.1647L58.075 54.1067L60.228 50.9911L66.8209 50.9879L69.6931 52.9726ZM192.271 141.198C191.599 140.734 190.903 140.434 190.184 140.298C189.5 140.157 188.778 140.244 188.017 140.561C187.27 140.858 186.464 141.414 185.599 142.23C184.734 143.047 183.802 144.178 182.802 145.624L181.578 147.397C180.593 148.822 179.871 150.084 179.414 151.182C178.956 152.28 178.713 153.241 178.686 154.065C178.679 154.902 178.856 155.627 179.216 156.237C179.611 156.841 180.135 157.368 180.787 157.818C181.459 158.282 182.137 158.586 182.822 158.728C183.54 158.863 184.273 158.783 185.019 158.486C185.78 158.169 186.593 157.602 187.458 156.786C188.323 155.969 189.256 154.838 190.255 153.392L191.479 151.621C192.464 150.195 193.186 148.932 193.644 147.834C194.101 146.736 194.335 145.769 194.342 144.931C194.369 144.108 194.185 143.394 193.79 142.79C193.43 142.179 192.923 141.649 192.271 141.198ZM174.235 128.736C173.563 128.271 172.868 127.97 172.149 127.835C171.465 127.693 170.742 127.781 169.981 128.098C169.235 128.395 168.428 128.951 167.563 129.767C166.698 130.584 165.766 131.715 164.767 133.161L163.543 134.933C162.557 136.359 161.836 137.621 161.378 138.719C160.92 139.817 160.677 140.778 160.649 141.601C160.642 142.439 160.82 143.162 161.18 143.773C161.575 144.377 162.099 144.905 162.751 145.355C163.423 145.819 164.101 146.123 164.786 146.265C165.504 146.4 166.237 146.32 166.983 146.023C167.744 145.706 168.557 145.14 169.422 144.323C170.288 143.507 171.22 142.375 172.219 140.929L173.444 139.157C174.429 137.731 175.15 136.469 175.608 135.371C176.066 134.273 176.298 133.305 176.305 132.468C176.332 131.644 176.149 130.93 175.754 130.326C175.393 129.716 174.887 129.186 174.235 128.736ZM156.2 116.272C155.528 115.807 154.832 115.507 154.113 115.372C153.429 115.23 152.707 115.317 151.946 115.634C151.2 115.931 150.393 116.487 149.528 117.304C148.663 118.12 147.73 119.252 146.731 120.698L145.507 122.47C144.522 123.896 143.8 125.158 143.343 126.255C142.885 127.353 142.642 128.314 142.614 129.138C142.607 129.975 142.784 130.699 143.144 131.31C143.54 131.914 144.063 132.442 144.715 132.892C145.387 133.356 146.065 133.659 146.749 133.801C147.468 133.937 148.201 133.857 148.948 133.56C149.708 133.243 150.522 132.676 151.387 131.86C152.252 131.044 153.184 129.912 154.183 128.466L155.408 126.694C156.393 125.268 157.114 124.006 157.572 122.908C158.03 121.81 158.262 120.842 158.269 120.005C158.297 119.181 158.113 118.467 157.718 117.863C157.357 117.253 156.851 116.722 156.2 116.272ZM131.138 98.953C130.465 98.4885 129.77 98.1885 129.051 98.0529C128.367 97.9111 127.644 97.9987 126.884 98.3154C126.137 98.612 125.331 99.1686 124.466 99.9849C123.601 100.801 122.668 101.933 121.669 103.379L120.445 105.151C119.46 106.577 118.737 107.838 118.28 108.936C117.822 110.034 117.579 110.995 117.552 111.819C117.545 112.656 117.722 113.381 118.082 113.991C118.477 114.595 119 115.122 119.652 115.573C120.324 116.037 121.003 116.34 121.687 116.482C122.406 116.618 123.139 116.538 123.885 116.241C124.646 115.924 125.459 115.357 126.324 114.541C127.189 113.724 128.121 112.593 129.12 111.147L130.345 109.374C131.33 107.949 132.052 106.687 132.51 105.589C132.968 104.492 133.2 103.524 133.207 102.686C133.235 101.862 133.051 101.148 132.656 100.544C132.295 99.934 131.789 99.4033 131.138 98.953ZM113.102 86.49C112.43 86.0256 111.734 85.7256 111.015 85.59C110.331 85.4481 109.608 85.535 108.847 85.8519C108.101 86.1485 107.295 86.7055 106.43 87.522C105.565 88.3384 104.633 89.4697 103.633 90.9157L102.409 92.6882C101.424 94.1138 100.702 95.3752 100.244 96.4732C99.786 97.5712 99.5436 98.5321 99.5162 99.3558C99.5091 100.193 99.6858 100.918 100.046 101.528C100.442 102.132 100.965 102.659 101.617 103.109C102.289 103.573 102.967 103.877 103.652 104.019C104.37 104.154 105.103 104.074 105.849 103.777C106.61 103.46 107.423 102.893 108.288 102.077C109.154 101.26 110.086 100.129 111.085 98.6832L112.309 96.9115C113.294 95.4858 114.017 94.2237 114.475 93.1257C114.932 92.0279 115.165 91.0597 115.172 90.2221C115.199 89.3986 115.015 88.6845 114.62 88.0805C114.26 87.4703 113.753 86.9403 113.102 86.49ZM95.0659 74.0271C94.394 73.5627 93.6986 73.2618 92.98 73.1262C92.2956 72.9843 91.5722 73.072 90.8115 73.389C90.0649 73.6856 89.2594 74.2426 88.3943 75.059C87.5292 75.8755 86.5969 77.0068 85.5976 78.4528L84.3728 80.2238C83.3876 81.6496 82.6659 82.9122 82.2081 84.0102C81.7503 85.1081 81.5078 86.0693 81.4804 86.8928C81.4733 87.7303 81.6507 88.454 82.0112 89.0642C82.4063 89.6682 82.9293 90.1956 83.581 90.6459C84.2531 91.1104 84.9316 91.4137 85.6159 91.5556C86.3346 91.6911 87.0671 91.6105 87.8136 91.3141C88.5743 90.9971 89.3875 90.4305 90.2526 89.614C91.1177 88.7975 92.05 87.6662 93.0493 86.2202L94.2738 84.4478C95.259 83.0222 95.9811 81.7607 96.4389 80.6628C96.8967 79.5648 97.1289 78.5968 97.136 77.7592C97.1635 76.9356 96.9797 76.2216 96.5846 75.6176C96.2241 75.0073 95.7175 74.4774 95.0659 74.0271Z" fill="#FAFAFA"/>
</svg>
