<svg width="44" height="44" viewBox="0 0 44 44" fill="none" xmlns="http://www.w3.org/2000/svg">
<path d="M28.5574 0H15.1548C2.91258 0 0 2.91258 0 15.132V28.5346C0 40.7767 2.88992 43.6894 15.132 43.6894H28.5346C40.7768 43.6894 43.6894 40.7995 43.6894 28.5573V15.1548C43.6894 2.91258 40.7995 0 28.5574 0ZM35.27 31.1742H32.0844C30.8784 31.1742 30.5143 30.1957 28.3526 28.034C26.4639 26.2136 25.6675 25.986 25.1897 25.986C24.5298 25.986 24.3477 26.168 24.3477 27.0783V29.9454C24.3477 30.7191 24.0974 31.1742 22.0723 31.1742C20.1071 31.0421 18.2014 30.4451 16.5121 29.4324C14.8229 28.4196 13.3984 27.02 12.3559 25.3489C9.88113 22.2686 8.15923 18.6533 7.32713 14.7906C7.32713 14.3128 7.50912 13.8804 8.41936 13.8804H11.605C12.4242 13.8804 12.72 14.2445 13.0386 15.0865C14.5858 19.6374 17.2255 23.5968 18.2949 23.5968C18.7045 23.5968 18.8865 23.4148 18.8865 22.3908V17.7032C18.75 15.5643 17.6123 15.3822 17.6123 14.6086C17.6273 14.4045 17.7212 14.2143 17.8742 14.0784C18.0271 13.9424 18.227 13.8714 18.4315 13.8804H23.4376C24.1202 13.8804 24.3477 14.2217 24.3477 15.0409V21.3668C24.3477 22.0495 24.6436 22.277 24.8483 22.277C25.2579 22.277 25.5765 22.0495 26.3274 21.2986C27.941 19.3308 29.2595 17.1384 30.2413 14.7906C30.3415 14.5081 30.5314 14.2662 30.7821 14.1018C31.0327 13.9375 31.3303 13.8597 31.6294 13.8804H34.815C35.7707 13.8804 35.9755 14.3583 35.7707 15.0409C34.6115 17.6367 33.1774 20.1008 31.4928 22.3908C31.1515 22.9141 31.015 23.1872 31.4928 23.8016C31.8113 24.2794 32.9264 25.2123 33.6773 26.0998C34.7695 27.1893 35.6764 28.4498 36.3623 29.8317C36.6353 30.7191 36.1803 31.1742 35.27 31.1742Z" fill="#FAFAFA"/>
</svg>
