<svg width="43" height="43" viewBox="0 0 43 43" fill="none" xmlns="http://www.w3.org/2000/svg">
<path d="M3.01 3.01C5.69555e-07 6.04867 0 10.9077 0 20.64V22.36C0 32.078 5.69555e-07 36.937 3.01 39.99C6.04867 43 10.9077 43 20.64 43H22.36C32.078 43 36.937 43 39.99 39.99C43 36.9513 43 32.0923 43 22.36V20.64C43 10.922 43 6.063 39.99 3.01C36.9513 5.69555e-07 32.0923 0 22.36 0H20.64C10.922 0 6.063 5.69555e-07 3.01 3.01ZM7.25267 13.0863H12.1833C12.341 21.285 15.953 24.7537 18.8197 25.4703V13.0863H23.4493V20.1527C26.273 19.8517 29.2543 16.6267 30.2577 13.072H34.873C34.4964 14.912 33.7446 16.6545 32.6644 18.1909C31.5842 19.7273 30.1989 21.0246 28.595 22.0017C30.3853 22.8924 31.9664 24.1527 33.2338 25.6994C34.5013 27.246 35.4264 29.0439 35.948 30.9743H30.8597C29.7703 27.5773 27.047 24.94 23.4493 24.5817V30.9743H22.876C13.072 30.9743 7.482 24.2663 7.25267 13.0863Z" fill="#565656"/>
</svg>
