<svg width="33" height="33" viewBox="0 0 33 33" fill="none" xmlns="http://www.w3.org/2000/svg">
<path d="M16.9189 0.00585938C25.8308 0.231856 32.9854 7.52686 32.9854 16.4932L32.9805 16.9189C32.7545 25.8307 25.4593 32.9852 16.4932 32.9854L16.0674 32.9805C7.29686 32.7584 0.228271 25.6894 0.00585938 16.9189L0 16.4932C0 7.38441 7.38441 0 16.4932 0L16.9189 0.00585938ZM16.4932 2.99902C9.04054 2.99902 2.99902 9.04054 2.99902 16.4932C2.99918 23.9456 9.04064 29.9873 16.4932 29.9873C23.9455 29.9871 29.9871 23.9455 29.9873 16.4932C29.9873 9.04064 23.9456 2.99918 16.4932 2.99902ZM16.5352 21.3877C17.0789 21.3892 17.5346 21.5745 17.9014 21.9434C18.2681 22.3122 18.4508 22.7688 18.4492 23.3125C18.4476 23.856 18.2622 24.311 17.8936 24.6777C17.5247 25.0445 17.0682 25.2271 16.5244 25.2256C15.9807 25.224 15.525 25.0388 15.1582 24.6699C14.7918 24.3012 14.6089 23.8451 14.6104 23.3018C14.6119 22.7581 14.7973 22.3023 15.166 21.9355C15.5349 21.5688 15.9915 21.3862 16.5352 21.3877ZM18.0117 8.22168L17.9775 20.2158L15.0996 20.208L15.1328 8.21289L18.0117 8.22168Z" fill="#FAFAFA"/>
</svg>
