<svg width="305" height="99" viewBox="0 0 305 99" fill="none" xmlns="http://www.w3.org/2000/svg">
<path d="M246.098 97.7856H222.512L259.14 0H304.333L296.047 22.0094H274.774L246.098 97.7856Z" fill="#B1B1B1"/>
<path d="M155.659 98.7834L192.772 0.280635H220.677L206.725 37.6051H211.2C212.033 37.6051 212.778 37.0881 213.07 36.3082L226.058 1.56361C226.347 0.790574 227.082 0.27516 227.907 0.266861L254.442 0L242.746 31.2315C239.879 38.8871 234.006 45.0372 226.49 48.2534L225.142 48.8305C230.511 49.1074 234.045 54.5456 232.117 59.5642L217.05 98.7834H189.424L204.583 58.8305C205.078 57.5247 204.114 56.127 202.717 56.127H199.748L183.564 98.7834H155.659Z" fill="#B1B1B1"/>
<path d="M38.9775 97.7856H0L11.9366 66.0334H39.1099L35.6245 75.5089C34.8582 77.5922 36.4 79.8021 38.6197 79.8021C39.9628 79.8021 41.1622 78.9612 41.62 77.6985L51.861 49.4548H18.0074L36.859 0H96.79L85.5353 29.236H59.6497L62.3328 22.0823C63.0766 20.0991 61.6107 17.9836 59.4926 17.9836C58.2322 17.9836 57.1032 18.7629 56.6563 19.9414L50.8013 35.3811H54.3867C68.348 35.3811 77.9942 49.3493 73.0493 62.4056L66.9714 78.4535C62.5646 90.0891 51.4197 97.7856 38.9775 97.7856Z" fill="#B1B1B1"/>
<path d="M76.8315 60.5684L99.8367 0H125.336L109.138 42.4793C108.394 44.4288 109.834 46.5187 111.921 46.5187C113.156 46.5187 114.263 45.756 114.703 44.6016L131.711 0H157.488L120.097 98.7834H94.5974L108.706 60.5684H76.8315Z" fill="#B1B1B1"/>
</svg>
