<svg width="1815" height="207" viewBox="0 0 1815 207" fill="none" xmlns="http://www.w3.org/2000/svg">
<path d="M78.5866 1.33564L1.0853 203.247C0.562039 204.61 1.56836 206.074 3.02856 206.074H1758.94C1776.04 206.074 1791.26 195.195 1796.79 179.006L1814.01 128.595C1820.55 94.4392 1792.44 82.268 1775 79.0065C1773.69 78.7614 1772.9 77.3969 1773.38 76.1524L1801.54 2.82793C1802.07 1.46464 1801.06 0 1799.6 0H1013.99C1013.19 0 1012.46 0.45807 1012.11 1.17855L997.876 30.7436C996.854 32.8667 993.646 31.9242 993.935 29.5855L997.299 2.33661C997.452 1.09525 996.484 0 995.233 0H894.398C893.547 0 892.782 0.518206 892.466 1.30849L887.716 13.1823C887.008 14.9529 884.247 15.0109 883.129 13.4657C877.585 5.79941 866.293 0 855.001 0H771.043C770.203 0 769.446 0.504464 769.122 1.27923L757.087 30.0901C756.188 32.2433 752.97 31.5131 753.088 29.1825L754.455 2.18682C754.515 0.997389 753.567 0 752.376 0H653.947C653.112 0 652.357 0.499505 652.031 1.26861L647.512 11.9211C646.753 13.7086 643.873 13.6728 642.764 12.0789C637.504 4.5175 627.313 0.431765 623.427 0H531.716C530.85 0 530.075 0.53578 529.769 1.34553L457.411 192.76C457.105 193.57 456.33 194.105 455.464 194.105H392.815C391.351 194.105 390.344 192.634 390.874 191.27L464.126 2.83576C464.657 1.47126 463.65 0 462.186 0H80.5299C79.6681 0 78.8954 0.531069 78.5866 1.33564Z" fill="#02973B"/>
<path fill-rule="evenodd" clip-rule="evenodd" d="M206.717 161.654L193.585 194.626H142.586L211.798 11.4482L291.418 11.4483L254.991 194.626H204.291L216.177 161.654H206.717ZM225.315 126.564H216.177L240.597 71.2862L225.315 126.564Z" fill="#F3F3F3"/>
<path fill-rule="evenodd" clip-rule="evenodd" d="M1444.2 160.8L1431.07 193.585H1380.07L1449.29 11.4482L1528.91 11.4483L1492.48 193.585H1441.78L1453.66 160.8H1444.2ZM1462.8 125.91H1453.66L1478.08 70.9462L1462.8 125.91Z" fill="#F3F3F3"/>
<path fill-rule="evenodd" clip-rule="evenodd" d="M656.334 161.654L643.202 194.626H592.204L661.415 11.4482L741.035 11.4483L704.608 194.626H653.908L665.794 161.654H656.334ZM674.932 126.564H665.794L690.215 71.2862L674.932 126.564Z" fill="#F3F3F3"/>
<path fill-rule="evenodd" clip-rule="evenodd" d="M897.795 160.8L884.663 193.585H833.665L902.876 11.4482L982.496 11.4483L946.069 193.585H895.369L907.255 160.8H897.795ZM916.393 125.91H907.255L931.676 70.9462L916.393 125.91Z" fill="#F3F3F3"/>
<path d="M638.158 52.8721C645.64 32.8129 630.807 11.4482 609.398 11.4482H561.513C548.785 11.4482 537.378 19.3034 532.837 31.1941L509.818 91.4796H562.183L576.16 49.5702C577.064 46.8592 579.601 45.0307 582.459 45.0307C587.054 45.0307 590.26 49.5862 588.709 53.912L552.24 155.633C551.208 158.512 548.479 160.432 545.421 160.432C540.262 160.432 536.757 155.194 538.723 150.426L552.619 116.732H500.176L486.334 152.98C478.661 173.075 493.501 194.626 515.011 194.626H563.968C576.782 194.626 588.249 186.665 592.728 174.658L605.332 140.868C610.517 126.97 604.816 111.366 591.894 104.084L611.059 96.5021C619.142 93.3048 625.49 86.8307 628.528 78.6869L638.158 52.8721Z" fill="#F3F3F3"/>
<path fill-rule="evenodd" clip-rule="evenodd" d="M1022.39 11.4482L953.877 193.585H1045.67C1058.59 193.585 1070.18 185.626 1074.81 173.566L1090.3 133.294C1098.16 112.843 1083.06 90.8655 1061.15 90.8655H1043.8L1061.41 46.1636H1123.74L1137.06 11.4482H1022.39ZM1031.43 125.105L1018.11 159.345H1029.96C1030.85 159.345 1031.63 158.792 1031.93 157.963L1042.79 127.91C1043.28 126.545 1042.27 125.105 1040.82 125.105H1031.43Z" fill="#F3F3F3"/>
<path fill-rule="evenodd" clip-rule="evenodd" d="M780.585 12.4893L711.893 194.626H764.452L795.676 115.873H832.284C845.693 115.873 857.686 107.533 862.355 94.9638L876.925 55.7369C884.709 34.7811 869.209 12.4893 846.854 12.4893H780.585ZM818.27 47.8965L805.371 81.8846H816.789C817.68 81.8846 818.478 81.3321 818.791 80.498L829.95 50.787C830.475 49.3887 829.441 47.8965 827.948 47.8965H818.27Z" fill="#F3F3F3"/>
<path d="M1270.27 11.4482L1254.56 53.3975H1312.84L1262.47 193.585H1315.03L1362.8 53.3975H1421.17L1435.76 11.4482H1270.27Z" fill="#F3F3F3"/>
<path d="M1547.12 11.4482L1531.41 53.3975H1589.69L1539.31 193.585H1591.87L1639.65 53.3975H1698.02L1712.6 11.4482H1547.12Z" fill="#F3F3F3"/>
<path d="M18.7339 194.626L87.9458 11.9686H139.985L113.965 81.1805H123.452C124.319 81.1805 125.095 80.643 125.401 79.8314L150.411 13.3033C150.714 12.4989 151.479 11.963 152.339 11.9544L202.952 11.4482L177.476 79.0915C174.47 87.073 168.33 93.4775 160.482 96.817L148.311 101.996C158.314 102.509 164.892 112.65 161.282 121.993L133.22 194.626H81.7011L110.806 118.35C111.326 116.987 110.32 115.526 108.861 115.526H100.956L70.7729 194.626H18.7339Z" fill="#F3F3F3"/>
<path d="M262.276 194.626L331.488 11.9686H383.527L357.508 81.1805H366.995C367.862 81.1805 368.638 80.643 368.943 79.8314L393.954 13.3033C394.256 12.4989 395.022 11.963 395.881 11.9544L446.494 11.4482L421.018 79.0915C418.012 87.073 411.872 93.4775 404.024 96.817L391.853 101.996C401.857 102.509 408.435 112.65 404.825 121.993L376.762 194.626H325.244L354.349 118.35C354.869 116.987 353.862 115.526 352.404 115.526H344.498L314.315 194.626H262.276Z" fill="#F3F3F3"/>
<path fill-rule="evenodd" clip-rule="evenodd" d="M1191.79 193.585L1259.34 11.4482H1147.4L1078.25 193.585H1191.79ZM1141.06 159.586H1155.12L1198.33 44.8399H1184.27L1141.06 159.586Z" fill="#F3F3F3"/>
<path fill-rule="evenodd" clip-rule="evenodd" d="M1659 193.585L1727.65 13.53H1780.17L1750.01 91.383H1767.9C1790.27 91.383 1805.77 113.698 1797.96 134.659L1783.79 172.704C1779.11 185.259 1767.12 193.585 1753.73 193.585H1659ZM1724.41 158.582L1737.53 124.983H1746.61C1748.11 124.983 1749.14 126.478 1748.61 127.877L1737.53 157.2C1737.21 158.032 1736.42 158.582 1735.53 158.582H1724.41Z" fill="#F3F3F3"/>
</svg>
