<svg width="1815" height="207" viewBox="0 0 1815 207" fill="none" xmlns="http://www.w3.org/2000/svg">
<path d="M79.0993 0L0 206.074H774.009L778.009 193.095L806.509 123.095H843.009L811.009 206.074H1787.54L1814.01 128.595C1820.88 92.7143 1789.51 81.0947 1772.45 78.5789L1802.63 0H1012.68L992.384 42.1516L997.588 0H892.989L885.704 18.2136C882.061 8.32624 868.531 0 855.001 0H769.657L752.484 41.1108L754.565 0H652.569L645.284 17.1729C641.953 6.34876 628.111 0.52039 623.427 0H530.277L456.902 194.105H389.772L465.229 0H79.0993Z" fill="#02973B"/>
<path d="M772.509 206.074H792.009H816.009L822.009 195.595H776.009L772.509 206.074Z" fill="#02973B"/>
<path fill-rule="evenodd" clip-rule="evenodd" d="M206.718 161.654L193.585 194.626H142.587L211.799 11.4487L291.418 11.4488L254.991 194.626H204.291L216.177 161.654H206.718ZM225.315 126.565H216.177L240.598 71.2867L225.315 126.565Z" fill="#F3F3F3"/>
<path fill-rule="evenodd" clip-rule="evenodd" d="M1444.2 160.801L1431.07 193.585H1380.07L1449.29 11.4487L1528.91 11.4488L1492.48 193.585H1441.78L1453.66 160.801H1444.2ZM1462.8 125.911H1453.66L1478.09 70.9467L1462.8 125.911Z" fill="#F3F3F3"/>
<path fill-rule="evenodd" clip-rule="evenodd" d="M656.335 161.654L643.202 194.626H592.204L661.416 11.4487L741.035 11.4488L704.608 194.626H653.908L665.794 161.654H656.335ZM674.932 126.565H665.794L690.215 71.2867L674.932 126.565Z" fill="#F3F3F3"/>
<path fill-rule="evenodd" clip-rule="evenodd" d="M897.795 160.801L884.663 193.585H833.665L902.877 11.4487L982.496 11.4488L946.069 193.585H895.369L907.255 160.801H897.795ZM916.393 125.911H907.255L931.676 70.9467L916.393 125.911Z" fill="#F3F3F3"/>
<path d="M638.158 52.8726C645.64 32.8134 630.807 11.4487 609.398 11.4487H561.513C548.785 11.4487 537.378 19.3039 532.837 31.1946L509.818 91.4801H562.183L576.16 49.5707C577.064 46.8597 579.601 45.0312 582.459 45.0312C587.054 45.0312 590.26 49.5867 588.709 53.9125L552.24 155.633C551.208 158.512 548.479 160.433 545.421 160.433C540.262 160.433 536.757 155.195 538.723 150.426L552.619 116.732H500.176L486.334 152.981C478.661 173.076 493.501 194.626 515.011 194.626H563.968C576.782 194.626 588.249 186.665 592.728 174.659L605.332 140.869C610.517 126.971 604.816 111.367 591.894 104.084L611.059 96.5026C619.142 93.3053 625.49 86.8312 628.528 78.6874L638.158 52.8726Z" fill="#F3F3F3"/>
<path fill-rule="evenodd" clip-rule="evenodd" d="M1022.39 11.4487L953.878 193.585H1045.67C1058.59 193.585 1070.18 185.627 1074.81 173.566L1090.3 133.294C1098.16 112.843 1083.06 90.866 1061.15 90.866H1043.8L1061.41 46.164H1123.74L1137.06 11.4487H1022.39ZM1031.43 125.106L1018.11 159.345H1029.96C1030.85 159.345 1031.63 158.793 1031.93 157.963L1042.79 127.911C1043.28 126.546 1042.27 125.106 1040.82 125.106H1031.43Z" fill="#F3F3F3"/>
<path fill-rule="evenodd" clip-rule="evenodd" d="M780.585 12.4893L711.893 194.626H764.453L795.676 115.873H832.284C845.693 115.873 857.687 107.533 862.355 94.9638L876.926 55.7369C884.709 34.7811 869.209 12.4893 846.855 12.4893H780.585ZM818.27 47.8965L805.372 81.8846H816.789C817.68 81.8846 818.478 81.3321 818.791 80.498L829.95 50.787C830.475 49.3887 829.442 47.8965 827.948 47.8965H818.27Z" fill="#F3F3F3"/>
<path d="M1270.27 11.4487L1254.56 53.398H1312.84L1262.47 193.585H1315.03L1362.8 53.398H1421.18L1435.76 11.4487H1270.27Z" fill="#F3F3F3"/>
<path d="M1547.12 11.4487L1531.41 53.398H1589.69L1539.31 193.585H1591.87L1639.65 53.398H1698.02L1712.6 11.4487H1547.12Z" fill="#F3F3F3"/>
<path d="M18.7341 194.626L87.946 11.9691H139.985L113.965 81.181H123.452C124.319 81.181 125.096 80.6435 125.401 79.8319L150.411 13.3038C150.714 12.4994 151.48 11.9635 152.339 11.9549L202.952 11.4487L177.476 79.092C174.47 87.0735 168.33 93.478 160.482 96.8175L148.311 101.997C158.314 102.51 164.892 112.65 161.282 121.994L133.22 194.626H81.7013L110.806 118.35C111.326 116.988 110.32 115.527 108.862 115.527H100.956L70.7731 194.626H18.7341Z" fill="#F3F3F3"/>
<path d="M262.277 194.626L331.488 11.9691H383.527L357.508 81.181H366.995C367.862 81.181 368.638 80.6435 368.943 79.8319L393.954 13.3038C394.256 12.4994 395.022 11.9635 395.882 11.9549L446.495 11.4487L421.019 79.092C418.013 87.0735 411.872 93.478 404.025 96.8175L391.854 101.997C401.857 102.51 408.435 112.65 404.825 121.994L376.762 194.626H325.244L354.349 118.35C354.869 116.988 353.863 115.527 352.404 115.527H344.498L314.316 194.626H262.277Z" fill="#F3F3F3"/>
<path fill-rule="evenodd" clip-rule="evenodd" d="M1191.79 193.585L1259.34 11.4482H1147.4L1078.25 193.585H1191.79ZM1141.06 159.586H1155.12L1198.33 44.8399H1184.27L1141.06 159.586Z" fill="#F3F3F3"/>
<path fill-rule="evenodd" clip-rule="evenodd" d="M1659 193.585L1727.65 13.53H1780.17L1750.01 91.383H1767.9C1790.27 91.383 1805.77 113.698 1797.96 134.659L1783.79 172.704C1779.11 185.259 1767.12 193.585 1753.73 193.585H1659ZM1724.41 158.582L1737.53 124.983H1746.61C1748.11 124.983 1749.14 126.478 1748.61 127.877L1737.53 157.2C1737.21 158.032 1736.42 158.582 1735.53 158.582H1724.41Z" fill="#F3F3F3"/>
</svg>
