<svg width="364" height="109" viewBox="0 0 364 109" fill="none" xmlns="http://www.w3.org/2000/svg">
<path d="M20.8268 0.353968L0.287622 53.8639C0.14895 54.2252 0.415658 54.6133 0.802635 54.6133H102L103.296 51.4413L123.001 0.751526C123.142 0.389909 122.875 0 122.487 0H21.3418C21.1134 0 20.9086 0.140742 20.8268 0.353968Z" fill="#02973B"/>
<path fill-rule="evenodd" clip-rule="evenodd" d="M54.7847 42.841L51.3044 51.579H37.7891L56.1313 3.03418L77.2318 3.03419L67.578 51.579H54.1417L57.2916 42.841H54.7847ZM59.7134 33.5417H57.2916L63.7635 18.8922L59.7134 33.5417Z" fill="#F3F3F3"/>
<path d="M4.9668 51.579L23.309 3.17209H37.1002L30.2046 21.5143H32.7188C32.9486 21.5143 33.1543 21.3719 33.2352 21.1568L39.8633 3.52581C39.9435 3.31261 40.1464 3.17059 40.3742 3.16831L53.7875 3.03418L47.0359 20.9607C46.2393 23.0759 44.612 24.7732 42.5322 25.6583L39.3068 27.0308C41.9578 27.1667 43.701 29.8542 42.7443 32.3303L35.3073 51.579H21.6541L29.3674 31.3648C29.5052 31.0037 29.2385 30.6165 28.852 30.6165H26.7568L18.7579 51.579H4.9668Z" fill="#F3F3F3"/>
<path d="M69.5078 51.579L87.85 3.17209H101.641L94.7456 21.5143H97.2598C97.4896 21.5143 97.6953 21.3719 97.7762 21.1568L104.404 3.52581C104.485 3.31261 104.687 3.17059 104.915 3.16831L118.328 3.03418L111.577 20.9607C110.78 23.0759 109.153 24.7732 107.073 25.6583L103.848 27.0308C106.499 27.1667 108.242 29.8542 107.285 32.3303L99.8483 51.579H86.1951L93.9084 31.3648C94.0462 31.0037 93.7795 30.6165 93.393 30.6165H91.2978L83.299 51.579H69.5078Z" fill="#F3F3F3"/>
<path d="M116.045 57.5686C114.576 55.5369 111.583 54 108.59 54H22.9218C22.6887 54 22.4808 54.1464 22.4023 54.3659L3 108.613H348.149C352.682 108.613 356.714 105.73 358.18 101.44L362.744 88.0798C364.477 79.028 357.027 75.8024 352.407 74.9381C352.059 74.8731 351.85 74.5115 351.977 74.1817L359.441 54.7495C359.58 54.3882 359.313 54 358.926 54H150.725C150.513 54 150.319 54.1214 150.227 54.3123L146.455 62.1476C146.184 62.7102 145.334 62.4605 145.41 61.8407L146.302 54.6192C146.343 54.2903 146.086 54 145.754 54H119.032C118.806 54 118.603 54.1373 118.519 54.3468L117.261 57.4935C117.073 57.9628 116.341 57.9782 116.045 57.5686Z" fill="#02973B"/>
<path fill-rule="evenodd" clip-rule="evenodd" d="M265.484 96.6333L262.004 105.322H248.488L266.831 57.0527L287.931 57.0527L278.277 105.322H264.841L267.991 96.6333H265.484ZM270.413 87.3869H267.991L274.463 72.8206L270.413 87.3869Z" fill="#F3F3F3"/>
<path fill-rule="evenodd" clip-rule="evenodd" d="M56.6831 96.8595L53.2028 105.598H39.6875L58.0297 57.0527L79.1302 57.0527L69.4764 105.598H56.0401L59.1901 96.8595H56.6831ZM61.6118 87.5603H59.1901L65.662 72.9107L61.6118 87.5603Z" fill="#F3F3F3"/>
<path fill-rule="evenodd" clip-rule="evenodd" d="M120.673 96.6333L117.193 105.322H103.678L122.02 57.0527L143.12 57.0527L133.467 105.322H120.03L123.18 96.6333H120.673ZM125.602 87.3869H123.18L129.652 72.8206L125.602 87.3869Z" fill="#F3F3F3"/>
<path d="M51.8657 68.0307C53.8488 62.7147 49.9178 57.0527 44.244 57.0527H31.5539C28.1807 57.0527 25.1575 59.1345 23.9542 62.2857L17.8537 78.2623H31.7312L35.4353 67.1557C35.6749 66.4372 36.3474 65.9526 37.1047 65.9526C38.3226 65.9526 39.1723 67.1599 38.7612 68.3063L29.0964 95.2639C28.8228 96.0269 28.0996 96.5359 27.2891 96.5359C25.922 96.5359 24.9929 95.1477 25.5141 93.8839L29.1968 84.9545H15.2984L11.6302 94.5609C9.59678 99.8864 13.5294 105.598 19.2299 105.598H32.2043C35.6004 105.598 38.6391 103.488 39.8261 100.306L43.1665 91.351C44.5405 87.6679 43.0297 83.5326 39.6051 81.6026L44.6843 79.5933C46.8263 78.746 48.5086 77.0303 49.3137 74.872L51.8657 68.0307Z" fill="#F3F3F3"/>
<path fill-rule="evenodd" clip-rule="evenodd" d="M153.695 57.0527L135.537 105.322H159.864C163.288 105.322 166.359 103.213 167.587 100.016L171.691 89.3436C173.774 83.9238 169.774 78.0995 163.967 78.0995H159.369L164.035 66.2528H180.553L184.084 57.0527H153.695ZM156.091 87.1736L152.56 96.2477H155.701C155.935 96.2477 156.143 96.1012 156.223 95.8814L159.1 87.917C159.231 87.5553 158.963 87.1736 158.579 87.1736H156.091Z" fill="#F3F3F3"/>
<path fill-rule="evenodd" clip-rule="evenodd" d="M89.6125 57.3286L71.4082 105.598H85.3373L93.612 84.7269H103.314C106.867 84.7269 110.046 82.5168 111.283 79.1857L115.144 68.7899C117.207 63.2363 113.099 57.3286 107.175 57.3286H89.6125ZM99.5998 66.7121L96.1814 75.7195H99.2073C99.4434 75.7195 99.6548 75.5731 99.7378 75.352L102.695 67.4781C102.834 67.1075 102.56 66.7121 102.165 66.7121H99.5998Z" fill="#F3F3F3"/>
<path d="M219.386 57.0527L215.223 68.17H230.669L217.318 105.322H231.247L243.908 68.17H259.378L263.242 57.0527H219.386Z" fill="#F3F3F3"/>
<path d="M292.757 57.0527L288.594 68.17H304.04L290.689 105.322H304.618L317.279 68.17H332.749L336.613 57.0527H292.757Z" fill="#F3F3F3"/>
<path fill-rule="evenodd" clip-rule="evenodd" d="M198.586 105.322L216.489 57.0527H186.822L168.496 105.322H198.586ZM185.143 96.3115H188.869L200.319 65.9021H196.594L185.143 96.3115Z" fill="#F3F3F3"/>
<path fill-rule="evenodd" clip-rule="evenodd" d="M322.408 105.321L340.6 57.6039H354.519L346.526 78.2362H351.267C357.195 78.2362 361.303 84.1502 359.234 89.705L355.478 99.7876C354.238 103.115 351.062 105.321 347.511 105.321H322.408ZM339.743 96.0451L343.218 87.1406H345.626C346.022 87.1406 346.296 87.537 346.156 87.9077L343.219 95.6787C343.136 95.8992 342.924 96.0451 342.689 96.0451H339.743Z" fill="#F3F3F3"/>
</svg>
