<svg width="811" height="596" viewBox="0 0 811 596" fill="none" xmlns="http://www.w3.org/2000/svg">
<path d="M740.608 521.236C739.846 523.505 737.582 524.915 735.209 524.6L565.079 501.959C563.484 501.746 562.092 500.789 561.339 499.367C550.387 478.702 530.595 438.684 530.423 427.381C530.25 416.01 591.028 351.022 624.235 317.054C625.987 315.261 626.147 312.45 624.606 310.473L581.852 255.632C580.61 254.039 580.449 251.857 581.441 250.099L609.138 201.046C609.897 199.701 611.235 198.783 612.762 198.558L669.45 190.2C672.182 189.797 674.07 187.256 673.667 184.524L668.764 151.269C668.361 148.537 670.249 145.996 672.981 145.593L710.168 140.11C712.9 139.707 715.441 141.595 715.844 144.327L721.229 180.847C721.39 181.937 721.906 182.944 722.698 183.711L745.423 205.705C745.916 206.183 746.305 206.756 746.567 207.391L774.735 275.646C775.586 277.709 774.967 280.087 773.218 281.472L716.757 326.206C713.908 328.463 714.344 332.911 717.577 334.572L766.018 359.46C767.8 360.376 768.863 362.267 768.72 364.266L762.067 456.88C762.037 457.3 761.954 457.715 761.819 458.114L740.608 521.236Z" stroke="#00CB4E" stroke-width="2"/>
<path d="M140.429 518.04C141.191 520.31 143.455 521.72 145.828 521.404L336.075 496.086C337.67 495.874 339.064 494.911 339.818 493.49C351.988 470.547 374.194 425.695 374.386 413.059C374.579 400.353 306.445 327.541 269.54 289.81C267.787 288.018 267.636 285.216 269.178 283.239L317.338 221.463C318.579 219.871 318.741 217.689 317.748 215.931L286.576 160.722C285.817 159.378 284.479 158.459 282.951 158.234L218.973 148.801C216.241 148.398 214.353 145.857 214.756 143.125L220.383 104.959C220.786 102.227 218.898 99.686 216.166 99.2832L173.621 93.0102C170.889 92.6074 168.348 94.4955 167.945 97.2274L161.836 138.658C161.676 139.749 161.159 140.755 160.367 141.522L134.832 166.237C134.339 166.714 133.949 167.288 133.687 167.922L102.105 244.452C101.254 246.515 101.873 248.892 103.622 250.278L167.538 300.918C170.387 303.175 169.951 307.623 166.718 309.284L111.644 337.58C109.862 338.495 108.798 340.387 108.942 342.385L116.384 445.987C116.414 446.407 116.497 446.822 116.631 447.222L140.429 518.04Z" stroke="#00CB4E" stroke-width="2"/>
<path d="M364.43 432.262C365.192 434.531 367.456 435.941 369.829 435.625L560.076 410.307C561.671 410.095 563.065 409.132 563.819 407.711C575.989 384.769 598.195 339.916 598.387 327.28C598.58 314.574 530.446 241.762 493.541 204.032C491.788 202.239 491.637 199.437 493.179 197.46L541.339 135.685C542.58 134.092 542.742 131.91 541.749 130.152L510.577 74.9434C509.817 73.5988 508.48 72.6804 506.952 72.4552L442.974 63.022C440.242 62.6192 438.354 60.078 438.757 57.3462L444.384 19.1803C444.787 16.4484 442.899 13.9072 440.167 13.5044L397.622 7.23139C394.89 6.82858 392.349 8.71668 391.946 11.4486L385.837 52.8796C385.677 53.9699 385.16 54.9765 384.368 55.743L358.833 80.4579C358.34 80.9352 357.95 81.5089 357.688 82.1433L326.106 158.673C325.255 160.736 325.874 163.113 327.623 164.499L391.539 215.139C394.388 217.396 393.952 221.844 390.719 223.505L335.645 251.801C333.863 252.717 332.799 254.608 332.943 256.607L340.385 360.208C340.415 360.629 340.498 361.043 340.632 361.443L364.43 432.262Z" stroke="#00CB4E" stroke-width="2"/>
<path d="M31.2266 569.576C26.6629 572.045 28.4171 578.973 33.6062 578.973H356.712C361.442 578.973 363.528 573.014 359.83 570.064L346.927 559.773C344.334 557.705 344.436 553.732 347.132 551.8L365.322 538.763C368.107 536.766 368.104 532.623 365.316 530.631L346.475 517.167C343.991 515.391 343.664 511.823 345.785 509.626L362.82 491.982C365.885 488.807 363.635 483.509 359.223 483.509H216.751C214.614 483.509 212.714 482.151 212.021 480.13L202.947 453.661C202.204 451.493 200.082 450.108 197.799 450.3L156.151 453.8C152.708 454.09 150.589 457.701 152.017 460.848L159.091 476.443C160.593 479.753 158.173 483.509 154.538 483.509H68.737C64.3248 483.509 62.0753 488.807 65.1399 491.982L80.1409 507.52C82.8242 510.299 81.4762 514.942 77.7217 515.852L15.9797 530.819C11.1779 531.983 10.7942 538.664 15.431 540.371L46.572 551.829C50.6111 553.315 51.0101 558.871 47.225 560.919L31.2266 569.576Z" fill="#9F5FE7"/>
<path d="M311.976 552.535C313.125 554.031 315.018 554.752 316.871 554.401L467.512 525.868C468.987 525.588 470.256 524.67 470.962 523.345C478.128 509.904 490.224 485.01 488.9 478.365C487.579 471.737 427.211 439.773 392.331 422.137C389.43 420.671 388.681 416.88 390.796 414.411L418.044 382.598C419.843 380.498 419.595 377.335 417.489 375.54L388.036 350.439C387.131 349.668 385.981 349.244 384.792 349.244H332.718C329.957 349.244 327.718 347.006 327.718 344.244V327.973C327.718 325.212 325.48 322.973 322.718 322.973H289.416C286.654 322.973 284.416 325.212 284.416 327.973V346.952C284.416 348.407 283.781 349.791 282.678 350.74L266.324 364.825C265.69 365.37 265.204 366.066 264.909 366.847L249.76 406.956C248.787 409.532 250.08 412.41 252.652 413.393L302.916 432.605C307.027 434.176 307.249 439.91 303.271 441.794L269.369 457.85C267.081 458.933 265.964 461.556 266.767 463.956L284.15 515.874C284.326 516.401 284.588 516.894 284.926 517.334L311.976 552.535Z" fill="#00CB4E"/>
<path d="M314.193 586.703C309.877 589.332 311.741 595.973 316.794 595.973H754.254C759.033 595.973 761.088 589.911 757.295 587.005L705.304 547.168C702.389 544.935 702.796 540.426 706.063 538.75L740.282 521.194C743.834 519.372 743.923 514.325 740.436 512.38L678.195 477.644C674.611 475.644 674.83 470.417 678.568 468.724L715.209 452.119C719.198 450.312 719.1 444.613 715.051 442.943L655.318 418.304C653.447 417.532 652.225 415.707 652.225 413.682V370.61C652.225 367.612 649.605 365.288 646.629 365.645L594.632 371.888C592.119 372.19 590.228 374.321 590.228 376.852V412.765C590.228 415.222 588.444 417.314 586.019 417.702L418.602 444.513C413.945 445.259 412.816 451.447 416.909 453.79L431.145 461.939C435.25 464.288 434.1 470.496 429.426 471.219L350.223 483.479C344.122 484.424 344.815 493.42 350.988 493.42H388.086C393.983 493.42 395.019 501.842 389.298 503.271L325.427 519.23C319.706 520.659 320.742 529.08 326.639 529.08H373.934C379.591 529.08 380.898 536.998 375.541 538.815L312.249 560.286C307.798 561.796 307.7 568.056 312.102 569.704L321.053 573.055C324.96 574.517 325.464 579.838 321.901 582.008L314.193 586.703Z" fill="#FD6A06"/>
</svg>
