<svg width="202" height="167" viewBox="0 0 202 167" fill="none" xmlns="http://www.w3.org/2000/svg">
<g filter="url(#filter0_ii_4753_4832)">
<path d="M1.07318 50.567C0.480749 48.4388 1.72575 46.2333 3.85397 45.6408L84.1909 23.2775L117.671 143.55L37.334 165.913C35.2058 166.505 33.0003 165.26 32.4078 163.132L1.07318 50.567Z" fill="#ECECEC"/>
<path d="M84.1904 23.2765L163.955 1.07262C166.083 0.480194 168.288 1.7252 168.881 3.85342L200.215 116.418C200.808 118.547 199.563 120.752 197.435 121.345L117.67 143.549L84.1904 23.2765Z" fill="#ECECEC"/>
<g opacity="0.8" filter="url(#filter1_i_4753_4832)">
<rect x="95.9043" y="29.8893" width="67.773" height="2.378" rx="1.189" transform="rotate(-15.5556 95.9043 29.8893)" fill="#F3F3F3"/>
</g>
<rect opacity="0.8" x="11.7139" y="53.3256" width="67.773" height="2.378" rx="1.189" transform="rotate(-15.5556 11.7139 53.3256)" fill="#F3F3F3"/>
<rect opacity="0.8" x="19.6855" y="81.9618" width="67.773" height="2.378" rx="1.189" transform="rotate(-15.5556 19.6855 81.9618)" fill="#F3F3F3"/>
<rect opacity="0.8" x="27.6562" y="110.598" width="67.773" height="2.378" rx="1.189" transform="rotate(-15.5556 27.6562 110.598)" fill="#F3F3F3"/>
<g opacity="0.8" filter="url(#filter2_i_4753_4832)">
<rect x="102.122" y="52.2253" width="67.773" height="2.378" rx="1.189" transform="rotate(-15.5556 102.122 52.2253)" fill="#F3F3F3"/>
</g>
<rect opacity="0.8" x="16.9756" y="72.2253" width="67.773" height="2.378" rx="1.189" transform="rotate(-15.5556 16.9756 72.2253)" fill="#F3F3F3"/>
<rect opacity="0.8" x="24.9468" y="100.861" width="67.773" height="2.378" rx="1.189" transform="rotate(-15.5556 24.9468 100.861)" fill="#F3F3F3"/>
<rect opacity="0.8" x="32.9175" y="129.497" width="67.773" height="2.378" rx="1.189" transform="rotate(-15.5556 32.9175 129.497)" fill="#F3F3F3"/>
<g opacity="0.8" filter="url(#filter3_i_4753_4832)">
<rect x="100.527" y="46.4987" width="67.773" height="2.378" rx="1.189" transform="rotate(-15.5556 100.527 46.4987)" fill="#F3F3F3"/>
</g>
<rect opacity="0.8" x="15.6992" y="67.6435" width="67.773" height="2.378" rx="1.189" transform="rotate(-15.5556 15.6992 67.6435)" fill="#F3F3F3"/>
<rect opacity="0.8" x="23.6709" y="96.2795" width="67.773" height="2.378" rx="1.189" transform="rotate(-15.5556 23.6709 96.2795)" fill="#F3F3F3"/>
<rect opacity="0.8" x="31.6426" y="124.915" width="67.773" height="2.378" rx="1.189" transform="rotate(-15.5556 31.6426 124.915)" fill="#F3F3F3"/>
<g opacity="0.8" filter="url(#filter4_i_4753_4832)">
<rect x="103.557" y="57.38" width="67.773" height="2.9725" rx="1.48625" transform="rotate(-15.5556 103.557 57.38)" fill="#F3F3F3"/>
</g>
<rect opacity="0.8" x="18.2515" y="76.8073" width="67.773" height="2.9725" rx="1.48625" transform="rotate(-15.5556 18.2515 76.8073)" fill="#F3F3F3"/>
<rect opacity="0.8" x="26.2222" y="105.443" width="67.773" height="2.9725" rx="1.48625" transform="rotate(-15.5556 26.2222 105.443)" fill="#F3F3F3"/>
<rect opacity="0.8" x="34.1938" y="134.079" width="67.773" height="2.9725" rx="1.48625" transform="rotate(-15.5556 34.1938 134.079)" fill="#F3F3F3"/>
<g opacity="0.8" filter="url(#filter5_i_4753_4832)">
<rect x="98.9336" y="40.7716" width="67.773" height="2.9725" rx="1.48625" transform="rotate(-15.5556 98.9336 40.7716)" fill="#F3F3F3"/>
</g>
<rect opacity="0.8" x="14.2646" y="62.4894" width="67.773" height="2.9725" rx="1.48625" transform="rotate(-15.5556 14.2646 62.4894)" fill="#F3F3F3"/>
<rect opacity="0.8" x="22.2358" y="91.1254" width="67.773" height="2.9725" rx="1.48625" transform="rotate(-15.5556 22.2358 91.1254)" fill="#F3F3F3"/>
<rect opacity="0.8" x="30.208" y="119.761" width="67.773" height="2.9725" rx="1.48625" transform="rotate(-15.5556 30.208 119.761)" fill="#F3F3F3"/>
<g opacity="0.8" filter="url(#filter6_i_4753_4832)">
<rect x="97.499" y="35.6166" width="67.773" height="2.378" rx="1.189" transform="rotate(-15.5556 97.499 35.6166)" fill="#F3F3F3"/>
</g>
<rect opacity="0.8" x="12.9897" y="57.9069" width="67.773" height="2.378" rx="1.189" transform="rotate(-15.5556 12.9897 57.9069)" fill="#F3F3F3"/>
<rect opacity="0.8" x="20.96" y="86.5434" width="67.773" height="2.378" rx="1.189" transform="rotate(-15.5556 20.96 86.5434)" fill="#F3F3F3"/>
<rect opacity="0.8" x="28.9331" y="115.179" width="67.773" height="2.378" rx="1.189" transform="rotate(-15.5556 28.9331 115.179)" fill="#F3F3F3"/>
<rect x="106.521" y="65.8119" width="67.1785" height="67.773" transform="rotate(-15.5556 106.521 65.8119)" fill="#F3F3F3"/>
</g>
<defs>
<filter id="filter0_ii_4753_4832" x="0.925781" y="-1.0748" width="199.437" height="171.135" filterUnits="userSpaceOnUse" color-interpolation-filters="sRGB">
<feFlood flood-opacity="0" result="BackgroundImageFix"/>
<feBlend mode="normal" in="SourceGraphic" in2="BackgroundImageFix" result="shape"/>
<feColorMatrix in="SourceAlpha" type="matrix" values="0 0 0 0 0 0 0 0 0 0 0 0 0 0 0 0 0 0 127 0" result="hardAlpha"/>
<feOffset dy="-2"/>
<feGaussianBlur stdDeviation="3"/>
<feComposite in2="hardAlpha" operator="arithmetic" k2="-1" k3="1"/>
<feColorMatrix type="matrix" values="0 0 0 0 0 0 0 0 0 0 0 0 0 0 0 0 0 0 0.25 0"/>
<feBlend mode="normal" in2="shape" result="effect1_innerShadow_4753_4832"/>
<feColorMatrix in="SourceAlpha" type="matrix" values="0 0 0 0 0 0 0 0 0 0 0 0 0 0 0 0 0 0 127 0" result="hardAlpha"/>
<feOffset dy="4"/>
<feGaussianBlur stdDeviation="2"/>
<feComposite in2="hardAlpha" operator="arithmetic" k2="-1" k3="1"/>
<feColorMatrix type="matrix" values="0 0 0 0 1 0 0 0 0 1 0 0 0 0 1 0 0 0 0.35 0"/>
<feBlend mode="normal" in2="effect1_innerShadow_4753_4832" result="effect2_innerShadow_4753_4832"/>
</filter>
<filter id="filter1_i_4753_4832" x="96.1792" y="11.9894" width="65.3784" height="23.9158" filterUnits="userSpaceOnUse" color-interpolation-filters="sRGB">
<feFlood flood-opacity="0" result="BackgroundImageFix"/>
<feBlend mode="normal" in="SourceGraphic" in2="BackgroundImageFix" result="shape"/>
<feColorMatrix in="SourceAlpha" type="matrix" values="0 0 0 0 0 0 0 0 0 0 0 0 0 0 0 0 0 0 127 0" result="hardAlpha"/>
<feOffset dy="4"/>
<feGaussianBlur stdDeviation="2"/>
<feComposite in2="hardAlpha" operator="arithmetic" k2="-1" k3="1"/>
<feColorMatrix type="matrix" values="0 0 0 0 1 0 0 0 0 1 0 0 0 0 1 0 0 0 0.25 0"/>
<feBlend mode="normal" in2="shape" result="effect1_innerShadow_4753_4832"/>
</filter>
<filter id="filter2_i_4753_4832" x="102.396" y="34.3254" width="65.3784" height="23.9158" filterUnits="userSpaceOnUse" color-interpolation-filters="sRGB">
<feFlood flood-opacity="0" result="BackgroundImageFix"/>
<feBlend mode="normal" in="SourceGraphic" in2="BackgroundImageFix" result="shape"/>
<feColorMatrix in="SourceAlpha" type="matrix" values="0 0 0 0 0 0 0 0 0 0 0 0 0 0 0 0 0 0 127 0" result="hardAlpha"/>
<feOffset dy="4"/>
<feGaussianBlur stdDeviation="2"/>
<feComposite in2="hardAlpha" operator="arithmetic" k2="-1" k3="1"/>
<feColorMatrix type="matrix" values="0 0 0 0 1 0 0 0 0 1 0 0 0 0 1 0 0 0 0.25 0"/>
<feBlend mode="normal" in2="shape" result="effect1_innerShadow_4753_4832"/>
</filter>
<filter id="filter3_i_4753_4832" x="100.802" y="28.5988" width="65.3784" height="23.9158" filterUnits="userSpaceOnUse" color-interpolation-filters="sRGB">
<feFlood flood-opacity="0" result="BackgroundImageFix"/>
<feBlend mode="normal" in="SourceGraphic" in2="BackgroundImageFix" result="shape"/>
<feColorMatrix in="SourceAlpha" type="matrix" values="0 0 0 0 0 0 0 0 0 0 0 0 0 0 0 0 0 0 127 0" result="hardAlpha"/>
<feOffset dy="4"/>
<feGaussianBlur stdDeviation="2"/>
<feComposite in2="hardAlpha" operator="arithmetic" k2="-1" k3="1"/>
<feColorMatrix type="matrix" values="0 0 0 0 1 0 0 0 0 1 0 0 0 0 1 0 0 0 0.25 0"/>
<feBlend mode="normal" in2="shape" result="effect1_innerShadow_4753_4832"/>
</filter>
<filter id="filter4_i_4753_4832" x="103.901" y="39.549" width="65.4004" height="24.3508" filterUnits="userSpaceOnUse" color-interpolation-filters="sRGB">
<feFlood flood-opacity="0" result="BackgroundImageFix"/>
<feBlend mode="normal" in="SourceGraphic" in2="BackgroundImageFix" result="shape"/>
<feColorMatrix in="SourceAlpha" type="matrix" values="0 0 0 0 0 0 0 0 0 0 0 0 0 0 0 0 0 0 127 0" result="hardAlpha"/>
<feOffset dy="4"/>
<feGaussianBlur stdDeviation="2"/>
<feComposite in2="hardAlpha" operator="arithmetic" k2="-1" k3="1"/>
<feColorMatrix type="matrix" values="0 0 0 0 1 0 0 0 0 1 0 0 0 0 1 0 0 0 0.25 0"/>
<feBlend mode="normal" in2="shape" result="effect1_innerShadow_4753_4832"/>
</filter>
<filter id="filter5_i_4753_4832" x="99.2773" y="22.9406" width="65.4004" height="24.3508" filterUnits="userSpaceOnUse" color-interpolation-filters="sRGB">
<feFlood flood-opacity="0" result="BackgroundImageFix"/>
<feBlend mode="normal" in="SourceGraphic" in2="BackgroundImageFix" result="shape"/>
<feColorMatrix in="SourceAlpha" type="matrix" values="0 0 0 0 0 0 0 0 0 0 0 0 0 0 0 0 0 0 127 0" result="hardAlpha"/>
<feOffset dy="4"/>
<feGaussianBlur stdDeviation="2"/>
<feComposite in2="hardAlpha" operator="arithmetic" k2="-1" k3="1"/>
<feColorMatrix type="matrix" values="0 0 0 0 1 0 0 0 0 1 0 0 0 0 1 0 0 0 0.25 0"/>
<feBlend mode="normal" in2="shape" result="effect1_innerShadow_4753_4832"/>
</filter>
<filter id="filter6_i_4753_4832" x="97.7739" y="17.7167" width="65.3784" height="23.9158" filterUnits="userSpaceOnUse" color-interpolation-filters="sRGB">
<feFlood flood-opacity="0" result="BackgroundImageFix"/>
<feBlend mode="normal" in="SourceGraphic" in2="BackgroundImageFix" result="shape"/>
<feColorMatrix in="SourceAlpha" type="matrix" values="0 0 0 0 0 0 0 0 0 0 0 0 0 0 0 0 0 0 127 0" result="hardAlpha"/>
<feOffset dy="4"/>
<feGaussianBlur stdDeviation="2"/>
<feComposite in2="hardAlpha" operator="arithmetic" k2="-1" k3="1"/>
<feColorMatrix type="matrix" values="0 0 0 0 1 0 0 0 0 1 0 0 0 0 1 0 0 0 0.25 0"/>
<feBlend mode="normal" in2="shape" result="effect1_innerShadow_4753_4832"/>
</filter>
</defs>
</svg>
