<svg width="163" height="163" viewBox="0 0 163 163" fill="none" xmlns="http://www.w3.org/2000/svg">
<g filter="url(#filter0_i_4753_4796)">
<path d="M162.774 81.6631C162.774 126.584 126.359 163 81.4375 163C36.5164 163 0.100586 126.584 0.100586 81.6631C0.100586 36.742 36.5164 0.326172 81.4375 0.326172C126.359 0.326172 162.774 36.742 162.774 81.6631Z" fill="#ECECEC"/>
</g>
<g filter="url(#filter1_ii_4753_4796)">
<path d="M138.912 28.5613C143.105 33.9494 150.523 48.0739 146.653 61.4672C147.298 62.5577 147.736 65.2774 144.331 67.4326C144.524 69.1004 144.215 72.8207 141.428 74.3602C138.642 75.8996 137.687 73.3339 137.558 71.8586C136.719 74.6167 133.146 79.9022 125.56 78.9786L116.659 82.6348L113.563 87.8304L111.241 88.6002C109.951 90.0113 107.022 92.8337 105.629 92.8337C104.236 92.8337 103.371 92.1922 103.113 91.8715C103.178 94.1807 104.197 99.5688 107.758 102.648C110.993 105.446 107.376 110.075 104.64 113.577C103.612 114.891 102.709 116.047 102.339 116.888C100.985 119.967 98.2756 123.046 96.7275 123.238C95.1795 123.43 89.5677 126.702 89.5677 128.241C89.5677 129.781 90.5353 141.519 91.6963 143.636C92.8574 145.753 93.8249 151.718 91.6963 153.45C89.5677 155.182 85.117 156.529 83.3754 156.336C81.9822 156.182 81.8919 155.118 82.0209 154.604L83.3754 151.333L79.6988 148.062C78.7312 147.998 76.68 147.446 76.2156 145.753C75.8862 144.551 74.9961 144.466 74.0048 144.37C73.2491 144.297 72.4346 144.218 71.7649 143.636C70.5265 142.558 69.5718 141.006 69.2493 140.364L65.5726 138.825L57.2518 129.203L49.8984 125.932C49.1889 122.725 47.1893 115.81 44.8672 113.809C41.9646 111.307 42.5451 105.919 43.7062 105.149C44.635 104.534 47.5763 103.353 48.9309 102.84C50.5435 102.904 53.9621 102.84 54.7362 102.07C55.7037 101.108 59.1869 100.531 60.9284 100.723C61.4445 98.5425 64.3342 93.9883 71.7649 93.2185L76.7961 89.3699L80.0858 88.985C80.9888 87.3173 84.0721 84.4821 89.1807 86.4834C90.0837 85.7137 92.1994 84.1742 93.4379 84.1742C94.986 84.1742 97.8886 84.7515 98.8561 86.291C99.1165 86.7053 99.3488 87.1474 99.5682 87.5649C100.164 88.6989 100.665 89.6512 101.372 89.3699C101.794 89.202 101.921 88.8875 102.043 88.5864C102.201 88.1973 102.35 87.8304 103.113 87.8304C103.665 87.8304 104.186 88.0223 104.66 88.1975C105.35 88.452 105.944 88.6713 106.403 88.2153C106.748 87.8721 106.824 87.3759 106.905 86.8461C107.006 86.1876 107.114 85.4771 107.758 84.9439C108.347 84.4555 108.438 83.62 108.536 82.7142C108.631 81.8357 108.734 80.8911 109.306 80.1332C110.467 78.5937 112.015 77.6315 116.078 77.824C119.329 77.9779 116.917 74.296 115.304 72.4359C114.982 71.9869 114.685 70.9349 116.078 70.3191C117.82 69.5494 119.755 70.5115 120.529 71.4737C120.648 71.621 120.78 71.8178 120.929 72.0401C121.754 73.2701 123.102 75.2792 125.56 73.9753C127.882 72.7438 127.689 69.3569 127.302 67.8175V63.584C126.27 62.8784 124.128 61.3902 123.819 61.0823C123.689 60.9534 122.972 60.9973 121.917 61.062C119.822 61.1904 116.393 61.4006 113.563 60.5051C113.047 62.1728 111.86 65.5853 111.241 65.8932C110.621 66.201 109.177 64.8669 108.532 64.1613L109.112 58.9656C107.629 58.3242 104.274 56.5025 102.726 54.3472C101.178 52.192 99.7592 49.4723 99.2431 48.3818L95.1795 44.918L92.8574 42.9937L92.2768 44.1483C90.1482 43.3144 85.6975 41.1848 84.9235 39.3375L79.3118 38.9526L80.4728 33.9494C81.1178 34.0135 82.4466 33.8724 82.6014 32.7948C82.6369 32.5479 82.6268 32.2299 82.6154 31.8669C82.5643 30.2492 82.485 27.7371 86.2781 26.637C89.226 25.7819 89.3671 23.9965 89.4728 22.6587C89.5337 21.8889 89.5828 21.2673 90.1482 21.0564C90.8451 20.7966 91.5027 21.1605 92.2093 21.5516C93.0726 22.0294 94.009 22.5477 95.1795 22.0186C97.3081 21.0564 95.373 18.3624 93.6314 18.1699C93.4672 18.1518 93.3029 18.1353 93.1396 18.119C91.5717 17.9621 90.0935 17.8142 89.5677 16.2456C88.4712 15.7966 86.7038 14.3982 88.4067 12.397C88.4752 12.3515 88.5978 12.2738 88.7597 12.1712C89.9683 11.4052 93.3693 9.24985 92.8574 8.74074C92.3929 8.2789 90.2127 8.29173 89.1807 8.35587C89.1162 8.74073 88.7163 9.51044 87.6326 9.51044C86.2781 9.51044 84.1495 9.70287 82.6014 13.7439C82.2951 14.5436 82.0872 15.396 81.8775 16.2564C81.0271 19.7441 80.1446 23.3635 72.539 24.1353C72.0229 23.9428 71.1457 23.0192 71.7649 20.8639C71.3134 19.3245 69.9846 16.2456 68.2818 16.2456C66.5789 16.2456 64.9921 15.2193 64.4116 14.7061C63.1215 16.1173 59.6513 18.8626 56.0907 18.5548C51.64 18.1699 51.8335 11.8196 61.122 12.5894C60.6704 11.9479 60.2318 10.4341 62.0895 9.51044C62.765 9.17457 63.5388 8.513 64.4441 7.73891C66.651 5.85204 69.6398 3.29663 73.8935 3.16017C75.3232 3.11431 76.6099 3.10124 77.746 3.0897C81.3767 3.05282 83.4677 3.03158 83.7625 2.00558C84.0721 0.927958 91.5028 2.06972 95.1795 2.77531L93.321 1.27522C93.321 1.27522 106.216 2.47624 110.28 5.94C113.531 8.71101 118.723 11.4348 120.916 12.397L123.819 12.2045L133.107 18.1699C134.526 19.0679 137.364 21.0179 137.364 21.6337V25.8672L138.912 28.5613Z" fill="#ECECEC"/>
<path d="M63.5599 1.50854C65.1523 2.63548 64.2955 4.19934 63.8311 4.50723C63.3667 4.81512 61.8315 4.8921 61.122 4.8921L59.1869 5.85426L58.9934 7.77858C59.3804 8.42002 59.4191 9.89534 56.4777 10.6651C53.5364 11.4348 53.5751 9.70291 53.9621 8.74074L55.1232 6.62399L53.9621 5.85426C50.0275 7.20128 42.1194 10.0493 41.9646 10.6651C41.922 10.8346 42.039 11.0602 42.1936 11.3583C42.7408 12.4133 43.7589 14.3764 39.836 17.9775L38.8685 19.9018C39.707 20.415 41.2293 21.7877 40.61 23.1732C39.9908 24.5587 38.4169 27.5991 37.7074 28.9461C37.9654 29.4593 38.1718 30.7165 36.9334 31.6402C35.6949 32.5639 34.0952 31.127 33.4502 30.2932C33.7082 29.2027 33.8372 26.9833 32.2892 26.8294C30.3541 26.6369 31.1281 24.5202 34.4178 23.1732C37.0495 22.0955 37.1914 20.5433 36.9334 19.9018C36.2883 20.3508 34.7274 20.9795 33.6437 19.9018C32.5601 18.8242 33.1922 16.6305 33.6437 15.6683L31.9021 17.5926C32.2247 18.4265 32.444 20.4021 30.7411 21.6337C30.9991 22.0827 31.0507 23.2886 29.193 24.5202C27.3353 25.7518 27.1289 23.109 27.2579 21.6337L26.2904 21.8261C26.6129 22.5959 26.7935 24.2893 24.9359 24.9051V25.6748H28.6125L28.806 29.1386L32.2892 30.8705L32.4827 33.3721C31.4506 33.4362 29.0769 34.1803 27.8385 36.6434C29.7091 37.2849 32.4053 40.1457 28.2255 46.4575C27.4514 47.2914 25.7099 48.1124 24.9359 44.7256L21.6462 45.8802C22.9362 46.2651 25.5551 47.4966 25.7099 49.344C25.8647 51.1913 26.9354 55.5018 27.4514 57.4261L29.3865 60.1202C30.3541 60.7616 32.2892 62.3139 32.2892 63.3915C32.2892 64.4691 32.5472 65.8931 32.6762 66.4704L33.2567 71.0888L32.2892 75.1299L29.3865 85.5212C29.3865 85.9061 28.8834 86.8683 26.8709 87.638C26.3549 88.2794 25.1293 89.6393 24.3553 89.9472C23.5813 90.2551 21.7107 89.9472 20.8722 89.7547L19.1306 89.9472L16.4214 88.985L11.1967 86.6758L10.4227 96.8747C10.4227 98.7991 10.5001 102.84 10.8097 103.61C10.954 103.969 11.1253 104.274 11.2832 104.556C11.549 105.029 11.7773 105.436 11.7773 105.919C11.7773 106.535 13.5833 110.281 14.4864 112.077C15.3249 113.103 16.9246 115.579 16.615 117.273C16.9246 117.734 19.3241 123.238 20.4851 125.932C21.5817 126.766 23.7361 128.703 23.5813 129.781L21.2592 131.705C17.002 127.471 7.28784 114.732 2.48883 97.6445C-3.50993 76.2845 2.87585 55.5018 5.58498 50.1137C8.2941 44.7256 17.9695 25.8672 29.7736 16.438C38.8065 9.22243 51.7306 3.91087 63.5599 1.50854Z" fill="#ECECEC"/>
</g>
<defs>
<filter id="filter0_i_4753_4796" x="0.100586" y="-3.66508" width="162.674" height="166.665" filterUnits="userSpaceOnUse" color-interpolation-filters="sRGB">
<feFlood flood-opacity="0" result="BackgroundImageFix"/>
<feBlend mode="normal" in="SourceGraphic" in2="BackgroundImageFix" result="shape"/>
<feColorMatrix in="SourceAlpha" type="matrix" values="0 0 0 0 0 0 0 0 0 0 0 0 0 0 0 0 0 0 127 0" result="hardAlpha"/>
<feOffset dy="-3.99125"/>
<feGaussianBlur stdDeviation="2.99344"/>
<feComposite in2="hardAlpha" operator="arithmetic" k2="-1" k3="1"/>
<feColorMatrix type="matrix" values="0 0 0 0 0 0 0 0 0 0 0 0 0 0 0 0 0 0 0.2 0"/>
<feBlend mode="normal" in2="shape" result="effect1_innerShadow_4753_4796"/>
</filter>
<filter id="filter1_ii_4753_4796" x="0" y="-2.7161" width="147.737" height="165.058" filterUnits="userSpaceOnUse" color-interpolation-filters="sRGB">
<feFlood flood-opacity="0" result="BackgroundImageFix"/>
<feBlend mode="normal" in="SourceGraphic" in2="BackgroundImageFix" result="shape"/>
<feColorMatrix in="SourceAlpha" type="matrix" values="0 0 0 0 0 0 0 0 0 0 0 0 0 0 0 0 0 0 127 0" result="hardAlpha"/>
<feOffset dy="-3.99125"/>
<feGaussianBlur stdDeviation="1.99563"/>
<feComposite in2="hardAlpha" operator="arithmetic" k2="-1" k3="1"/>
<feColorMatrix type="matrix" values="0 0 0 0 0 0 0 0 0 0 0 0 0 0 0 0 0 0 0.2 0"/>
<feBlend mode="normal" in2="shape" result="effect1_innerShadow_4753_4796"/>
<feColorMatrix in="SourceAlpha" type="matrix" values="0 0 0 0 0 0 0 0 0 0 0 0 0 0 0 0 0 0 127 0" result="hardAlpha"/>
<feOffset dy="5.98688"/>
<feGaussianBlur stdDeviation="2.99344"/>
<feComposite in2="hardAlpha" operator="arithmetic" k2="-1" k3="1"/>
<feColorMatrix type="matrix" values="0 0 0 0 1 0 0 0 0 1 0 0 0 0 1 0 0 0 0.4 0"/>
<feBlend mode="normal" in2="effect1_innerShadow_4753_4796" result="effect2_innerShadow_4753_4796"/>
</filter>
</defs>
</svg>
