<svg width="208" height="209" viewBox="0 0 208 209" fill="none" xmlns="http://www.w3.org/2000/svg">
<rect opacity="0.5" x="120.992" y="116.295" width="24.0376" height="24.0376" rx="12.0188" transform="rotate(28.7207 120.992 116.295)" fill="#ECECEC"/>
<rect opacity="0.5" x="109.771" y="39.249" width="22.7021" height="19.5862" transform="rotate(1.21191 109.771 39.249)" fill="#ECECEC"/>
<g filter="url(#filter0_ii_4751_4757)">
<path d="M55.0373 37.5412L7.19083 126.293L6.03494 126.969C4.23573 128.34 2.72952 130.134 2.52253 132.901C2.66584 134.551 2.70849 137.246 10.5157 141.733C18.3228 146.221 73.9244 176.566 100.749 191.177C107.206 195.326 122.611 199.647 132.584 183.741L142.848 165.01L115.456 150C110.017 147.02 100.772 137.607 107.294 123.791C115.448 106.522 132.151 113.318 134.77 114.753L162.162 129.762L172.536 110.829C175.101 105.513 177.505 92.9674 166.61 85.3213L66.9096 30.6903C64.7612 29.513 59.7437 28.2826 56.8609 32.7789C56.6035 33.2489 56.0771 34.4968 56.0306 35.7284L55.0373 37.5412Z" fill="#ECECEC"/>
<path fill-rule="evenodd" clip-rule="evenodd" d="M142.848 165.01C146.51 166.929 154.301 169.819 156.171 166.025L171.07 138.834C171.47 137.307 171.215 133.885 166.995 132.411L162.162 129.762L134.77 114.753C132.151 113.318 115.448 106.522 107.294 123.791C100.772 137.607 110.017 147.02 115.456 150L142.848 165.01ZM115.35 128.205C118.478 120.304 126.858 120.107 131.289 122.536C136.728 125.515 140.193 134.485 132.848 141.198C125.503 147.911 110.579 140.257 115.35 128.205Z" fill="#ECECEC"/>
</g>
<g filter="url(#filter1_ii_4751_4757)">
<path fill-rule="evenodd" clip-rule="evenodd" d="M142.848 165.01C146.51 166.929 154.302 169.819 156.171 166.025L171.071 138.834C171.471 137.307 171.216 133.885 166.996 132.411L162.162 129.762L134.769 114.752C132.151 113.318 115.447 106.522 107.294 123.791C100.771 137.606 110.017 147.02 115.455 150L142.848 165.01ZM115.351 128.206C118.478 120.304 126.859 120.108 131.29 122.536C136.728 125.516 140.194 134.486 132.849 141.198C125.504 147.911 110.58 140.257 115.351 128.206Z" fill="#ECECEC"/>
</g>
<g filter="url(#filter2_ii_4751_4757)">
<path d="M61.3192 39.9358C61.7459 39.1571 62.723 38.8718 63.5016 39.2984L71.1554 43.4923C71.9341 43.919 72.2194 44.8961 71.7927 45.6748C71.3661 46.4535 70.3889 46.7388 69.6103 46.3121L61.9565 42.1182C61.1779 41.6916 60.8925 40.7144 61.3192 39.9358Z" fill="#ECECEC"/>
</g>
<g filter="url(#filter3_ii_4751_4757)">
<path d="M122.549 73.4871C122.976 72.7084 123.953 72.423 124.732 72.8497L128.357 74.8363C129.136 75.263 129.421 76.2401 128.994 77.0188C128.568 77.7974 127.591 78.0828 126.812 77.6561L123.187 75.6695C122.408 75.2428 122.122 74.2657 122.549 73.4871Z" fill="#ECECEC"/>
</g>
<g filter="url(#filter4_ii_4751_4757)">
<path d="M50.7293 151.984C51.156 151.205 52.1331 150.92 52.9118 151.346L56.5373 153.333C57.3159 153.76 57.6013 154.737 57.1746 155.515C56.7479 156.294 55.7708 156.579 54.9921 156.153L51.3667 154.166C50.588 153.739 50.3027 152.762 50.7293 151.984Z" fill="#ECECEC"/>
</g>
<g filter="url(#filter5_ii_4751_4757)">
<path d="M84.6834 52.7383C85.1101 51.9596 86.0872 51.6743 86.8659 52.1009L90.4914 54.0875C91.27 54.5142 91.5554 55.4913 91.1287 56.27C90.702 57.0486 89.7249 57.334 88.9462 56.9073L85.3208 54.9207C84.5421 54.4941 84.2568 53.5169 84.6834 52.7383Z" fill="#ECECEC"/>
</g>
<g filter="url(#filter6_ii_4751_4757)">
<path d="M133.052 168.547C133.831 168.973 134.116 169.951 133.69 170.729L131.703 174.355C131.277 175.133 130.299 175.419 129.521 174.992C128.742 174.565 128.457 173.588 128.883 172.81L130.87 169.184C131.297 168.405 132.274 168.12 133.052 168.547Z" fill="#ECECEC"/>
</g>
<g filter="url(#filter7_ii_4751_4757)">
<path d="M12.8631 131.235C13.2898 130.456 14.2669 130.171 15.0456 130.597L18.6711 132.584C19.4497 133.011 19.7351 133.988 19.3084 134.766C18.8817 135.545 17.9046 135.83 17.1259 135.404L13.5005 133.417C12.7218 132.99 12.4365 132.013 12.8631 131.235Z" fill="#ECECEC"/>
</g>
<g filter="url(#filter8_ii_4751_4757)">
<path d="M71.7928 45.6746C72.2195 44.8959 73.1966 44.6105 73.9753 45.0372L77.6007 47.0238C78.3794 47.4505 78.6648 48.4276 78.2381 49.2063C77.8114 49.9849 76.8343 50.2703 76.0556 49.8436L72.4302 47.857C71.6515 47.4303 71.3661 46.4532 71.7928 45.6746Z" fill="#ECECEC"/>
</g>
<g filter="url(#filter9_ii_4751_4757)">
<path d="M78.2386 49.2065C78.6653 48.4279 79.6424 48.1425 80.4211 48.5692L84.0465 50.5558C84.8252 50.9824 85.1106 51.9596 84.6839 52.7382C84.2572 53.5169 83.2801 53.8023 82.5014 53.3756L78.876 51.389C78.0973 50.9623 77.8119 49.9852 78.2386 49.2065Z" fill="#ECECEC"/>
</g>
<g filter="url(#filter10_ii_4751_4757)">
<path d="M136.585 162.102C137.363 162.528 137.649 163.506 137.222 164.284L135.235 167.91C134.809 168.688 133.832 168.974 133.053 168.547C132.274 168.12 131.989 167.143 132.416 166.365L134.402 162.739C134.829 161.96 135.806 161.675 136.585 162.102Z" fill="#ECECEC"/>
</g>
<g filter="url(#filter11_ii_4751_4757)">
<path d="M105.514 182.003C105.941 181.224 106.918 180.939 107.696 181.366L112.933 184.235C113.712 184.662 113.997 185.639 113.571 186.418C113.144 187.196 112.167 187.482 111.388 187.055L106.151 184.185C105.373 183.759 105.087 182.782 105.514 182.003Z" fill="#ECECEC"/>
</g>
<g filter="url(#filter12_ii_4751_4757)">
<path d="M139.469 82.7573C139.895 81.9786 140.872 81.6933 141.651 82.12L149.305 86.3139C150.083 86.7405 150.369 87.7177 149.942 88.4963C149.515 89.275 148.538 89.5603 147.76 89.1337L140.106 84.9398C139.327 84.5131 139.042 83.536 139.469 82.7573Z" fill="#ECECEC"/>
</g>
<g filter="url(#filter13_ii_4751_4757)">
<path d="M67.6483 161.254C68.075 160.475 69.0521 160.19 69.8307 160.617L77.4845 164.81C78.2632 165.237 78.5485 166.214 78.1218 166.993C77.6952 167.772 76.7181 168.057 75.9394 167.63L68.2856 163.436C67.507 163.01 67.2216 162.033 67.6483 161.254Z" fill="#ECECEC"/>
</g>
<g filter="url(#filter14_ii_4751_4757)">
<path d="M84.5672 170.525C84.9939 169.746 85.971 169.461 86.7497 169.888L94.4034 174.081C95.1821 174.508 95.4675 175.485 95.0408 176.264C94.6141 177.043 93.637 177.328 92.8583 176.901L85.2046 172.707C84.4259 172.281 84.1406 171.304 84.5672 170.525Z" fill="#ECECEC"/>
</g>
<g filter="url(#filter15_ii_4751_4757)">
<path d="M95.0404 176.264C95.467 175.485 96.4442 175.2 97.2228 175.626L104.877 179.82C105.655 180.247 105.941 181.224 105.514 182.003C105.087 182.781 104.11 183.067 103.331 182.64L95.6777 178.446C94.899 178.019 94.6137 177.042 95.0404 176.264Z" fill="#ECECEC"/>
</g>
<g filter="url(#filter16_ii_4751_4757)">
<path d="M101.602 62.0088C102.029 61.2301 103.006 60.9448 103.785 61.3714L111.439 65.5653C112.217 65.992 112.503 66.9691 112.076 67.7478C111.649 68.5265 110.672 68.8118 109.893 68.3851L102.24 64.1912C101.461 63.7646 101.176 62.7874 101.602 62.0088Z" fill="#ECECEC"/>
</g>
<g filter="url(#filter17_ii_4751_4757)">
<path d="M29.7826 140.505C30.2092 139.726 31.1864 139.441 31.965 139.868L39.6188 144.062C40.3974 144.488 40.6828 145.465 40.2561 146.244C39.8295 147.023 38.8523 147.308 38.0737 146.881L30.4199 142.688C29.6412 142.261 29.3559 141.284 29.7826 140.505Z" fill="#ECECEC"/>
</g>
<g filter="url(#filter18_ii_4751_4757)">
<path d="M166.279 105.043C167.058 105.47 167.344 106.447 166.917 107.226L162.723 114.879C162.296 115.658 161.319 115.943 160.54 115.517C159.762 115.09 159.476 114.113 159.903 113.334L164.097 105.68C164.524 104.902 165.501 104.616 166.279 105.043Z" fill="#ECECEC"/>
</g>
<g filter="url(#filter19_ii_4751_4757)">
<path d="M128.995 77.0185C129.422 76.2399 130.399 75.9545 131.177 76.3812L138.831 80.5751C139.61 81.0018 139.895 81.9789 139.469 82.7576C139.042 83.5362 138.065 83.8216 137.286 83.3949L129.632 79.201C128.854 78.7743 128.568 77.7972 128.995 77.0185Z" fill="#ECECEC"/>
</g>
<g filter="url(#filter20_ii_4751_4757)">
<path d="M57.1742 155.515C57.6008 154.736 58.578 154.451 59.3566 154.878L67.0104 159.071C67.789 159.498 68.0744 160.475 67.6477 161.254C67.2211 162.033 66.2439 162.318 65.4653 161.891L57.8115 157.697C57.0328 157.271 56.7475 156.294 57.1742 155.515Z" fill="#ECECEC"/>
</g>
<g filter="url(#filter21_ii_4751_4757)">
<path d="M91.1292 56.2703C91.5559 55.4916 92.533 55.2062 93.3117 55.6329L100.965 59.8268C101.744 60.2535 102.029 61.2306 101.603 62.0093C101.176 62.7879 100.199 63.0733 99.4203 62.6466L91.7666 58.4527C90.9879 58.026 90.7026 57.0489 91.1292 56.2703Z" fill="#ECECEC"/>
</g>
<g filter="url(#filter22_ii_4751_4757)">
<path d="M129.521 174.992C130.3 175.419 130.585 176.396 130.159 177.174L127.51 182.008C127.083 182.787 126.106 183.072 125.327 182.646C124.549 182.219 124.263 181.242 124.69 180.463L127.339 175.629C127.765 174.851 128.743 174.565 129.521 174.992Z" fill="#ECECEC"/>
</g>
<g filter="url(#filter23_ii_4751_4757)">
<path d="M19.3084 134.766C19.7351 133.987 20.7122 133.702 21.4909 134.129L29.1447 138.323C29.9233 138.749 30.2087 139.726 29.782 140.505C29.3553 141.284 28.3782 141.569 27.5995 141.142L19.9458 136.949C19.1671 136.522 18.8818 135.545 19.3084 134.766Z" fill="#ECECEC"/>
</g>
<g filter="url(#filter24_ii_4751_4757)">
<path d="M149.942 88.4968C150.369 87.7181 151.346 87.4328 152.125 87.8595L159.778 92.0534C160.557 92.48 160.842 93.4572 160.416 94.2358C159.989 95.0145 159.012 95.2998 158.233 94.8732L150.58 90.6793C149.801 90.2526 149.516 89.2755 149.942 88.4968Z" fill="#ECECEC"/>
</g>
<g filter="url(#filter25_ii_4751_4757)">
<path d="M160.89 93.592C161.264 93.3739 161.719 93.3237 162.111 93.5076C165.791 95.2336 168.2 100.167 167.443 103.935C167.367 104.312 167.105 104.619 166.764 104.797C165.738 105.333 164.518 104.484 164.474 103.327C164.36 100.314 163.201 98.1347 160.83 96.3124C159.921 95.6142 159.901 94.1689 160.89 93.592Z" fill="#ECECEC"/>
</g>
<g filter="url(#filter26_ii_4751_4757)">
<path d="M125.659 182.925C125.806 183.332 125.774 183.788 125.523 184.141C123.163 187.45 117.876 188.932 114.306 187.509C113.949 187.367 113.695 187.054 113.581 186.686C113.238 185.581 114.293 184.534 115.438 184.699C118.423 185.128 120.775 184.38 122.994 182.376C123.844 181.608 125.27 181.847 125.659 182.925Z" fill="#ECECEC"/>
</g>
<g filter="url(#filter27_ii_4751_4757)">
<path d="M78.1214 166.993C78.5481 166.214 79.5252 165.929 80.3039 166.356L83.9294 168.342C84.708 168.769 84.9934 169.746 84.5667 170.525C84.14 171.303 83.1629 171.589 82.3842 171.162L78.7588 169.175C77.9801 168.749 77.6948 167.772 78.1214 166.993Z" fill="#ECECEC"/>
</g>
<g filter="url(#filter28_ii_4751_4757)">
<path d="M112.076 67.7478C112.503 66.9691 113.48 66.6838 114.258 67.1105L121.912 71.3043C122.691 71.731 122.976 72.7081 122.55 73.4868C122.123 74.2655 121.146 74.5508 120.367 74.1242L112.713 69.9303C111.935 69.5036 111.649 68.5265 112.076 67.7478Z" fill="#ECECEC"/>
</g>
<g filter="url(#filter29_ii_4751_4757)">
<path d="M40.2562 146.244C40.6829 145.465 41.66 145.18 42.4387 145.607L50.0924 149.801C50.8711 150.227 51.1564 151.204 50.7298 151.983C50.3031 152.762 49.326 153.047 48.5473 152.62L40.8935 148.427C40.1149 148 39.8295 147.023 40.2562 146.244Z" fill="#ECECEC"/>
</g>
<g filter="url(#filter30_ii_4751_4757)">
<path d="M160.539 115.517C161.317 115.943 161.603 116.92 161.176 117.699L156.982 125.353C156.556 126.131 155.578 126.417 154.8 125.99C154.021 125.563 153.736 124.586 154.162 123.808L158.356 116.154C158.783 115.375 159.76 115.09 160.539 115.517Z" fill="#ECECEC"/>
</g>
<g filter="url(#filter31_ii_4751_4757)">
<path d="M133.183 32.908L68.6688 32.0734L111.157 55.0403L112.72 42.9188C112.851 41.895 113.742 41.1409 114.774 41.1797L128.181 41.6843C129.352 41.7284 130.233 42.7665 130.086 43.9286L128.459 56.8093C128.33 57.8342 127.44 58.5908 126.407 58.5536L117.031 58.2155L137.199 69.1168C138.046 62.4751 139.918 47.6643 140.626 41.5552C141.335 35.4461 135.959 33.2449 133.183 32.908Z" fill="#ECECEC"/>
</g>
<defs>
<filter id="filter0_ii_4751_4757" x="2.52241" y="25.6032" width="172.188" height="173.414" filterUnits="userSpaceOnUse" color-interpolation-filters="sRGB">
<feFlood flood-opacity="0" result="BackgroundImageFix"/>
<feBlend mode="normal" in="SourceGraphic" in2="BackgroundImageFix" result="shape"/>
<feColorMatrix in="SourceAlpha" type="matrix" values="0 0 0 0 0 0 0 0 0 0 0 0 0 0 0 0 0 0 127 0" result="hardAlpha"/>
<feOffset dy="-3.99125"/>
<feGaussianBlur stdDeviation="1.99563"/>
<feComposite in2="hardAlpha" operator="arithmetic" k2="-1" k3="1"/>
<feColorMatrix type="matrix" values="0 0 0 0 0 0 0 0 0 0 0 0 0 0 0 0 0 0 0.2 0"/>
<feBlend mode="normal" in2="shape" result="effect1_innerShadow_4751_4757"/>
<feColorMatrix in="SourceAlpha" type="matrix" values="0 0 0 0 0 0 0 0 0 0 0 0 0 0 0 0 0 0 127 0" result="hardAlpha"/>
<feOffset dy="3.99125"/>
<feGaussianBlur stdDeviation="1.99563"/>
<feComposite in2="hardAlpha" operator="arithmetic" k2="-1" k3="1"/>
<feColorMatrix type="matrix" values="0 0 0 0 1 0 0 0 0 1 0 0 0 0 1 0 0 0 0.4 0"/>
<feBlend mode="normal" in2="effect1_innerShadow_4751_4757" result="effect2_innerShadow_4751_4757"/>
</filter>
<filter id="filter1_ii_4751_4757" x="105.051" y="108.24" width="66.1548" height="65.6278" filterUnits="userSpaceOnUse" color-interpolation-filters="sRGB">
<feFlood flood-opacity="0" result="BackgroundImageFix"/>
<feBlend mode="normal" in="SourceGraphic" in2="BackgroundImageFix" result="shape"/>
<feColorMatrix in="SourceAlpha" type="matrix" values="0 0 0 0 0 0 0 0 0 0 0 0 0 0 0 0 0 0 127 0" result="hardAlpha"/>
<feOffset dy="-3.99125"/>
<feGaussianBlur stdDeviation="2.99344"/>
<feComposite in2="hardAlpha" operator="arithmetic" k2="-1" k3="1"/>
<feColorMatrix type="matrix" values="0 0 0 0 0 0 0 0 0 0 0 0 0 0 0 0 0 0 0.2 0"/>
<feBlend mode="normal" in2="shape" result="effect1_innerShadow_4751_4757"/>
<feColorMatrix in="SourceAlpha" type="matrix" values="0 0 0 0 0 0 0 0 0 0 0 0 0 0 0 0 0 0 127 0" result="hardAlpha"/>
<feOffset dy="5.98688"/>
<feGaussianBlur stdDeviation="2.99344"/>
<feComposite in2="hardAlpha" operator="arithmetic" k2="-1" k3="1"/>
<feColorMatrix type="matrix" values="0 0 0 0 1 0 0 0 0 1 0 0 0 0 1 0 0 0 0.4 0"/>
<feBlend mode="normal" in2="effect1_innerShadow_4751_4757" result="effect2_innerShadow_4751_4757"/>
</filter>
<filter id="filter2_ii_4751_4757" x="61.121" y="35.1091" width="10.8696" height="13.3968" filterUnits="userSpaceOnUse" color-interpolation-filters="sRGB">
<feFlood flood-opacity="0" result="BackgroundImageFix"/>
<feBlend mode="normal" in="SourceGraphic" in2="BackgroundImageFix" result="shape"/>
<feColorMatrix in="SourceAlpha" type="matrix" values="0 0 0 0 0 0 0 0 0 0 0 0 0 0 0 0 0 0 127 0" result="hardAlpha"/>
<feOffset dy="-3.99125"/>
<feGaussianBlur stdDeviation="2.99344"/>
<feComposite in2="hardAlpha" operator="arithmetic" k2="-1" k3="1"/>
<feColorMatrix type="matrix" values="0 0 0 0 0 0 0 0 0 0 0 0 0 0 0 0 0 0 0.2 0"/>
<feBlend mode="normal" in2="shape" result="effect1_innerShadow_4751_4757"/>
<feColorMatrix in="SourceAlpha" type="matrix" values="0 0 0 0 0 0 0 0 0 0 0 0 0 0 0 0 0 0 127 0" result="hardAlpha"/>
<feOffset dy="1.99563"/>
<feGaussianBlur stdDeviation="1.99563"/>
<feComposite in2="hardAlpha" operator="arithmetic" k2="-1" k3="1"/>
<feColorMatrix type="matrix" values="0 0 0 0 1 0 0 0 0 1 0 0 0 0 1 0 0 0 0.4 0"/>
<feBlend mode="normal" in2="effect1_innerShadow_4751_4757" result="effect2_innerShadow_4751_4757"/>
</filter>
<filter id="filter3_ii_4751_4757" x="122.351" y="68.6604" width="6.84131" height="11.1895" filterUnits="userSpaceOnUse" color-interpolation-filters="sRGB">
<feFlood flood-opacity="0" result="BackgroundImageFix"/>
<feBlend mode="normal" in="SourceGraphic" in2="BackgroundImageFix" result="shape"/>
<feColorMatrix in="SourceAlpha" type="matrix" values="0 0 0 0 0 0 0 0 0 0 0 0 0 0 0 0 0 0 127 0" result="hardAlpha"/>
<feOffset dy="-3.99125"/>
<feGaussianBlur stdDeviation="2.99344"/>
<feComposite in2="hardAlpha" operator="arithmetic" k2="-1" k3="1"/>
<feColorMatrix type="matrix" values="0 0 0 0 0 0 0 0 0 0 0 0 0 0 0 0 0 0 0.2 0"/>
<feBlend mode="normal" in2="shape" result="effect1_innerShadow_4751_4757"/>
<feColorMatrix in="SourceAlpha" type="matrix" values="0 0 0 0 0 0 0 0 0 0 0 0 0 0 0 0 0 0 127 0" result="hardAlpha"/>
<feOffset dy="1.99563"/>
<feGaussianBlur stdDeviation="1.99563"/>
<feComposite in2="hardAlpha" operator="arithmetic" k2="-1" k3="1"/>
<feColorMatrix type="matrix" values="0 0 0 0 1 0 0 0 0 1 0 0 0 0 1 0 0 0 0.4 0"/>
<feBlend mode="normal" in2="effect1_innerShadow_4751_4757" result="effect2_innerShadow_4751_4757"/>
</filter>
<filter id="filter4_ii_4751_4757" x="50.5312" y="147.157" width="6.84131" height="11.1895" filterUnits="userSpaceOnUse" color-interpolation-filters="sRGB">
<feFlood flood-opacity="0" result="BackgroundImageFix"/>
<feBlend mode="normal" in="SourceGraphic" in2="BackgroundImageFix" result="shape"/>
<feColorMatrix in="SourceAlpha" type="matrix" values="0 0 0 0 0 0 0 0 0 0 0 0 0 0 0 0 0 0 127 0" result="hardAlpha"/>
<feOffset dy="-3.99125"/>
<feGaussianBlur stdDeviation="2.99344"/>
<feComposite in2="hardAlpha" operator="arithmetic" k2="-1" k3="1"/>
<feColorMatrix type="matrix" values="0 0 0 0 0 0 0 0 0 0 0 0 0 0 0 0 0 0 0.2 0"/>
<feBlend mode="normal" in2="shape" result="effect1_innerShadow_4751_4757"/>
<feColorMatrix in="SourceAlpha" type="matrix" values="0 0 0 0 0 0 0 0 0 0 0 0 0 0 0 0 0 0 127 0" result="hardAlpha"/>
<feOffset dy="1.99563"/>
<feGaussianBlur stdDeviation="1.99563"/>
<feComposite in2="hardAlpha" operator="arithmetic" k2="-1" k3="1"/>
<feColorMatrix type="matrix" values="0 0 0 0 1 0 0 0 0 1 0 0 0 0 1 0 0 0 0.4 0"/>
<feBlend mode="normal" in2="effect1_innerShadow_4751_4757" result="effect2_innerShadow_4751_4757"/>
</filter>
<filter id="filter5_ii_4751_4757" x="84.4853" y="47.9116" width="6.84131" height="11.1895" filterUnits="userSpaceOnUse" color-interpolation-filters="sRGB">
<feFlood flood-opacity="0" result="BackgroundImageFix"/>
<feBlend mode="normal" in="SourceGraphic" in2="BackgroundImageFix" result="shape"/>
<feColorMatrix in="SourceAlpha" type="matrix" values="0 0 0 0 0 0 0 0 0 0 0 0 0 0 0 0 0 0 127 0" result="hardAlpha"/>
<feOffset dy="-3.99125"/>
<feGaussianBlur stdDeviation="2.99344"/>
<feComposite in2="hardAlpha" operator="arithmetic" k2="-1" k3="1"/>
<feColorMatrix type="matrix" values="0 0 0 0 0 0 0 0 0 0 0 0 0 0 0 0 0 0 0.2 0"/>
<feBlend mode="normal" in2="shape" result="effect1_innerShadow_4751_4757"/>
<feColorMatrix in="SourceAlpha" type="matrix" values="0 0 0 0 0 0 0 0 0 0 0 0 0 0 0 0 0 0 127 0" result="hardAlpha"/>
<feOffset dy="1.99563"/>
<feGaussianBlur stdDeviation="1.99563"/>
<feComposite in2="hardAlpha" operator="arithmetic" k2="-1" k3="1"/>
<feColorMatrix type="matrix" values="0 0 0 0 1 0 0 0 0 1 0 0 0 0 1 0 0 0 0.4 0"/>
<feBlend mode="normal" in2="effect1_innerShadow_4751_4757" result="effect2_innerShadow_4751_4757"/>
</filter>
<filter id="filter6_ii_4751_4757" x="128.685" y="164.357" width="5.20215" height="12.8284" filterUnits="userSpaceOnUse" color-interpolation-filters="sRGB">
<feFlood flood-opacity="0" result="BackgroundImageFix"/>
<feBlend mode="normal" in="SourceGraphic" in2="BackgroundImageFix" result="shape"/>
<feColorMatrix in="SourceAlpha" type="matrix" values="0 0 0 0 0 0 0 0 0 0 0 0 0 0 0 0 0 0 127 0" result="hardAlpha"/>
<feOffset dy="-3.99125"/>
<feGaussianBlur stdDeviation="2.99344"/>
<feComposite in2="hardAlpha" operator="arithmetic" k2="-1" k3="1"/>
<feColorMatrix type="matrix" values="0 0 0 0 0 0 0 0 0 0 0 0 0 0 0 0 0 0 0.2 0"/>
<feBlend mode="normal" in2="shape" result="effect1_innerShadow_4751_4757"/>
<feColorMatrix in="SourceAlpha" type="matrix" values="0 0 0 0 0 0 0 0 0 0 0 0 0 0 0 0 0 0 127 0" result="hardAlpha"/>
<feOffset dy="1.99563"/>
<feGaussianBlur stdDeviation="1.99563"/>
<feComposite in2="hardAlpha" operator="arithmetic" k2="-1" k3="1"/>
<feColorMatrix type="matrix" values="0 0 0 0 1 0 0 0 0 1 0 0 0 0 1 0 0 0 0.4 0"/>
<feBlend mode="normal" in2="effect1_innerShadow_4751_4757" result="effect2_innerShadow_4751_4757"/>
</filter>
<filter id="filter7_ii_4751_4757" x="12.665" y="126.408" width="6.84131" height="11.1895" filterUnits="userSpaceOnUse" color-interpolation-filters="sRGB">
<feFlood flood-opacity="0" result="BackgroundImageFix"/>
<feBlend mode="normal" in="SourceGraphic" in2="BackgroundImageFix" result="shape"/>
<feColorMatrix in="SourceAlpha" type="matrix" values="0 0 0 0 0 0 0 0 0 0 0 0 0 0 0 0 0 0 127 0" result="hardAlpha"/>
<feOffset dy="-3.99125"/>
<feGaussianBlur stdDeviation="2.99344"/>
<feComposite in2="hardAlpha" operator="arithmetic" k2="-1" k3="1"/>
<feColorMatrix type="matrix" values="0 0 0 0 0 0 0 0 0 0 0 0 0 0 0 0 0 0 0.2 0"/>
<feBlend mode="normal" in2="shape" result="effect1_innerShadow_4751_4757"/>
<feColorMatrix in="SourceAlpha" type="matrix" values="0 0 0 0 0 0 0 0 0 0 0 0 0 0 0 0 0 0 127 0" result="hardAlpha"/>
<feOffset dy="1.99563"/>
<feGaussianBlur stdDeviation="1.99563"/>
<feComposite in2="hardAlpha" operator="arithmetic" k2="-1" k3="1"/>
<feColorMatrix type="matrix" values="0 0 0 0 1 0 0 0 0 1 0 0 0 0 1 0 0 0 0.4 0"/>
<feBlend mode="normal" in2="effect1_innerShadow_4751_4757" result="effect2_innerShadow_4751_4757"/>
</filter>
<filter id="filter8_ii_4751_4757" x="71.5947" y="40.8479" width="6.84131" height="11.1895" filterUnits="userSpaceOnUse" color-interpolation-filters="sRGB">
<feFlood flood-opacity="0" result="BackgroundImageFix"/>
<feBlend mode="normal" in="SourceGraphic" in2="BackgroundImageFix" result="shape"/>
<feColorMatrix in="SourceAlpha" type="matrix" values="0 0 0 0 0 0 0 0 0 0 0 0 0 0 0 0 0 0 127 0" result="hardAlpha"/>
<feOffset dy="-3.99125"/>
<feGaussianBlur stdDeviation="2.99344"/>
<feComposite in2="hardAlpha" operator="arithmetic" k2="-1" k3="1"/>
<feColorMatrix type="matrix" values="0 0 0 0 0 0 0 0 0 0 0 0 0 0 0 0 0 0 0.2 0"/>
<feBlend mode="normal" in2="shape" result="effect1_innerShadow_4751_4757"/>
<feColorMatrix in="SourceAlpha" type="matrix" values="0 0 0 0 0 0 0 0 0 0 0 0 0 0 0 0 0 0 127 0" result="hardAlpha"/>
<feOffset dy="1.99563"/>
<feGaussianBlur stdDeviation="1.99563"/>
<feComposite in2="hardAlpha" operator="arithmetic" k2="-1" k3="1"/>
<feColorMatrix type="matrix" values="0 0 0 0 1 0 0 0 0 1 0 0 0 0 1 0 0 0 0.4 0"/>
<feBlend mode="normal" in2="effect1_innerShadow_4751_4757" result="effect2_innerShadow_4751_4757"/>
</filter>
<filter id="filter9_ii_4751_4757" x="78.0405" y="44.3798" width="6.84131" height="11.1895" filterUnits="userSpaceOnUse" color-interpolation-filters="sRGB">
<feFlood flood-opacity="0" result="BackgroundImageFix"/>
<feBlend mode="normal" in="SourceGraphic" in2="BackgroundImageFix" result="shape"/>
<feColorMatrix in="SourceAlpha" type="matrix" values="0 0 0 0 0 0 0 0 0 0 0 0 0 0 0 0 0 0 127 0" result="hardAlpha"/>
<feOffset dy="-3.99125"/>
<feGaussianBlur stdDeviation="2.99344"/>
<feComposite in2="hardAlpha" operator="arithmetic" k2="-1" k3="1"/>
<feColorMatrix type="matrix" values="0 0 0 0 0 0 0 0 0 0 0 0 0 0 0 0 0 0 0.2 0"/>
<feBlend mode="normal" in2="shape" result="effect1_innerShadow_4751_4757"/>
<feColorMatrix in="SourceAlpha" type="matrix" values="0 0 0 0 0 0 0 0 0 0 0 0 0 0 0 0 0 0 127 0" result="hardAlpha"/>
<feOffset dy="1.99563"/>
<feGaussianBlur stdDeviation="1.99563"/>
<feComposite in2="hardAlpha" operator="arithmetic" k2="-1" k3="1"/>
<feColorMatrix type="matrix" values="0 0 0 0 1 0 0 0 0 1 0 0 0 0 1 0 0 0 0.4 0"/>
<feBlend mode="normal" in2="effect1_innerShadow_4751_4757" result="effect2_innerShadow_4751_4757"/>
</filter>
<filter id="filter10_ii_4751_4757" x="132.218" y="157.912" width="5.20215" height="12.8284" filterUnits="userSpaceOnUse" color-interpolation-filters="sRGB">
<feFlood flood-opacity="0" result="BackgroundImageFix"/>
<feBlend mode="normal" in="SourceGraphic" in2="BackgroundImageFix" result="shape"/>
<feColorMatrix in="SourceAlpha" type="matrix" values="0 0 0 0 0 0 0 0 0 0 0 0 0 0 0 0 0 0 127 0" result="hardAlpha"/>
<feOffset dy="-3.99125"/>
<feGaussianBlur stdDeviation="2.99344"/>
<feComposite in2="hardAlpha" operator="arithmetic" k2="-1" k3="1"/>
<feColorMatrix type="matrix" values="0 0 0 0 0 0 0 0 0 0 0 0 0 0 0 0 0 0 0.2 0"/>
<feBlend mode="normal" in2="shape" result="effect1_innerShadow_4751_4757"/>
<feColorMatrix in="SourceAlpha" type="matrix" values="0 0 0 0 0 0 0 0 0 0 0 0 0 0 0 0 0 0 127 0" result="hardAlpha"/>
<feOffset dy="1.99563"/>
<feGaussianBlur stdDeviation="1.99563"/>
<feComposite in2="hardAlpha" operator="arithmetic" k2="-1" k3="1"/>
<feColorMatrix type="matrix" values="0 0 0 0 1 0 0 0 0 1 0 0 0 0 1 0 0 0 0.4 0"/>
<feBlend mode="normal" in2="effect1_innerShadow_4751_4757" result="effect2_innerShadow_4751_4757"/>
</filter>
<filter id="filter11_ii_4751_4757" x="105.316" y="177.176" width="8.45264" height="12.0723" filterUnits="userSpaceOnUse" color-interpolation-filters="sRGB">
<feFlood flood-opacity="0" result="BackgroundImageFix"/>
<feBlend mode="normal" in="SourceGraphic" in2="BackgroundImageFix" result="shape"/>
<feColorMatrix in="SourceAlpha" type="matrix" values="0 0 0 0 0 0 0 0 0 0 0 0 0 0 0 0 0 0 127 0" result="hardAlpha"/>
<feOffset dy="-3.99125"/>
<feGaussianBlur stdDeviation="2.99344"/>
<feComposite in2="hardAlpha" operator="arithmetic" k2="-1" k3="1"/>
<feColorMatrix type="matrix" values="0 0 0 0 0 0 0 0 0 0 0 0 0 0 0 0 0 0 0.2 0"/>
<feBlend mode="normal" in2="shape" result="effect1_innerShadow_4751_4757"/>
<feColorMatrix in="SourceAlpha" type="matrix" values="0 0 0 0 0 0 0 0 0 0 0 0 0 0 0 0 0 0 127 0" result="hardAlpha"/>
<feOffset dy="1.99563"/>
<feGaussianBlur stdDeviation="1.99563"/>
<feComposite in2="hardAlpha" operator="arithmetic" k2="-1" k3="1"/>
<feColorMatrix type="matrix" values="0 0 0 0 1 0 0 0 0 1 0 0 0 0 1 0 0 0 0.4 0"/>
<feBlend mode="normal" in2="effect1_innerShadow_4751_4757" result="effect2_innerShadow_4751_4757"/>
</filter>
<filter id="filter12_ii_4751_4757" x="139.27" y="77.9306" width="10.8696" height="13.3968" filterUnits="userSpaceOnUse" color-interpolation-filters="sRGB">
<feFlood flood-opacity="0" result="BackgroundImageFix"/>
<feBlend mode="normal" in="SourceGraphic" in2="BackgroundImageFix" result="shape"/>
<feColorMatrix in="SourceAlpha" type="matrix" values="0 0 0 0 0 0 0 0 0 0 0 0 0 0 0 0 0 0 127 0" result="hardAlpha"/>
<feOffset dy="-3.99125"/>
<feGaussianBlur stdDeviation="2.99344"/>
<feComposite in2="hardAlpha" operator="arithmetic" k2="-1" k3="1"/>
<feColorMatrix type="matrix" values="0 0 0 0 0 0 0 0 0 0 0 0 0 0 0 0 0 0 0.2 0"/>
<feBlend mode="normal" in2="shape" result="effect1_innerShadow_4751_4757"/>
<feColorMatrix in="SourceAlpha" type="matrix" values="0 0 0 0 0 0 0 0 0 0 0 0 0 0 0 0 0 0 127 0" result="hardAlpha"/>
<feOffset dy="1.99563"/>
<feGaussianBlur stdDeviation="1.99563"/>
<feComposite in2="hardAlpha" operator="arithmetic" k2="-1" k3="1"/>
<feColorMatrix type="matrix" values="0 0 0 0 1 0 0 0 0 1 0 0 0 0 1 0 0 0 0.4 0"/>
<feBlend mode="normal" in2="effect1_innerShadow_4751_4757" result="effect2_innerShadow_4751_4757"/>
</filter>
<filter id="filter13_ii_4751_4757" x="67.4501" y="156.427" width="10.8696" height="13.3968" filterUnits="userSpaceOnUse" color-interpolation-filters="sRGB">
<feFlood flood-opacity="0" result="BackgroundImageFix"/>
<feBlend mode="normal" in="SourceGraphic" in2="BackgroundImageFix" result="shape"/>
<feColorMatrix in="SourceAlpha" type="matrix" values="0 0 0 0 0 0 0 0 0 0 0 0 0 0 0 0 0 0 127 0" result="hardAlpha"/>
<feOffset dy="-3.99125"/>
<feGaussianBlur stdDeviation="2.99344"/>
<feComposite in2="hardAlpha" operator="arithmetic" k2="-1" k3="1"/>
<feColorMatrix type="matrix" values="0 0 0 0 0 0 0 0 0 0 0 0 0 0 0 0 0 0 0.2 0"/>
<feBlend mode="normal" in2="shape" result="effect1_innerShadow_4751_4757"/>
<feColorMatrix in="SourceAlpha" type="matrix" values="0 0 0 0 0 0 0 0 0 0 0 0 0 0 0 0 0 0 127 0" result="hardAlpha"/>
<feOffset dy="1.99563"/>
<feGaussianBlur stdDeviation="1.99563"/>
<feComposite in2="hardAlpha" operator="arithmetic" k2="-1" k3="1"/>
<feColorMatrix type="matrix" values="0 0 0 0 1 0 0 0 0 1 0 0 0 0 1 0 0 0 0.4 0"/>
<feBlend mode="normal" in2="effect1_innerShadow_4751_4757" result="effect2_innerShadow_4751_4757"/>
</filter>
<filter id="filter14_ii_4751_4757" x="84.3691" y="165.698" width="10.8696" height="13.3968" filterUnits="userSpaceOnUse" color-interpolation-filters="sRGB">
<feFlood flood-opacity="0" result="BackgroundImageFix"/>
<feBlend mode="normal" in="SourceGraphic" in2="BackgroundImageFix" result="shape"/>
<feColorMatrix in="SourceAlpha" type="matrix" values="0 0 0 0 0 0 0 0 0 0 0 0 0 0 0 0 0 0 127 0" result="hardAlpha"/>
<feOffset dy="-3.99125"/>
<feGaussianBlur stdDeviation="2.99344"/>
<feComposite in2="hardAlpha" operator="arithmetic" k2="-1" k3="1"/>
<feColorMatrix type="matrix" values="0 0 0 0 0 0 0 0 0 0 0 0 0 0 0 0 0 0 0.2 0"/>
<feBlend mode="normal" in2="shape" result="effect1_innerShadow_4751_4757"/>
<feColorMatrix in="SourceAlpha" type="matrix" values="0 0 0 0 0 0 0 0 0 0 0 0 0 0 0 0 0 0 127 0" result="hardAlpha"/>
<feOffset dy="1.99563"/>
<feGaussianBlur stdDeviation="1.99563"/>
<feComposite in2="hardAlpha" operator="arithmetic" k2="-1" k3="1"/>
<feColorMatrix type="matrix" values="0 0 0 0 1 0 0 0 0 1 0 0 0 0 1 0 0 0 0.4 0"/>
<feBlend mode="normal" in2="effect1_innerShadow_4751_4757" result="effect2_innerShadow_4751_4757"/>
</filter>
<filter id="filter15_ii_4751_4757" x="94.8422" y="171.437" width="10.8696" height="13.3968" filterUnits="userSpaceOnUse" color-interpolation-filters="sRGB">
<feFlood flood-opacity="0" result="BackgroundImageFix"/>
<feBlend mode="normal" in="SourceGraphic" in2="BackgroundImageFix" result="shape"/>
<feColorMatrix in="SourceAlpha" type="matrix" values="0 0 0 0 0 0 0 0 0 0 0 0 0 0 0 0 0 0 127 0" result="hardAlpha"/>
<feOffset dy="-3.99125"/>
<feGaussianBlur stdDeviation="2.99344"/>
<feComposite in2="hardAlpha" operator="arithmetic" k2="-1" k3="1"/>
<feColorMatrix type="matrix" values="0 0 0 0 0 0 0 0 0 0 0 0 0 0 0 0 0 0 0.2 0"/>
<feBlend mode="normal" in2="shape" result="effect1_innerShadow_4751_4757"/>
<feColorMatrix in="SourceAlpha" type="matrix" values="0 0 0 0 0 0 0 0 0 0 0 0 0 0 0 0 0 0 127 0" result="hardAlpha"/>
<feOffset dy="1.99563"/>
<feGaussianBlur stdDeviation="1.99563"/>
<feComposite in2="hardAlpha" operator="arithmetic" k2="-1" k3="1"/>
<feColorMatrix type="matrix" values="0 0 0 0 1 0 0 0 0 1 0 0 0 0 1 0 0 0 0.4 0"/>
<feBlend mode="normal" in2="effect1_innerShadow_4751_4757" result="effect2_innerShadow_4751_4757"/>
</filter>
<filter id="filter16_ii_4751_4757" x="101.404" y="57.1821" width="10.8696" height="13.3968" filterUnits="userSpaceOnUse" color-interpolation-filters="sRGB">
<feFlood flood-opacity="0" result="BackgroundImageFix"/>
<feBlend mode="normal" in="SourceGraphic" in2="BackgroundImageFix" result="shape"/>
<feColorMatrix in="SourceAlpha" type="matrix" values="0 0 0 0 0 0 0 0 0 0 0 0 0 0 0 0 0 0 127 0" result="hardAlpha"/>
<feOffset dy="-3.99125"/>
<feGaussianBlur stdDeviation="2.99344"/>
<feComposite in2="hardAlpha" operator="arithmetic" k2="-1" k3="1"/>
<feColorMatrix type="matrix" values="0 0 0 0 0 0 0 0 0 0 0 0 0 0 0 0 0 0 0.2 0"/>
<feBlend mode="normal" in2="shape" result="effect1_innerShadow_4751_4757"/>
<feColorMatrix in="SourceAlpha" type="matrix" values="0 0 0 0 0 0 0 0 0 0 0 0 0 0 0 0 0 0 127 0" result="hardAlpha"/>
<feOffset dy="1.99563"/>
<feGaussianBlur stdDeviation="1.99563"/>
<feComposite in2="hardAlpha" operator="arithmetic" k2="-1" k3="1"/>
<feColorMatrix type="matrix" values="0 0 0 0 1 0 0 0 0 1 0 0 0 0 1 0 0 0 0.4 0"/>
<feBlend mode="normal" in2="effect1_innerShadow_4751_4757" result="effect2_innerShadow_4751_4757"/>
</filter>
<filter id="filter17_ii_4751_4757" x="29.5844" y="135.678" width="10.8696" height="13.3968" filterUnits="userSpaceOnUse" color-interpolation-filters="sRGB">
<feFlood flood-opacity="0" result="BackgroundImageFix"/>
<feBlend mode="normal" in="SourceGraphic" in2="BackgroundImageFix" result="shape"/>
<feColorMatrix in="SourceAlpha" type="matrix" values="0 0 0 0 0 0 0 0 0 0 0 0 0 0 0 0 0 0 127 0" result="hardAlpha"/>
<feOffset dy="-3.99125"/>
<feGaussianBlur stdDeviation="2.99344"/>
<feComposite in2="hardAlpha" operator="arithmetic" k2="-1" k3="1"/>
<feColorMatrix type="matrix" values="0 0 0 0 0 0 0 0 0 0 0 0 0 0 0 0 0 0 0.2 0"/>
<feBlend mode="normal" in2="shape" result="effect1_innerShadow_4751_4757"/>
<feColorMatrix in="SourceAlpha" type="matrix" values="0 0 0 0 0 0 0 0 0 0 0 0 0 0 0 0 0 0 127 0" result="hardAlpha"/>
<feOffset dy="1.99563"/>
<feGaussianBlur stdDeviation="1.99563"/>
<feComposite in2="hardAlpha" operator="arithmetic" k2="-1" k3="1"/>
<feColorMatrix type="matrix" values="0 0 0 0 1 0 0 0 0 1 0 0 0 0 1 0 0 0 0.4 0"/>
<feBlend mode="normal" in2="effect1_innerShadow_4751_4757" result="effect2_innerShadow_4751_4757"/>
</filter>
<filter id="filter18_ii_4751_4757" x="159.705" y="100.854" width="7.40967" height="16.8567" filterUnits="userSpaceOnUse" color-interpolation-filters="sRGB">
<feFlood flood-opacity="0" result="BackgroundImageFix"/>
<feBlend mode="normal" in="SourceGraphic" in2="BackgroundImageFix" result="shape"/>
<feColorMatrix in="SourceAlpha" type="matrix" values="0 0 0 0 0 0 0 0 0 0 0 0 0 0 0 0 0 0 127 0" result="hardAlpha"/>
<feOffset dy="-3.99125"/>
<feGaussianBlur stdDeviation="2.99344"/>
<feComposite in2="hardAlpha" operator="arithmetic" k2="-1" k3="1"/>
<feColorMatrix type="matrix" values="0 0 0 0 0 0 0 0 0 0 0 0 0 0 0 0 0 0 0.2 0"/>
<feBlend mode="normal" in2="shape" result="effect1_innerShadow_4751_4757"/>
<feColorMatrix in="SourceAlpha" type="matrix" values="0 0 0 0 0 0 0 0 0 0 0 0 0 0 0 0 0 0 127 0" result="hardAlpha"/>
<feOffset dy="1.99563"/>
<feGaussianBlur stdDeviation="1.99563"/>
<feComposite in2="hardAlpha" operator="arithmetic" k2="-1" k3="1"/>
<feColorMatrix type="matrix" values="0 0 0 0 1 0 0 0 0 1 0 0 0 0 1 0 0 0 0.4 0"/>
<feBlend mode="normal" in2="effect1_innerShadow_4751_4757" result="effect2_innerShadow_4751_4757"/>
</filter>
<filter id="filter19_ii_4751_4757" x="128.797" y="72.1919" width="10.8696" height="13.3968" filterUnits="userSpaceOnUse" color-interpolation-filters="sRGB">
<feFlood flood-opacity="0" result="BackgroundImageFix"/>
<feBlend mode="normal" in="SourceGraphic" in2="BackgroundImageFix" result="shape"/>
<feColorMatrix in="SourceAlpha" type="matrix" values="0 0 0 0 0 0 0 0 0 0 0 0 0 0 0 0 0 0 127 0" result="hardAlpha"/>
<feOffset dy="-3.99125"/>
<feGaussianBlur stdDeviation="2.99344"/>
<feComposite in2="hardAlpha" operator="arithmetic" k2="-1" k3="1"/>
<feColorMatrix type="matrix" values="0 0 0 0 0 0 0 0 0 0 0 0 0 0 0 0 0 0 0.2 0"/>
<feBlend mode="normal" in2="shape" result="effect1_innerShadow_4751_4757"/>
<feColorMatrix in="SourceAlpha" type="matrix" values="0 0 0 0 0 0 0 0 0 0 0 0 0 0 0 0 0 0 127 0" result="hardAlpha"/>
<feOffset dy="1.99563"/>
<feGaussianBlur stdDeviation="1.99563"/>
<feComposite in2="hardAlpha" operator="arithmetic" k2="-1" k3="1"/>
<feColorMatrix type="matrix" values="0 0 0 0 1 0 0 0 0 1 0 0 0 0 1 0 0 0 0.4 0"/>
<feBlend mode="normal" in2="effect1_innerShadow_4751_4757" result="effect2_innerShadow_4751_4757"/>
</filter>
<filter id="filter20_ii_4751_4757" x="56.976" y="150.688" width="10.8696" height="13.3968" filterUnits="userSpaceOnUse" color-interpolation-filters="sRGB">
<feFlood flood-opacity="0" result="BackgroundImageFix"/>
<feBlend mode="normal" in="SourceGraphic" in2="BackgroundImageFix" result="shape"/>
<feColorMatrix in="SourceAlpha" type="matrix" values="0 0 0 0 0 0 0 0 0 0 0 0 0 0 0 0 0 0 127 0" result="hardAlpha"/>
<feOffset dy="-3.99125"/>
<feGaussianBlur stdDeviation="2.99344"/>
<feComposite in2="hardAlpha" operator="arithmetic" k2="-1" k3="1"/>
<feColorMatrix type="matrix" values="0 0 0 0 0 0 0 0 0 0 0 0 0 0 0 0 0 0 0.2 0"/>
<feBlend mode="normal" in2="shape" result="effect1_innerShadow_4751_4757"/>
<feColorMatrix in="SourceAlpha" type="matrix" values="0 0 0 0 0 0 0 0 0 0 0 0 0 0 0 0 0 0 127 0" result="hardAlpha"/>
<feOffset dy="1.99563"/>
<feGaussianBlur stdDeviation="1.99563"/>
<feComposite in2="hardAlpha" operator="arithmetic" k2="-1" k3="1"/>
<feColorMatrix type="matrix" values="0 0 0 0 1 0 0 0 0 1 0 0 0 0 1 0 0 0 0.4 0"/>
<feBlend mode="normal" in2="effect1_innerShadow_4751_4757" result="effect2_innerShadow_4751_4757"/>
</filter>
<filter id="filter21_ii_4751_4757" x="90.9311" y="51.4436" width="10.8696" height="13.3968" filterUnits="userSpaceOnUse" color-interpolation-filters="sRGB">
<feFlood flood-opacity="0" result="BackgroundImageFix"/>
<feBlend mode="normal" in="SourceGraphic" in2="BackgroundImageFix" result="shape"/>
<feColorMatrix in="SourceAlpha" type="matrix" values="0 0 0 0 0 0 0 0 0 0 0 0 0 0 0 0 0 0 127 0" result="hardAlpha"/>
<feOffset dy="-3.99125"/>
<feGaussianBlur stdDeviation="2.99344"/>
<feComposite in2="hardAlpha" operator="arithmetic" k2="-1" k3="1"/>
<feColorMatrix type="matrix" values="0 0 0 0 0 0 0 0 0 0 0 0 0 0 0 0 0 0 0.2 0"/>
<feBlend mode="normal" in2="shape" result="effect1_innerShadow_4751_4757"/>
<feColorMatrix in="SourceAlpha" type="matrix" values="0 0 0 0 0 0 0 0 0 0 0 0 0 0 0 0 0 0 127 0" result="hardAlpha"/>
<feOffset dy="1.99563"/>
<feGaussianBlur stdDeviation="1.99563"/>
<feComposite in2="hardAlpha" operator="arithmetic" k2="-1" k3="1"/>
<feColorMatrix type="matrix" values="0 0 0 0 1 0 0 0 0 1 0 0 0 0 1 0 0 0 0.4 0"/>
<feBlend mode="normal" in2="effect1_innerShadow_4751_4757" result="effect2_innerShadow_4751_4757"/>
</filter>
<filter id="filter22_ii_4751_4757" x="124.492" y="170.802" width="5.86475" height="14.0369" filterUnits="userSpaceOnUse" color-interpolation-filters="sRGB">
<feFlood flood-opacity="0" result="BackgroundImageFix"/>
<feBlend mode="normal" in="SourceGraphic" in2="BackgroundImageFix" result="shape"/>
<feColorMatrix in="SourceAlpha" type="matrix" values="0 0 0 0 0 0 0 0 0 0 0 0 0 0 0 0 0 0 127 0" result="hardAlpha"/>
<feOffset dy="-3.99125"/>
<feGaussianBlur stdDeviation="2.99344"/>
<feComposite in2="hardAlpha" operator="arithmetic" k2="-1" k3="1"/>
<feColorMatrix type="matrix" values="0 0 0 0 0 0 0 0 0 0 0 0 0 0 0 0 0 0 0.2 0"/>
<feBlend mode="normal" in2="shape" result="effect1_innerShadow_4751_4757"/>
<feColorMatrix in="SourceAlpha" type="matrix" values="0 0 0 0 0 0 0 0 0 0 0 0 0 0 0 0 0 0 127 0" result="hardAlpha"/>
<feOffset dy="1.99563"/>
<feGaussianBlur stdDeviation="1.99563"/>
<feComposite in2="hardAlpha" operator="arithmetic" k2="-1" k3="1"/>
<feColorMatrix type="matrix" values="0 0 0 0 1 0 0 0 0 1 0 0 0 0 1 0 0 0 0.4 0"/>
<feBlend mode="normal" in2="effect1_innerShadow_4751_4757" result="effect2_innerShadow_4751_4757"/>
</filter>
<filter id="filter23_ii_4751_4757" x="19.1103" y="129.939" width="10.8696" height="13.3968" filterUnits="userSpaceOnUse" color-interpolation-filters="sRGB">
<feFlood flood-opacity="0" result="BackgroundImageFix"/>
<feBlend mode="normal" in="SourceGraphic" in2="BackgroundImageFix" result="shape"/>
<feColorMatrix in="SourceAlpha" type="matrix" values="0 0 0 0 0 0 0 0 0 0 0 0 0 0 0 0 0 0 127 0" result="hardAlpha"/>
<feOffset dy="-3.99125"/>
<feGaussianBlur stdDeviation="2.99344"/>
<feComposite in2="hardAlpha" operator="arithmetic" k2="-1" k3="1"/>
<feColorMatrix type="matrix" values="0 0 0 0 0 0 0 0 0 0 0 0 0 0 0 0 0 0 0.2 0"/>
<feBlend mode="normal" in2="shape" result="effect1_innerShadow_4751_4757"/>
<feColorMatrix in="SourceAlpha" type="matrix" values="0 0 0 0 0 0 0 0 0 0 0 0 0 0 0 0 0 0 127 0" result="hardAlpha"/>
<feOffset dy="1.99563"/>
<feGaussianBlur stdDeviation="1.99563"/>
<feComposite in2="hardAlpha" operator="arithmetic" k2="-1" k3="1"/>
<feColorMatrix type="matrix" values="0 0 0 0 1 0 0 0 0 1 0 0 0 0 1 0 0 0 0.4 0"/>
<feBlend mode="normal" in2="effect1_innerShadow_4751_4757" result="effect2_innerShadow_4751_4757"/>
</filter>
<filter id="filter24_ii_4751_4757" x="149.744" y="83.6701" width="10.8696" height="13.3968" filterUnits="userSpaceOnUse" color-interpolation-filters="sRGB">
<feFlood flood-opacity="0" result="BackgroundImageFix"/>
<feBlend mode="normal" in="SourceGraphic" in2="BackgroundImageFix" result="shape"/>
<feColorMatrix in="SourceAlpha" type="matrix" values="0 0 0 0 0 0 0 0 0 0 0 0 0 0 0 0 0 0 127 0" result="hardAlpha"/>
<feOffset dy="-3.99125"/>
<feGaussianBlur stdDeviation="2.99344"/>
<feComposite in2="hardAlpha" operator="arithmetic" k2="-1" k3="1"/>
<feColorMatrix type="matrix" values="0 0 0 0 0 0 0 0 0 0 0 0 0 0 0 0 0 0 0.2 0"/>
<feBlend mode="normal" in2="shape" result="effect1_innerShadow_4751_4757"/>
<feColorMatrix in="SourceAlpha" type="matrix" values="0 0 0 0 0 0 0 0 0 0 0 0 0 0 0 0 0 0 127 0" result="hardAlpha"/>
<feOffset dy="1.99563"/>
<feGaussianBlur stdDeviation="1.99563"/>
<feComposite in2="hardAlpha" operator="arithmetic" k2="-1" k3="1"/>
<feColorMatrix type="matrix" values="0 0 0 0 1 0 0 0 0 1 0 0 0 0 1 0 0 0 0.4 0"/>
<feBlend mode="normal" in2="effect1_innerShadow_4751_4757" result="effect2_innerShadow_4751_4757"/>
</filter>
<filter id="filter25_ii_4751_4757" x="160.148" y="89.4035" width="7.43359" height="17.5533" filterUnits="userSpaceOnUse" color-interpolation-filters="sRGB">
<feFlood flood-opacity="0" result="BackgroundImageFix"/>
<feBlend mode="normal" in="SourceGraphic" in2="BackgroundImageFix" result="shape"/>
<feColorMatrix in="SourceAlpha" type="matrix" values="0 0 0 0 0 0 0 0 0 0 0 0 0 0 0 0 0 0 127 0" result="hardAlpha"/>
<feOffset dy="-3.99125"/>
<feGaussianBlur stdDeviation="2.99344"/>
<feComposite in2="hardAlpha" operator="arithmetic" k2="-1" k3="1"/>
<feColorMatrix type="matrix" values="0 0 0 0 0 0 0 0 0 0 0 0 0 0 0 0 0 0 0.2 0"/>
<feBlend mode="normal" in2="shape" result="effect1_innerShadow_4751_4757"/>
<feColorMatrix in="SourceAlpha" type="matrix" values="0 0 0 0 0 0 0 0 0 0 0 0 0 0 0 0 0 0 127 0" result="hardAlpha"/>
<feOffset dy="1.99563"/>
<feGaussianBlur stdDeviation="1.99563"/>
<feComposite in2="hardAlpha" operator="arithmetic" k2="-1" k3="1"/>
<feColorMatrix type="matrix" values="0 0 0 0 1 0 0 0 0 1 0 0 0 0 1 0 0 0 0.4 0"/>
<feBlend mode="normal" in2="effect1_innerShadow_4751_4757" result="effect2_innerShadow_4751_4757"/>
</filter>
<filter id="filter26_ii_4751_4757" x="113.515" y="177.936" width="12.2319" height="12.1092" filterUnits="userSpaceOnUse" color-interpolation-filters="sRGB">
<feFlood flood-opacity="0" result="BackgroundImageFix"/>
<feBlend mode="normal" in="SourceGraphic" in2="BackgroundImageFix" result="shape"/>
<feColorMatrix in="SourceAlpha" type="matrix" values="0 0 0 0 0 0 0 0 0 0 0 0 0 0 0 0 0 0 127 0" result="hardAlpha"/>
<feOffset dy="-3.99125"/>
<feGaussianBlur stdDeviation="2.99344"/>
<feComposite in2="hardAlpha" operator="arithmetic" k2="-1" k3="1"/>
<feColorMatrix type="matrix" values="0 0 0 0 0 0 0 0 0 0 0 0 0 0 0 0 0 0 0.2 0"/>
<feBlend mode="normal" in2="shape" result="effect1_innerShadow_4751_4757"/>
<feColorMatrix in="SourceAlpha" type="matrix" values="0 0 0 0 0 0 0 0 0 0 0 0 0 0 0 0 0 0 127 0" result="hardAlpha"/>
<feOffset dy="1.99563"/>
<feGaussianBlur stdDeviation="1.99563"/>
<feComposite in2="hardAlpha" operator="arithmetic" k2="-1" k3="1"/>
<feColorMatrix type="matrix" values="0 0 0 0 1 0 0 0 0 1 0 0 0 0 1 0 0 0 0.4 0"/>
<feBlend mode="normal" in2="effect1_innerShadow_4751_4757" result="effect2_innerShadow_4751_4757"/>
</filter>
<filter id="filter27_ii_4751_4757" x="77.9233" y="162.166" width="6.84131" height="11.1895" filterUnits="userSpaceOnUse" color-interpolation-filters="sRGB">
<feFlood flood-opacity="0" result="BackgroundImageFix"/>
<feBlend mode="normal" in="SourceGraphic" in2="BackgroundImageFix" result="shape"/>
<feColorMatrix in="SourceAlpha" type="matrix" values="0 0 0 0 0 0 0 0 0 0 0 0 0 0 0 0 0 0 127 0" result="hardAlpha"/>
<feOffset dy="-3.99125"/>
<feGaussianBlur stdDeviation="2.99344"/>
<feComposite in2="hardAlpha" operator="arithmetic" k2="-1" k3="1"/>
<feColorMatrix type="matrix" values="0 0 0 0 0 0 0 0 0 0 0 0 0 0 0 0 0 0 0.2 0"/>
<feBlend mode="normal" in2="shape" result="effect1_innerShadow_4751_4757"/>
<feColorMatrix in="SourceAlpha" type="matrix" values="0 0 0 0 0 0 0 0 0 0 0 0 0 0 0 0 0 0 127 0" result="hardAlpha"/>
<feOffset dy="1.99563"/>
<feGaussianBlur stdDeviation="1.99563"/>
<feComposite in2="hardAlpha" operator="arithmetic" k2="-1" k3="1"/>
<feColorMatrix type="matrix" values="0 0 0 0 1 0 0 0 0 1 0 0 0 0 1 0 0 0 0.4 0"/>
<feBlend mode="normal" in2="effect1_innerShadow_4751_4757" result="effect2_innerShadow_4751_4757"/>
</filter>
<filter id="filter28_ii_4751_4757" x="111.878" y="62.9211" width="10.8696" height="13.3968" filterUnits="userSpaceOnUse" color-interpolation-filters="sRGB">
<feFlood flood-opacity="0" result="BackgroundImageFix"/>
<feBlend mode="normal" in="SourceGraphic" in2="BackgroundImageFix" result="shape"/>
<feColorMatrix in="SourceAlpha" type="matrix" values="0 0 0 0 0 0 0 0 0 0 0 0 0 0 0 0 0 0 127 0" result="hardAlpha"/>
<feOffset dy="-3.99125"/>
<feGaussianBlur stdDeviation="2.99344"/>
<feComposite in2="hardAlpha" operator="arithmetic" k2="-1" k3="1"/>
<feColorMatrix type="matrix" values="0 0 0 0 0 0 0 0 0 0 0 0 0 0 0 0 0 0 0.2 0"/>
<feBlend mode="normal" in2="shape" result="effect1_innerShadow_4751_4757"/>
<feColorMatrix in="SourceAlpha" type="matrix" values="0 0 0 0 0 0 0 0 0 0 0 0 0 0 0 0 0 0 127 0" result="hardAlpha"/>
<feOffset dy="1.99563"/>
<feGaussianBlur stdDeviation="1.99563"/>
<feComposite in2="hardAlpha" operator="arithmetic" k2="-1" k3="1"/>
<feColorMatrix type="matrix" values="0 0 0 0 1 0 0 0 0 1 0 0 0 0 1 0 0 0 0.4 0"/>
<feBlend mode="normal" in2="effect1_innerShadow_4751_4757" result="effect2_innerShadow_4751_4757"/>
</filter>
<filter id="filter29_ii_4751_4757" x="40.0581" y="141.417" width="10.8696" height="13.3968" filterUnits="userSpaceOnUse" color-interpolation-filters="sRGB">
<feFlood flood-opacity="0" result="BackgroundImageFix"/>
<feBlend mode="normal" in="SourceGraphic" in2="BackgroundImageFix" result="shape"/>
<feColorMatrix in="SourceAlpha" type="matrix" values="0 0 0 0 0 0 0 0 0 0 0 0 0 0 0 0 0 0 127 0" result="hardAlpha"/>
<feOffset dy="-3.99125"/>
<feGaussianBlur stdDeviation="2.99344"/>
<feComposite in2="hardAlpha" operator="arithmetic" k2="-1" k3="1"/>
<feColorMatrix type="matrix" values="0 0 0 0 0 0 0 0 0 0 0 0 0 0 0 0 0 0 0.2 0"/>
<feBlend mode="normal" in2="shape" result="effect1_innerShadow_4751_4757"/>
<feColorMatrix in="SourceAlpha" type="matrix" values="0 0 0 0 0 0 0 0 0 0 0 0 0 0 0 0 0 0 127 0" result="hardAlpha"/>
<feOffset dy="1.99563"/>
<feGaussianBlur stdDeviation="1.99563"/>
<feComposite in2="hardAlpha" operator="arithmetic" k2="-1" k3="1"/>
<feColorMatrix type="matrix" values="0 0 0 0 1 0 0 0 0 1 0 0 0 0 1 0 0 0 0.4 0"/>
<feBlend mode="normal" in2="effect1_innerShadow_4751_4757" result="effect2_innerShadow_4751_4757"/>
</filter>
<filter id="filter30_ii_4751_4757" x="153.964" y="111.327" width="7.40967" height="16.8567" filterUnits="userSpaceOnUse" color-interpolation-filters="sRGB">
<feFlood flood-opacity="0" result="BackgroundImageFix"/>
<feBlend mode="normal" in="SourceGraphic" in2="BackgroundImageFix" result="shape"/>
<feColorMatrix in="SourceAlpha" type="matrix" values="0 0 0 0 0 0 0 0 0 0 0 0 0 0 0 0 0 0 127 0" result="hardAlpha"/>
<feOffset dy="-3.99125"/>
<feGaussianBlur stdDeviation="2.99344"/>
<feComposite in2="hardAlpha" operator="arithmetic" k2="-1" k3="1"/>
<feColorMatrix type="matrix" values="0 0 0 0 0 0 0 0 0 0 0 0 0 0 0 0 0 0 0.2 0"/>
<feBlend mode="normal" in2="shape" result="effect1_innerShadow_4751_4757"/>
<feColorMatrix in="SourceAlpha" type="matrix" values="0 0 0 0 0 0 0 0 0 0 0 0 0 0 0 0 0 0 127 0" result="hardAlpha"/>
<feOffset dy="1.99563"/>
<feGaussianBlur stdDeviation="1.99563"/>
<feComposite in2="hardAlpha" operator="arithmetic" k2="-1" k3="1"/>
<feColorMatrix type="matrix" values="0 0 0 0 1 0 0 0 0 1 0 0 0 0 1 0 0 0 0.4 0"/>
<feBlend mode="normal" in2="effect1_innerShadow_4751_4757" result="effect2_innerShadow_4751_4757"/>
</filter>
<filter id="filter31_ii_4751_4757" x="68.6689" y="28.0822" width="72.0215" height="45.0257" filterUnits="userSpaceOnUse" color-interpolation-filters="sRGB">
<feFlood flood-opacity="0" result="BackgroundImageFix"/>
<feBlend mode="normal" in="SourceGraphic" in2="BackgroundImageFix" result="shape"/>
<feColorMatrix in="SourceAlpha" type="matrix" values="0 0 0 0 0 0 0 0 0 0 0 0 0 0 0 0 0 0 127 0" result="hardAlpha"/>
<feOffset dy="-3.99125"/>
<feGaussianBlur stdDeviation="2.99344"/>
<feComposite in2="hardAlpha" operator="arithmetic" k2="-1" k3="1"/>
<feColorMatrix type="matrix" values="0 0 0 0 0 0 0 0 0 0 0 0 0 0 0 0 0 0 0.2 0"/>
<feBlend mode="normal" in2="shape" result="effect1_innerShadow_4751_4757"/>
<feColorMatrix in="SourceAlpha" type="matrix" values="0 0 0 0 0 0 0 0 0 0 0 0 0 0 0 0 0 0 127 0" result="hardAlpha"/>
<feOffset dy="3.99125"/>
<feGaussianBlur stdDeviation="1.99563"/>
<feComposite in2="hardAlpha" operator="arithmetic" k2="-1" k3="1"/>
<feColorMatrix type="matrix" values="0 0 0 0 1 0 0 0 0 1 0 0 0 0 1 0 0 0 0.4 0"/>
<feBlend mode="normal" in2="effect1_innerShadow_4751_4757" result="effect2_innerShadow_4751_4757"/>
</filter>
</defs>
</svg>
