<svg width="801" height="330" viewBox="0 0 801 330" fill="none" xmlns="http://www.w3.org/2000/svg">
<path d="M692.594 245.019H14.661L47.4975 168.718C-8.35757 168.718 -3.68516 133.036 5.86011 105.526L26.8902 46.4157C27.6765 44.2055 29.7705 42.731 32.1164 42.7357L229.769 43.1252C232.822 43.1312 235.293 45.6078 235.293 48.6607V56.0209L244.318 45.1382C245.369 43.87 246.931 43.1361 248.579 43.1361H589.195C592.331 43.1361 594.841 45.7393 594.727 48.8735L593.28 88.5131L612.769 46.3491C613.675 44.3902 615.636 43.1361 617.794 43.1361H662.518L678.242 3.49448C679.079 1.38506 681.118 0 683.388 0H730.633C734.516 0 737.192 3.89406 735.801 7.51931L722.129 43.1361H764.103C767.967 43.1361 770.643 46.9955 769.286 50.6142L697.777 241.426C696.968 243.587 694.902 245.019 692.594 245.019Z" fill="#535353"/>
<path d="M13.4141 248.64C13.4141 245.583 15.8924 243.105 18.9496 243.105H795.243C798.3 243.105 800.779 245.583 800.779 248.64V324.464C800.779 327.522 798.3 330 795.243 330H31.8658C21.6752 330 13.4141 321.739 13.4141 311.548V248.64Z" fill="#535353"/>
<path fill-rule="evenodd" clip-rule="evenodd" d="M500.043 200.571L487.229 232.56H437.467L505.001 54.8398L582.69 54.8399L547.146 232.56H497.675L509.273 200.571H500.043ZM518.189 166.527H509.273L533.101 112.895L518.189 166.527Z" fill="#F3F3F3"/>
<path d="M623.312 54.8397H675.105L655.107 122.071L701.509 54.8397H753.302L685.696 232.56H634.575L656.507 160.603L607.51 232.56H556.286L623.312 54.8397Z" fill="#F3F3F3"/>
<path d="M688.993 14.2178H717.123L703.962 47.0204H676.12L688.993 14.2178Z" fill="#F3F3F3"/>
<path d="M171.394 54.8397H223.187L203.189 122.071L249.591 54.8397H301.384L233.778 232.56H182.657L204.589 160.603L155.592 232.56H104.368L171.394 54.8397Z" fill="#F3F3F3"/>
<path d="M323.218 54.8398L307.888 95.772H364.758L315.601 232.56H366.886L413.504 95.772H470.462L484.689 54.8398H323.218Z" fill="#F3F3F3"/>
<path d="M87.6115 232.56H36.3265L65.7385 155.359H39.2657C21.9008 155.359 9.90373 137.985 16.0559 121.746L41.4042 54.8394H92.6892L69.8417 115.903C68.6118 119.19 71.0421 122.694 74.5518 122.694C76.6769 122.694 78.5726 121.358 79.2876 119.357L102.337 54.8394H153.622L87.6115 232.56Z" fill="#F3F3F3"/>
</svg>
