<svg width="31" height="23" viewBox="0 0 31 23" fill="none" xmlns="http://www.w3.org/2000/svg">
<path d="M29.5 12.5459C30.3284 12.5459 31 11.8743 31 11.0459C31 10.2175 30.3284 9.5459 29.5 9.5459L29.5 11.0459L29.5 12.5459ZM0.439416 9.98524C-0.14637 10.571 -0.14637 11.5208 0.439416 12.1066L9.98536 21.6525C10.5711 22.2383 11.5209 22.2383 12.1067 21.6525C12.6925 21.0667 12.6925 20.117 12.1067 19.5312L3.6214 11.0459L12.1067 2.56062C12.6925 1.97483 12.6925 1.02508 12.1067 0.439297C11.5209 -0.14649 10.5711 -0.14649 9.98536 0.439297L0.439416 9.98524ZM29.5 11.0459L29.5 9.5459L1.50008 9.5459L1.50008 11.0459L1.50008 12.5459L29.5 12.5459L29.5 11.0459Z" fill="#FAFAFA"/>
</svg>
