<svg width="493" height="306" viewBox="0 0 493 306" fill="none" xmlns="http://www.w3.org/2000/svg">
<g clip-path="url(#clip0_5318_3775)">
<path d="M202.624 152.943C200.935 152.943 199.435 152.659 198.124 152.09C196.821 151.522 195.798 150.746 195.056 149.761C194.321 148.768 193.957 147.643 193.965 146.386C193.957 145.409 194.17 144.511 194.601 143.693C195.033 142.875 195.617 142.193 196.351 141.647C197.094 141.094 197.92 140.742 198.829 140.59V140.431C197.632 140.166 196.662 139.556 195.92 138.602C195.185 137.64 194.821 136.53 194.829 135.272C194.821 134.075 195.154 133.007 195.829 132.068C196.503 131.128 197.427 130.39 198.601 129.852C199.776 129.306 201.117 129.034 202.624 129.034C204.117 129.034 205.446 129.306 206.613 129.852C207.787 130.39 208.711 131.128 209.385 132.068C210.067 133.007 210.408 134.075 210.408 135.272C210.408 136.53 210.033 137.64 209.283 138.602C208.541 139.556 207.582 140.166 206.408 140.431V140.59C207.317 140.742 208.135 141.094 208.863 141.647C209.598 142.193 210.181 142.875 210.613 143.693C211.052 144.511 211.272 145.409 211.272 146.386C211.272 147.643 210.901 148.768 210.158 149.761C209.416 150.746 208.393 151.522 207.09 152.09C205.795 152.659 204.306 152.943 202.624 152.943ZM202.624 149.693C203.495 149.693 204.253 149.545 204.897 149.25C205.541 148.946 206.041 148.522 206.397 147.977C206.753 147.431 206.935 146.803 206.942 146.09C206.935 145.348 206.742 144.693 206.363 144.125C205.992 143.549 205.48 143.098 204.829 142.772C204.185 142.446 203.45 142.284 202.624 142.284C201.791 142.284 201.048 142.446 200.397 142.772C199.745 143.098 199.23 143.549 198.851 144.125C198.48 144.693 198.298 145.348 198.306 146.09C198.298 146.803 198.473 147.431 198.829 147.977C199.185 148.515 199.685 148.935 200.329 149.238C200.98 149.541 201.745 149.693 202.624 149.693ZM202.624 139.09C203.336 139.09 203.965 138.946 204.51 138.659C205.064 138.371 205.499 137.969 205.817 137.454C206.135 136.939 206.298 136.344 206.306 135.67C206.298 135.003 206.139 134.42 205.829 133.92C205.518 133.412 205.086 133.022 204.533 132.75C203.98 132.469 203.344 132.329 202.624 132.329C201.889 132.329 201.242 132.469 200.681 132.75C200.128 133.022 199.696 133.412 199.385 133.92C199.082 134.42 198.935 135.003 198.942 135.67C198.935 136.344 199.086 136.939 199.397 137.454C199.715 137.962 200.151 138.363 200.704 138.659C201.264 138.946 201.904 139.09 202.624 139.09ZM221.69 153.068C219.819 153.068 218.213 152.594 216.872 151.647C215.538 150.693 214.512 149.318 213.792 147.522C213.08 145.719 212.724 143.549 212.724 141.011C212.732 138.473 213.091 136.314 213.804 134.534C214.523 132.746 215.55 131.382 216.883 130.443C218.224 129.503 219.826 129.034 221.69 129.034C223.554 129.034 225.156 129.503 226.497 130.443C227.838 131.382 228.864 132.746 229.576 134.534C230.296 136.321 230.656 138.481 230.656 141.011C230.656 143.556 230.296 145.731 229.576 147.534C228.864 149.329 227.838 150.7 226.497 151.647C225.163 152.594 223.561 153.068 221.69 153.068ZM221.69 149.511C223.144 149.511 224.292 148.795 225.133 147.363C225.982 145.924 226.406 143.806 226.406 141.011C226.406 139.162 226.213 137.609 225.826 136.352C225.44 135.094 224.894 134.147 224.19 133.511C223.485 132.867 222.652 132.545 221.69 132.545C220.243 132.545 219.099 133.265 218.258 134.704C217.417 136.136 216.993 138.238 216.985 141.011C216.978 142.867 217.163 144.428 217.542 145.693C217.929 146.958 218.474 147.912 219.179 148.556C219.883 149.193 220.72 149.511 221.69 149.511ZM244.955 148.261V147.034C244.955 146.132 245.144 145.303 245.523 144.545C245.909 143.787 246.47 143.178 247.205 142.715C247.939 142.253 248.83 142.022 249.875 142.022C250.951 142.022 251.852 142.253 252.58 142.715C253.307 143.17 253.856 143.776 254.227 144.534C254.606 145.291 254.795 146.125 254.795 147.034V148.261C254.795 149.162 254.606 149.992 254.227 150.75C253.849 151.507 253.292 152.117 252.557 152.579C251.83 153.041 250.936 153.272 249.875 153.272C248.814 153.272 247.917 153.041 247.182 152.579C246.447 152.117 245.89 151.507 245.511 150.75C245.14 149.992 244.955 149.162 244.955 148.261ZM247.92 147.034V148.261C247.92 148.859 248.064 149.409 248.352 149.909C248.64 150.409 249.148 150.659 249.875 150.659C250.61 150.659 251.114 150.412 251.386 149.92C251.667 149.42 251.807 148.867 251.807 148.261V147.034C251.807 146.428 251.674 145.875 251.409 145.375C251.144 144.867 250.633 144.613 249.875 144.613C249.163 144.613 248.659 144.867 248.364 145.375C248.068 145.875 247.92 146.428 247.92 147.034ZM233.125 134.943V133.715C233.125 132.806 233.318 131.973 233.705 131.215C234.091 130.458 234.652 129.852 235.386 129.397C236.121 128.935 237.011 128.704 238.057 128.704C239.125 128.704 240.023 128.935 240.75 129.397C241.485 129.852 242.038 130.458 242.409 131.215C242.78 131.973 242.966 132.806 242.966 133.715V134.943C242.966 135.852 242.777 136.685 242.398 137.443C242.027 138.193 241.474 138.795 240.739 139.25C240.004 139.704 239.11 139.931 238.057 139.931C236.989 139.931 236.087 139.704 235.352 139.25C234.625 138.795 234.072 138.189 233.693 137.431C233.314 136.674 233.125 135.844 233.125 134.943ZM236.114 133.715V134.943C236.114 135.549 236.254 136.102 236.534 136.602C236.822 137.094 237.33 137.34 238.057 137.34C238.784 137.34 239.284 137.094 239.557 136.602C239.837 136.102 239.977 135.549 239.977 134.943V133.715C239.977 133.109 239.845 132.556 239.58 132.056C239.314 131.549 238.807 131.295 238.057 131.295C237.337 131.295 236.833 131.549 236.545 132.056C236.258 132.564 236.114 133.117 236.114 133.715ZM234.42 152.625L250.42 129.352H253.261L237.261 152.625H234.42Z" fill="#B1B1B1"/>
<path d="M318.351 219.625V216.579L326.431 208.659C327.204 207.878 327.848 207.185 328.363 206.579C328.878 205.973 329.264 205.386 329.522 204.818C329.779 204.25 329.908 203.643 329.908 203C329.908 202.265 329.742 201.636 329.408 201.113C329.075 200.583 328.617 200.174 328.033 199.886C327.45 199.598 326.787 199.454 326.045 199.454C325.279 199.454 324.609 199.613 324.033 199.931C323.457 200.242 323.01 200.685 322.692 201.261C322.382 201.837 322.226 202.522 322.226 203.318H318.215C318.215 201.84 318.552 200.556 319.226 199.465C319.901 198.375 320.829 197.53 322.01 196.931C323.2 196.333 324.564 196.034 326.101 196.034C327.662 196.034 329.033 196.325 330.215 196.909C331.397 197.492 332.314 198.291 332.965 199.306C333.624 200.321 333.954 201.481 333.954 202.784C333.954 203.655 333.787 204.511 333.454 205.352C333.12 206.193 332.533 207.125 331.692 208.147C330.859 209.17 329.689 210.409 328.181 211.863L324.17 215.943V216.102H334.306V219.625H318.351ZM344.909 220.068C343.037 220.068 341.431 219.594 340.09 218.647C338.757 217.693 337.731 216.318 337.011 214.522C336.299 212.719 335.943 210.549 335.943 208.011C335.95 205.473 336.31 203.314 337.022 201.534C337.742 199.746 338.769 198.382 340.102 197.443C341.443 196.503 343.045 196.034 344.909 196.034C346.772 196.034 348.375 196.503 349.715 197.443C351.056 198.382 352.083 199.746 352.795 201.534C353.515 203.321 353.875 205.481 353.875 208.011C353.875 210.556 353.515 212.731 352.795 214.534C352.083 216.329 351.056 217.7 349.715 218.647C348.382 219.594 346.78 220.068 344.909 220.068ZM344.909 216.511C346.363 216.511 347.511 215.795 348.352 214.363C349.2 212.924 349.625 210.806 349.625 208.011C349.625 206.162 349.431 204.609 349.045 203.352C348.659 202.094 348.113 201.147 347.409 200.511C346.704 199.867 345.871 199.545 344.909 199.545C343.462 199.545 342.318 200.265 341.477 201.704C340.636 203.136 340.212 205.238 340.204 208.011C340.197 209.867 340.382 211.428 340.761 212.693C341.147 213.958 341.693 214.912 342.397 215.556C343.102 216.193 343.939 216.511 344.909 216.511ZM368.173 215.261V214.034C368.173 213.132 368.363 212.303 368.741 211.545C369.128 210.787 369.688 210.178 370.423 209.715C371.158 209.253 372.048 209.022 373.094 209.022C374.17 209.022 375.071 209.253 375.798 209.715C376.526 210.17 377.075 210.776 377.446 211.534C377.825 212.291 378.014 213.125 378.014 214.034V215.261C378.014 216.162 377.825 216.992 377.446 217.75C377.067 218.507 376.51 219.117 375.776 219.579C375.048 220.041 374.154 220.272 373.094 220.272C372.033 220.272 371.135 220.041 370.401 219.579C369.666 219.117 369.109 218.507 368.73 217.75C368.359 216.992 368.173 216.162 368.173 215.261ZM371.139 214.034V215.261C371.139 215.859 371.283 216.409 371.571 216.909C371.859 217.409 372.366 217.659 373.094 217.659C373.829 217.659 374.332 217.412 374.605 216.92C374.885 216.42 375.026 215.867 375.026 215.261V214.034C375.026 213.428 374.893 212.875 374.628 212.375C374.363 211.867 373.851 211.613 373.094 211.613C372.382 211.613 371.878 211.867 371.582 212.375C371.287 212.875 371.139 213.428 371.139 214.034ZM356.344 201.943V200.715C356.344 199.806 356.537 198.973 356.923 198.215C357.31 197.458 357.87 196.852 358.605 196.397C359.34 195.935 360.23 195.704 361.276 195.704C362.344 195.704 363.241 195.935 363.969 196.397C364.704 196.852 365.257 197.458 365.628 198.215C365.999 198.973 366.185 199.806 366.185 200.715V201.943C366.185 202.852 365.995 203.685 365.616 204.443C365.245 205.193 364.692 205.795 363.957 206.25C363.223 206.704 362.329 206.931 361.276 206.931C360.207 206.931 359.306 206.704 358.571 206.25C357.844 205.795 357.291 205.189 356.912 204.431C356.533 203.674 356.344 202.844 356.344 201.943ZM359.332 200.715V201.943C359.332 202.549 359.473 203.102 359.753 203.602C360.041 204.094 360.548 204.34 361.276 204.34C362.003 204.34 362.503 204.094 362.776 203.602C363.056 203.102 363.196 202.549 363.196 201.943V200.715C363.196 200.109 363.063 199.556 362.798 199.056C362.533 198.549 362.026 198.295 361.276 198.295C360.556 198.295 360.052 198.549 359.764 199.056C359.476 199.564 359.332 200.117 359.332 200.715ZM357.639 219.625L373.639 196.352H376.48L360.48 219.625H357.639Z" fill="#B1B1B1"/>
<g filter="url(#filter0_ii_5318_3775)">
<path d="M392.339 91.9918C400.171 82.7026 399.04 68.7323 389.09 61.7594C354.001 37.1703 312.992 22.076 270.072 18.1519C219.825 13.5579 169.379 24.4938 125.545 49.483C81.7118 74.4721 46.6026 112.311 24.9588 157.889C6.47077 196.822 -1.43145 239.8 1.85277 282.521C2.7841 294.635 14.2296 302.725 26.2129 300.718L43.9038 297.754C55.8871 295.747 63.835 284.393 63.2669 272.256C61.8554 242.098 67.8614 211.932 80.9083 184.458C97.1137 150.332 123.401 122.001 156.221 103.291C189.04 84.5804 226.811 76.3923 264.432 79.832C294.721 82.6013 323.738 92.8001 348.971 109.378C359.126 116.05 372.945 114.995 380.777 105.705L392.339 91.9918Z" fill="#F2F53A"/>
</g>
<g filter="url(#filter1_ii_5318_3775)">
<path d="M468.378 304.488C480.326 306.699 491.907 298.806 493.045 286.709C496.245 252.687 492.342 218.287 481.491 185.716C470.639 153.144 453.131 123.277 430.166 97.9716C422.001 88.9741 407.999 89.6039 399.765 98.5388L387.61 111.729C379.376 120.664 380.061 134.506 387.953 143.744C403.358 161.776 415.189 182.662 422.729 205.292C430.268 227.923 433.327 251.732 431.815 275.399C431.04 287.525 438.793 299.012 450.74 301.223L468.378 304.488Z" fill="#D4D4D4"/>
</g>
</g>
<defs>
<filter id="filter0_ii_5318_3775" x="1.12793" y="13.1279" width="396.355" height="293.896" filterUnits="userSpaceOnUse" color-interpolation-filters="sRGB">
<feFlood flood-opacity="0" result="BackgroundImageFix"/>
<feBlend mode="normal" in="SourceGraphic" in2="BackgroundImageFix" result="shape"/>
<feColorMatrix in="SourceAlpha" type="matrix" values="0 0 0 0 0 0 0 0 0 0 0 0 0 0 0 0 0 0 127 0" result="hardAlpha"/>
<feOffset dy="-4"/>
<feGaussianBlur stdDeviation="3"/>
<feComposite in2="hardAlpha" operator="arithmetic" k2="-1" k3="1"/>
<feColorMatrix type="matrix" values="0 0 0 0 0 0 0 0 0 0 0 0 0 0 0 0 0 0 0.2 0"/>
<feBlend mode="normal" in2="shape" result="effect1_innerShadow_5318_3775"/>
<feColorMatrix in="SourceAlpha" type="matrix" values="0 0 0 0 0 0 0 0 0 0 0 0 0 0 0 0 0 0 127 0" result="hardAlpha"/>
<feOffset dy="6"/>
<feGaussianBlur stdDeviation="3"/>
<feComposite in2="hardAlpha" operator="arithmetic" k2="-1" k3="1"/>
<feColorMatrix type="matrix" values="0 0 0 0 1 0 0 0 0 1 0 0 0 0 1 0 0 0 0.8 0"/>
<feBlend mode="normal" in2="effect1_innerShadow_5318_3775" result="effect2_innerShadow_5318_3775"/>
</filter>
<filter id="filter1_ii_5318_3775" x="381.729" y="87.5229" width="112.399" height="223.336" filterUnits="userSpaceOnUse" color-interpolation-filters="sRGB">
<feFlood flood-opacity="0" result="BackgroundImageFix"/>
<feBlend mode="normal" in="SourceGraphic" in2="BackgroundImageFix" result="shape"/>
<feColorMatrix in="SourceAlpha" type="matrix" values="0 0 0 0 0 0 0 0 0 0 0 0 0 0 0 0 0 0 127 0" result="hardAlpha"/>
<feOffset dy="-4"/>
<feGaussianBlur stdDeviation="3"/>
<feComposite in2="hardAlpha" operator="arithmetic" k2="-1" k3="1"/>
<feColorMatrix type="matrix" values="0 0 0 0 0 0 0 0 0 0 0 0 0 0 0 0 0 0 0.2 0"/>
<feBlend mode="normal" in2="shape" result="effect1_innerShadow_5318_3775"/>
<feColorMatrix in="SourceAlpha" type="matrix" values="0 0 0 0 0 0 0 0 0 0 0 0 0 0 0 0 0 0 127 0" result="hardAlpha"/>
<feOffset dy="6"/>
<feGaussianBlur stdDeviation="3"/>
<feComposite in2="hardAlpha" operator="arithmetic" k2="-1" k3="1"/>
<feColorMatrix type="matrix" values="0 0 0 0 1 0 0 0 0 1 0 0 0 0 1 0 0 0 0.8 0"/>
<feBlend mode="normal" in2="effect1_innerShadow_5318_3775" result="effect2_innerShadow_5318_3775"/>
</filter>
<clipPath id="clip0_5318_3775">
<rect width="493" height="306" fill="white"/>
</clipPath>
</defs>
</svg>
