<svg width="477" height="283" viewBox="0 0 477 283" fill="none" xmlns="http://www.w3.org/2000/svg">
<g clip-path="url(#clip0_5322_3792)">
<g filter="url(#filter0_ii_5322_3792)">
<rect x="354.707" y="218" width="123.089" height="65.2113" rx="22.6408" fill="#F2F53A"/>
</g>
<g filter="url(#filter1_ii_5322_3792)">
<rect y="218" width="346.766" height="65.2113" rx="22.6408" fill="#D4D4D4"/>
</g>
<path d="M94.8098 239.727V263H91.3326V239.727H94.8098ZM78.0485 263L85.503 250.818L78.5712 239.727H82.8667L88.6394 249.795H97.5826L103.31 239.727H107.594L100.685 250.841L108.094 263H103.992L98.1394 253.068H88.0371L82.1053 263H78.0485ZM113.948 258.239L121.641 245.545H125.301V263H121.971V250.295L114.312 263H110.619V245.545H113.948V258.239ZM128.195 258.386H131.672C131.717 259.098 132.039 259.648 132.638 260.034C133.244 260.42 134.028 260.614 134.99 260.614C135.967 260.614 136.801 260.405 137.49 259.989C138.179 259.564 138.524 258.909 138.524 258.023C138.524 257.492 138.392 257.03 138.126 256.636C137.869 256.235 137.501 255.924 137.024 255.705C136.554 255.485 135.998 255.375 135.354 255.375H132.513V252.705H135.354C136.316 252.705 137.036 252.485 137.513 252.045C137.99 251.606 138.229 251.057 138.229 250.398C138.229 249.686 137.971 249.114 137.456 248.682C136.948 248.242 136.24 248.023 135.331 248.023C134.407 248.023 133.638 248.231 133.024 248.648C132.411 249.057 132.089 249.587 132.058 250.239H128.626C128.649 249.261 128.945 248.405 129.513 247.67C130.089 246.928 130.861 246.352 131.831 245.943C132.808 245.527 133.918 245.318 135.161 245.318C136.456 245.318 137.577 245.527 138.524 245.943C139.471 246.36 140.202 246.936 140.717 247.67C141.24 248.405 141.501 249.25 141.501 250.205C141.501 251.167 141.214 251.955 140.638 252.568C140.07 253.174 139.327 253.61 138.411 253.875V254.057C139.085 254.102 139.683 254.307 140.206 254.67C140.729 255.034 141.138 255.515 141.433 256.114C141.729 256.712 141.876 257.39 141.876 258.148C141.876 259.216 141.581 260.14 140.99 260.92C140.407 261.701 139.596 262.303 138.558 262.727C137.528 263.144 136.35 263.352 135.024 263.352C133.736 263.352 132.581 263.152 131.558 262.75C130.543 262.341 129.736 261.765 129.138 261.023C128.547 260.28 128.232 259.402 128.195 258.386ZM156.574 252.807V255.75H147.12V252.807H156.574ZM148.074 245.545V263H144.745V245.545H148.074ZM158.949 245.545V263H155.631V245.545H158.949ZM165.412 251.545H170.48C172.616 251.545 174.26 252.076 175.412 253.136C176.563 254.197 177.139 255.564 177.139 257.239C177.139 258.33 176.881 259.311 176.366 260.182C175.851 261.053 175.097 261.742 174.105 262.25C173.113 262.75 171.904 263 170.48 263H162.855V245.545H166.184V260.068H170.48C171.457 260.068 172.26 259.814 172.889 259.307C173.518 258.792 173.832 258.136 173.832 257.341C173.832 256.5 173.518 255.814 172.889 255.284C172.26 254.746 171.457 254.477 170.48 254.477H165.412V251.545ZM188.137 263V245.545H195.376C197.346 245.545 198.906 245.966 200.058 246.807C201.209 247.64 201.785 248.773 201.785 250.205C201.785 251.227 201.459 252.038 200.808 252.636C200.156 253.235 199.293 253.636 198.217 253.841C198.997 253.932 199.713 254.167 200.365 254.545C201.016 254.917 201.539 255.417 201.933 256.045C202.334 256.674 202.535 257.424 202.535 258.295C202.535 259.22 202.297 260.038 201.819 260.75C201.342 261.455 200.649 262.008 199.74 262.409C198.838 262.803 197.751 263 196.478 263H188.137ZM191.331 260.159H196.478C197.319 260.159 197.978 259.958 198.456 259.557C198.933 259.155 199.172 258.61 199.172 257.92C199.172 257.11 198.933 256.473 198.456 256.011C197.978 255.542 197.319 255.307 196.478 255.307H191.331V260.159ZM191.331 252.818H195.41C196.047 252.818 196.592 252.727 197.047 252.545C197.509 252.364 197.861 252.106 198.103 251.773C198.353 251.432 198.478 251.03 198.478 250.568C198.478 249.894 198.202 249.367 197.649 248.989C197.096 248.61 196.338 248.42 195.376 248.42H191.331V252.818ZM213.145 263.352C211.425 263.352 209.944 262.985 208.702 262.25C207.467 261.508 206.513 260.466 205.838 259.125C205.172 257.777 204.838 256.197 204.838 254.386C204.838 252.598 205.172 251.023 205.838 249.659C206.513 248.295 207.452 247.231 208.657 246.466C209.869 245.701 211.285 245.318 212.907 245.318C213.891 245.318 214.846 245.481 215.77 245.807C216.694 246.133 217.524 246.644 218.259 247.341C218.994 248.038 219.573 248.943 219.997 250.057C220.422 251.163 220.634 252.508 220.634 254.091V255.295H206.759V252.75H217.304C217.304 251.856 217.122 251.064 216.759 250.375C216.395 249.678 215.884 249.129 215.225 248.727C214.573 248.326 213.808 248.125 212.929 248.125C211.975 248.125 211.141 248.36 210.429 248.83C209.725 249.292 209.179 249.898 208.793 250.648C208.414 251.39 208.225 252.197 208.225 253.068V255.057C208.225 256.223 208.429 257.216 208.838 258.034C209.255 258.852 209.835 259.477 210.577 259.909C211.319 260.333 212.187 260.545 213.179 260.545C213.823 260.545 214.41 260.455 214.941 260.273C215.471 260.083 215.929 259.803 216.316 259.432C216.702 259.061 216.997 258.602 217.202 258.057L220.418 258.636C220.16 259.583 219.698 260.413 219.032 261.125C218.372 261.83 217.543 262.379 216.543 262.773C215.55 263.159 214.418 263.352 213.145 263.352ZM248.775 260.068L248.457 268H245.127V263H242.957V260.068H248.775ZM223.764 245.545H227.093V260.057H233.127V245.545H236.457V260.057H242.491V245.545H245.821V263H223.764V245.545ZM255.047 258.239L262.74 245.545H266.399V263H263.07V250.295L255.411 263H251.717V245.545H255.047V258.239Z" fill="#B1B1B1"/>
<g filter="url(#filter2_ii_5322_3792)">
<path fill-rule="evenodd" clip-rule="evenodd" d="M377.674 177L445.347 0H328.513L259.243 177H377.674ZM325.296 143.96H337.488C338.313 143.96 339.054 143.453 339.353 142.684L381.083 35.1737C381.592 33.8628 380.624 32.45 379.218 32.45H368.578L325.296 143.96Z" fill="#F2F53A"/>
</g>
<g filter="url(#filter3_ii_5322_3792)">
<path d="M99.0498 69.3682L125.851 69.3857L115.637 95.9922L88.7979 96.126L78.8857 122H49.8857L59.9092 96.2705L33 96.4053L43.3926 69.332L70.3984 69.3496L79.8857 45H108.386L99.0498 69.3682Z" fill="#F2F53A"/>
</g>
<g filter="url(#filter4_ii_5322_3792)">
<path d="M198.776 0H273.995C288.149 0 297.825 14.2987 292.561 27.4374L256.107 118.437C253.067 126.025 245.715 131 237.541 131H197.789L192.516 144H217.189C231.263 144 240.935 158.151 235.823 171.264L233.587 177H115.364L139.574 115.334C142.58 107.678 149.966 102.643 158.191 102.643H207.832C208.656 102.643 209.395 102.138 209.695 101.371L235.877 34.3639C236.133 33.7082 235.649 33 234.945 33H223.898L207.839 73.5338H155.907L180.198 12.5944C183.229 4.9895 190.59 0 198.776 0Z" fill="#F2F53A"/>
</g>
</g>
<defs>
<filter id="filter0_ii_5322_3792" x="354.707" y="214" width="123.089" height="75.2114" filterUnits="userSpaceOnUse" color-interpolation-filters="sRGB">
<feFlood flood-opacity="0" result="BackgroundImageFix"/>
<feBlend mode="normal" in="SourceGraphic" in2="BackgroundImageFix" result="shape"/>
<feColorMatrix in="SourceAlpha" type="matrix" values="0 0 0 0 0 0 0 0 0 0 0 0 0 0 0 0 0 0 127 0" result="hardAlpha"/>
<feOffset dy="-4"/>
<feGaussianBlur stdDeviation="3"/>
<feComposite in2="hardAlpha" operator="arithmetic" k2="-1" k3="1"/>
<feColorMatrix type="matrix" values="0 0 0 0 0 0 0 0 0 0 0 0 0 0 0 0 0 0 0.2 0"/>
<feBlend mode="normal" in2="shape" result="effect1_innerShadow_5322_3792"/>
<feColorMatrix in="SourceAlpha" type="matrix" values="0 0 0 0 0 0 0 0 0 0 0 0 0 0 0 0 0 0 127 0" result="hardAlpha"/>
<feOffset dy="6"/>
<feGaussianBlur stdDeviation="3"/>
<feComposite in2="hardAlpha" operator="arithmetic" k2="-1" k3="1"/>
<feColorMatrix type="matrix" values="0 0 0 0 1 0 0 0 0 1 0 0 0 0 1 0 0 0 0.8 0"/>
<feBlend mode="normal" in2="effect1_innerShadow_5322_3792" result="effect2_innerShadow_5322_3792"/>
</filter>
<filter id="filter1_ii_5322_3792" x="0" y="214" width="346.767" height="75.2114" filterUnits="userSpaceOnUse" color-interpolation-filters="sRGB">
<feFlood flood-opacity="0" result="BackgroundImageFix"/>
<feBlend mode="normal" in="SourceGraphic" in2="BackgroundImageFix" result="shape"/>
<feColorMatrix in="SourceAlpha" type="matrix" values="0 0 0 0 0 0 0 0 0 0 0 0 0 0 0 0 0 0 127 0" result="hardAlpha"/>
<feOffset dy="-4"/>
<feGaussianBlur stdDeviation="3"/>
<feComposite in2="hardAlpha" operator="arithmetic" k2="-1" k3="1"/>
<feColorMatrix type="matrix" values="0 0 0 0 0 0 0 0 0 0 0 0 0 0 0 0 0 0 0.2 0"/>
<feBlend mode="normal" in2="shape" result="effect1_innerShadow_5322_3792"/>
<feColorMatrix in="SourceAlpha" type="matrix" values="0 0 0 0 0 0 0 0 0 0 0 0 0 0 0 0 0 0 127 0" result="hardAlpha"/>
<feOffset dy="6"/>
<feGaussianBlur stdDeviation="3"/>
<feComposite in2="hardAlpha" operator="arithmetic" k2="-1" k3="1"/>
<feColorMatrix type="matrix" values="0 0 0 0 1 0 0 0 0 1 0 0 0 0 1 0 0 0 0.8 0"/>
<feBlend mode="normal" in2="effect1_innerShadow_5322_3792" result="effect2_innerShadow_5322_3792"/>
</filter>
<filter id="filter2_ii_5322_3792" x="259.243" y="-4" width="186.104" height="187" filterUnits="userSpaceOnUse" color-interpolation-filters="sRGB">
<feFlood flood-opacity="0" result="BackgroundImageFix"/>
<feBlend mode="normal" in="SourceGraphic" in2="BackgroundImageFix" result="shape"/>
<feColorMatrix in="SourceAlpha" type="matrix" values="0 0 0 0 0 0 0 0 0 0 0 0 0 0 0 0 0 0 127 0" result="hardAlpha"/>
<feOffset dy="-4"/>
<feGaussianBlur stdDeviation="3"/>
<feComposite in2="hardAlpha" operator="arithmetic" k2="-1" k3="1"/>
<feColorMatrix type="matrix" values="0 0 0 0 0 0 0 0 0 0 0 0 0 0 0 0 0 0 0.2 0"/>
<feBlend mode="normal" in2="shape" result="effect1_innerShadow_5322_3792"/>
<feColorMatrix in="SourceAlpha" type="matrix" values="0 0 0 0 0 0 0 0 0 0 0 0 0 0 0 0 0 0 127 0" result="hardAlpha"/>
<feOffset dy="6"/>
<feGaussianBlur stdDeviation="3"/>
<feComposite in2="hardAlpha" operator="arithmetic" k2="-1" k3="1"/>
<feColorMatrix type="matrix" values="0 0 0 0 1 0 0 0 0 1 0 0 0 0 1 0 0 0 0.8 0"/>
<feBlend mode="normal" in2="effect1_innerShadow_5322_3792" result="effect2_innerShadow_5322_3792"/>
</filter>
<filter id="filter3_ii_5322_3792" x="33" y="41" width="92.8506" height="87" filterUnits="userSpaceOnUse" color-interpolation-filters="sRGB">
<feFlood flood-opacity="0" result="BackgroundImageFix"/>
<feBlend mode="normal" in="SourceGraphic" in2="BackgroundImageFix" result="shape"/>
<feColorMatrix in="SourceAlpha" type="matrix" values="0 0 0 0 0 0 0 0 0 0 0 0 0 0 0 0 0 0 127 0" result="hardAlpha"/>
<feOffset dy="-4"/>
<feGaussianBlur stdDeviation="3"/>
<feComposite in2="hardAlpha" operator="arithmetic" k2="-1" k3="1"/>
<feColorMatrix type="matrix" values="0 0 0 0 0 0 0 0 0 0 0 0 0 0 0 0 0 0 0.2 0"/>
<feBlend mode="normal" in2="shape" result="effect1_innerShadow_5322_3792"/>
<feColorMatrix in="SourceAlpha" type="matrix" values="0 0 0 0 0 0 0 0 0 0 0 0 0 0 0 0 0 0 127 0" result="hardAlpha"/>
<feOffset dy="6"/>
<feGaussianBlur stdDeviation="3"/>
<feComposite in2="hardAlpha" operator="arithmetic" k2="-1" k3="1"/>
<feColorMatrix type="matrix" values="0 0 0 0 1 0 0 0 0 1 0 0 0 0 1 0 0 0 0.8 0"/>
<feBlend mode="normal" in2="effect1_innerShadow_5322_3792" result="effect2_innerShadow_5322_3792"/>
</filter>
<filter id="filter4_ii_5322_3792" x="115.364" y="-4" width="178.651" height="187" filterUnits="userSpaceOnUse" color-interpolation-filters="sRGB">
<feFlood flood-opacity="0" result="BackgroundImageFix"/>
<feBlend mode="normal" in="SourceGraphic" in2="BackgroundImageFix" result="shape"/>
<feColorMatrix in="SourceAlpha" type="matrix" values="0 0 0 0 0 0 0 0 0 0 0 0 0 0 0 0 0 0 127 0" result="hardAlpha"/>
<feOffset dy="-4"/>
<feGaussianBlur stdDeviation="3"/>
<feComposite in2="hardAlpha" operator="arithmetic" k2="-1" k3="1"/>
<feColorMatrix type="matrix" values="0 0 0 0 0 0 0 0 0 0 0 0 0 0 0 0 0 0 0.2 0"/>
<feBlend mode="normal" in2="shape" result="effect1_innerShadow_5322_3792"/>
<feColorMatrix in="SourceAlpha" type="matrix" values="0 0 0 0 0 0 0 0 0 0 0 0 0 0 0 0 0 0 127 0" result="hardAlpha"/>
<feOffset dy="6"/>
<feGaussianBlur stdDeviation="3"/>
<feComposite in2="hardAlpha" operator="arithmetic" k2="-1" k3="1"/>
<feColorMatrix type="matrix" values="0 0 0 0 1 0 0 0 0 1 0 0 0 0 1 0 0 0 0.8 0"/>
<feBlend mode="normal" in2="effect1_innerShadow_5322_3792" result="effect2_innerShadow_5322_3792"/>
</filter>
<clipPath id="clip0_5322_3792">
<rect width="477" height="283" fill="white"/>
</clipPath>
</defs>
</svg>
