<svg width="477" height="281" viewBox="0 0 477 281" fill="none" xmlns="http://www.w3.org/2000/svg">
<g clip-path="url(#clip0_5323_3799)">
<g filter="url(#filter0_ii_5323_3799)">
<path d="M283.921 26.6929C286.357 14.9073 278.873 3.23953 266.93 1.75754C235.525 -2.13945 203.608 0.45068 173.053 9.46248C135.53 20.5294 101.207 40.9428 73.0952 68.9124C44.9831 96.8821 23.9403 131.553 11.8122 169.886C1.92091 201.149 -1.79418 234.068 0.802232 266.702C1.7735 278.909 13.3758 287.002 25.4285 284.834L41.1605 282.004C53.0246 279.869 60.8259 268.575 60.1915 256.538C58.9921 233.778 61.8793 210.92 68.7715 189.137C77.8521 160.436 93.6076 134.476 114.656 113.534C135.705 92.5926 161.403 77.3084 189.498 69.0223C210.428 62.8493 232.211 60.7006 253.774 62.6137C265.992 63.6978 277.827 56.1832 280.31 44.1707L283.921 26.6929Z" fill="#D4D4D4"/>
</g>
<g filter="url(#filter1_ii_5323_3799)">
<path d="M452.793 277.012C464.898 278.735 476.185 270.252 476.739 258.038C479.095 206.094 465.493 154.494 437.588 110.77C409.834 67.2837 369.58 34.1732 322.779 15.9027C311.325 11.4315 298.993 18.5187 295.84 30.4026L291.277 47.6002C288.198 59.2045 295.066 71.0065 306.124 75.6825C339.235 89.6844 367.683 113.724 387.564 144.875C407.529 176.157 417.715 212.825 417.042 249.956C416.823 262.028 425.036 273.059 436.989 274.761L452.793 277.012Z" fill="#F2F53A"/>
</g>
<g filter="url(#filter2_ii_5323_3799)">
<path fill-rule="evenodd" clip-rule="evenodd" d="M246.402 281L314.074 104H197.241L127.971 281H246.402ZM194.023 247.96H206.216C207.041 247.96 207.782 247.453 208.08 246.684L249.81 139.174C250.319 137.863 249.352 136.45 247.946 136.45H237.306L194.023 247.96Z" fill="#F2F53A"/>
</g>
<g filter="url(#filter3_ii_5323_3799)">
<path d="M18 211.913L58.8545 104H108.5L80.5494 179L92.0357 179.106C92.877 179.114 93.6332 178.594 93.9276 177.806L121.5 104H173L106.5 281H55L80.8622 211.913H18Z" fill="#F2F53A"/>
</g>
<g filter="url(#filter4_ii_5323_3799)">
<path fill-rule="evenodd" clip-rule="evenodd" d="M440.108 281.176H370.467L388.103 237H456.766L440.108 281.176ZM360.467 281H331.467L398.467 104H426.967L360.467 281ZM401.685 272.785H415.566L428.395 244.47H414.513L401.685 272.785ZM371.108 148.176H301.467L319.103 104H387.766L371.108 148.176ZM332.685 139.785H346.566L359.395 111.47H345.513L332.685 139.785Z" fill="#F2F53A"/>
</g>
</g>
<defs>
<filter id="filter0_ii_5323_3799" x="0" y="-4" width="284.381" height="295.186" filterUnits="userSpaceOnUse" color-interpolation-filters="sRGB">
<feFlood flood-opacity="0" result="BackgroundImageFix"/>
<feBlend mode="normal" in="SourceGraphic" in2="BackgroundImageFix" result="shape"/>
<feColorMatrix in="SourceAlpha" type="matrix" values="0 0 0 0 0 0 0 0 0 0 0 0 0 0 0 0 0 0 127 0" result="hardAlpha"/>
<feOffset dy="-4"/>
<feGaussianBlur stdDeviation="3"/>
<feComposite in2="hardAlpha" operator="arithmetic" k2="-1" k3="1"/>
<feColorMatrix type="matrix" values="0 0 0 0 0 0 0 0 0 0 0 0 0 0 0 0 0 0 0.2 0"/>
<feBlend mode="normal" in2="shape" result="effect1_innerShadow_5323_3799"/>
<feColorMatrix in="SourceAlpha" type="matrix" values="0 0 0 0 0 0 0 0 0 0 0 0 0 0 0 0 0 0 127 0" result="hardAlpha"/>
<feOffset dy="6"/>
<feGaussianBlur stdDeviation="3"/>
<feComposite in2="hardAlpha" operator="arithmetic" k2="-1" k3="1"/>
<feColorMatrix type="matrix" values="0 0 0 0 1 0 0 0 0 1 0 0 0 0 1 0 0 0 0.8 0"/>
<feBlend mode="normal" in2="effect1_innerShadow_5323_3799" result="effect2_innerShadow_5323_3799"/>
</filter>
<filter id="filter1_ii_5323_3799" x="290.539" y="10.5518" width="186.462" height="272.682" filterUnits="userSpaceOnUse" color-interpolation-filters="sRGB">
<feFlood flood-opacity="0" result="BackgroundImageFix"/>
<feBlend mode="normal" in="SourceGraphic" in2="BackgroundImageFix" result="shape"/>
<feColorMatrix in="SourceAlpha" type="matrix" values="0 0 0 0 0 0 0 0 0 0 0 0 0 0 0 0 0 0 127 0" result="hardAlpha"/>
<feOffset dy="-4"/>
<feGaussianBlur stdDeviation="3"/>
<feComposite in2="hardAlpha" operator="arithmetic" k2="-1" k3="1"/>
<feColorMatrix type="matrix" values="0 0 0 0 0 0 0 0 0 0 0 0 0 0 0 0 0 0 0.2 0"/>
<feBlend mode="normal" in2="shape" result="effect1_innerShadow_5323_3799"/>
<feColorMatrix in="SourceAlpha" type="matrix" values="0 0 0 0 0 0 0 0 0 0 0 0 0 0 0 0 0 0 127 0" result="hardAlpha"/>
<feOffset dy="6"/>
<feGaussianBlur stdDeviation="3"/>
<feComposite in2="hardAlpha" operator="arithmetic" k2="-1" k3="1"/>
<feColorMatrix type="matrix" values="0 0 0 0 1 0 0 0 0 1 0 0 0 0 1 0 0 0 0.8 0"/>
<feBlend mode="normal" in2="effect1_innerShadow_5323_3799" result="effect2_innerShadow_5323_3799"/>
</filter>
<filter id="filter2_ii_5323_3799" x="127.971" y="100" width="186.104" height="187" filterUnits="userSpaceOnUse" color-interpolation-filters="sRGB">
<feFlood flood-opacity="0" result="BackgroundImageFix"/>
<feBlend mode="normal" in="SourceGraphic" in2="BackgroundImageFix" result="shape"/>
<feColorMatrix in="SourceAlpha" type="matrix" values="0 0 0 0 0 0 0 0 0 0 0 0 0 0 0 0 0 0 127 0" result="hardAlpha"/>
<feOffset dy="-4"/>
<feGaussianBlur stdDeviation="3"/>
<feComposite in2="hardAlpha" operator="arithmetic" k2="-1" k3="1"/>
<feColorMatrix type="matrix" values="0 0 0 0 0 0 0 0 0 0 0 0 0 0 0 0 0 0 0.2 0"/>
<feBlend mode="normal" in2="shape" result="effect1_innerShadow_5323_3799"/>
<feColorMatrix in="SourceAlpha" type="matrix" values="0 0 0 0 0 0 0 0 0 0 0 0 0 0 0 0 0 0 127 0" result="hardAlpha"/>
<feOffset dy="6"/>
<feGaussianBlur stdDeviation="3"/>
<feComposite in2="hardAlpha" operator="arithmetic" k2="-1" k3="1"/>
<feColorMatrix type="matrix" values="0 0 0 0 1 0 0 0 0 1 0 0 0 0 1 0 0 0 0.8 0"/>
<feBlend mode="normal" in2="effect1_innerShadow_5323_3799" result="effect2_innerShadow_5323_3799"/>
</filter>
<filter id="filter3_ii_5323_3799" x="18" y="100" width="155" height="187" filterUnits="userSpaceOnUse" color-interpolation-filters="sRGB">
<feFlood flood-opacity="0" result="BackgroundImageFix"/>
<feBlend mode="normal" in="SourceGraphic" in2="BackgroundImageFix" result="shape"/>
<feColorMatrix in="SourceAlpha" type="matrix" values="0 0 0 0 0 0 0 0 0 0 0 0 0 0 0 0 0 0 127 0" result="hardAlpha"/>
<feOffset dy="-4"/>
<feGaussianBlur stdDeviation="3"/>
<feComposite in2="hardAlpha" operator="arithmetic" k2="-1" k3="1"/>
<feColorMatrix type="matrix" values="0 0 0 0 0 0 0 0 0 0 0 0 0 0 0 0 0 0 0.2 0"/>
<feBlend mode="normal" in2="shape" result="effect1_innerShadow_5323_3799"/>
<feColorMatrix in="SourceAlpha" type="matrix" values="0 0 0 0 0 0 0 0 0 0 0 0 0 0 0 0 0 0 127 0" result="hardAlpha"/>
<feOffset dy="6"/>
<feGaussianBlur stdDeviation="3"/>
<feComposite in2="hardAlpha" operator="arithmetic" k2="-1" k3="1"/>
<feColorMatrix type="matrix" values="0 0 0 0 1 0 0 0 0 1 0 0 0 0 1 0 0 0 0.8 0"/>
<feBlend mode="normal" in2="effect1_innerShadow_5323_3799" result="effect2_innerShadow_5323_3799"/>
</filter>
<filter id="filter4_ii_5323_3799" x="301.467" y="103.167" width="155.299" height="185.009" filterUnits="userSpaceOnUse" color-interpolation-filters="sRGB">
<feFlood flood-opacity="0" result="BackgroundImageFix"/>
<feBlend mode="normal" in="SourceGraphic" in2="BackgroundImageFix" result="shape"/>
<feColorMatrix in="SourceAlpha" type="matrix" values="0 0 0 0 0 0 0 0 0 0 0 0 0 0 0 0 0 0 127 0" result="hardAlpha"/>
<feOffset dy="-0.832794"/>
<feGaussianBlur stdDeviation="0.624596"/>
<feComposite in2="hardAlpha" operator="arithmetic" k2="-1" k3="1"/>
<feColorMatrix type="matrix" values="0 0 0 0 0 0 0 0 0 0 0 0 0 0 0 0 0 0 0.2 0"/>
<feBlend mode="normal" in2="shape" result="effect1_innerShadow_5323_3799"/>
<feColorMatrix in="SourceAlpha" type="matrix" values="0 0 0 0 0 0 0 0 0 0 0 0 0 0 0 0 0 0 127 0" result="hardAlpha"/>
<feOffset dy="7"/>
<feGaussianBlur stdDeviation="4.5"/>
<feComposite in2="hardAlpha" operator="arithmetic" k2="-1" k3="1"/>
<feColorMatrix type="matrix" values="0 0 0 0 1 0 0 0 0 1 0 0 0 0 1 0 0 0 0.8 0"/>
<feBlend mode="normal" in2="effect1_innerShadow_5323_3799" result="effect2_innerShadow_5323_3799"/>
</filter>
<clipPath id="clip0_5323_3799">
<rect width="477" height="281" fill="white"/>
</clipPath>
</defs>
</svg>
