<svg width="29" height="29" viewBox="0 0 29 29" fill="none" xmlns="http://www.w3.org/2000/svg">
<path d="M0.439317 25.7943C-0.146457 26.3801 -0.146437 27.3299 0.439362 27.9157C1.02516 28.5014 1.97491 28.5014 2.56068 27.9156L1.5 26.855L0.439317 25.7943ZM28.3539 1.49993C28.3539 0.671504 27.6823 -5.50661e-05 26.8539 -3.8856e-05L13.3539 0.000246347C12.5255 0.000263893 11.8539 0.671851 11.8539 1.50028C11.854 2.32871 12.5256 3.00026 13.354 3.00025L25.354 2.99999L25.3542 15C25.3543 15.8284 26.0258 16.5 26.8543 16.5C27.6827 16.4999 28.3543 15.8284 28.3542 14.9999L28.3539 1.49993ZM1.5 26.855L2.56068 27.9156L27.9146 2.5606L26.8539 1.49996L25.7933 0.439325L0.439317 25.7943L1.5 26.855Z" fill="#34444E"/>
</svg>
