<svg width="28" height="16" viewBox="0 0 28 16" fill="none" xmlns="http://www.w3.org/2000/svg">
<path d="M1.04102 6.61999C0.466551 6.61998 0.000847936 7.08568 0.000844836 7.66015C0.000841737 8.23462 0.46654 8.70032 1.04101 8.70033L1.04102 7.66016L1.04102 6.61999ZM27.6661 8.39581C28.0724 7.9896 28.0724 7.331 27.6662 6.92479L21.0466 0.305146C20.6404 -0.101068 19.9818 -0.101072 19.5756 0.305138C19.1693 0.711348 19.1693 1.36995 19.5755 1.77616L25.4596 7.66029L19.5755 13.5444C19.1693 13.9506 19.1693 14.6092 19.5755 15.0154C19.9817 15.4216 20.6403 15.4216 21.0465 15.0154L27.6661 8.39581ZM1.04102 7.66016L1.04101 8.70033L26.9306 8.70047L26.9306 7.6603L26.9306 6.62012L1.04102 6.61999L1.04102 7.66016Z" fill="white"/>
</svg>
