<svg width="348" height="143" viewBox="0 0 348 143" fill="none" xmlns="http://www.w3.org/2000/svg">
<path d="M26.3389 0.484853L0.350115 73.0743C0.179552 73.5507 0.532682 74.0522 1.0387 74.0522H245.902C246.202 74.0522 246.473 73.868 246.583 73.5879L257.419 45.9618C257.437 45.9168 257.45 45.8683 257.459 45.8206C259.83 32.2112 249.513 27.3992 243.137 26.9189C242.628 26.8806 242.277 26.3686 242.456 25.8905L251.774 0.987673C251.952 0.509617 251.599 0 251.089 0H27.0275C26.7186 0 26.443 0.194048 26.3389 0.484853Z" fill="#535353"/>
<path d="M93.7521 69.2157L67.3395 141.805C67.166 142.282 67.5192 142.787 68.0268 142.787H319.05C319.355 142.787 319.629 142.597 319.735 142.311L346.799 69.7213C346.978 69.2433 346.624 68.7344 346.114 68.7344H183.475C183.172 68.7344 182.901 68.9208 182.792 69.2032L181.525 72.4981C181.341 72.9761 180.736 73.122 180.354 72.7801L176.05 68.9212C175.916 68.8009 175.742 68.7344 175.562 68.7344H94.4394C94.1319 68.7344 93.8572 68.9267 93.7521 69.2157Z" fill="#535353"/>
<path fill-rule="evenodd" clip-rule="evenodd" d="M136.366 56.9335L131.752 68.3869H113.833L138.151 4.75684L166.127 4.75685L153.328 68.3869H135.514L139.69 56.9335H136.366ZM142.901 44.7445H139.69L148.27 25.5427L142.901 44.7445Z" fill="#F3F3F3"/>
<path d="M197.417 68.3864L220.614 4.75642L202.303 4.75635L193.633 28.9804H189.976L198.838 4.75635H180.547L157.35 68.3864H175.661L185.771 40.8479H189.245L179.106 68.3864H197.417Z" fill="#F3F3F3"/>
<path fill-rule="evenodd" clip-rule="evenodd" d="M202.044 68.4067L225.351 4.77671H243.805L233.859 32.2893H238.866C247.036 32.2893 252.704 40.4326 249.866 48.0942L245.179 60.7502C243.475 65.3521 239.086 68.4067 234.178 68.4067H202.044ZM224.947 56.0371L229.288 44.1632H231.997C232.536 44.1632 232.914 44.6962 232.734 45.2049L229.106 55.5147C228.996 55.8277 228.7 56.0371 228.368 56.0371H224.947Z" fill="#F3F3F3"/>
<path d="M42.8921 32.4396H61.0705L71.1269 4.75635H31.4496L8.41113 67.655H48.0885L57.7793 41.061H39.724L34.1636 55.981H29.3203L44.2057 16.5813H49.049L42.8921 32.4396Z" fill="#F3F3F3"/>
<path d="M75.2165 4.64502L69.9502 19.157H90.4185L72.7264 67.6537H91.1844L108.694 19.157H128.358L133.583 4.64502H75.2165Z" fill="#F3F3F3"/>
<path fill-rule="evenodd" clip-rule="evenodd" d="M143.77 73.9204L120.881 137.185H152.738C157.33 137.185 161.437 134.324 163.028 130.016L169.594 112.246C170.825 108.913 168.359 105.372 164.805 105.372L169.39 103.484C172.026 102.4 174.096 100.274 175.111 97.6113L178.471 88.7999C181.21 81.6187 175.906 73.9204 168.221 73.9204H143.77ZM149.923 116.187C150.07 115.741 149.738 115.283 149.269 115.283H146.735L142.639 127.179L145.764 127.196C146.081 127.198 146.364 126.995 146.463 126.694L149.923 116.187ZM158.181 83.6993L154.008 95.5846H157.309C157.596 95.5846 157.852 95.4066 157.953 95.1379L161.899 84.6303C162.068 84.1799 161.735 83.6993 161.254 83.6993H158.181Z" fill="#F3F3F3"/>
<path fill-rule="evenodd" clip-rule="evenodd" d="M203.833 137.073L227.296 73.8091H188.415L165.129 137.073H203.833ZM186.215 125.332H191.097L205.739 85.7062H200.856L186.215 125.332Z" fill="#F3F3F3"/>
<path d="M282.15 73.8089H300.8L300.069 97.2611L320.182 73.8089H338.832L315.584 137.439H297.176L305.92 111.676L292.755 121.259L287.452 111.676L277.557 137.439H259.111L282.15 73.8089Z" fill="#F3F3F3"/>
<path d="M110.641 101.419H128.806L139.059 73.7354H99.0015L75.9004 137.185H115.958L125.744 110.591H107.579L102.384 125.511H97.5409L111.589 85.5603H116.432L110.641 101.419Z" fill="#F3F3F3"/>
<path d="M231.431 73.8089H249.891L242.764 97.7418L259.302 73.8089H277.762L254.405 137.073H236.185L243.263 111.458L226.538 137.073H208.281L231.431 73.8089Z" fill="#F3F3F3"/>
<rect x="257.08" y="1.09717" width="66.5555" height="66.5555" rx="33.2778" fill="#535353"/>
<path d="M266.155 36.8637L276.174 39.7218C278.498 40.2443 280.766 38.5023 281.639 37.7783L297.578 26.689C298.877 26.0682 299.446 27.0971 298.716 27.9466L286.193 39.7218C284.076 41.6161 284.532 43.331 285.737 44.1804L297.692 52.1829C303.156 56.2985 305.206 52.9832 305.547 50.8111C306.913 41.9701 309.737 23.4194 310.101 19.944C310.43 16.8081 307.217 16.8192 305.547 17.4289C293.981 21.6522 271.211 31.8655 267.408 33.6627C264.608 34.9854 264.536 36.453 266.155 36.8637Z" fill="#EE36B0"/>
</svg>
