<svg width="650" height="557" viewBox="0 0 650 557" fill="none" xmlns="http://www.w3.org/2000/svg">
<path d="M187.979 280.139L57.3637 554.139C56.7309 555.467 57.6986 557 59.169 557H547.562C548.404 557 549.155 556.474 549.442 555.683L649.025 281.683C649.499 280.379 648.533 279 647.145 279H189.784C189.013 279 188.311 279.443 187.979 280.139Z" fill="#B1B1B1"/>
<path d="M362.36 279H14.038C12.6487 279 11.6826 277.618 12.1595 276.314L82.3857 84.1395C82.8625 82.8346 81.8965 81.453 80.5072 81.453H2.95476C1.53964 81.453 0.572118 80.0236 1.09796 78.7098L32.0987 1.25681C32.4026 0.497711 33.1379 0 33.9555 0H390.913C428.661 0 454.761 37.7422 441.437 73.061L364.231 277.706C363.937 278.485 363.192 279 362.36 279Z" fill="#B1B1B1"/>
<path d="M42.0656 14L21 69.9876H104.877L32.2744 265H104.138L177.728 69.9876H256.717L278 14H42.0656Z" fill="#F3F3F3"/>
<path fill-rule="evenodd" clip-rule="evenodd" d="M288.726 14L194 265H265.254L306.33 155.848H318.663C320.706 155.848 322.11 157.902 321.368 159.806L280.343 265H352.763L390.818 164.501C395.765 151.439 386.113 137.464 372.146 137.464L387.889 131.423C399.467 126.98 408.601 117.812 413.002 106.217L425.608 73.0004C436.423 44.5047 415.372 14 384.893 14H288.726ZM340.7 61.6322L322.912 108.74H338.685C339.897 108.74 340.981 107.988 341.405 106.853L356.839 65.5517C357.548 63.6542 356.145 61.6322 354.119 61.6322H340.7Z" fill="#F3F3F3"/>
<path fill-rule="evenodd" clip-rule="evenodd" d="M170.902 498.64L153.488 544H83L198.052 292H287L239.999 544H167.577L183.868 498.64H170.902ZM196.394 450.367H183.868L217.341 374.32L196.394 450.367Z" fill="#F3F3F3"/>
<path d="M389.986 402.1H459.175L498.8 292H344.383L249 544H405.617L446.49 436.84H377.301L355.038 496.96H335.646L395.245 338.2H414.637L389.986 402.1Z" fill="#F3F3F3"/>
<path d="M416.606 544H534.751L555.41 487.792H501.947L518.172 441.678H572.576L593.252 384.731H539.372L552.53 348.658H607.564L629 292H508.655L416.606 544Z" fill="#F3F3F3"/>
</svg>
