<svg width="595" height="600" viewBox="0 0 595 600" fill="none" xmlns="http://www.w3.org/2000/svg">
<path d="M37.8761 599.157V337.168H296.709" stroke="#34444E" stroke-width="74.1777"/>
<path d="M595 300.869C595 340.041 587.305 378.829 572.354 415.019C557.403 451.21 535.49 484.093 507.864 511.791C480.239 539.49 447.443 561.462 411.348 576.452C375.254 591.443 336.568 599.158 297.5 599.158C258.432 599.158 219.746 591.443 183.652 576.452C147.557 561.462 114.761 539.49 87.1357 511.791C59.5103 484.093 37.5966 451.21 22.6458 415.019C7.69506 378.829 -3.41546e-06 340.041 0 300.869H90.2144C90.2144 328.162 95.576 355.189 105.993 380.404C116.41 405.62 131.679 428.532 150.927 447.831C170.175 467.13 193.026 482.439 218.175 492.884C243.324 503.329 270.279 508.705 297.5 508.705C324.721 508.705 351.676 503.329 376.825 492.884C401.974 482.439 424.825 467.13 444.073 447.831C463.321 428.532 478.59 405.62 489.007 380.404C499.424 355.189 504.786 328.162 504.786 300.869H595Z" fill="#34444E"/>
<path d="M594.211 0.789062V597.367H0.789062V0.789062H594.211Z" stroke="#C0CDD5" stroke-width="1.57825"/>
<ellipse cx="84.9199" cy="38.4576" rx="84.9199" ry="38.4576" transform="matrix(0.871087 -0.49113 0.48347 0.875361 393.404 209.518)" fill="#34444E"/>
<ellipse cx="85.3663" cy="35.1086" rx="85.3663" ry="35.1086" transform="matrix(0.500088 -0.865975 0.861453 0.507838 332.949 174.641)" fill="#34444E"/>
<ellipse cx="85.5883" cy="31.4643" rx="85.5883" ry="31.4643" transform="matrix(0.0038639 -0.999993 0.999992 0.00394438 268.389 172.176)" fill="#34444E"/>
<ellipse cx="86.8696" cy="24.1929" rx="86.8696" ry="24.1929" transform="matrix(-0.538775 -0.84245 0.83735 -0.546668 224.992 198.805)" fill="#34444E"/>
<ellipse cx="85.6892" cy="19.8445" rx="85.6892" ry="19.8445" transform="matrix(-0.826914 -0.562328 0.554837 -0.831959 188.818 236.623)" fill="#34444E"/>
<circle cx="297.498" cy="300.08" r="126.26" stroke="#C0CDD5" stroke-width="1.57825"/>
<path d="M297.5 1.79102C461.365 1.79102 594.211 135.336 594.211 300.08C594.211 464.825 461.365 598.369 297.5 598.369C133.635 598.369 0.789062 464.825 0.789062 300.08C0.789112 135.336 133.635 1.79102 297.5 1.79102Z" stroke="#C0CDD5" stroke-width="1.57825"/>
</svg>
