<svg width="463" height="376" viewBox="0 0 463 376" fill="none" xmlns="http://www.w3.org/2000/svg">
<mask id="mask0_1025_363" style="mask-type:alpha" maskUnits="userSpaceOnUse" x="0" y="0" width="463" height="376">
<rect width="463" height="376" fill="#D9D9D9"/>
</mask>
<g mask="url(#mask0_1025_363)">
<mask id="mask1_1025_363" style="mask-type:alpha" maskUnits="userSpaceOnUse" x="-464" y="-376" width="928" height="752">
<rect x="-464" y="-376" width="928" height="752" fill="white"/>
</mask>
<g mask="url(#mask1_1025_363)">
<path d="M229.002 10.0507C228.123 8.81329 226.433 8.47233 225.142 9.27175L154.208 53.2046C153.329 53.7488 152.81 54.7225 152.847 55.7553L155.074 117.088C155.147 119.097 153.19 120.56 151.284 119.921L87.6989 98.6052C86.728 98.2797 85.6573 98.4948 84.8873 99.1698L13.0676 162.139C11.9828 163.09 11.77 164.698 12.57 165.898L50.9331 223.475C51.7041 224.632 53.1923 225.073 54.4688 224.521L106.216 202.169C107.567 201.585 109.14 202.115 109.863 203.396L191.344 347.753C192.188 349.248 194.144 349.676 195.535 348.671L341.529 243.185C342.852 242.228 343.116 240.363 342.108 239.077L242.976 112.59C242.036 111.391 242.193 109.668 243.334 108.659L275.639 80.0858C276.741 79.1111 276.93 77.4621 276.078 76.2631L229.002 10.0507Z" stroke="#FD6A06" stroke-width="2.87747"/>
<path d="M61.2763 200.148C60.6628 198.637 61.3872 196.914 62.8963 196.296L187.57 145.201C188.682 144.745 189.408 143.663 189.408 142.462V112.927C189.408 111.718 190.144 110.63 191.267 110.18L244.279 88.949C245.495 88.4623 246.885 88.8317 247.699 89.8574L263.057 109.222C263.861 110.235 265.23 110.609 266.437 110.146L391.019 62.3196C392.492 61.7542 394.15 62.4436 394.788 63.8868L423.455 128.779C424.033 130.088 423.593 131.622 422.409 132.425L344.173 185.488C342.706 186.483 342.436 188.535 343.596 189.875L460.586 325.029C461.914 326.563 461.34 328.947 459.461 329.709L202.638 433.866C200.752 434.631 198.674 433.308 198.57 431.275L189.598 256.114C189.501 254.212 187.657 252.895 185.826 253.421L96.2067 279.147C94.7521 279.565 93.2169 278.818 92.6476 277.416L61.2763 200.148Z" stroke="#00CB4E" stroke-width="2.36785"/>
<path d="M216.346 123.163C216.517 121.61 217.864 120.458 219.424 120.529L305.159 124.47C306.221 124.519 307.175 125.133 307.658 126.08L336.379 182.299C337.319 184.14 339.81 184.474 341.203 182.945L387.652 131.946C388.362 131.167 389.431 130.824 390.461 131.045L486.526 151.645C487.977 151.956 488.973 153.293 488.856 154.773L483.229 225.717C483.116 227.142 481.999 228.283 480.576 228.427L422.889 234.265C421.383 234.417 420.235 235.681 420.227 237.194L419.329 407.701C419.32 409.466 417.777 410.831 416.023 410.625L232.023 388.979C230.354 388.782 229.184 387.238 229.445 385.579L255.152 222.285C255.396 220.738 254.392 219.269 252.862 218.934L209.526 209.444C208.048 209.12 207.052 207.733 207.217 206.229L216.346 123.163Z" stroke="#9F5FE7" stroke-width="2.95981"/>
</g>
</g>
</svg>
