<svg width="1682" height="211" viewBox="0 0 1682 211" fill="none" xmlns="http://www.w3.org/2000/svg">
<path d="M2.95366 210.575H1602.05C1602.91 210.575 1603.69 210.035 1603.99 209.222L1680.95 2.80631C1681.46 1.44727 1680.46 0 1679.01 0H1216.52C1215.66 0 1214.89 0.529981 1214.58 1.33317L1210.98 10.7024C1210.46 12.0618 1208.73 12.4766 1207.65 11.5044L1195.41 0.531232C1195.03 0.189171 1194.53 0 1194.02 0H963.34C962.466 0 961.686 0.545495 961.386 1.36564L893.384 187.372C893.084 188.192 892.304 188.738 891.431 188.738H714.866C713.436 188.738 712.433 187.329 712.9 185.978L732.019 130.659C732.055 130.556 732.083 130.446 732.102 130.339C738.876 91.6059 709.522 77.9129 691.386 76.5467C689.939 76.4377 688.94 74.9818 689.449 73.6224L715.944 2.80855C716.453 1.44915 715.447 0 713.996 0H76.8555C75.9771 0 75.1935 0.551795 74.8974 1.37873L0.995588 207.794C0.510573 209.149 1.51476 210.575 2.95366 210.575Z" fill="#535353"/>
<path fill-rule="evenodd" clip-rule="evenodd" d="M387.768 161.895L374.647 194.464H323.693L392.845 13.5259L472.396 13.5259L436 194.464H385.344L397.22 161.895H387.768ZM406.35 127.235H397.22L421.619 72.6325L406.35 127.235Z" fill="#F3F3F3"/>
<path d="M561.374 194.464L627.337 13.5258L575.267 13.5256L550.615 82.4093H540.216L565.415 13.5256H513.402L447.438 194.464H499.508L528.257 116.156H538.136L509.304 194.464H561.374Z" fill="#F3F3F3"/>
<path fill-rule="evenodd" clip-rule="evenodd" d="M1102.88 13.5256L1037.8 193.424H1128.38C1141.44 193.424 1153.12 185.29 1157.65 173.039L1176.32 122.509C1179.82 113.03 1172.8 102.961 1162.7 102.961L1175.74 97.5939C1183.23 94.5091 1189.12 88.4656 1192.01 80.893L1201.56 55.837C1209.35 35.4165 1194.27 13.5256 1172.41 13.5256H1102.88ZM1120.38 133.714C1120.8 132.447 1119.85 131.143 1118.52 131.143H1111.31L1099.67 164.972L1108.55 165.021C1109.46 165.026 1110.26 164.449 1110.54 163.592L1120.38 133.714ZM1143.86 41.333L1132 75.1301H1141.38C1142.2 75.1301 1142.93 74.6239 1143.22 73.8598L1154.44 43.9802C1154.92 42.6996 1153.97 41.333 1152.6 41.333H1143.86Z" fill="#F3F3F3"/>
<path fill-rule="evenodd" clip-rule="evenodd" d="M1273.68 193.107L1340.4 13.208H1229.84L1163.62 193.107H1273.68ZM1223.58 159.72H1237.47L1279.1 47.0387H1265.21L1223.58 159.72Z" fill="#F3F3F3"/>
<path d="M1496.38 13.2078H1549.42L1547.34 79.8965L1604.53 13.2078H1657.56L1591.46 194.146H1539.11L1563.97 120.886L1526.54 148.136L1511.46 120.886L1483.32 194.146H1430.87L1496.38 13.2078Z" fill="#F3F3F3"/>
<path fill-rule="evenodd" clip-rule="evenodd" d="M574.531 194.521L640.806 13.5825H693.283L665 91.8175H679.238C702.471 91.8175 718.588 114.974 710.519 136.76L697.19 172.749C692.343 185.835 679.864 194.521 665.909 194.521H574.531ZM639.658 159.347L652.002 125.582H659.705C661.239 125.582 662.312 127.098 661.803 128.544L651.485 157.861C651.172 158.751 650.331 159.347 649.387 159.347H639.658Z" fill="#F3F3F3"/>
<path d="M121.967 92.2457H173.659L202.256 13.5256H89.4292L23.917 192.384H136.744L164.3 116.762H112.958L97.1466 159.188H83.3742L125.702 47.1511H139.475L121.967 92.2457Z" fill="#F3F3F3"/>
<path d="M1008.68 91.7186H1060.34L1089.49 12.9985H975.582L909.892 193.425H1023.8L1051.63 117.802H999.973L985.201 160.229H971.429L1011.38 46.624H1025.15L1008.68 91.7186Z" fill="#F3F3F3"/>
<path d="M213.883 13.208L198.908 54.4744H257.112L206.803 192.38H259.29L309.081 54.4744H364.997L379.855 13.208H213.883Z" fill="#F3F3F3"/>
<path d="M1352.16 13.2078H1404.65L1384.38 81.2636L1431.41 13.2078H1483.9L1417.49 193.106H1365.67L1385.8 120.268L1338.24 193.106H1286.33L1352.16 13.2078Z" fill="#F3F3F3"/>
<rect x="731.033" y="3.11963" width="189.257" height="189.257" rx="94.6287" fill="#535353"/>
<path d="M756.839 104.826L785.328 112.953C791.936 114.439 798.386 109.486 800.868 107.427L846.192 75.8935C849.886 74.1282 851.504 77.054 849.429 79.4694L813.817 112.953C807.799 118.34 809.094 123.217 812.522 125.632L846.515 148.388C862.055 160.091 867.882 150.664 868.854 144.487C872.738 119.347 880.767 66.5959 881.803 56.7133C882.738 47.7961 873.602 47.8275 868.854 49.5613C835.965 61.5707 771.216 90.6132 760.4 95.7238C752.439 99.4851 752.235 103.658 756.839 104.826Z" fill="#EE36B0"/>
</svg>
