<svg width="344" height="310" viewBox="0 0 344 310" fill="none" xmlns="http://www.w3.org/2000/svg">
<g filter="url(#filter0_ii_4571_3205)">
<path d="M1.84244 133.562C0.824889 131.602 1.58957 129.187 3.55041 128.17L125.694 64.7844L218.876 244.347L96.7327 307.732C94.7719 308.75 92.3574 307.985 91.3399 306.024L1.84244 133.562Z" fill="#EE36B0"/>
<path d="M125.694 64.784L246.982 1.84254C248.943 0.824983 251.358 1.58966 252.375 3.5505L341.873 176.013C342.89 177.973 342.126 180.388 340.165 181.405L218.876 244.347L125.694 64.784Z" fill="#EE36B0"/>
<g opacity="0.8" filter="url(#filter1_i_4571_3205)">
<rect x="146.475" y="71.3655" width="109.821" height="3.85336" rx="1.92668" transform="rotate(-27.4266 146.475 71.3655)" fill="#FEAAE1"/>
</g>
<rect opacity="0.8" x="20.7803" y="136.594" width="109.821" height="3.85336" rx="1.92668" transform="rotate(-27.4266 20.7803 136.594)" fill="#FEAAE1"/>
<rect opacity="0.8" x="42.9673" y="179.346" width="109.821" height="3.85336" rx="1.92668" transform="rotate(-27.4266 42.9673 179.346)" fill="#FEAAE1"/>
<rect opacity="0.8" x="65.1528" y="222.099" width="109.821" height="3.85336" rx="1.92668" transform="rotate(-27.4266 65.1528 222.099)" fill="#FEAAE1"/>
<g opacity="0.8" filter="url(#filter2_i_4571_3205)">
<rect x="163.779" y="104.713" width="109.821" height="3.85336" rx="1.92668" transform="rotate(-27.4266 163.779 104.713)" fill="#FEAAE1"/>
</g>
<rect opacity="0.8" x="35.4238" y="164.81" width="109.821" height="3.85336" rx="1.92668" transform="rotate(-27.4266 35.4238 164.81)" fill="#FEAAE1"/>
<rect opacity="0.8" x="57.6094" y="207.564" width="109.821" height="3.85336" rx="1.92668" transform="rotate(-27.4266 57.6094 207.564)" fill="#FEAAE1"/>
<rect opacity="0.8" x="79.7959" y="250.316" width="109.821" height="3.85336" rx="1.92668" transform="rotate(-27.4266 79.7959 250.316)" fill="#FEAAE1"/>
<g opacity="0.8" filter="url(#filter3_i_4571_3205)">
<rect x="159.342" y="96.1629" width="109.821" height="3.85336" rx="1.92668" transform="rotate(-27.4266 159.342 96.1629)" fill="#FEAAE1"/>
</g>
<rect opacity="0.8" x="31.8735" y="157.97" width="109.821" height="3.85336" rx="1.92668" transform="rotate(-27.4266 31.8735 157.97)" fill="#FEAAE1"/>
<rect opacity="0.8" x="54.0596" y="200.723" width="109.821" height="3.85336" rx="1.92668" transform="rotate(-27.4266 54.0596 200.723)" fill="#FEAAE1"/>
<rect opacity="0.8" x="76.2456" y="243.475" width="109.821" height="3.85336" rx="1.92668" transform="rotate(-27.4266 76.2456 243.475)" fill="#FEAAE1"/>
<g opacity="0.8" filter="url(#filter4_i_4571_3205)">
<rect x="167.773" y="112.408" width="109.821" height="4.81669" rx="2.40835" transform="rotate(-27.4266 167.773 112.408)" fill="#FEAAE1"/>
</g>
<rect opacity="0.8" x="38.9736" y="171.651" width="109.821" height="4.81669" rx="2.40835" transform="rotate(-27.4266 38.9736 171.651)" fill="#FEAAE1"/>
<rect opacity="0.8" x="61.1597" y="214.403" width="109.821" height="4.81669" rx="2.40835" transform="rotate(-27.4266 61.1597 214.403)" fill="#FEAAE1"/>
<rect opacity="0.8" x="83.3452" y="257.157" width="109.821" height="4.81669" rx="2.40835" transform="rotate(-27.4266 83.3452 257.157)" fill="#FEAAE1"/>
<g opacity="0.8" filter="url(#filter5_i_4571_3205)">
<rect x="154.905" y="87.6126" width="109.821" height="4.81669" rx="2.40835" transform="rotate(-27.4266 154.905 87.6126)" fill="#FEAAE1"/>
</g>
<rect opacity="0.8" x="27.8804" y="150.275" width="109.821" height="4.81669" rx="2.40835" transform="rotate(-27.4266 27.8804 150.275)" fill="#FEAAE1"/>
<rect opacity="0.8" x="50.0664" y="193.028" width="109.821" height="4.81669" rx="2.40835" transform="rotate(-27.4266 50.0664 193.028)" fill="#FEAAE1"/>
<rect opacity="0.8" x="72.2524" y="235.78" width="109.821" height="4.81669" rx="2.40835" transform="rotate(-27.4266 72.2524 235.78)" fill="#FEAAE1"/>
<g opacity="0.8" filter="url(#filter6_i_4571_3205)">
<rect x="150.912" y="79.9163" width="109.821" height="3.85336" rx="1.92668" transform="rotate(-27.4266 150.912 79.9163)" fill="#FEAAE1"/>
</g>
<rect opacity="0.8" x="24.3306" y="143.433" width="109.821" height="3.85336" rx="1.92668" transform="rotate(-27.4266 24.3306 143.433)" fill="#FEAAE1"/>
<rect opacity="0.8" x="46.5166" y="186.186" width="109.821" height="3.85336" rx="1.92668" transform="rotate(-27.4266 46.5166 186.186)" fill="#FEAAE1"/>
<rect opacity="0.8" x="68.7031" y="228.94" width="109.821" height="3.85336" rx="1.92668" transform="rotate(-27.4266 68.7031 228.94)" fill="#FEAAE1"/>
<rect x="175.284" y="124.791" width="108.857" height="109.821" transform="rotate(-27.4266 175.284 124.791)" fill="#FEAAE1"/>
</g>
<defs>
<filter id="filter0_ii_4571_3205" x="1.39209" y="-0.608111" width="340.931" height="312.791" filterUnits="userSpaceOnUse" color-interpolation-filters="sRGB">
<feFlood flood-opacity="0" result="BackgroundImageFix"/>
<feBlend mode="normal" in="SourceGraphic" in2="BackgroundImageFix" result="shape"/>
<feColorMatrix in="SourceAlpha" type="matrix" values="0 0 0 0 0 0 0 0 0 0 0 0 0 0 0 0 0 0 127 0" result="hardAlpha"/>
<feOffset dy="-2"/>
<feGaussianBlur stdDeviation="3"/>
<feComposite in2="hardAlpha" operator="arithmetic" k2="-1" k3="1"/>
<feColorMatrix type="matrix" values="0 0 0 0 0 0 0 0 0 0 0 0 0 0 0 0 0 0 0.25 0"/>
<feBlend mode="normal" in2="shape" result="effect1_innerShadow_4571_3205"/>
<feColorMatrix in="SourceAlpha" type="matrix" values="0 0 0 0 0 0 0 0 0 0 0 0 0 0 0 0 0 0 127 0" result="hardAlpha"/>
<feOffset dy="4"/>
<feGaussianBlur stdDeviation="2"/>
<feComposite in2="hardAlpha" operator="arithmetic" k2="-1" k3="1"/>
<feColorMatrix type="matrix" values="0 0 0 0 1 0 0 0 0 1 0 0 0 0 1 0 0 0 0.35 0"/>
<feBlend mode="normal" in2="effect1_innerShadow_4571_3205" result="effect2_innerShadow_4571_3205"/>
</filter>
<filter id="filter1_i_4571_3205" x="147.145" y="21.4515" width="97.9111" height="56.6636" filterUnits="userSpaceOnUse" color-interpolation-filters="sRGB">
<feFlood flood-opacity="0" result="BackgroundImageFix"/>
<feBlend mode="normal" in="SourceGraphic" in2="BackgroundImageFix" result="shape"/>
<feColorMatrix in="SourceAlpha" type="matrix" values="0 0 0 0 0 0 0 0 0 0 0 0 0 0 0 0 0 0 127 0" result="hardAlpha"/>
<feOffset dy="4"/>
<feGaussianBlur stdDeviation="2"/>
<feComposite in2="hardAlpha" operator="arithmetic" k2="-1" k3="1"/>
<feColorMatrix type="matrix" values="0 0 0 0 1 0 0 0 0 1 0 0 0 0 1 0 0 0 0.25 0"/>
<feBlend mode="normal" in2="shape" result="effect1_innerShadow_4571_3205"/>
</filter>
<filter id="filter2_i_4571_3205" x="164.45" y="54.7986" width="97.9111" height="56.6636" filterUnits="userSpaceOnUse" color-interpolation-filters="sRGB">
<feFlood flood-opacity="0" result="BackgroundImageFix"/>
<feBlend mode="normal" in="SourceGraphic" in2="BackgroundImageFix" result="shape"/>
<feColorMatrix in="SourceAlpha" type="matrix" values="0 0 0 0 0 0 0 0 0 0 0 0 0 0 0 0 0 0 127 0" result="hardAlpha"/>
<feOffset dy="4"/>
<feGaussianBlur stdDeviation="2"/>
<feComposite in2="hardAlpha" operator="arithmetic" k2="-1" k3="1"/>
<feColorMatrix type="matrix" values="0 0 0 0 1 0 0 0 0 1 0 0 0 0 1 0 0 0 0.25 0"/>
<feBlend mode="normal" in2="shape" result="effect1_innerShadow_4571_3205"/>
</filter>
<filter id="filter3_i_4571_3205" x="160.013" y="46.2488" width="97.9111" height="56.6636" filterUnits="userSpaceOnUse" color-interpolation-filters="sRGB">
<feFlood flood-opacity="0" result="BackgroundImageFix"/>
<feBlend mode="normal" in="SourceGraphic" in2="BackgroundImageFix" result="shape"/>
<feColorMatrix in="SourceAlpha" type="matrix" values="0 0 0 0 0 0 0 0 0 0 0 0 0 0 0 0 0 0 127 0" result="hardAlpha"/>
<feOffset dy="4"/>
<feGaussianBlur stdDeviation="2"/>
<feComposite in2="hardAlpha" operator="arithmetic" k2="-1" k3="1"/>
<feColorMatrix type="matrix" values="0 0 0 0 1 0 0 0 0 1 0 0 0 0 1 0 0 0 0.25 0"/>
<feBlend mode="normal" in2="shape" result="effect1_innerShadow_4571_3205"/>
</filter>
<filter id="filter4_i_4571_3205" x="168.611" y="62.6619" width="98.0195" height="57.1836" filterUnits="userSpaceOnUse" color-interpolation-filters="sRGB">
<feFlood flood-opacity="0" result="BackgroundImageFix"/>
<feBlend mode="normal" in="SourceGraphic" in2="BackgroundImageFix" result="shape"/>
<feColorMatrix in="SourceAlpha" type="matrix" values="0 0 0 0 0 0 0 0 0 0 0 0 0 0 0 0 0 0 127 0" result="hardAlpha"/>
<feOffset dy="4"/>
<feGaussianBlur stdDeviation="2"/>
<feComposite in2="hardAlpha" operator="arithmetic" k2="-1" k3="1"/>
<feColorMatrix type="matrix" values="0 0 0 0 1 0 0 0 0 1 0 0 0 0 1 0 0 0 0.25 0"/>
<feBlend mode="normal" in2="shape" result="effect1_innerShadow_4571_3205"/>
</filter>
<filter id="filter5_i_4571_3205" x="155.743" y="37.866" width="98.0195" height="57.1836" filterUnits="userSpaceOnUse" color-interpolation-filters="sRGB">
<feFlood flood-opacity="0" result="BackgroundImageFix"/>
<feBlend mode="normal" in="SourceGraphic" in2="BackgroundImageFix" result="shape"/>
<feColorMatrix in="SourceAlpha" type="matrix" values="0 0 0 0 0 0 0 0 0 0 0 0 0 0 0 0 0 0 127 0" result="hardAlpha"/>
<feOffset dy="4"/>
<feGaussianBlur stdDeviation="2"/>
<feComposite in2="hardAlpha" operator="arithmetic" k2="-1" k3="1"/>
<feColorMatrix type="matrix" values="0 0 0 0 1 0 0 0 0 1 0 0 0 0 1 0 0 0 0.25 0"/>
<feBlend mode="normal" in2="shape" result="effect1_innerShadow_4571_3205"/>
</filter>
<filter id="filter6_i_4571_3205" x="151.582" y="30.0022" width="97.9111" height="56.6636" filterUnits="userSpaceOnUse" color-interpolation-filters="sRGB">
<feFlood flood-opacity="0" result="BackgroundImageFix"/>
<feBlend mode="normal" in="SourceGraphic" in2="BackgroundImageFix" result="shape"/>
<feColorMatrix in="SourceAlpha" type="matrix" values="0 0 0 0 0 0 0 0 0 0 0 0 0 0 0 0 0 0 127 0" result="hardAlpha"/>
<feOffset dy="4"/>
<feGaussianBlur stdDeviation="2"/>
<feComposite in2="hardAlpha" operator="arithmetic" k2="-1" k3="1"/>
<feColorMatrix type="matrix" values="0 0 0 0 1 0 0 0 0 1 0 0 0 0 1 0 0 0 0.25 0"/>
<feBlend mode="normal" in2="shape" result="effect1_innerShadow_4571_3205"/>
</filter>
</defs>
</svg>
