<svg width="862" height="328" viewBox="0 0 862 328" fill="none" xmlns="http://www.w3.org/2000/svg">
<path d="M362.582 241.885H0L73.4812 43.4099C73.7685 42.6337 74.363 42.1165 75.1905 42.1063C92.8657 41.8879 294.866 39.4202 303.718 40.591C315.551 42.1562 322.017 45.9027 326.795 51.1359C327.79 52.2255 329.607 52.0505 330.268 50.7314L334.796 41.6951C335.135 41.0184 335.827 40.591 336.584 40.591H683.771C684.914 40.591 685.825 41.5486 685.768 42.691L684.998 58.0865C684.884 60.3586 688.047 61.0269 688.862 58.9028L695.396 41.8746C695.692 41.1014 696.435 40.591 697.263 40.591H747.99C748.817 40.591 749.559 40.0817 749.856 39.3097L764.498 1.28137C764.795 0.509337 765.537 0 766.365 0H824.176C825.549 0 826.513 1.35037 826.068 2.64847L813.971 37.9426C813.526 39.2407 814.491 40.591 815.863 40.591H859.149C860.536 40.591 861.502 41.9679 861.029 43.2718L789.562 240.681C789.276 241.473 788.524 242 787.682 242L452.525 242C451.111 242 450.144 240.573 450.667 239.259L479.865 166.03C480.429 164.614 479.256 163.108 477.738 163.237C456.428 165.043 445.727 157.044 440.995 149.961C439.86 148.263 436.319 148.326 435.678 150.265L418.473 202.324C409.618 230.078 386.425 241.885 362.582 241.885Z" fill="#535353"/>
<rect y="241" width="789" height="87" rx="2" fill="#535353"/>
<path d="M713 53H764L744.309 119.203L790 53H841L774.429 228H724.091L745.687 157.145L697.44 228H647L713 53Z" fill="#F3F3F3"/>
<path d="M777.676 13H805.376L792.415 45.3005H765L777.676 13Z" fill="#F3F3F3"/>
<path fill-rule="evenodd" clip-rule="evenodd" d="M589.618 196.5L577 228H528L594.5 53L671 53L636 228H587.287L598.707 196.5H589.618ZM607.487 162.977H598.707L622.171 110.167L607.487 162.977Z" fill="#F3F3F3"/>
<path d="M317.624 93.8008C324.813 74.5276 310.561 54 289.991 54H244.928C232.699 54 221.738 61.5473 217.376 72.9722L195.513 130.227H245.389L258.702 90.31C259.563 87.7279 261.98 85.9863 264.702 85.9863C269.079 85.9863 272.132 90.3253 270.655 94.4454L235.919 191.331C234.936 194.074 232.337 195.903 229.424 195.903C224.511 195.903 221.172 190.914 223.045 186.372L236.28 154.279H186.329L173.279 188.457C165.906 207.765 180.164 228.471 200.831 228.471H246.912C259.224 228.471 270.241 220.822 274.544 209.286L286.488 177.269C291.426 164.031 285.996 149.169 273.688 142.232L291.837 135.053C299.602 131.981 305.702 125.761 308.621 117.936L317.624 93.8008Z" fill="#F3F3F3"/>
<path d="M88 53H139L119.309 119.203L165 53H216L149.429 228H99.0907L120.687 157.145L72.4399 228H22L88 53Z" fill="#F3F3F3"/>
<path d="M454.5 54L402.752 196.612C395.698 216.054 377.228 229 356.545 229H280L294.594 188.488H333.388C345.66 188.488 356.649 180.889 360.982 169.408L367.393 152.419H344.565C325.866 152.419 312.935 133.724 319.534 116.227L343 54H393.477L372.409 114.226C371.403 117.102 373.537 120.11 376.584 120.11C378.438 120.11 380.095 118.954 380.736 117.214L404 54H454.5Z" fill="#F3F3F3"/>
<path d="M518.5 228H468L496.962 151.981H470.84C453.767 151.981 441.972 134.899 448.021 118.933L473 53H523.5L501.002 113.128C499.791 116.365 502.184 119.816 505.64 119.816C507.733 119.816 509.599 118.5 510.303 116.53L533 53H583.5L518.5 228Z" fill="#F3F3F3"/>
</svg>
