<svg width="430" height="210" viewBox="0 0 430 210" fill="none" xmlns="http://www.w3.org/2000/svg">
<g filter="url(#filter0_d_5487_3936)">
<path d="M16 32C16 23.1634 23.1634 16 32 16H397.631C410.883 16 418.391 31.1878 410.343 41.7165L368.303 96.7165C365.276 100.677 360.576 103 355.591 103H310V163C310 171.837 302.837 179 294 179H248.285C247.853 179 247.432 179.14 247.087 179.399L229.304 192.701C228.268 193.476 226.851 193.5 225.79 192.759L206.6 179.36C206.264 179.126 205.864 179 205.455 179H32C23.1634 179 16 171.837 16 163V32Z" fill="#535353"/>
</g>
<defs>
<filter id="filter0_d_5487_3936" x="0" y="0" width="429.661" height="209.299" filterUnits="userSpaceOnUse" color-interpolation-filters="sRGB">
<feFlood flood-opacity="0" result="BackgroundImageFix"/>
<feColorMatrix in="SourceAlpha" type="matrix" values="0 0 0 0 0 0 0 0 0 0 0 0 0 0 0 0 0 0 127 0" result="hardAlpha"/>
<feOffset/>
<feGaussianBlur stdDeviation="8"/>
<feComposite in2="hardAlpha" operator="out"/>
<feColorMatrix type="matrix" values="0 0 0 0 0 0 0 0 0 0 0 0 0 0 0 0 0 0 0.25 0"/>
<feBlend mode="normal" in2="BackgroundImageFix" result="effect1_dropShadow_5487_3936"/>
<feBlend mode="normal" in="SourceGraphic" in2="effect1_dropShadow_5487_3936" result="shape"/>
</filter>
</defs>
</svg>
