<svg width="90" height="90" viewBox="0 0 90 90" fill="none" xmlns="http://www.w3.org/2000/svg">
<g filter="url(#filter0_i_4634_3150)">
<circle cx="45" cy="45" r="45" fill="#008633"/>
</g>
<g filter="url(#filter1_i_4634_3150)">
<circle cx="45" cy="45" r="45" fill="#F3F3F3"/>
</g>
<path d="M23.9998 68.6934V48.0177H44.0674" stroke="#02973B" stroke-width="6.08108"/>
<path d="M67.492 45.0015C67.492 48.0744 66.9333 51.1172 65.8478 53.9563C64.7623 56.7953 63.1712 59.3749 61.1655 61.5478C59.1598 63.7207 56.7786 65.4443 54.158 66.6202C51.5373 67.7962 48.7285 68.4015 45.892 68.4015C43.0554 68.4015 40.2467 67.7962 37.626 66.6202C35.0054 65.4443 32.6242 63.7206 30.6185 61.5478C28.6127 59.3749 27.0217 56.7953 25.9362 53.9563C24.8507 51.1172 24.292 48.0744 24.292 45.0015H30.842C30.842 47.1426 31.2313 49.2627 31.9876 51.2408C32.744 53.2189 33.8525 55.0163 35.25 56.5302C36.6476 58.0442 38.3067 59.2452 40.1326 60.0645C41.9586 60.8839 43.9156 61.3056 45.892 61.3056C47.8684 61.3056 49.8254 60.8839 51.6514 60.0645C53.4773 59.2452 55.1364 58.0442 56.5339 56.5302C57.9315 55.0163 59.04 53.2189 59.7964 51.2408C60.5527 49.2627 60.942 47.1426 60.942 45.0015H67.492Z" fill="#02973B"/>
<mask id="path-5-inside-1_4634_3150" fill="white">
<ellipse cx="8.58719" cy="1.97256" rx="8.58719" ry="1.97256" transform="matrix(-0.866232 -0.499641 0.51838 -0.855151 41.2627 41.9312)"/>
</mask>
<ellipse cx="8.58719" cy="1.97256" rx="8.58719" ry="1.97256" transform="matrix(-0.866232 -0.499641 0.51838 -0.855151 41.2627 41.9312)" fill="#02973B"/>
<path d="M27.4082 31.6633L37.7703 37.6401C35.8883 40.7447 33.1182 42.1245 31.378 42.6777C29.7324 43.2008 28.4181 43.2019 27.8869 43.1856C26.809 43.1526 26.2737 42.9389 26.5862 43.0351C27.0221 43.1692 28.1561 43.6242 29.6683 44.4965L35.8693 34.267L42.0702 24.0375C39.4742 22.5401 36.6601 21.2275 34.0337 20.4193C32.8151 20.0443 30.9701 19.5658 28.8947 19.5021C27.8647 19.4705 26.1297 19.5149 24.1528 20.1433C22.0813 20.8018 19.0693 22.349 17.0462 25.6865L27.4082 31.6633ZM35.8693 34.267L29.6683 44.4965C31.1805 45.3687 32.1357 46.1187 32.4662 46.4266C32.7032 46.6474 32.2533 46.2929 31.7042 45.3874C31.4336 44.9413 30.8013 43.8173 30.4782 42.1587C30.1366 40.4047 30.0412 37.3721 31.9232 34.2675L42.2852 40.2443L52.6473 46.2211C54.6704 42.8836 54.6088 39.5636 54.2021 37.4757C53.814 35.4832 53.0179 33.9788 52.4932 33.1137C51.4359 31.3704 50.117 30.024 49.193 29.1631C47.2014 27.3077 44.6662 25.5349 42.0702 24.0375L35.8693 34.267ZM42.2852 40.2443L31.9232 34.2675C33.8052 31.1629 36.5752 29.7831 38.3155 29.2299C39.9611 28.7069 41.2754 28.7057 41.8065 28.722C42.8845 28.755 43.4198 28.9687 43.1072 28.8725C42.6713 28.7384 41.5373 28.2834 40.0251 27.4112L33.8242 37.6406L27.6232 47.8701C30.2192 49.3675 33.0334 50.6801 35.6598 51.4883C36.8784 51.8633 38.7233 52.3418 40.7988 52.4055C41.8287 52.4371 43.5637 52.3927 45.5406 51.7643C47.6121 51.1058 50.6241 49.5586 52.6473 46.2211L42.2852 40.2443ZM33.8242 37.6406L40.0251 27.4112C38.513 26.5389 37.5578 25.7889 37.2273 25.481C36.9903 25.2602 37.4401 25.6147 37.9893 26.5202C38.2599 26.9663 38.8921 28.0903 39.2152 29.7489C39.5569 31.5029 39.6522 34.5355 37.7703 37.6401L27.4082 31.6633L17.0462 25.6865C15.023 29.024 15.0846 32.344 15.4913 34.4319C15.8795 36.4245 16.6756 37.9288 17.2003 38.7939C18.2575 40.5372 19.5764 41.8836 20.5005 42.7445C22.4921 44.5999 25.0272 46.3728 27.6232 47.8701L33.8242 37.6406Z" fill="#02973B" mask="url(#path-5-inside-1_4634_3150)"/>
<mask id="path-7-inside-2_4634_3150" fill="white">
<ellipse cx="8.49257" cy="2.44284" rx="8.49257" ry="2.44284" transform="matrix(-0.552245 -0.833682 0.845976 -0.533221 42.7598 37.9541)"/>
</mask>
<ellipse cx="8.49257" cy="2.44284" rx="8.49257" ry="2.44284" transform="matrix(-0.552245 -0.833682 0.845976 -0.533221 42.7598 37.9541)" fill="#02973B"/>
<path d="M35.4464 22.4913L42.0525 32.464C39.6847 33.9564 37.2517 34.2822 35.4749 34.1963C33.8092 34.1158 32.5836 33.6811 31.9663 33.4232C31.3041 33.1466 30.8685 32.8731 30.6798 32.7476C30.5712 32.6754 30.4946 32.6189 30.4502 32.5849C30.4052 32.5504 30.3826 32.5311 30.3821 32.5307C30.3813 32.53 30.3966 32.5431 30.4275 32.5721C30.4581 32.6009 30.5006 32.642 30.5541 32.6965C30.6626 32.807 30.8023 32.958 30.9672 33.1515C31.301 33.5432 31.6868 34.0488 32.0832 34.6473L42.203 28.2688L52.3227 21.8904C50.5899 19.2746 48.4765 16.7205 46.1806 14.7572C45.0969 13.8305 43.4211 12.5558 41.2725 11.6582C39.5768 10.9498 34.2295 9.12188 28.8403 12.5186L35.4464 22.4913ZM42.203 28.2688L32.0832 34.6473C32.4797 35.2459 32.7937 35.7967 33.0226 36.2545C33.1357 36.4807 33.2194 36.6669 33.2782 36.8088C33.3071 36.8788 33.3281 36.9335 33.3424 36.9726C33.3568 37.0119 33.3628 37.0309 33.3624 37.0299C33.3623 37.0293 33.3535 37.0013 33.3398 36.9471C33.3263 36.8936 33.3049 36.8023 33.282 36.6761C33.2423 36.4567 33.1657 35.9569 33.1793 35.2544C33.1919 34.5994 33.2892 33.3308 33.8984 31.8165C34.5483 30.201 35.8525 28.1713 38.2203 26.6789L44.8263 36.6515L51.4324 46.6242C56.8215 43.2274 57.3104 37.7209 57.3451 35.9218C57.3891 33.6422 56.8863 31.6282 56.4655 30.2836C55.5741 27.4351 54.0554 24.5061 52.3227 21.8904L42.203 28.2688ZM44.8263 36.6515L38.2203 26.6789C40.5881 25.1864 43.021 24.8607 44.7979 24.9465C46.4635 25.027 47.6891 25.4618 48.3065 25.7197C48.9687 25.9963 49.4042 26.2698 49.593 26.3952C49.7016 26.4674 49.7781 26.524 49.8225 26.558C49.8676 26.5924 49.8902 26.6117 49.8906 26.6121C49.8915 26.6128 49.8761 26.5997 49.8453 26.5708C49.8146 26.542 49.7722 26.5009 49.7187 26.4463C49.6102 26.3358 49.4705 26.1848 49.3056 25.9913C48.9718 25.5996 48.586 25.094 48.1895 24.4955L38.0698 30.874L27.9501 37.2525C29.6828 39.8683 31.7962 42.4224 34.0922 44.3856C35.1759 45.3123 36.8516 46.587 39.0003 47.4847C40.6959 48.193 46.0433 50.021 51.4324 46.6242L44.8263 36.6515ZM38.0698 30.874L48.1895 24.4955C47.7931 23.897 47.479 23.3461 47.2501 22.8884C47.137 22.6622 47.0533 22.4759 46.9946 22.334C46.9656 22.264 46.9446 22.2094 46.9303 22.1703C46.9159 22.1309 46.91 22.1119 46.9103 22.113C46.9105 22.1135 46.9193 22.1415 46.933 22.1958C46.9465 22.2492 46.9678 22.3405 46.9907 22.4668C47.0304 22.6862 47.107 23.1859 47.0935 23.8885C47.0808 24.5434 46.9835 25.812 46.3743 27.3264C45.7244 28.9418 44.4202 30.9716 42.0525 32.464L35.4464 22.4913L28.8403 12.5186C23.4512 15.9154 22.9623 21.422 22.9276 23.221C22.8837 25.5006 23.3864 27.5147 23.8072 28.8592C24.6987 31.7077 26.2173 34.6367 27.9501 37.2525L38.0698 30.874Z" fill="#02973B" mask="url(#path-7-inside-2_4634_3150)"/>
<mask id="path-9-inside-3_4634_3150" fill="white">
<ellipse cx="8.42956" cy="3.20978" rx="8.42956" ry="3.20978" transform="matrix(0.00400214 -0.999992 0.999993 0.00380812 46.0532 34.8589)"/>
</mask>
<ellipse cx="8.42956" cy="3.20978" rx="8.42956" ry="3.20978" transform="matrix(0.00400214 -0.999992 0.999993 0.00380812 46.0532 34.8589)" fill="#02973B"/>
<path d="M49.3304 18.0121L49.2826 29.9742C45.1489 29.9585 42.597 27.7037 41.6549 26.6489C40.71 25.591 40.4068 24.7376 40.3941 24.7039C40.3373 24.5531 40.5494 25.153 40.5444 26.4083L52.5065 26.4538L64.4686 26.4994C64.4822 23.0992 63.9926 19.4816 62.7863 16.2755C62.1989 14.7141 61.209 12.6236 59.4994 10.7097C57.7927 8.79886 54.3984 6.06914 49.3783 6.05002L49.3304 18.0121ZM52.5065 26.4538L40.5444 26.4083C40.5393 27.6635 40.3225 28.2619 40.3804 28.1115C40.3934 28.0779 40.7034 27.2268 41.6568 26.1761C42.6074 25.1285 45.1771 22.8933 49.3109 22.909L49.263 34.8711L49.2151 46.8332C54.2352 46.8523 57.6512 44.1485 59.3732 42.2508C61.098 40.3499 62.1046 38.267 62.7046 36.7101C63.9364 33.5133 64.455 29.8996 64.4686 26.4994L52.5065 26.4538ZM49.263 34.8711L49.3109 22.909C53.4446 22.9248 55.9964 25.1795 56.9385 26.2343C57.8834 27.2922 58.1867 28.1456 58.1994 28.1794C58.2561 28.3301 58.044 27.7302 58.0491 26.4749L46.087 26.4294L34.1248 26.3838C34.1112 29.7841 34.6009 33.4016 35.8071 36.6077C36.3945 38.1691 37.3845 40.2596 39.094 42.1735C40.8007 44.0844 44.195 46.8141 49.2151 46.8332L49.263 34.8711ZM46.087 26.4294L58.0491 26.4749C58.0541 25.2197 58.2709 24.6214 58.213 24.7717C58.2 24.8054 57.89 25.6564 56.9366 26.7071C55.9861 27.7547 53.4163 29.99 49.2826 29.9742L49.3304 18.0121L49.3783 6.05002C44.3583 6.0309 40.9422 8.73469 39.2202 10.6325C37.4954 12.5333 36.4888 14.6162 35.8889 16.1731C34.657 19.3699 34.1385 22.9836 34.1248 26.3838L46.087 26.4294Z" fill="#02973B" mask="url(#path-9-inside-3_4634_3150)"/>
<mask id="path-11-inside-4_4634_3150" fill="white">
<ellipse cx="8.48392" cy="3.55006" rx="8.48392" ry="3.55006" transform="matrix(0.513326 -0.858193 0.869095 0.494645 51.6738 34.688)"/>
</mask>
<ellipse cx="8.48392" cy="3.55006" rx="8.48392" ry="3.55006" transform="matrix(0.513326 -0.858193 0.869095 0.494645 51.6738 34.688)" fill="#02973B"/>
<path d="M63.4692 21.8823L57.3287 32.1482C54.1493 30.3386 52.9859 27.58 52.6186 26.1516C52.2665 24.782 52.3994 23.8682 52.4145 23.7608C52.4523 23.4921 52.3949 24.013 51.8032 25.0021L62.1995 30.9192L72.5958 36.8362C74.4094 33.8042 75.8388 30.2917 76.3361 26.7522C76.581 25.0095 76.6869 22.6511 76.0372 20.1244C75.3724 17.539 73.6411 13.9109 69.6097 11.6164L63.4692 21.8823ZM62.1995 30.9192L51.8032 25.0021C51.2116 25.9912 50.7749 26.2963 50.9962 26.132C51.0846 26.0664 51.8347 25.5039 53.2303 25.129C54.6858 24.738 57.7203 24.3686 60.8997 26.1781L54.7592 36.444L48.6187 46.7099C52.6501 49.0044 56.7399 48.6894 59.3744 47.9817C61.949 47.2902 64.0018 46.0398 65.4366 44.9744C68.3508 42.8105 70.7822 39.8682 72.5958 36.8362L62.1995 30.9192ZM54.7592 36.444L60.8997 26.1781C64.0791 27.9877 65.2425 30.7464 65.6097 32.1747C65.9619 33.5444 65.829 34.4581 65.8139 34.5655C65.7761 34.8343 65.8335 34.3133 66.4251 33.3242L56.0288 27.4071L45.6326 21.4901C43.819 24.5221 42.3895 28.0346 41.8922 31.5741C41.6474 33.3168 41.5415 35.6753 42.1912 38.2019C42.8559 40.7873 44.5873 44.4154 48.6187 46.7099L54.7592 36.444ZM56.0288 27.4071L66.4251 33.3242C67.0168 32.3351 67.4535 32.03 67.2322 32.1943C67.1438 32.26 66.3937 32.8225 64.9981 33.1973C63.5426 33.5883 60.5081 33.9578 57.3287 32.1482L63.4692 21.8823L69.6097 11.6164C65.5783 9.32197 61.4885 9.63694 58.854 10.3446C56.2793 11.0361 54.2266 12.2865 52.7918 13.3519C49.8776 15.5159 47.4461 18.4581 45.6326 21.4901L56.0288 27.4071Z" fill="#02973B" mask="url(#path-11-inside-4_4634_3150)"/>
<mask id="path-13-inside-5_4634_3150" fill="white">
<ellipse cx="8.59175" cy="3.81978" rx="8.59175" ry="3.81978" transform="matrix(0.878308 -0.478095 0.496559 0.868003 57.606 37.4785)"/>
</mask>
<ellipse cx="8.59175" cy="3.81978" rx="8.59175" ry="3.81978" transform="matrix(0.878308 -0.478095 0.496559 0.868003 57.606 37.4785)" fill="#02973B"/>
<path d="M74.5951 32.5787L64.0886 38.2978C62.4184 35.3782 62.6645 32.621 63.0342 31.1788C63.3829 29.8182 63.9404 29.0798 64.0301 28.9619C64.2294 28.7 63.971 29.0933 63.0057 29.6188L68.9456 40.002L74.8856 50.3852C78.088 48.6421 81.178 46.2393 83.422 43.2908C84.5341 41.8295 85.788 39.7751 86.4466 37.2055C87.1261 34.5542 87.2956 30.6948 85.1016 26.8597L74.5951 32.5787ZM68.9456 40.002L63.0057 29.6188C62.0404 30.1442 61.5616 30.1522 61.8947 30.1243C62.0447 30.1117 62.9817 30.0366 64.3518 30.4615C65.8042 30.912 68.339 32.1554 70.0092 35.075L59.5027 40.7941L48.9962 46.5132C51.1902 50.3483 54.6463 52.2341 57.3162 53.0622C59.9039 53.8648 62.3547 53.9025 64.2136 53.7466C67.9644 53.432 71.6832 52.1284 74.8856 50.3852L68.9456 40.002ZM59.5027 40.7941L70.0092 35.075C71.6794 37.9946 71.4333 40.7518 71.0636 42.1941C70.7149 43.5546 70.1574 44.293 70.0677 44.411C69.8684 44.6728 70.1268 44.2795 71.0921 43.7541L65.1522 33.3708L59.2122 22.9876C56.0098 24.7308 52.9198 27.1335 50.6758 30.0821C49.5637 31.5433 48.3098 33.5978 47.6512 36.1674C46.9717 38.8187 46.8022 42.678 48.9962 46.5132L59.5027 40.7941ZM65.1522 33.3708L71.0921 43.7541C72.0574 43.2286 72.5362 43.2206 72.2031 43.2486C72.0531 43.2611 71.1161 43.3363 69.746 42.9113C68.2936 42.4609 65.7588 41.2174 64.0886 38.2978L74.5951 32.5787L85.1016 26.8597C82.9076 23.0245 79.4515 21.1387 76.7816 20.3106C74.1939 19.5081 71.7431 19.4703 69.8842 19.6262C66.1334 19.9408 62.4146 21.2444 59.2122 22.9876L65.1522 33.3708Z" fill="#02973B" mask="url(#path-13-inside-5_4634_3150)"/>
<defs>
<filter id="filter0_i_4634_3150" x="0" y="0" width="90" height="90" filterUnits="userSpaceOnUse" color-interpolation-filters="sRGB">
<feFlood flood-opacity="0" result="BackgroundImageFix"/>
<feBlend mode="normal" in="SourceGraphic" in2="BackgroundImageFix" result="shape"/>
<feColorMatrix in="SourceAlpha" type="matrix" values="0 0 0 0 0 0 0 0 0 0 0 0 0 0 0 0 0 0 127 0" result="hardAlpha"/>
<feOffset/>
<feGaussianBlur stdDeviation="2"/>
<feComposite in2="hardAlpha" operator="arithmetic" k2="-1" k3="1"/>
<feColorMatrix type="matrix" values="0 0 0 0 0 0 0 0 0 0 0 0 0 0 0 0 0 0 0.25 0"/>
<feBlend mode="normal" in2="shape" result="effect1_innerShadow_4634_3150"/>
</filter>
<filter id="filter1_i_4634_3150" x="0" y="0" width="90" height="90" filterUnits="userSpaceOnUse" color-interpolation-filters="sRGB">
<feFlood flood-opacity="0" result="BackgroundImageFix"/>
<feBlend mode="normal" in="SourceGraphic" in2="BackgroundImageFix" result="shape"/>
<feColorMatrix in="SourceAlpha" type="matrix" values="0 0 0 0 0 0 0 0 0 0 0 0 0 0 0 0 0 0 127 0" result="hardAlpha"/>
<feOffset/>
<feGaussianBlur stdDeviation="2"/>
<feComposite in2="hardAlpha" operator="arithmetic" k2="-1" k3="1"/>
<feColorMatrix type="matrix" values="0 0 0 0 0 0 0 0 0 0 0 0 0 0 0 0 0 0 0.25 0"/>
<feBlend mode="normal" in2="shape" result="effect1_innerShadow_4634_3150"/>
</filter>
</defs>
</svg>
