<svg width="377" height="98" viewBox="0 0 377 98" fill="none" xmlns="http://www.w3.org/2000/svg">
<path fill-rule="evenodd" clip-rule="evenodd" d="M279.023 97.7856H307.219L311.979 85.772H328.274L334.974 67.8912H319.063L323.97 55.5047H344.207C351.041 55.5047 357.153 51.2535 359.531 44.8469L367.998 22.0325C371.961 11.3553 364.063 0 352.675 0H315.874L290.289 67.8912H274.114L267.414 85.772H283.55L279.023 97.7856ZM336.091 19.0095L329.171 37.2571H335.336C335.79 37.2571 336.197 36.9754 336.356 36.5503L342.387 20.482C342.654 19.7696 342.127 19.0095 341.366 19.0095H336.091Z" fill="#B1B1B1"/>
<path d="M89.8123 21.1564C93.6673 10.9275 86.1079 0 75.1766 0H48.0687C41.6029 0 35.8036 3.97865 33.4764 10.0112L21.025 42.2873H48.979L56.4365 20.1544C56.9217 18.7143 58.2719 17.7444 59.7916 17.7444C62.2467 17.7444 63.9565 20.1823 63.1204 22.4907L43.5784 76.4416C43.0829 77.8096 41.7838 78.7208 40.3288 78.7208C37.9245 78.7208 36.2548 76.3268 37.0854 74.0706L43.8738 55.63H15.8777L8.20543 75.5179C4.25242 85.7648 11.8148 96.7878 22.7978 96.7878H50.4887C56.999 96.7878 62.8284 92.7551 65.1244 86.6631L72.0676 68.24C74.7989 60.9928 71.815 52.8381 65.0514 49.0651L64.8396 48.947L75.3693 44.8242C79.4939 43.2092 82.7404 39.921 84.3025 35.776L89.8123 21.1564Z" fill="#B1B1B1"/>
<path d="M113.839 0H164.639L144.084 53.0247C140.919 61.1894 133.062 66.5701 124.306 66.5701H99.64C97.8783 66.5701 96.4502 67.9982 96.4502 69.7599C96.4502 71.5216 97.8783 72.9497 99.64 72.9497H111.114C123.431 72.9497 131.949 85.2619 127.606 96.7878H65.856L82.7908 52.7013H117.034L128.902 22.5626C129.813 20.2489 128.107 17.7444 125.621 17.7444C124.16 17.7444 122.851 18.6449 122.328 20.0088L113.79 42.2873H86.7752L99.2493 10.0034C101.579 3.97495 107.376 0 113.839 0Z" fill="#B1B1B1"/>
<path fill-rule="evenodd" clip-rule="evenodd" d="M193.392 97.7856L229.497 0H169.666L132.709 97.7856H193.392ZM166.281 79.5323H173.795L196.887 17.9274H189.373L166.281 79.5323Z" fill="#B1B1B1"/>
<path fill-rule="evenodd" clip-rule="evenodd" d="M258.875 97.7856L295.353 0H234.905L197.567 97.7856H258.875ZM231.485 79.5323H239.076L262.407 17.9274H254.815L231.485 79.5323Z" fill="#B1B1B1"/>
</svg>
