<svg width="747" height="320" viewBox="0 0 747 320" fill="none" xmlns="http://www.w3.org/2000/svg">
<path d="M624.824 0L609.307 38.5814H557.942L523.713 136.872L541.512 38.5814H452.081H450.5H448.43H433.809L426.507 53.2791C422.856 47.3081 410.191 38.1221 397.869 38.1221L254 38.232L160.36 38.4115C158.866 38.4143 157.451 39.0854 156.503 40.2408L148.5 50L147.566 42.8021C147.243 40.3065 145.114 38.4403 142.598 38.4453L73.8598 38.5814L0 233H218L271 94H296L244.5 233H321.613L348.01 160.297H384.52L357.047 237H642.738L714.48 38.5814H663.578L677.97 0H624.824Z" fill="#535353"/>
<path fill-rule="evenodd" clip-rule="evenodd" d="M327.377 50L261 225H310.93L339.713 148.898L377.415 148.898C390.334 148.898 401.899 140.885 406.438 128.789L420.283 91.8882C427.887 71.622 412.906 50 391.26 50H327.377ZM363.796 83.2097L351.332 116.054H362.365C363.226 116.054 363.997 115.52 364.3 114.714L375.083 86.0028C375.59 84.6517 374.592 83.2097 373.148 83.2097H363.796Z" fill="#F3F3F3"/>
<path fill-rule="evenodd" clip-rule="evenodd" d="M440.618 193.5L428.411 225H379L459.649 50H522L489.054 225H438.287L449.707 193.5H440.618ZM458.487 159.977H449.707L473.171 107.167L458.487 159.977Z" fill="#F3F3F3"/>
<path d="M568.272 50H619.094L599.406 115.592L645.649 50H695.555L629.418 224H579.26L600.779 153.398L552.705 224H502.445L568.272 50Z" fill="#F3F3F3"/>
<path d="M634.558 11H662L649.16 43H622L634.558 11Z" fill="#F3F3F3"/>
<path d="M207.31 225H164.844L230.792 50H312.16L299.802 82.6271H260.513L207.31 225Z" fill="#F3F3F3"/>
<path d="M83.2718 50H134.482L114.709 116.475L160.589 50H211.799L144.953 225.721H94.4082L116.093 154.573L67.6476 225.721H17L83.2718 50Z" fill="#F3F3F3"/>
<rect x="0.480469" y="229.962" width="746" height="90" rx="2" fill="#535353"/>
</svg>
