<svg width="789" height="325" viewBox="0 0 789 325" fill="none" xmlns="http://www.w3.org/2000/svg">
<path d="M681.998 241.268H14.4365L46.7704 166.135C-8.22964 166.135 -3.62875 131 5.77041 103.911L26.4805 45.6997C27.2536 43.5267 29.3125 42.0769 31.6189 42.0815L226.26 42.4651C229.262 42.471 231.692 44.906 231.692 47.9076V55.1634L240.58 44.4443C241.614 43.1974 243.15 42.4758 244.77 42.4758H580.184C583.268 42.4758 585.736 45.0352 585.623 48.1168L584.199 87.1582L603.392 45.6348C604.282 43.7088 606.21 42.4758 608.332 42.4758H652.377L667.862 3.43576C668.685 1.36179 670.69 0 672.921 0H719.461C723.279 0 725.91 3.82859 724.542 7.39292L711.075 42.4758H752.419C756.218 42.4758 758.848 46.2704 757.515 49.8282L687.094 237.735C686.298 239.86 684.267 241.268 681.998 241.268Z" fill="#B7B7B7"/>
<path d="M13.209 244.826C13.209 241.82 15.6457 239.384 18.6515 239.384H783.079C786.085 239.384 788.521 241.82 788.521 244.826V319.506C788.521 322.512 786.085 324.949 783.079 324.949H31.3506C21.3312 324.949 13.209 316.826 13.209 306.807V244.826Z" fill="#B7B7B7"/>
<path fill-rule="evenodd" clip-rule="evenodd" d="M492.388 197.5L479.771 229H430.771L497.271 54L573.771 54L538.771 229H490.057L501.477 197.5H492.388ZM510.257 163.977H501.477L524.941 111.167L510.257 163.977Z" fill="#ECECEC"/>
<path d="M613.771 54H664.771L645.079 120.203L690.771 54H741.771L675.199 229H624.861L646.458 158.145L598.21 229H547.771L613.771 54Z" fill="#ECECEC"/>
<path d="M678.447 14H706.146L693.186 46.3005H665.771L678.447 14Z" fill="#ECECEC"/>
<path d="M168.771 54H219.771L200.079 120.203L245.771 54H296.771L230.199 229H179.861L201.458 158.145L153.21 229H102.771L168.771 54Z" fill="#ECECEC"/>
<path d="M318.271 54L303.175 94.3056H359.175L310.771 229H361.271L407.175 94.3056H463.261L477.271 54H318.271Z" fill="#ECECEC"/>
<path d="M86.2705 229H35.7705L64.7323 152.981H38.6109C21.5378 152.981 9.74233 135.899 15.7911 119.933L40.7705 54H91.2705L68.7727 114.128C67.5616 117.365 69.9547 120.816 73.4106 120.816C75.5032 120.816 77.3699 119.5 78.074 117.53L100.771 54H151.271L86.2705 229Z" fill="#ECECEC"/>
</svg>
