<svg width="811" height="596" viewBox="0 0 811 596" fill="none" xmlns="http://www.w3.org/2000/svg">
<path d="M740.608 521.236C739.846 523.505 737.582 524.915 735.209 524.6L565.079 501.959C563.484 501.746 562.092 500.789 561.339 499.367C550.387 478.702 530.595 438.684 530.423 427.381C530.25 416.01 591.028 351.022 624.235 317.054C625.987 315.261 626.147 312.45 624.606 310.473L581.852 255.632C580.61 254.039 580.449 251.857 581.441 250.099L609.138 201.046C609.897 199.701 611.235 198.783 612.762 198.558L669.45 190.2C672.182 189.797 674.07 187.256 673.667 184.524L668.764 151.269C668.361 148.537 670.249 145.996 672.981 145.593L710.168 140.11C712.9 139.707 715.441 141.595 715.844 144.327L721.229 180.847C721.39 181.937 721.906 182.944 722.698 183.711L745.423 205.705C745.916 206.183 746.305 206.756 746.567 207.391L774.735 275.646C775.586 277.709 774.967 280.087 773.218 281.472L716.757 326.206C713.908 328.463 714.344 332.911 717.577 334.572L766.018 359.46C767.8 360.376 768.863 362.267 768.72 364.266L762.067 456.88C762.037 457.3 761.954 457.715 761.819 458.114L740.608 521.236Z" stroke="#00CB4E" stroke-width="2"/>
<path d="M140.429 518.04C141.191 520.31 143.455 521.72 145.828 521.404L336.075 496.086C337.67 495.874 339.064 494.911 339.818 493.49C351.988 470.547 374.194 425.695 374.386 413.059C374.579 400.353 306.445 327.541 269.54 289.81C267.787 288.018 267.636 285.216 269.178 283.239L317.338 221.463C318.579 219.871 318.741 217.689 317.748 215.931L286.576 160.722C285.817 159.378 284.479 158.459 282.951 158.234L218.973 148.801C216.241 148.398 214.353 145.857 214.756 143.125L220.383 104.959C220.786 102.227 218.898 99.686 216.166 99.2832L173.621 93.0102C170.889 92.6074 168.348 94.4955 167.945 97.2274L161.836 138.658C161.676 139.749 161.159 140.755 160.367 141.522L134.832 166.237C134.339 166.714 133.949 167.288 133.687 167.922L102.105 244.452C101.254 246.515 101.873 248.892 103.622 250.278L167.538 300.918C170.387 303.175 169.951 307.623 166.718 309.284L111.644 337.58C109.862 338.495 108.798 340.387 108.942 342.385L116.384 445.987C116.414 446.407 116.497 446.822 116.631 447.222L140.429 518.04Z" stroke="#00CB4E" stroke-width="2"/>
<path d="M364.43 432.262C365.192 434.531 367.456 435.941 369.829 435.625L560.076 410.307C561.671 410.095 563.065 409.132 563.819 407.711C575.989 384.769 598.195 339.916 598.387 327.28C598.58 314.574 530.446 241.762 493.541 204.032C491.788 202.239 491.637 199.437 493.179 197.46L541.339 135.685C542.58 134.092 542.742 131.91 541.749 130.152L510.577 74.9434C509.817 73.5988 508.48 72.6804 506.952 72.4552L442.974 63.022C440.242 62.6192 438.354 60.078 438.757 57.3462L444.384 19.1803C444.787 16.4484 442.899 13.9072 440.167 13.5044L397.622 7.23139C394.89 6.82858 392.349 8.71668 391.946 11.4486L385.837 52.8796C385.677 53.9699 385.16 54.9765 384.368 55.743L358.833 80.4579C358.34 80.9352 357.95 81.5089 357.688 82.1433L326.106 158.673C325.255 160.736 325.874 163.113 327.623 164.499L391.539 215.139C394.388 217.396 393.952 221.844 390.719 223.505L335.645 251.801C333.863 252.717 332.799 254.608 332.943 256.607L340.385 360.208C340.415 360.629 340.498 361.043 340.632 361.443L364.43 432.262Z" stroke="#00CB4E" stroke-width="2"/>
<path d="M24.7351 561.114C21.0911 564.087 23.193 569.989 27.8956 569.989H360.245C364.481 569.989 366.798 565.049 364.089 561.791L344.478 538.212C342.873 536.282 342.948 533.461 344.653 531.619L367.759 506.652C369.534 504.733 369.532 501.771 367.754 499.854L344.307 474.594C342.756 472.924 342.532 470.416 343.761 468.496L365.977 433.805C368.109 430.477 365.719 426.109 361.767 426.109H217.116C214.782 426.109 212.758 424.494 212.241 422.218L202.638 379.988C202.067 377.479 199.686 375.813 197.134 376.136L154.913 381.486C151.845 381.874 149.863 384.926 150.754 387.887L160.318 419.668C161.283 422.877 158.881 426.109 155.53 426.109H66.085C62.1331 426.109 59.7431 430.477 61.8744 433.805L82.8154 466.505C84.5411 469.199 83.3266 472.799 80.3211 473.897L10.283 499.493C6.25893 500.964 5.82731 506.483 9.57386 508.562L50.4903 531.258C53.5828 532.973 53.9658 537.269 51.2254 539.505L24.7351 561.114Z" fill="#9F5FE7"/>
<path d="M312.01 530.324C313.095 532.461 315.543 533.528 317.847 532.867L467.337 490.007C468.883 489.564 470.119 488.415 470.655 486.899C477.781 466.753 490.188 428.278 488.848 418.1C487.499 407.856 424.556 357.609 390.104 331.335C388.113 329.816 387.55 327.066 388.783 324.887L419.645 270.346C420.638 268.592 420.48 266.413 419.245 264.82L388.131 224.683C387.184 223.462 385.725 222.747 384.179 222.747H332.74C329.979 222.747 327.74 220.508 327.74 217.747V188C327.74 185.239 325.502 183 322.74 183H289.458C286.696 183 284.458 185.239 284.458 188V221.05C284.458 222.15 284.095 223.22 283.425 224.093L266.042 246.752C265.625 247.296 265.324 247.92 265.158 248.585L248.971 313.458C248.431 315.621 249.388 317.88 251.318 318.996L307.174 351.311C310.318 353.13 310.535 357.587 307.583 359.703L268.091 388.013C266.465 389.179 265.69 391.202 266.122 393.156L284.321 475.434C284.412 475.845 284.554 476.242 284.745 476.617L312.01 530.324Z" fill="#00CB4E"/>
<path d="M308.789 587.3C305.446 590.388 307.63 595.973 312.182 595.973H758.098C762.375 595.973 764.677 590.952 761.887 587.711L702.52 518.753C700.654 516.587 700.983 513.3 703.239 511.544L743.745 480.041C746.252 478.091 746.33 474.328 743.905 472.277L674.63 413.669C672.112 411.539 672.31 407.598 675.028 405.731L719.488 375.189C722.456 373.15 722.361 368.737 719.308 366.828L654.679 326.416C653.218 325.502 652.33 323.9 652.33 322.177V252.098C652.33 248.978 649.504 246.62 646.435 247.179L594.493 256.632C592.116 257.065 590.389 259.136 590.389 261.552V321.016C590.389 323.323 588.81 325.33 586.568 325.875L414.358 367.682C410.411 368.64 409.193 373.655 412.261 376.317L436.447 397.305C439.527 399.978 438.283 405.017 434.312 405.949L328.486 430.781C322.704 432.138 323.689 440.649 329.628 440.649H401.713C407.27 440.649 408.681 448.356 403.484 450.325L311.98 484.983C306.783 486.951 308.194 494.659 313.751 494.659H383.909C389.155 494.659 390.861 501.706 386.196 504.105L307.622 544.513C304.087 546.33 303.984 551.346 307.441 553.308L325.122 563.343C328.067 565.014 328.534 569.067 326.046 571.365L308.789 587.3Z" fill="#FD6A06"/>
</svg>
