<svg width="34" height="34" viewBox="0 0 34 34" fill="none" xmlns="http://www.w3.org/2000/svg">
<path d="M18.8564 9.29388L18.4967 19.5138L15.5405 19.5054L15.2385 9.28367L18.8564 9.29388ZM17.0017 24.228C16.4886 24.2265 16.048 24.0431 15.6798 23.6776C15.3164 23.3121 15.1354 22.8705 15.1369 22.3526C15.1383 21.8443 15.3217 21.4109 15.6872 21.0523C16.0574 20.6889 16.4991 20.5079 17.0122 20.5094C17.5061 20.5107 17.9395 20.6942 18.3125 21.0597C18.6903 21.4204 18.8785 21.8549 18.8771 22.3632C18.8761 22.7084 18.7865 23.0222 18.6083 23.3046C18.4349 23.5871 18.2065 23.8118 17.9231 23.9788C17.6445 24.1459 17.3374 24.2289 17.0017 24.228Z" fill="#535353"/>
<path d="M16.6592 2C24.7552 2 31.3184 8.56314 31.3184 16.6592C31.3183 24.7552 24.7552 31.3184 16.6592 31.3184C8.56316 31.3184 2.00003 24.7552 2 16.6592C2 8.56314 8.56314 2 16.6592 2Z" stroke="#535353" stroke-width="4"/>
</svg>
