<svg width="650" height="454" viewBox="0 0 650 454" fill="none" xmlns="http://www.w3.org/2000/svg">
<mask id="mask0_1025_369" style="mask-type:alpha" maskUnits="userSpaceOnUse" x="0" y="0" width="650" height="454">
<rect width="650" height="454" fill="#D9D9D9"/>
</mask>
<g mask="url(#mask0_1025_369)">
<path d="M224.002 13.1889C223.123 11.9515 221.433 11.6105 220.142 12.4099L149.208 56.3428C148.329 56.887 147.81 57.8607 147.847 58.8935L150.074 120.227C150.147 122.236 148.19 123.698 146.284 123.059L82.6989 101.743C81.728 101.418 80.6573 101.633 79.8873 102.308L8.06759 165.277C6.98279 166.228 6.77001 167.836 7.56997 169.036L45.9331 226.613C46.7041 227.771 48.1923 228.211 49.4688 227.659L101.216 205.307C102.567 204.723 104.14 205.253 104.863 206.534L186.344 350.891C187.188 352.386 189.144 352.815 190.535 351.809L336.529 246.323C337.852 245.366 338.116 243.501 337.108 242.215L237.976 115.728C237.036 114.529 237.193 112.806 238.334 111.797L270.639 83.224C271.741 82.2493 271.93 80.6003 271.078 79.4012L224.002 13.1889Z" fill="#FD6A06" stroke="#FD6A06" stroke-width="2.87747"/>
<path d="M129.276 203.286C128.663 201.775 129.387 200.052 130.896 199.434L255.57 148.339C256.682 147.883 257.408 146.801 257.408 145.6V116.066C257.408 114.856 258.144 113.768 259.267 113.318L312.279 92.0872C313.495 91.6005 314.885 91.9699 315.699 92.9955L331.057 112.36C331.861 113.373 333.23 113.747 334.437 113.284L459.019 65.4578C460.492 64.8923 462.15 65.5817 462.788 67.025L491.455 131.917C492.033 133.226 491.593 134.76 490.409 135.563L412.173 188.627C410.706 189.621 410.436 191.673 411.596 193.013L528.586 328.167C529.914 329.701 529.34 332.085 527.461 332.847L270.638 437.004C268.752 437.769 266.674 436.446 266.57 434.413L257.598 259.253C257.501 257.35 255.657 256.033 253.826 256.559L164.207 282.286C162.752 282.703 161.217 281.956 160.648 280.554L129.276 203.286Z" fill="#00CB4E" stroke="#00CB4E" stroke-width="2.36785"/>
<path d="M357.346 126.301C357.517 124.749 358.864 123.596 360.424 123.668L446.159 127.608C447.221 127.657 448.175 128.272 448.658 129.218L477.379 185.437C478.319 187.278 480.81 187.612 482.203 186.083L528.652 135.084C529.362 134.305 530.431 133.962 531.461 134.183L627.526 154.783C628.977 155.094 629.973 156.431 629.856 157.911L624.229 228.855C624.116 230.281 622.999 231.422 621.576 231.566L563.889 237.403C562.383 237.555 561.235 238.819 561.227 240.332L560.329 410.839C560.32 412.604 558.777 413.969 557.023 413.763L373.023 392.117C371.354 391.92 370.184 390.376 370.445 388.717L396.152 225.423C396.396 223.876 395.392 222.407 393.862 222.072L350.526 212.582C349.048 212.258 348.052 210.871 348.217 209.367L357.346 126.301Z" fill="#9F5FE7" stroke="#9F5FE7" stroke-width="2.95981"/>
</g>
</svg>
