<svg width="28" height="30" viewBox="0 0 28 30" fill="none" xmlns="http://www.w3.org/2000/svg">
<path d="M23.0308 25C23.0308 27.2091 21.24 29 19.0308 29C16.8217 29 15.0308 27.2091 15.0308 25C15.0308 22.7909 16.8217 21 19.0308 21C21.24 21 23.0308 22.7909 23.0308 25Z" fill="#F3F3F3"/>
<path d="M13 14.5C13 16.7091 11.2091 18.5 9 18.5C6.79086 18.5 5 16.7091 5 14.5C5 12.2909 6.79086 10.5 9 10.5C11.2091 10.5 13 12.2909 13 14.5Z" fill="#F3F3F3"/>
<path d="M22.9693 4C22.9693 6.20914 21.1784 8 18.9693 8C16.7602 8 14.9693 6.20914 14.9693 4C14.9693 1.79086 16.7602 0 18.9693 0C21.1784 0 22.9693 1.79086 22.9693 4Z" fill="#F3F3F3"/>
<line y1="25.375" x2="28" y2="25.375" stroke="#F3F3F3" stroke-width="3"/>
<line y1="14.875" x2="28" y2="14.875" stroke="#F3F3F3" stroke-width="3"/>
<line y1="4.375" x2="28" y2="4.375" stroke="#F3F3F3" stroke-width="3"/>
</svg>
