<svg width="51" height="70" viewBox="0 0 51 70" fill="none" xmlns="http://www.w3.org/2000/svg">
<path d="M37.6296 22.1649L43.3425 32.8214L26.6272 29.9915L16.0154 39.3965L29.0476 41.6697L8.43774 42.7494L16.7039 29.6625L14.8371 37.858L25.1084 27.3555L37.6296 22.1649Z" fill="#00CB4E"/>
<path d="M19.3333 14.8704L3.88969 43.8157L24.4824 61.2089V52.5141L27.4545 69.5582L9.83757 63.3826H22.766L0 45.6475L11.8994 0L19.3333 14.8704Z" fill="#9F5FE7"/>
<path d="M28.3636 65.9115L27.0491 60.0687L36.1552 52.7004L35 42.6832L28.3635 49.3509L32.8918 37.0917L43.8551 41.2933L36.3767 42.6237L38.3103 52.8898L28.3636 65.9115Z" fill="#FD6A06" stroke="black" stroke-width="0.0252571"/>
</svg>
