<svg width="477" height="283" viewBox="0 0 477 283" fill="none" xmlns="http://www.w3.org/2000/svg">
<g clip-path="url(#clip0_5320_3784)">
<g filter="url(#filter0_ii_5320_3784)">
<path d="M81.0567 177H30L60.7375 96.7113H42.7148L48.1216 82.1134H66.1443L91.376 14.5979H48.1216L53.5284 0H148L117.201 82.1134H135.223L129.817 96.7113H111.794L81.0567 177Z" fill="#F2F53A"/>
</g>
<g filter="url(#filter1_ii_5320_3784)">
<path fill-rule="evenodd" clip-rule="evenodd" d="M234.884 177L302.557 0H185.723L116.453 177H234.884ZM182.506 143.96H194.698C195.523 143.96 196.264 143.453 196.563 142.684L238.293 35.1737C238.802 33.8628 237.834 32.45 236.428 32.45H225.788L182.506 143.96Z" fill="#F2F53A"/>
</g>
<g filter="url(#filter2_ii_5320_3784)">
<path d="M428.642 177.176H359L376.636 133H445.299L428.642 177.176ZM349 177H320L387 0H415.5L349 177ZM390.218 168.785H404.1L416.928 140.47H403.046L390.218 168.785ZM359.642 44.1758H290L307.636 0H376.299L359.642 44.1758ZM321.218 35.7852H335.1L347.928 7.46973H334.046L321.218 35.7852Z" fill="#F2F53A"/>
</g>
<g filter="url(#filter3_ii_5320_3784)">
<rect x="353.965" y="218" width="122.831" height="65.2113" rx="22.6408" fill="#D4D4D4"/>
</g>
<g filter="url(#filter4_ii_5320_3784)">
<rect y="218" width="346.041" height="65.2113" rx="22.6408" fill="#F2F53A"/>
</g>
<path d="M76.5568 263V239.727H80.0682V249.841H91.6705V239.727H95.1932V263H91.6705V252.852H80.0682V263H76.5568ZM104.474 263.386C103.368 263.386 102.368 263.182 101.474 262.773C100.58 262.356 99.8714 261.754 99.3486 260.966C98.8335 260.178 98.5759 259.212 98.5759 258.068C98.5759 257.083 98.7653 256.273 99.1441 255.636C99.5229 255 100.034 254.496 100.678 254.125C101.322 253.754 102.042 253.473 102.837 253.284C103.633 253.095 104.443 252.951 105.269 252.852C106.315 252.731 107.163 252.633 107.815 252.557C108.466 252.473 108.94 252.341 109.235 252.159C109.53 251.977 109.678 251.682 109.678 251.273V251.193C109.678 250.201 109.398 249.432 108.837 248.886C108.284 248.341 107.458 248.068 106.36 248.068C105.216 248.068 104.315 248.322 103.655 248.83C103.004 249.33 102.553 249.886 102.303 250.5L99.11 249.773C99.4888 248.712 100.042 247.856 100.769 247.205C101.504 246.545 102.349 246.068 103.303 245.773C104.258 245.47 105.262 245.318 106.315 245.318C107.012 245.318 107.75 245.402 108.53 245.568C109.318 245.727 110.053 246.023 110.735 246.455C111.424 246.886 111.989 247.504 112.428 248.307C112.868 249.102 113.087 250.136 113.087 251.409V263H109.769V260.614H109.633C109.413 261.053 109.083 261.485 108.644 261.909C108.205 262.333 107.64 262.686 106.951 262.966C106.262 263.246 105.436 263.386 104.474 263.386ZM105.212 260.659C106.152 260.659 106.955 260.473 107.621 260.102C108.296 259.731 108.807 259.246 109.155 258.648C109.512 258.042 109.69 257.394 109.69 256.705V254.455C109.568 254.576 109.333 254.689 108.985 254.795C108.644 254.894 108.254 254.981 107.815 255.057C107.375 255.125 106.947 255.189 106.53 255.25C106.114 255.303 105.765 255.348 105.485 255.386C104.826 255.47 104.224 255.61 103.678 255.807C103.14 256.004 102.708 256.288 102.383 256.659C102.065 257.023 101.905 257.508 101.905 258.114C101.905 258.955 102.216 259.591 102.837 260.023C103.458 260.447 104.25 260.659 105.212 260.659ZM128.132 245.545V248.477H120.325V263H116.973V245.545H128.132ZM131.083 269.545V245.545H134.401V248.375H134.685C134.882 248.011 135.166 247.591 135.537 247.114C135.909 246.636 136.424 246.22 137.083 245.864C137.742 245.5 138.613 245.318 139.696 245.318C141.106 245.318 142.363 245.674 143.469 246.386C144.575 247.098 145.443 248.125 146.071 249.466C146.708 250.807 147.026 252.42 147.026 254.307C147.026 256.193 146.712 257.811 146.083 259.159C145.454 260.5 144.59 261.534 143.492 262.261C142.393 262.981 141.14 263.341 139.731 263.341C138.67 263.341 137.803 263.163 137.128 262.807C136.462 262.451 135.939 262.034 135.56 261.557C135.181 261.08 134.89 260.655 134.685 260.284H134.481V269.545H131.083ZM134.412 254.273C134.412 255.5 134.59 256.576 134.946 257.5C135.303 258.424 135.818 259.148 136.492 259.67C137.166 260.186 137.992 260.443 138.969 260.443C139.984 260.443 140.833 260.174 141.515 259.636C142.196 259.091 142.712 258.352 143.06 257.42C143.416 256.489 143.594 255.439 143.594 254.273C143.594 253.121 143.42 252.087 143.071 251.17C142.731 250.254 142.215 249.53 141.526 249C140.844 248.47 139.992 248.205 138.969 248.205C137.984 248.205 137.151 248.458 136.469 248.966C135.795 249.473 135.284 250.182 134.935 251.091C134.587 252 134.412 253.061 134.412 254.273ZM157.716 263.352C155.996 263.352 154.515 262.985 153.272 262.25C152.038 261.508 151.083 260.466 150.409 259.125C149.742 257.777 149.409 256.197 149.409 254.386C149.409 252.598 149.742 251.023 150.409 249.659C151.083 248.295 152.022 247.231 153.227 246.466C154.439 245.701 155.856 245.318 157.477 245.318C158.462 245.318 159.416 245.481 160.341 245.807C161.265 246.133 162.094 246.644 162.829 247.341C163.564 248.038 164.144 248.943 164.568 250.057C164.992 251.163 165.204 252.508 165.204 254.091V255.295H151.329V252.75H161.875C161.875 251.856 161.693 251.064 161.329 250.375C160.966 249.678 160.454 249.129 159.795 248.727C159.144 248.326 158.378 248.125 157.5 248.125C156.545 248.125 155.712 248.36 155 248.83C154.295 249.292 153.75 249.898 153.363 250.648C152.985 251.39 152.795 252.197 152.795 253.068V255.057C152.795 256.223 153 257.216 153.409 258.034C153.825 258.852 154.405 259.477 155.147 259.909C155.89 260.333 156.757 260.545 157.75 260.545C158.394 260.545 158.981 260.455 159.511 260.273C160.041 260.083 160.5 259.803 160.886 259.432C161.272 259.061 161.568 258.602 161.772 258.057L164.988 258.636C164.731 259.583 164.269 260.413 163.602 261.125C162.943 261.83 162.113 262.379 161.113 262.773C160.121 263.159 158.988 263.352 157.716 263.352ZM168.334 263V245.545H175.573C177.542 245.545 179.103 245.966 180.255 246.807C181.406 247.64 181.982 248.773 181.982 250.205C181.982 251.227 181.656 252.038 181.005 252.636C180.353 253.235 179.489 253.636 178.414 253.841C179.194 253.932 179.91 254.167 180.561 254.545C181.213 254.917 181.736 255.417 182.13 256.045C182.531 256.674 182.732 257.424 182.732 258.295C182.732 259.22 182.493 260.038 182.016 260.75C181.539 261.455 180.845 262.008 179.936 262.409C179.035 262.803 177.948 263 176.675 263H168.334ZM171.527 260.159H176.675C177.516 260.159 178.175 259.958 178.652 259.557C179.13 259.155 179.368 258.61 179.368 257.92C179.368 257.11 179.13 256.473 178.652 256.011C178.175 255.542 177.516 255.307 176.675 255.307H171.527V260.159ZM171.527 252.818H175.607C176.243 252.818 176.789 252.727 177.243 252.545C177.705 252.364 178.058 252.106 178.3 251.773C178.55 251.432 178.675 251.03 178.675 250.568C178.675 249.894 178.398 249.367 177.845 248.989C177.292 248.61 176.535 248.42 175.573 248.42H171.527V252.818ZM193.648 263V245.545H200.886C202.856 245.545 204.417 245.966 205.568 246.807C206.72 247.64 207.296 248.773 207.296 250.205C207.296 251.227 206.97 252.038 206.318 252.636C205.667 253.235 204.803 253.636 203.727 253.841C204.508 253.932 205.224 254.167 205.875 254.545C206.527 254.917 207.049 255.417 207.443 256.045C207.845 256.674 208.046 257.424 208.046 258.295C208.046 259.22 207.807 260.038 207.33 260.75C206.852 261.455 206.159 262.008 205.25 262.409C204.349 262.803 203.261 263 201.989 263H193.648ZM196.841 260.159H201.989C202.83 260.159 203.489 259.958 203.966 259.557C204.443 259.155 204.682 258.61 204.682 257.92C204.682 257.11 204.443 256.473 203.966 256.011C203.489 255.542 202.83 255.307 201.989 255.307H196.841V260.159ZM196.841 252.818H200.921C201.557 252.818 202.102 252.727 202.557 252.545C203.019 252.364 203.371 252.106 203.614 251.773C203.864 251.432 203.989 251.03 203.989 250.568C203.989 249.894 203.712 249.367 203.159 248.989C202.606 248.61 201.849 248.42 200.886 248.42H196.841V252.818ZM218.485 263.352C216.849 263.352 215.421 262.977 214.201 262.227C212.981 261.477 212.034 260.428 211.36 259.08C210.686 257.731 210.349 256.155 210.349 254.352C210.349 252.542 210.686 250.958 211.36 249.602C212.034 248.246 212.981 247.193 214.201 246.443C215.421 245.693 216.849 245.318 218.485 245.318C220.121 245.318 221.55 245.693 222.769 246.443C223.989 247.193 224.936 248.246 225.61 249.602C226.284 250.958 226.621 252.542 226.621 254.352C226.621 256.155 226.284 257.731 225.61 259.08C224.936 260.428 223.989 261.477 222.769 262.227C221.55 262.977 220.121 263.352 218.485 263.352ZM218.496 260.5C219.557 260.5 220.436 260.22 221.133 259.659C221.83 259.098 222.345 258.352 222.678 257.42C223.019 256.489 223.19 255.462 223.19 254.341C223.19 253.227 223.019 252.205 222.678 251.273C222.345 250.333 221.83 249.58 221.133 249.011C220.436 248.443 219.557 248.159 218.496 248.159C217.428 248.159 216.542 248.443 215.837 249.011C215.14 249.58 214.621 250.333 214.281 251.273C213.947 252.205 213.781 253.227 213.781 254.341C213.781 255.462 213.947 256.489 214.281 257.42C214.621 258.352 215.14 259.098 215.837 259.659C216.542 260.22 217.428 260.5 218.496 260.5ZM228.07 268.034V260.057H229.49C229.854 259.723 230.16 259.326 230.41 258.864C230.668 258.402 230.884 257.852 231.058 257.216C231.24 256.58 231.392 255.837 231.513 254.989C231.634 254.133 231.74 253.155 231.831 252.057L232.376 245.545H244.24V260.057H246.922V268.034H243.604V263H231.433V268.034H228.07ZM233.126 260.057H240.922V248.455H235.422L235.058 252.057C234.884 253.89 234.664 255.481 234.399 256.83C234.134 258.17 233.71 259.246 233.126 260.057ZM252.16 251.545H257.228C259.364 251.545 261.008 252.076 262.16 253.136C263.311 254.197 263.887 255.564 263.887 257.239C263.887 258.33 263.629 259.311 263.114 260.182C262.599 261.053 261.845 261.742 260.853 262.25C259.86 262.75 258.652 263 257.228 263H249.603V245.545H252.932V260.068H257.228C258.205 260.068 259.008 259.814 259.637 259.307C260.266 258.792 260.58 258.136 260.58 257.341C260.58 256.5 260.266 255.814 259.637 255.284C259.008 254.746 258.205 254.477 257.228 254.477H252.16V251.545ZM266.364 263V245.545H269.762V263H266.364Z" fill="#B1B1B1"/>
</g>
<defs>
<filter id="filter0_ii_5320_3784" x="30" y="-4" width="118" height="187" filterUnits="userSpaceOnUse" color-interpolation-filters="sRGB">
<feFlood flood-opacity="0" result="BackgroundImageFix"/>
<feBlend mode="normal" in="SourceGraphic" in2="BackgroundImageFix" result="shape"/>
<feColorMatrix in="SourceAlpha" type="matrix" values="0 0 0 0 0 0 0 0 0 0 0 0 0 0 0 0 0 0 127 0" result="hardAlpha"/>
<feOffset dy="-4"/>
<feGaussianBlur stdDeviation="3"/>
<feComposite in2="hardAlpha" operator="arithmetic" k2="-1" k3="1"/>
<feColorMatrix type="matrix" values="0 0 0 0 0 0 0 0 0 0 0 0 0 0 0 0 0 0 0.2 0"/>
<feBlend mode="normal" in2="shape" result="effect1_innerShadow_5320_3784"/>
<feColorMatrix in="SourceAlpha" type="matrix" values="0 0 0 0 0 0 0 0 0 0 0 0 0 0 0 0 0 0 127 0" result="hardAlpha"/>
<feOffset dy="6"/>
<feGaussianBlur stdDeviation="3"/>
<feComposite in2="hardAlpha" operator="arithmetic" k2="-1" k3="1"/>
<feColorMatrix type="matrix" values="0 0 0 0 1 0 0 0 0 1 0 0 0 0 1 0 0 0 0.8 0"/>
<feBlend mode="normal" in2="effect1_innerShadow_5320_3784" result="effect2_innerShadow_5320_3784"/>
</filter>
<filter id="filter1_ii_5320_3784" x="116.453" y="-4" width="186.104" height="187" filterUnits="userSpaceOnUse" color-interpolation-filters="sRGB">
<feFlood flood-opacity="0" result="BackgroundImageFix"/>
<feBlend mode="normal" in="SourceGraphic" in2="BackgroundImageFix" result="shape"/>
<feColorMatrix in="SourceAlpha" type="matrix" values="0 0 0 0 0 0 0 0 0 0 0 0 0 0 0 0 0 0 127 0" result="hardAlpha"/>
<feOffset dy="-4"/>
<feGaussianBlur stdDeviation="3"/>
<feComposite in2="hardAlpha" operator="arithmetic" k2="-1" k3="1"/>
<feColorMatrix type="matrix" values="0 0 0 0 0 0 0 0 0 0 0 0 0 0 0 0 0 0 0.2 0"/>
<feBlend mode="normal" in2="shape" result="effect1_innerShadow_5320_3784"/>
<feColorMatrix in="SourceAlpha" type="matrix" values="0 0 0 0 0 0 0 0 0 0 0 0 0 0 0 0 0 0 127 0" result="hardAlpha"/>
<feOffset dy="6"/>
<feGaussianBlur stdDeviation="3"/>
<feComposite in2="hardAlpha" operator="arithmetic" k2="-1" k3="1"/>
<feColorMatrix type="matrix" values="0 0 0 0 1 0 0 0 0 1 0 0 0 0 1 0 0 0 0.8 0"/>
<feBlend mode="normal" in2="effect1_innerShadow_5320_3784" result="effect2_innerShadow_5320_3784"/>
</filter>
<filter id="filter2_ii_5320_3784" x="290" y="-0.832794" width="155.299" height="185.009" filterUnits="userSpaceOnUse" color-interpolation-filters="sRGB">
<feFlood flood-opacity="0" result="BackgroundImageFix"/>
<feBlend mode="normal" in="SourceGraphic" in2="BackgroundImageFix" result="shape"/>
<feColorMatrix in="SourceAlpha" type="matrix" values="0 0 0 0 0 0 0 0 0 0 0 0 0 0 0 0 0 0 127 0" result="hardAlpha"/>
<feOffset dy="-0.832794"/>
<feGaussianBlur stdDeviation="0.624596"/>
<feComposite in2="hardAlpha" operator="arithmetic" k2="-1" k3="1"/>
<feColorMatrix type="matrix" values="0 0 0 0 0 0 0 0 0 0 0 0 0 0 0 0 0 0 0.2 0"/>
<feBlend mode="normal" in2="shape" result="effect1_innerShadow_5320_3784"/>
<feColorMatrix in="SourceAlpha" type="matrix" values="0 0 0 0 0 0 0 0 0 0 0 0 0 0 0 0 0 0 127 0" result="hardAlpha"/>
<feOffset dy="7"/>
<feGaussianBlur stdDeviation="4.5"/>
<feComposite in2="hardAlpha" operator="arithmetic" k2="-1" k3="1"/>
<feColorMatrix type="matrix" values="0 0 0 0 1 0 0 0 0 1 0 0 0 0 1 0 0 0 0.8 0"/>
<feBlend mode="normal" in2="effect1_innerShadow_5320_3784" result="effect2_innerShadow_5320_3784"/>
</filter>
<filter id="filter3_ii_5320_3784" x="353.965" y="214" width="122.831" height="75.2114" filterUnits="userSpaceOnUse" color-interpolation-filters="sRGB">
<feFlood flood-opacity="0" result="BackgroundImageFix"/>
<feBlend mode="normal" in="SourceGraphic" in2="BackgroundImageFix" result="shape"/>
<feColorMatrix in="SourceAlpha" type="matrix" values="0 0 0 0 0 0 0 0 0 0 0 0 0 0 0 0 0 0 127 0" result="hardAlpha"/>
<feOffset dy="-4"/>
<feGaussianBlur stdDeviation="3"/>
<feComposite in2="hardAlpha" operator="arithmetic" k2="-1" k3="1"/>
<feColorMatrix type="matrix" values="0 0 0 0 0 0 0 0 0 0 0 0 0 0 0 0 0 0 0.2 0"/>
<feBlend mode="normal" in2="shape" result="effect1_innerShadow_5320_3784"/>
<feColorMatrix in="SourceAlpha" type="matrix" values="0 0 0 0 0 0 0 0 0 0 0 0 0 0 0 0 0 0 127 0" result="hardAlpha"/>
<feOffset dy="6"/>
<feGaussianBlur stdDeviation="3"/>
<feComposite in2="hardAlpha" operator="arithmetic" k2="-1" k3="1"/>
<feColorMatrix type="matrix" values="0 0 0 0 1 0 0 0 0 1 0 0 0 0 1 0 0 0 0.8 0"/>
<feBlend mode="normal" in2="effect1_innerShadow_5320_3784" result="effect2_innerShadow_5320_3784"/>
</filter>
<filter id="filter4_ii_5320_3784" x="0" y="214" width="346.041" height="75.2114" filterUnits="userSpaceOnUse" color-interpolation-filters="sRGB">
<feFlood flood-opacity="0" result="BackgroundImageFix"/>
<feBlend mode="normal" in="SourceGraphic" in2="BackgroundImageFix" result="shape"/>
<feColorMatrix in="SourceAlpha" type="matrix" values="0 0 0 0 0 0 0 0 0 0 0 0 0 0 0 0 0 0 127 0" result="hardAlpha"/>
<feOffset dy="-4"/>
<feGaussianBlur stdDeviation="3"/>
<feComposite in2="hardAlpha" operator="arithmetic" k2="-1" k3="1"/>
<feColorMatrix type="matrix" values="0 0 0 0 0 0 0 0 0 0 0 0 0 0 0 0 0 0 0.2 0"/>
<feBlend mode="normal" in2="shape" result="effect1_innerShadow_5320_3784"/>
<feColorMatrix in="SourceAlpha" type="matrix" values="0 0 0 0 0 0 0 0 0 0 0 0 0 0 0 0 0 0 127 0" result="hardAlpha"/>
<feOffset dy="6"/>
<feGaussianBlur stdDeviation="3"/>
<feComposite in2="hardAlpha" operator="arithmetic" k2="-1" k3="1"/>
<feColorMatrix type="matrix" values="0 0 0 0 1 0 0 0 0 1 0 0 0 0 1 0 0 0 0.8 0"/>
<feBlend mode="normal" in2="effect1_innerShadow_5320_3784" result="effect2_innerShadow_5320_3784"/>
</filter>
<clipPath id="clip0_5320_3784">
<rect width="477" height="283" fill="white"/>
</clipPath>
</defs>
</svg>
