<svg width="46" height="40" viewBox="0 0 46 40" fill="none" xmlns="http://www.w3.org/2000/svg">
<ellipse cx="6.61764" cy="2.99692" rx="6.61764" ry="2.99692" transform="matrix(0.871087 -0.49113 0.48347 0.875361 31.5742 15.4155)" fill="#283238"/>
<ellipse cx="6.65242" cy="2.73595" rx="6.65242" ry="2.73595" transform="matrix(0.500088 -0.865975 0.861453 0.507838 27.043 13.208)" fill="#283238"/>
<ellipse cx="6.66973" cy="2.45195" rx="6.66973" ry="2.45195" transform="matrix(0.0038639 -0.999993 0.999992 0.00394438 22.748 13.3394)" fill="#283238"/>
<ellipse cx="6.64965" cy="1.88531" rx="6.64965" ry="1.88531" transform="matrix(-0.538775 -0.84245 0.83735 -0.546668 20.2324 15.79)" fill="#283238"/>
<ellipse cx="6.61912" cy="1.54645" rx="6.61912" ry="1.54645" transform="matrix(-0.858463 -0.512876 0.505102 -0.86306 19.0879 18.9355)" fill="#283238"/>
<path d="M38.5736 21.4453C38.5736 23.8661 38.1017 26.2631 37.1848 28.4996C36.2679 30.7361 34.924 32.7683 33.2298 34.48C31.5356 36.1917 29.5243 37.5496 27.3108 38.476C25.0972 39.4023 22.7247 39.8792 20.3288 39.8792C17.9329 39.8792 15.5604 39.4023 13.3468 38.476C11.1332 37.5496 9.12195 36.1917 7.42777 34.48C5.73358 32.7683 4.38967 30.7361 3.47279 28.4996C2.5559 26.2631 2.08398 23.8661 2.08398 21.4453H7.61657C7.61657 23.132 7.94538 24.8022 8.58423 26.3605C9.22308 27.9188 10.1595 29.3347 11.3399 30.5273C12.5203 31.72 13.9217 32.6661 15.464 33.3116C17.0064 33.957 18.6594 34.2892 20.3288 34.2892C21.9982 34.2892 23.6512 33.957 25.1936 33.3116C26.7359 32.6661 28.1373 31.72 29.3177 30.5273C30.4981 29.3347 31.4345 27.9188 32.0734 26.3605C32.7122 24.8022 33.041 23.132 33.041 21.4453H38.5736Z" fill="#283238"/>
<path d="M1.9995 38.9038V23.0001H17.8594" stroke="#283238" stroke-width="4"/>
</svg>
